M48
; DRILL file {KiCad 6.0.7-f9a2dced07~116~ubuntu22.04.1} date Thu 22 Sep 2022 09:51:43
; FORMAT={-:-/ absolute / metric / decimal}
; #@! TF.CreationDate,2022-09-22T09:51:43+10:00
; #@! TF.GenerationSoftware,Kicad,Pcbnew,6.0.7-f9a2dced07~116~ubuntu22.04.1
; #@! TF.FileFunction,Plated,1,4,PTH
FMAT,2
METRIC
; #@! TA.AperFunction,Plated,PTH,ViaDrill
T1C0.200
; #@! TA.AperFunction,Plated,PTH,ViaDrill
T2C0.300
; #@! TA.AperFunction,Plated,PTH,ComponentDrill
T3C0.300
%
G90
G05
T1
X26.6Y-38.1
X26.6Y-38.7
X26.6Y-39.3
X26.6Y-63.1
X26.6Y-63.7
X26.6Y-64.3
X26.6Y-88.1
X26.6Y-88.7
X26.6Y-89.3
X26.65Y-47.3
X26.65Y-48.1
X26.65Y-72.3
X26.65Y-73.1
X26.65Y-97.3
X26.65Y-98.1
X26.675Y-43.5
X26.675Y-44.25
X26.675Y-44.925
X26.675Y-45.725
X26.675Y-46.525
X26.675Y-48.875
X26.675Y-49.55
X26.675Y-68.5
X26.675Y-69.25
X26.675Y-69.925
X26.675Y-70.725
X26.675Y-71.525
X26.675Y-73.875
X26.675Y-74.55
X26.675Y-93.5
X26.675Y-94.25
X26.675Y-94.925
X26.675Y-95.725
X26.675Y-96.525
X26.675Y-98.875
X26.675Y-99.55
X26.7Y-40.0
X26.7Y-65.0
X26.7Y-90.0
X26.75Y-29.925
X26.75Y-54.925
X26.75Y-79.925
X26.775Y-30.75
X26.775Y-31.475
X26.775Y-55.75
X26.775Y-56.475
X26.775Y-80.75
X26.775Y-81.475
X26.825Y-26.925
X26.825Y-29.125
X26.825Y-51.925
X26.825Y-54.125
X26.825Y-76.925
X26.825Y-79.125
X26.85Y-27.625
X26.85Y-28.325
X26.85Y-52.625
X26.85Y-53.325
X26.85Y-77.625
X26.85Y-78.325
X27.0Y-40.7
X27.0Y-65.7
X27.0Y-90.7
X27.125Y-50.15
X27.125Y-75.15
X27.125Y-100.15
X27.3Y-41.3
X27.3Y-66.3
X27.3Y-91.3
X27.975Y-50.275
X27.975Y-75.275
X27.975Y-100.275
X28.1Y-40.1
X28.1Y-42.2
X28.1Y-42.8
X28.1Y-65.1
X28.1Y-67.2
X28.1Y-67.8
X28.1Y-90.1
X28.1Y-92.2
X28.1Y-92.8
X28.2Y-38.8
X28.2Y-63.8
X28.2Y-88.8
X28.25Y-38.0
X28.25Y-63.0
X28.25Y-88.0
X28.975Y-50.3
X28.975Y-75.3
X28.975Y-100.3
X29.1Y-34.0
X29.1Y-59.0
X29.1Y-84.0
X29.4Y-28.975
X29.4Y-53.975
X29.4Y-78.975
X29.425Y-30.425
X29.425Y-55.425
X29.425Y-80.425
X29.875Y-50.275
X29.875Y-75.275
X29.875Y-100.275
X30.152Y-41.588
X30.152Y-66.588
X30.152Y-91.588
X30.725Y-50.225
X30.725Y-75.225
X30.725Y-100.225
X30.75Y-29.025
X30.75Y-54.025
X30.75Y-79.025
X31.0Y-43.5
X31.0Y-68.5
X31.0Y-93.5
X31.55Y-50.225
X31.55Y-75.225
X31.55Y-100.225
X31.75Y-43.75
X31.75Y-68.75
X31.75Y-93.75
X32.05Y-29.0
X32.05Y-54.0
X32.05Y-79.0
X32.2Y-38.195
X32.2Y-63.195
X32.2Y-88.195
X32.8Y-49.7
X32.8Y-74.7
X32.8Y-99.7
X33.0Y-44.2
X33.0Y-69.2
X33.0Y-94.2
X33.3Y-28.95
X33.3Y-53.95
X33.3Y-78.95
X33.375Y-48.125
X33.375Y-73.125
X33.375Y-98.125
X33.9Y-30.8
X33.9Y-55.8
X33.9Y-80.8
X34.156Y-40.174
X34.156Y-65.174
X34.156Y-90.174
X34.5Y-29.1
X34.5Y-54.1
X34.5Y-79.1
X34.75Y-47.75
X34.75Y-72.75
X34.75Y-97.75
X35.19Y-36.09
X35.19Y-61.09
X35.19Y-86.09
X35.2Y-30.7
X35.2Y-55.7
X35.2Y-80.7
X35.212Y-46.54
X35.212Y-71.54
X35.212Y-96.54
X35.31Y-38.14
X35.31Y-63.14
X35.31Y-88.14
X35.6Y-49.65
X35.6Y-74.65
X35.6Y-99.65
X35.8Y-29.0
X35.8Y-54.0
X35.8Y-79.0
X35.875Y-34.55
X35.875Y-59.55
X35.875Y-84.55
X35.92Y-40.346
X35.92Y-65.346
X35.92Y-90.346
X35.93Y-41.063
X35.93Y-66.063
X35.93Y-91.063
X36.25Y-36.25
X36.25Y-61.25
X36.25Y-86.25
X36.4Y-30.375
X36.4Y-55.375
X36.4Y-80.375
X37.075Y-29.125
X37.075Y-54.125
X37.075Y-79.125
X37.275Y-34.1
X37.275Y-59.1
X37.275Y-84.1
X37.4Y-44.2
X37.4Y-69.2
X37.4Y-94.2
X37.455Y-36.665
X37.455Y-61.665
X37.455Y-86.665
X37.7Y-30.575
X37.7Y-55.575
X37.7Y-80.575
X38.39Y-39.82
X38.39Y-64.82
X38.39Y-89.82
X38.425Y-32.75
X38.425Y-57.75
X38.425Y-82.75
X38.7Y-44.2
X38.7Y-69.2
X38.7Y-94.2
X38.98Y-36.188
X38.98Y-61.188
X38.98Y-86.188
X39.54Y-39.29
X39.54Y-64.29
X39.54Y-89.29
X39.6Y-29.15
X39.6Y-33.2
X39.6Y-54.15
X39.6Y-58.2
X39.6Y-79.15
X39.6Y-83.2
X39.8Y-46.7
X39.8Y-71.7
X39.8Y-96.7
X40.05Y-39.755
X40.05Y-64.754
X40.05Y-89.754
X40.46Y-38.75
X40.46Y-63.75
X40.46Y-88.751
X40.66Y-41.44
X40.66Y-66.44
X40.66Y-91.44
X40.725Y-35.637
X40.725Y-60.637
X40.725Y-85.637
X40.75Y-33.4
X40.75Y-58.4
X40.75Y-83.4
X40.9Y-29.3
X40.9Y-54.3
X40.9Y-79.3
X41.886Y-41.95
X41.886Y-42.7
X41.886Y-66.95
X41.886Y-67.7
X41.886Y-91.95
X41.886Y-92.7
X41.91Y-43.374
X41.91Y-68.374
X41.91Y-93.374
X42.0Y-32.7
X42.0Y-57.7
X42.0Y-82.7
X42.175Y-29.375
X42.175Y-54.375
X42.175Y-79.375
X42.725Y-48.35
X42.725Y-73.35
X42.725Y-98.35
X43.0Y-46.6
X43.0Y-71.6
X43.0Y-96.6
X43.1Y-30.6
X43.1Y-55.6
X43.1Y-80.6
X43.168Y-36.446
X43.168Y-61.446
X43.168Y-86.446
X43.45Y-29.35
X43.45Y-54.35
X43.45Y-79.35
X43.5Y-47.975
X43.5Y-48.65
X43.5Y-72.975
X43.5Y-73.65
X43.5Y-97.975
X43.5Y-98.65
X43.526Y-32.851
X43.526Y-57.851
X43.526Y-82.851
X43.58Y-43.86
X43.58Y-68.86
X43.58Y-93.86
X43.728Y-43.051
X43.728Y-68.051
X43.728Y-93.051
X44.05Y-30.6
X44.05Y-55.6
X44.05Y-80.6
X44.619Y-43.569
X44.619Y-68.569
X44.619Y-93.569
X44.7Y-29.4
X44.7Y-54.4
X44.7Y-79.4
X44.75Y-32.8
X44.75Y-57.8
X44.75Y-82.8
X45.33Y-38.61
X45.33Y-63.61
X45.33Y-88.61
X45.63Y-43.179
X45.63Y-68.179
X45.63Y-93.179
X46.0Y-29.4
X46.0Y-54.4
X46.0Y-79.4
X46.05Y-43.78
X46.05Y-68.78
X46.05Y-93.78
X46.109Y-32.7
X46.109Y-57.7
X46.109Y-82.7
X46.3Y-30.55
X46.3Y-55.55
X46.3Y-80.55
X46.628Y-43.129
X46.628Y-68.129
X46.628Y-93.129
X47.2Y-29.4
X47.2Y-54.4
X47.2Y-79.4
X47.65Y-36.25
X47.65Y-61.25
X47.65Y-86.25
X47.66Y-40.75
X47.66Y-65.75
X47.66Y-90.75
X47.725Y-50.05
X47.725Y-75.05
X47.725Y-100.05
X48.475Y-49.375
X48.475Y-74.375
X48.475Y-99.375
X48.486Y-32.849
X48.486Y-57.849
X48.486Y-82.849
X48.5Y-50.1
X48.5Y-75.1
X48.5Y-100.1
X48.55Y-29.4
X48.55Y-30.45
X48.55Y-54.4
X48.55Y-55.45
X48.55Y-79.4
X48.55Y-80.45
X49.8Y-29.4
X49.8Y-54.4
X49.8Y-79.4
X49.9Y-31.5
X49.9Y-37.85
X49.9Y-56.5
X49.9Y-62.85
X49.9Y-81.5
X49.9Y-87.85
X50.113Y-37.184
X50.113Y-62.184
X50.113Y-87.184
X50.25Y-30.45
X50.25Y-55.45
X50.25Y-80.45
X50.438Y-35.05
X50.438Y-60.05
X50.438Y-85.05
X50.49Y-41.89
X50.49Y-66.89
X50.49Y-91.89
X50.55Y-35.85
X50.55Y-60.85
X50.55Y-85.85
X50.584Y-34.365
X50.584Y-59.365
X50.584Y-84.365
X50.655Y-36.546
X50.655Y-61.546
X50.655Y-86.546
X50.7Y-47.3
X50.7Y-72.3
X50.7Y-97.3
X51.0Y-29.4
X51.0Y-54.4
X51.0Y-79.4
X51.2Y-33.25
X51.2Y-58.25
X51.2Y-83.25
X51.25Y-39.75
X51.25Y-64.75
X51.25Y-89.75
X51.6Y-30.5
X51.6Y-55.5
X51.6Y-80.5
X51.975Y-46.275
X51.975Y-71.275
X51.975Y-96.275
X52.1Y-47.025
X52.1Y-72.025
X52.1Y-97.025
X52.25Y-34.55
X52.25Y-59.55
X52.25Y-84.55
X52.3Y-29.4
X52.3Y-33.25
X52.3Y-36.4
X52.3Y-38.0
X52.3Y-54.4
X52.3Y-58.25
X52.3Y-61.4
X52.3Y-63.0
X52.3Y-79.4
X52.3Y-83.25
X52.3Y-86.4
X52.3Y-88.0
X52.349Y-39.799
X52.349Y-64.799
X52.349Y-89.799
X52.4Y-49.9
X52.4Y-74.9
X52.4Y-99.9
X52.65Y-46.575
X52.65Y-71.575
X52.65Y-96.575
X53.22Y-45.005
X53.22Y-70.005
X53.22Y-95.005
X53.25Y-40.75
X53.25Y-65.75
X53.25Y-90.75
X53.55Y-49.825
X53.55Y-74.825
X53.55Y-99.825
X53.6Y-29.4
X53.6Y-33.2
X53.6Y-54.4
X53.6Y-58.2
X53.6Y-79.4
X53.6Y-83.2
X53.775Y-49.05
X53.775Y-74.05
X53.775Y-99.05
X54.0Y-34.6
X54.0Y-59.6
X54.0Y-84.6
X54.017Y-38.102
X54.017Y-63.102
X54.017Y-88.102
X54.05Y-36.55
X54.05Y-61.55
X54.05Y-86.55
X54.2Y-46.2
X54.2Y-71.2
X54.2Y-96.2
X54.25Y-49.5
X54.25Y-74.5
X54.25Y-99.5
X54.6Y-48.0
X54.6Y-73.0
X54.6Y-98.0
X54.9Y-29.4
X54.9Y-33.2
X54.9Y-54.4
X54.9Y-58.2
X54.9Y-79.4
X54.9Y-83.2
X55.15Y-35.4
X55.15Y-36.35
X55.15Y-60.4
X55.15Y-61.35
X55.15Y-85.4
X55.15Y-86.35
X55.35Y-40.5
X55.35Y-65.5
X55.35Y-90.5
X55.5Y-42.7
X55.5Y-43.5
X55.5Y-44.25
X55.5Y-45.1
X55.5Y-67.7
X55.5Y-68.5
X55.5Y-69.25
X55.5Y-70.1
X55.5Y-92.7
X55.5Y-93.5
X55.5Y-94.25
X55.5Y-95.1
X55.525Y-30.45
X55.525Y-55.45
X55.525Y-80.45
X56.0Y-40.5
X56.0Y-65.5
X56.0Y-90.5
X56.1Y-42.7
X56.1Y-67.7
X56.1Y-92.7
X56.2Y-29.35
X56.2Y-31.65
X56.2Y-54.35
X56.2Y-56.65
X56.2Y-79.35
X56.2Y-81.65
X56.25Y-43.5
X56.25Y-44.25
X56.25Y-68.5
X56.25Y-69.25
X56.25Y-93.5
X56.25Y-94.25
X56.4Y-45.1
X56.4Y-70.1
X56.4Y-95.1
X56.7Y-40.5
X56.7Y-42.7
X56.7Y-65.5
X56.7Y-67.7
X56.7Y-90.5
X56.7Y-92.7
X56.95Y-34.7
X56.95Y-59.7
X56.95Y-84.7
X57.0Y-35.45
X57.0Y-60.45
X57.0Y-85.45
X57.05Y-34.05
X57.05Y-36.2
X57.05Y-36.9
X57.05Y-37.65
X57.05Y-59.05
X57.05Y-61.2
X57.05Y-61.9
X57.05Y-62.65
X57.05Y-84.05
X57.05Y-86.2
X57.05Y-86.9
X57.05Y-87.65
X57.1Y-33.3
X57.1Y-38.35
X57.1Y-39.05
X57.1Y-39.75
X57.1Y-43.3
X57.1Y-44.3
X57.1Y-45.0
X57.1Y-58.3
X57.1Y-63.35
X57.1Y-64.05
X57.1Y-64.75
X57.1Y-68.3
X57.1Y-69.3
X57.1Y-70.0
X57.1Y-83.3
X57.1Y-88.35
X57.1Y-89.05
X57.1Y-89.75
X57.1Y-93.3
X57.1Y-94.3
X57.1Y-95.0
X57.15Y-26.725
X57.15Y-32.5
X57.15Y-51.725
X57.15Y-57.5
X57.15Y-76.725
X57.15Y-82.5
X57.2Y-27.4
X57.2Y-28.05
X57.2Y-30.75
X57.2Y-31.45
X57.2Y-45.825
X57.2Y-46.45
X57.2Y-47.1
X57.2Y-47.825
X57.2Y-48.525
X57.2Y-52.4
X57.2Y-53.05
X57.2Y-55.75
X57.2Y-56.45
X57.2Y-70.825
X57.2Y-71.45
X57.2Y-72.1
X57.2Y-72.825
X57.2Y-73.525
X57.2Y-77.4
X57.2Y-78.05
X57.2Y-80.75
X57.2Y-81.45
X57.2Y-95.825
X57.2Y-96.45
X57.2Y-97.1
X57.2Y-97.825
X57.2Y-98.525
X57.225Y-28.675
X57.225Y-30.1
X57.225Y-49.2
X57.225Y-49.9
X57.225Y-53.675
X57.225Y-55.1
X57.225Y-74.2
X57.225Y-74.9
X57.225Y-78.675
X57.225Y-80.1
X57.225Y-99.2
X57.225Y-99.9
X57.25Y-29.4
X57.25Y-54.4
X57.25Y-79.4
X64.6Y-38.1
X64.6Y-38.7
X64.6Y-39.3
X64.6Y-63.1
X64.6Y-63.7
X64.6Y-64.3
X64.6Y-88.1
X64.6Y-88.7
X64.6Y-89.3
X64.65Y-47.3
X64.65Y-48.1
X64.65Y-72.3
X64.65Y-73.1
X64.65Y-97.3
X64.65Y-98.1
X64.675Y-43.5
X64.675Y-44.25
X64.675Y-44.925
X64.675Y-45.725
X64.675Y-46.525
X64.675Y-48.875
X64.675Y-49.55
X64.675Y-68.5
X64.675Y-69.25
X64.675Y-69.925
X64.675Y-70.725
X64.675Y-71.525
X64.675Y-73.875
X64.675Y-74.55
X64.675Y-93.5
X64.675Y-94.25
X64.675Y-94.925
X64.675Y-95.725
X64.675Y-96.525
X64.675Y-98.875
X64.675Y-99.55
X64.7Y-40.0
X64.7Y-65.0
X64.7Y-90.0
X64.75Y-29.925
X64.75Y-54.925
X64.75Y-79.925
X64.775Y-30.75
X64.775Y-31.475
X64.775Y-55.75
X64.775Y-56.475
X64.775Y-80.75
X64.775Y-81.475
X64.825Y-26.925
X64.825Y-29.125
X64.825Y-51.925
X64.825Y-54.125
X64.825Y-76.925
X64.825Y-79.125
X64.85Y-27.625
X64.85Y-28.325
X64.85Y-52.625
X64.85Y-53.325
X64.85Y-77.625
X64.85Y-78.325
X65.0Y-40.7
X65.0Y-65.7
X65.0Y-90.7
X65.125Y-50.15
X65.125Y-75.15
X65.125Y-100.15
X65.3Y-41.3
X65.3Y-66.3
X65.3Y-91.3
X65.975Y-50.275
X65.975Y-75.275
X65.975Y-100.275
X66.1Y-40.1
X66.1Y-42.2
X66.1Y-42.8
X66.1Y-65.1
X66.1Y-67.2
X66.1Y-67.8
X66.1Y-90.1
X66.1Y-92.2
X66.1Y-92.8
X66.2Y-38.8
X66.2Y-63.8
X66.2Y-88.8
X66.25Y-38.0
X66.25Y-63.0
X66.25Y-88.0
X66.975Y-50.3
X66.975Y-75.3
X66.975Y-100.3
X67.1Y-34.0
X67.1Y-59.0
X67.1Y-84.0
X67.4Y-28.975
X67.4Y-53.975
X67.4Y-78.975
X67.425Y-30.425
X67.425Y-55.425
X67.425Y-80.425
X67.875Y-50.275
X67.875Y-75.275
X67.875Y-100.275
X68.152Y-41.588
X68.152Y-66.588
X68.152Y-91.588
X68.725Y-50.225
X68.725Y-75.225
X68.725Y-100.225
X68.75Y-29.025
X68.75Y-54.025
X68.75Y-79.025
X69.0Y-43.5
X69.0Y-68.5
X69.0Y-93.5
X69.55Y-50.225
X69.55Y-75.225
X69.55Y-100.225
X69.75Y-43.75
X69.75Y-68.75
X69.75Y-93.75
X70.05Y-29.0
X70.05Y-54.0
X70.05Y-79.0
X70.2Y-38.195
X70.2Y-63.195
X70.2Y-88.195
X70.8Y-49.7
X70.8Y-74.7
X70.8Y-99.7
X71.0Y-44.2
X71.0Y-69.2
X71.0Y-94.2
X71.3Y-28.95
X71.3Y-53.95
X71.3Y-78.95
X71.375Y-48.125
X71.375Y-73.125
X71.375Y-98.125
X71.9Y-30.8
X71.9Y-55.8
X71.9Y-80.8
X72.156Y-40.174
X72.156Y-65.174
X72.156Y-90.174
X72.5Y-29.1
X72.5Y-54.1
X72.5Y-79.1
X72.75Y-47.75
X72.75Y-72.75
X72.75Y-97.75
X73.19Y-36.09
X73.19Y-61.09
X73.19Y-86.09
X73.2Y-30.7
X73.2Y-55.7
X73.2Y-80.7
X73.212Y-46.54
X73.212Y-71.54
X73.212Y-96.54
X73.31Y-38.14
X73.31Y-63.14
X73.31Y-88.14
X73.6Y-49.65
X73.6Y-74.65
X73.6Y-99.65
X73.8Y-29.0
X73.8Y-54.0
X73.8Y-79.0
X73.875Y-34.55
X73.875Y-59.55
X73.875Y-84.55
X73.92Y-40.346
X73.92Y-65.346
X73.92Y-90.346
X73.93Y-41.063
X73.93Y-66.063
X73.93Y-91.063
X74.25Y-36.25
X74.25Y-61.25
X74.25Y-86.25
X74.4Y-30.375
X74.4Y-55.375
X74.4Y-80.375
X75.075Y-29.125
X75.075Y-54.125
X75.075Y-79.125
X75.275Y-34.1
X75.275Y-59.1
X75.275Y-84.1
X75.4Y-44.2
X75.4Y-69.2
X75.4Y-94.2
X75.455Y-36.665
X75.455Y-61.665
X75.455Y-86.665
X75.7Y-30.575
X75.7Y-55.575
X75.7Y-80.575
X76.39Y-39.82
X76.39Y-64.82
X76.39Y-89.82
X76.425Y-32.75
X76.425Y-57.75
X76.425Y-82.75
X76.7Y-44.2
X76.7Y-69.2
X76.7Y-94.2
X76.98Y-36.188
X76.98Y-61.188
X76.98Y-86.188
X77.54Y-39.29
X77.54Y-64.29
X77.54Y-89.29
X77.6Y-29.15
X77.6Y-33.2
X77.6Y-54.15
X77.6Y-58.2
X77.6Y-79.15
X77.6Y-83.2
X77.8Y-46.7
X77.8Y-71.7
X77.8Y-96.7
X78.05Y-39.755
X78.05Y-64.754
X78.05Y-89.754
X78.46Y-38.75
X78.46Y-63.75
X78.46Y-88.751
X78.66Y-41.44
X78.66Y-66.44
X78.66Y-91.44
X78.725Y-35.637
X78.725Y-60.637
X78.725Y-85.637
X78.75Y-33.4
X78.75Y-58.4
X78.75Y-83.4
X78.9Y-29.3
X78.9Y-54.3
X78.9Y-79.3
X79.885Y-41.95
X79.885Y-42.7
X79.885Y-66.95
X79.885Y-67.7
X79.885Y-91.95
X79.885Y-92.7
X79.91Y-43.374
X79.91Y-68.374
X79.91Y-93.374
X80.0Y-32.7
X80.0Y-57.7
X80.0Y-82.7
X80.175Y-29.375
X80.175Y-54.375
X80.175Y-79.375
X80.725Y-48.35
X80.725Y-73.35
X80.725Y-98.35
X81.0Y-46.6
X81.0Y-71.6
X81.0Y-96.6
X81.1Y-30.6
X81.1Y-55.6
X81.1Y-80.6
X81.168Y-36.446
X81.168Y-61.446
X81.168Y-86.446
X81.45Y-29.35
X81.45Y-54.35
X81.45Y-79.35
X81.5Y-47.975
X81.5Y-48.65
X81.5Y-72.975
X81.5Y-73.65
X81.5Y-97.975
X81.5Y-98.65
X81.526Y-32.851
X81.526Y-57.851
X81.526Y-82.851
X81.58Y-43.86
X81.58Y-68.86
X81.58Y-93.86
X81.728Y-43.051
X81.728Y-68.051
X81.728Y-93.051
X82.05Y-30.6
X82.05Y-55.6
X82.05Y-80.6
X82.619Y-43.569
X82.619Y-68.569
X82.619Y-93.569
X82.7Y-29.4
X82.7Y-54.4
X82.7Y-79.4
X82.75Y-32.8
X82.75Y-57.8
X82.75Y-82.8
X83.33Y-38.61
X83.33Y-63.61
X83.33Y-88.61
X83.629Y-43.179
X83.629Y-68.179
X83.629Y-93.179
X84.0Y-29.4
X84.0Y-54.4
X84.0Y-79.4
X84.05Y-43.78
X84.05Y-68.78
X84.05Y-93.78
X84.109Y-32.7
X84.109Y-57.7
X84.109Y-82.7
X84.3Y-30.55
X84.3Y-55.55
X84.3Y-80.55
X84.628Y-43.129
X84.628Y-68.129
X84.628Y-93.129
X85.2Y-29.4
X85.2Y-54.4
X85.2Y-79.4
X85.65Y-36.25
X85.65Y-61.25
X85.65Y-86.25
X85.66Y-40.75
X85.66Y-65.75
X85.66Y-90.75
X85.725Y-50.05
X85.725Y-75.05
X85.725Y-100.05
X86.475Y-49.375
X86.475Y-74.375
X86.475Y-99.375
X86.486Y-32.849
X86.486Y-57.849
X86.486Y-82.849
X86.5Y-50.1
X86.5Y-75.1
X86.5Y-100.1
X86.55Y-29.4
X86.55Y-30.45
X86.55Y-54.4
X86.55Y-55.45
X86.55Y-79.4
X86.55Y-80.45
X87.8Y-29.4
X87.8Y-54.4
X87.8Y-79.4
X87.9Y-31.5
X87.9Y-37.85
X87.9Y-56.5
X87.9Y-62.85
X87.9Y-81.5
X87.9Y-87.85
X88.113Y-37.184
X88.113Y-62.184
X88.113Y-87.184
X88.25Y-30.45
X88.25Y-55.45
X88.25Y-80.45
X88.438Y-35.05
X88.438Y-60.05
X88.438Y-85.05
X88.49Y-41.89
X88.49Y-66.89
X88.49Y-91.89
X88.55Y-35.85
X88.55Y-60.85
X88.55Y-85.85
X88.584Y-34.365
X88.584Y-59.365
X88.584Y-84.365
X88.655Y-36.546
X88.655Y-61.546
X88.655Y-86.546
X88.7Y-47.3
X88.7Y-72.3
X88.7Y-97.3
X89.0Y-29.4
X89.0Y-54.4
X89.0Y-79.4
X89.2Y-33.25
X89.2Y-58.25
X89.2Y-83.25
X89.25Y-39.75
X89.25Y-64.75
X89.25Y-89.75
X89.6Y-30.5
X89.6Y-55.5
X89.6Y-80.5
X89.975Y-46.275
X89.975Y-71.275
X89.975Y-96.275
X90.1Y-47.025
X90.1Y-72.025
X90.1Y-97.025
X90.25Y-34.55
X90.25Y-59.55
X90.25Y-84.55
X90.3Y-29.4
X90.3Y-33.25
X90.3Y-36.4
X90.3Y-38.0
X90.3Y-54.4
X90.3Y-58.25
X90.3Y-61.4
X90.3Y-63.0
X90.3Y-79.4
X90.3Y-83.25
X90.3Y-86.4
X90.3Y-88.0
X90.349Y-39.799
X90.349Y-64.799
X90.349Y-89.799
X90.4Y-49.9
X90.4Y-74.9
X90.4Y-99.9
X90.65Y-46.575
X90.65Y-71.575
X90.65Y-96.575
X91.22Y-45.005
X91.22Y-70.005
X91.22Y-95.005
X91.25Y-40.75
X91.25Y-65.75
X91.25Y-90.75
X91.55Y-49.825
X91.55Y-74.825
X91.55Y-99.825
X91.6Y-29.4
X91.6Y-33.2
X91.6Y-54.4
X91.6Y-58.2
X91.6Y-79.4
X91.6Y-83.2
X91.775Y-49.05
X91.775Y-74.05
X91.775Y-99.05
X92.0Y-34.6
X92.0Y-59.6
X92.0Y-84.6
X92.017Y-38.102
X92.017Y-63.102
X92.017Y-88.102
X92.05Y-36.55
X92.05Y-61.55
X92.05Y-86.55
X92.2Y-46.2
X92.2Y-71.2
X92.2Y-96.2
X92.25Y-49.5
X92.25Y-74.5
X92.25Y-99.5
X92.6Y-48.0
X92.6Y-73.0
X92.6Y-98.0
X92.9Y-29.4
X92.9Y-33.2
X92.9Y-54.4
X92.9Y-58.2
X92.9Y-79.4
X92.9Y-83.2
X93.15Y-35.4
X93.15Y-36.35
X93.15Y-60.4
X93.15Y-61.35
X93.15Y-85.4
X93.15Y-86.35
X93.35Y-40.5
X93.35Y-65.5
X93.35Y-90.5
X93.5Y-42.7
X93.5Y-43.5
X93.5Y-44.25
X93.5Y-45.1
X93.5Y-67.7
X93.5Y-68.5
X93.5Y-69.25
X93.5Y-70.1
X93.5Y-92.7
X93.5Y-93.5
X93.5Y-94.25
X93.5Y-95.1
X93.525Y-30.45
X93.525Y-55.45
X93.525Y-80.45
X94.0Y-40.5
X94.0Y-65.5
X94.0Y-90.5
X94.1Y-42.7
X94.1Y-67.7
X94.1Y-92.7
X94.2Y-29.35
X94.2Y-31.65
X94.2Y-54.35
X94.2Y-56.65
X94.2Y-79.35
X94.2Y-81.65
X94.25Y-43.5
X94.25Y-44.25
X94.25Y-68.5
X94.25Y-69.25
X94.25Y-93.5
X94.25Y-94.25
X94.4Y-45.1
X94.4Y-70.1
X94.4Y-95.1
X94.7Y-40.5
X94.7Y-42.7
X94.7Y-65.5
X94.7Y-67.7
X94.7Y-90.5
X94.7Y-92.7
X94.95Y-34.7
X94.95Y-59.7
X94.95Y-84.7
X95.0Y-35.45
X95.0Y-60.45
X95.0Y-85.45
X95.05Y-34.05
X95.05Y-36.2
X95.05Y-36.9
X95.05Y-37.65
X95.05Y-59.05
X95.05Y-61.2
X95.05Y-61.9
X95.05Y-62.65
X95.05Y-84.05
X95.05Y-86.2
X95.05Y-86.9
X95.05Y-87.65
X95.1Y-33.3
X95.1Y-38.35
X95.1Y-39.05
X95.1Y-39.75
X95.1Y-43.3
X95.1Y-44.3
X95.1Y-45.0
X95.1Y-58.3
X95.1Y-63.35
X95.1Y-64.05
X95.1Y-64.75
X95.1Y-68.3
X95.1Y-69.3
X95.1Y-70.0
X95.1Y-83.3
X95.1Y-88.35
X95.1Y-89.05
X95.1Y-89.75
X95.1Y-93.3
X95.1Y-94.3
X95.1Y-95.0
X95.15Y-26.725
X95.15Y-32.5
X95.15Y-51.725
X95.15Y-57.5
X95.15Y-76.725
X95.15Y-82.5
X95.2Y-27.4
X95.2Y-28.05
X95.2Y-30.75
X95.2Y-31.45
X95.2Y-45.825
X95.2Y-46.45
X95.2Y-47.1
X95.2Y-47.825
X95.2Y-48.525
X95.2Y-52.4
X95.2Y-53.05
X95.2Y-55.75
X95.2Y-56.45
X95.2Y-70.825
X95.2Y-71.45
X95.2Y-72.1
X95.2Y-72.825
X95.2Y-73.525
X95.2Y-77.4
X95.2Y-78.05
X95.2Y-80.75
X95.2Y-81.45
X95.2Y-95.825
X95.2Y-96.45
X95.2Y-97.1
X95.2Y-97.825
X95.2Y-98.525
X95.225Y-28.675
X95.225Y-30.1
X95.225Y-49.2
X95.225Y-49.9
X95.225Y-53.675
X95.225Y-55.1
X95.225Y-74.2
X95.225Y-74.9
X95.225Y-78.675
X95.225Y-80.1
X95.225Y-99.2
X95.225Y-99.9
X95.25Y-29.4
X95.25Y-54.4
X95.25Y-79.4
T2
X27.51Y-36.962
X27.51Y-61.962
X27.51Y-86.962
X50.127Y-43.373
X50.127Y-68.373
X50.127Y-93.373
X65.51Y-36.962
X65.51Y-61.962
X65.51Y-86.962
X88.127Y-43.373
X88.127Y-68.373
X88.127Y-93.373
T3
X58.22Y-43.84
X58.22Y-68.84
X58.22Y-93.84
X96.22Y-43.84
X96.22Y-68.84
X96.22Y-93.84
T0
M30
