G04 #@! TF.GenerationSoftware,KiCad,Pcbnew,6.0.7-f9a2dced07~116~ubuntu22.04.1*
G04 #@! TF.CreationDate,2022-09-22T09:51:42+10:00*
G04 #@! TF.ProjectId,panel,70616e65-6c2e-46b6-9963-61645f706362,rev?*
G04 #@! TF.SameCoordinates,Original*
G04 #@! TF.FileFunction,Paste,Bot*
G04 #@! TF.FilePolarity,Positive*
%FSLAX46Y46*%
G04 Gerber Fmt 4.6, Leading zero omitted, Abs format (unit mm)*
G04 Created by KiCad (PCBNEW 6.0.7-f9a2dced07~116~ubuntu22.04.1) date 2022-09-22 09:51:42*
%MOMM*%
%LPD*%
G01*
G04 APERTURE LIST*
%ADD10R,0.740000X2.400000*%
G04 APERTURE END LIST*
D10*
X56135000Y-32400000D03*
X56135000Y-28500000D03*
X54865000Y-32400000D03*
X54865000Y-28500000D03*
X53595000Y-32400000D03*
X53595000Y-28500000D03*
X52325000Y-32400000D03*
X52325000Y-28500000D03*
X51055000Y-32400000D03*
X51055000Y-28500000D03*
X49785000Y-32400000D03*
X49785000Y-28500000D03*
X48515000Y-32400000D03*
X48515000Y-28500000D03*
X47245000Y-32400000D03*
X47245000Y-28500000D03*
X45975000Y-32400000D03*
X45975000Y-28500000D03*
X44705000Y-32400000D03*
X44705000Y-28500000D03*
X43435000Y-32400000D03*
X43435000Y-28500000D03*
X42165000Y-32400000D03*
X42165000Y-28500000D03*
X40895000Y-32400000D03*
X40895000Y-28500000D03*
X39625000Y-32400000D03*
X39625000Y-28500000D03*
X38355000Y-32400000D03*
X38355000Y-28500000D03*
X37085000Y-32400000D03*
X37085000Y-28500000D03*
X35815000Y-32400000D03*
X35815000Y-28500000D03*
X34545000Y-32400000D03*
X34545000Y-28500000D03*
X33275000Y-32400000D03*
X33275000Y-28500000D03*
X32005000Y-32400000D03*
X32005000Y-28500000D03*
X30735000Y-32400000D03*
X30735000Y-28500000D03*
X29465000Y-32400000D03*
X29465000Y-28500000D03*
X94135000Y-82400000D03*
X94135000Y-78500000D03*
X92865000Y-82400000D03*
X92865000Y-78500000D03*
X91595000Y-82400000D03*
X91595000Y-78500000D03*
X90325000Y-82400000D03*
X90325000Y-78500000D03*
X89055000Y-82400000D03*
X89055000Y-78500000D03*
X87785000Y-82400000D03*
X87785000Y-78500000D03*
X86515000Y-82400000D03*
X86515000Y-78500000D03*
X85245000Y-82400000D03*
X85245000Y-78500000D03*
X83975000Y-82400000D03*
X83975000Y-78500000D03*
X82705000Y-82400000D03*
X82705000Y-78500000D03*
X81435000Y-82400000D03*
X81435000Y-78500000D03*
X80165000Y-82400000D03*
X80165000Y-78500000D03*
X78895000Y-82400000D03*
X78895000Y-78500000D03*
X77625000Y-82400000D03*
X77625000Y-78500000D03*
X76355000Y-82400000D03*
X76355000Y-78500000D03*
X75085000Y-82400000D03*
X75085000Y-78500000D03*
X73815000Y-82400000D03*
X73815000Y-78500000D03*
X72545000Y-82400000D03*
X72545000Y-78500000D03*
X71275000Y-82400000D03*
X71275000Y-78500000D03*
X70005000Y-82400000D03*
X70005000Y-78500000D03*
X68735000Y-82400000D03*
X68735000Y-78500000D03*
X67465000Y-82400000D03*
X67465000Y-78500000D03*
X56135000Y-82400000D03*
X56135000Y-78500000D03*
X54865000Y-82400000D03*
X54865000Y-78500000D03*
X53595000Y-82400000D03*
X53595000Y-78500000D03*
X52325000Y-82400000D03*
X52325000Y-78500000D03*
X51055000Y-82400000D03*
X51055000Y-78500000D03*
X49785000Y-82400000D03*
X49785000Y-78500000D03*
X48515000Y-82400000D03*
X48515000Y-78500000D03*
X47245000Y-82400000D03*
X47245000Y-78500000D03*
X45975000Y-82400000D03*
X45975000Y-78500000D03*
X44705000Y-82400000D03*
X44705000Y-78500000D03*
X43435000Y-82400000D03*
X43435000Y-78500000D03*
X42165000Y-82400000D03*
X42165000Y-78500000D03*
X40895000Y-82400000D03*
X40895000Y-78500000D03*
X39625000Y-82400000D03*
X39625000Y-78500000D03*
X38355000Y-82400000D03*
X38355000Y-78500000D03*
X37085000Y-82400000D03*
X37085000Y-78500000D03*
X35815000Y-82400000D03*
X35815000Y-78500000D03*
X34545000Y-82400000D03*
X34545000Y-78500000D03*
X33275000Y-82400000D03*
X33275000Y-78500000D03*
X32005000Y-82400000D03*
X32005000Y-78500000D03*
X30735000Y-82400000D03*
X30735000Y-78500000D03*
X29465000Y-82400000D03*
X29465000Y-78500000D03*
X94135000Y-32400000D03*
X94135000Y-28500000D03*
X92865000Y-32400000D03*
X92865000Y-28500000D03*
X91595000Y-32400000D03*
X91595000Y-28500000D03*
X90325000Y-32400000D03*
X90325000Y-28500000D03*
X89055000Y-32400000D03*
X89055000Y-28500000D03*
X87785000Y-32400000D03*
X87785000Y-28500000D03*
X86515000Y-32400000D03*
X86515000Y-28500000D03*
X85245000Y-32400000D03*
X85245000Y-28500000D03*
X83975000Y-32400000D03*
X83975000Y-28500000D03*
X82705000Y-32400000D03*
X82705000Y-28500000D03*
X81435000Y-32400000D03*
X81435000Y-28500000D03*
X80165000Y-32400000D03*
X80165000Y-28500000D03*
X78895000Y-32400000D03*
X78895000Y-28500000D03*
X77625000Y-32400000D03*
X77625000Y-28500000D03*
X76355000Y-32400000D03*
X76355000Y-28500000D03*
X75085000Y-32400000D03*
X75085000Y-28500000D03*
X73815000Y-32400000D03*
X73815000Y-28500000D03*
X72545000Y-32400000D03*
X72545000Y-28500000D03*
X71275000Y-32400000D03*
X71275000Y-28500000D03*
X70005000Y-32400000D03*
X70005000Y-28500000D03*
X68735000Y-32400000D03*
X68735000Y-28500000D03*
X67465000Y-32400000D03*
X67465000Y-28500000D03*
X56135000Y-57400000D03*
X56135000Y-53500000D03*
X54865000Y-57400000D03*
X54865000Y-53500000D03*
X53595000Y-57400000D03*
X53595000Y-53500000D03*
X52325000Y-57400000D03*
X52325000Y-53500000D03*
X51055000Y-57400000D03*
X51055000Y-53500000D03*
X49785000Y-57400000D03*
X49785000Y-53500000D03*
X48515000Y-57400000D03*
X48515000Y-53500000D03*
X47245000Y-57400000D03*
X47245000Y-53500000D03*
X45975000Y-57400000D03*
X45975000Y-53500000D03*
X44705000Y-57400000D03*
X44705000Y-53500000D03*
X43435000Y-57400000D03*
X43435000Y-53500000D03*
X42165000Y-57400000D03*
X42165000Y-53500000D03*
X40895000Y-57400000D03*
X40895000Y-53500000D03*
X39625000Y-57400000D03*
X39625000Y-53500000D03*
X38355000Y-57400000D03*
X38355000Y-53500000D03*
X37085000Y-57400000D03*
X37085000Y-53500000D03*
X35815000Y-57400000D03*
X35815000Y-53500000D03*
X34545000Y-57400000D03*
X34545000Y-53500000D03*
X33275000Y-57400000D03*
X33275000Y-53500000D03*
X32005000Y-57400000D03*
X32005000Y-53500000D03*
X30735000Y-57400000D03*
X30735000Y-53500000D03*
X29465000Y-57400000D03*
X29465000Y-53500000D03*
X94135000Y-57400000D03*
X94135000Y-53500000D03*
X92865000Y-57400000D03*
X92865000Y-53500000D03*
X91595000Y-57400000D03*
X91595000Y-53500000D03*
X90325000Y-57400000D03*
X90325000Y-53500000D03*
X89055000Y-57400000D03*
X89055000Y-53500000D03*
X87785000Y-57400000D03*
X87785000Y-53500000D03*
X86515000Y-57400000D03*
X86515000Y-53500000D03*
X85245000Y-57400000D03*
X85245000Y-53500000D03*
X83975000Y-57400000D03*
X83975000Y-53500000D03*
X82705000Y-57400000D03*
X82705000Y-53500000D03*
X81435000Y-57400000D03*
X81435000Y-53500000D03*
X80165000Y-57400000D03*
X80165000Y-53500000D03*
X78895000Y-57400000D03*
X78895000Y-53500000D03*
X77625000Y-57400000D03*
X77625000Y-53500000D03*
X76355000Y-57400000D03*
X76355000Y-53500000D03*
X75085000Y-57400000D03*
X75085000Y-53500000D03*
X73815000Y-57400000D03*
X73815000Y-53500000D03*
X72545000Y-57400000D03*
X72545000Y-53500000D03*
X71275000Y-57400000D03*
X71275000Y-53500000D03*
X70005000Y-57400000D03*
X70005000Y-53500000D03*
X68735000Y-57400000D03*
X68735000Y-53500000D03*
X67465000Y-57400000D03*
X67465000Y-53500000D03*
M02*
