G04 #@! TF.GenerationSoftware,KiCad,Pcbnew,6.0.7-f9a2dced07~116~ubuntu22.04.1*
G04 #@! TF.CreationDate,2022-09-22T09:51:42+10:00*
G04 #@! TF.ProjectId,panel,70616e65-6c2e-46b6-9963-61645f706362,rev?*
G04 #@! TF.SameCoordinates,Original*
G04 #@! TF.FileFunction,Legend,Bot*
G04 #@! TF.FilePolarity,Positive*
%FSLAX46Y46*%
G04 Gerber Fmt 4.6, Leading zero omitted, Abs format (unit mm)*
G04 Created by KiCad (PCBNEW 6.0.7-f9a2dced07~116~ubuntu22.04.1) date 2022-09-22 09:51:42*
%MOMM*%
%LPD*%
G01*
G04 APERTURE LIST*
%ADD10C,0.160000*%
%ADD11C,0.150000*%
%ADD12C,0.120000*%
%ADD13C,3.000000*%
%ADD14R,0.740000X2.400000*%
%ADD15C,1.000000*%
G04 APERTURE END LIST*
D10*
X59502380Y-30050000D02*
X58502380Y-30050000D01*
X58502380Y-30288095D01*
X58550000Y-30430952D01*
X58645238Y-30526190D01*
X58740476Y-30573809D01*
X58930952Y-30621428D01*
X59073809Y-30621428D01*
X59264285Y-30573809D01*
X59359523Y-30526190D01*
X59454761Y-30430952D01*
X59502380Y-30288095D01*
X59502380Y-30050000D01*
X59454761Y-31430952D02*
X59502380Y-31335714D01*
X59502380Y-31145238D01*
X59454761Y-31050000D01*
X59359523Y-31002380D01*
X58978571Y-31002380D01*
X58883333Y-31050000D01*
X58835714Y-31145238D01*
X58835714Y-31335714D01*
X58883333Y-31430952D01*
X58978571Y-31478571D01*
X59073809Y-31478571D01*
X59169047Y-31002380D01*
X59454761Y-31859523D02*
X59502380Y-31954761D01*
X59502380Y-32145238D01*
X59454761Y-32240476D01*
X59359523Y-32288095D01*
X59311904Y-32288095D01*
X59216666Y-32240476D01*
X59169047Y-32145238D01*
X59169047Y-32002380D01*
X59121428Y-31907142D01*
X59026190Y-31859523D01*
X58978571Y-31859523D01*
X58883333Y-31907142D01*
X58835714Y-32002380D01*
X58835714Y-32145238D01*
X58883333Y-32240476D01*
X59502380Y-32716666D02*
X58835714Y-32716666D01*
X58502380Y-32716666D02*
X58550000Y-32669047D01*
X58597619Y-32716666D01*
X58550000Y-32764285D01*
X58502380Y-32716666D01*
X58597619Y-32716666D01*
X58835714Y-33621428D02*
X59645238Y-33621428D01*
X59740476Y-33573809D01*
X59788095Y-33526190D01*
X59835714Y-33430952D01*
X59835714Y-33288095D01*
X59788095Y-33192857D01*
X59454761Y-33621428D02*
X59502380Y-33526190D01*
X59502380Y-33335714D01*
X59454761Y-33240476D01*
X59407142Y-33192857D01*
X59311904Y-33145238D01*
X59026190Y-33145238D01*
X58930952Y-33192857D01*
X58883333Y-33240476D01*
X58835714Y-33335714D01*
X58835714Y-33526190D01*
X58883333Y-33621428D01*
X58835714Y-34097619D02*
X59502380Y-34097619D01*
X58930952Y-34097619D02*
X58883333Y-34145238D01*
X58835714Y-34240476D01*
X58835714Y-34383333D01*
X58883333Y-34478571D01*
X58978571Y-34526190D01*
X59502380Y-34526190D01*
X59454761Y-35383333D02*
X59502380Y-35288095D01*
X59502380Y-35097619D01*
X59454761Y-35002380D01*
X59359523Y-34954761D01*
X58978571Y-34954761D01*
X58883333Y-35002380D01*
X58835714Y-35097619D01*
X58835714Y-35288095D01*
X58883333Y-35383333D01*
X58978571Y-35430952D01*
X59073809Y-35430952D01*
X59169047Y-34954761D01*
X59502380Y-36288095D02*
X58502380Y-36288095D01*
X59454761Y-36288095D02*
X59502380Y-36192857D01*
X59502380Y-36002380D01*
X59454761Y-35907142D01*
X59407142Y-35859523D01*
X59311904Y-35811904D01*
X59026190Y-35811904D01*
X58930952Y-35859523D01*
X58883333Y-35907142D01*
X58835714Y-36002380D01*
X58835714Y-36192857D01*
X58883333Y-36288095D01*
X59502380Y-37526190D02*
X58502380Y-37526190D01*
X58883333Y-37526190D02*
X58835714Y-37621428D01*
X58835714Y-37811904D01*
X58883333Y-37907142D01*
X58930952Y-37954761D01*
X59026190Y-38002380D01*
X59311904Y-38002380D01*
X59407142Y-37954761D01*
X59454761Y-37907142D01*
X59502380Y-37811904D01*
X59502380Y-37621428D01*
X59454761Y-37526190D01*
X58835714Y-38335714D02*
X59502380Y-38573809D01*
X58835714Y-38811904D02*
X59502380Y-38573809D01*
X59740476Y-38478571D01*
X59788095Y-38430952D01*
X59835714Y-38335714D01*
X58502380Y-40240476D02*
X59216666Y-40240476D01*
X59359523Y-40192857D01*
X59454761Y-40097619D01*
X59502380Y-39954761D01*
X59502380Y-39859523D01*
X59502380Y-41145238D02*
X58978571Y-41145238D01*
X58883333Y-41097619D01*
X58835714Y-41002380D01*
X58835714Y-40811904D01*
X58883333Y-40716666D01*
X59454761Y-41145238D02*
X59502380Y-41049999D01*
X59502380Y-40811904D01*
X59454761Y-40716666D01*
X59359523Y-40669047D01*
X59264285Y-40669047D01*
X59169047Y-40716666D01*
X59121428Y-40811904D01*
X59121428Y-41049999D01*
X59073809Y-41145238D01*
X59454761Y-42049999D02*
X59502380Y-41954761D01*
X59502380Y-41764285D01*
X59454761Y-41669047D01*
X59407142Y-41621428D01*
X59311904Y-41573809D01*
X59026190Y-41573809D01*
X58930952Y-41621428D01*
X58883333Y-41669047D01*
X58835714Y-41764285D01*
X58835714Y-41954761D01*
X58883333Y-42049999D01*
X59502380Y-42478571D02*
X58502380Y-42478571D01*
X59121428Y-42573809D02*
X59502380Y-42859523D01*
X58835714Y-42859523D02*
X59216666Y-42478571D01*
X59454761Y-43240476D02*
X59502380Y-43335714D01*
X59502380Y-43526190D01*
X59454761Y-43621428D01*
X59359523Y-43669047D01*
X59311904Y-43669047D01*
X59216666Y-43621428D01*
X59169047Y-43526190D01*
X59169047Y-43383333D01*
X59121428Y-43288095D01*
X59026190Y-43240476D01*
X58978571Y-43240476D01*
X58883333Y-43288095D01*
X58835714Y-43383333D01*
X58835714Y-43526190D01*
X58883333Y-43621428D01*
X59502380Y-44240476D02*
X59454761Y-44145238D01*
X59407142Y-44097619D01*
X59311904Y-44049999D01*
X59026190Y-44049999D01*
X58930952Y-44097619D01*
X58883333Y-44145238D01*
X58835714Y-44240476D01*
X58835714Y-44383333D01*
X58883333Y-44478571D01*
X58930952Y-44526190D01*
X59026190Y-44573809D01*
X59311904Y-44573809D01*
X59407142Y-44526190D01*
X59454761Y-44478571D01*
X59502380Y-44383333D01*
X59502380Y-44240476D01*
X58835714Y-45002380D02*
X59502380Y-45002380D01*
X58930952Y-45002380D02*
X58883333Y-45049999D01*
X58835714Y-45145238D01*
X58835714Y-45288095D01*
X58883333Y-45383333D01*
X58978571Y-45430952D01*
X59502380Y-45430952D01*
X59502380Y-46669047D02*
X58502380Y-46669047D01*
X59216666Y-47002380D01*
X58502380Y-47335714D01*
X59502380Y-47335714D01*
X59502380Y-48573809D02*
X58502380Y-48573809D01*
X58978571Y-48573809D02*
X58978571Y-49145238D01*
X59502380Y-49145238D02*
X58502380Y-49145238D01*
X58835714Y-50049999D02*
X59502380Y-50049999D01*
X58835714Y-49621428D02*
X59359523Y-49621428D01*
X59454761Y-49669047D01*
X59502380Y-49764285D01*
X59502380Y-49907142D01*
X59454761Y-50002380D01*
X59407142Y-50049999D01*
X97502380Y-30050000D02*
X96502380Y-30050000D01*
X96502380Y-30288095D01*
X96550000Y-30430952D01*
X96645238Y-30526190D01*
X96740476Y-30573809D01*
X96930952Y-30621428D01*
X97073809Y-30621428D01*
X97264285Y-30573809D01*
X97359523Y-30526190D01*
X97454761Y-30430952D01*
X97502380Y-30288095D01*
X97502380Y-30050000D01*
X97454761Y-31430952D02*
X97502380Y-31335714D01*
X97502380Y-31145238D01*
X97454761Y-31050000D01*
X97359523Y-31002380D01*
X96978571Y-31002380D01*
X96883333Y-31050000D01*
X96835714Y-31145238D01*
X96835714Y-31335714D01*
X96883333Y-31430952D01*
X96978571Y-31478571D01*
X97073809Y-31478571D01*
X97169047Y-31002380D01*
X97454761Y-31859523D02*
X97502380Y-31954761D01*
X97502380Y-32145238D01*
X97454761Y-32240476D01*
X97359523Y-32288095D01*
X97311904Y-32288095D01*
X97216666Y-32240476D01*
X97169047Y-32145238D01*
X97169047Y-32002380D01*
X97121428Y-31907142D01*
X97026190Y-31859523D01*
X96978571Y-31859523D01*
X96883333Y-31907142D01*
X96835714Y-32002380D01*
X96835714Y-32145238D01*
X96883333Y-32240476D01*
X97502380Y-32716666D02*
X96835714Y-32716666D01*
X96502380Y-32716666D02*
X96550000Y-32669047D01*
X96597619Y-32716666D01*
X96550000Y-32764285D01*
X96502380Y-32716666D01*
X96597619Y-32716666D01*
X96835714Y-33621428D02*
X97645238Y-33621428D01*
X97740476Y-33573809D01*
X97788095Y-33526190D01*
X97835714Y-33430952D01*
X97835714Y-33288095D01*
X97788095Y-33192857D01*
X97454761Y-33621428D02*
X97502380Y-33526190D01*
X97502380Y-33335714D01*
X97454761Y-33240476D01*
X97407142Y-33192857D01*
X97311904Y-33145238D01*
X97026190Y-33145238D01*
X96930952Y-33192857D01*
X96883333Y-33240476D01*
X96835714Y-33335714D01*
X96835714Y-33526190D01*
X96883333Y-33621428D01*
X96835714Y-34097619D02*
X97502380Y-34097619D01*
X96930952Y-34097619D02*
X96883333Y-34145238D01*
X96835714Y-34240476D01*
X96835714Y-34383333D01*
X96883333Y-34478571D01*
X96978571Y-34526190D01*
X97502380Y-34526190D01*
X97454761Y-35383333D02*
X97502380Y-35288095D01*
X97502380Y-35097619D01*
X97454761Y-35002380D01*
X97359523Y-34954761D01*
X96978571Y-34954761D01*
X96883333Y-35002380D01*
X96835714Y-35097619D01*
X96835714Y-35288095D01*
X96883333Y-35383333D01*
X96978571Y-35430952D01*
X97073809Y-35430952D01*
X97169047Y-34954761D01*
X97502380Y-36288095D02*
X96502380Y-36288095D01*
X97454761Y-36288095D02*
X97502380Y-36192857D01*
X97502380Y-36002380D01*
X97454761Y-35907142D01*
X97407142Y-35859523D01*
X97311904Y-35811904D01*
X97026190Y-35811904D01*
X96930952Y-35859523D01*
X96883333Y-35907142D01*
X96835714Y-36002380D01*
X96835714Y-36192857D01*
X96883333Y-36288095D01*
X97502380Y-37526190D02*
X96502380Y-37526190D01*
X96883333Y-37526190D02*
X96835714Y-37621428D01*
X96835714Y-37811904D01*
X96883333Y-37907142D01*
X96930952Y-37954761D01*
X97026190Y-38002380D01*
X97311904Y-38002380D01*
X97407142Y-37954761D01*
X97454761Y-37907142D01*
X97502380Y-37811904D01*
X97502380Y-37621428D01*
X97454761Y-37526190D01*
X96835714Y-38335714D02*
X97502380Y-38573809D01*
X96835714Y-38811904D02*
X97502380Y-38573809D01*
X97740476Y-38478571D01*
X97788095Y-38430952D01*
X97835714Y-38335714D01*
X96502380Y-40240476D02*
X97216666Y-40240476D01*
X97359523Y-40192857D01*
X97454761Y-40097619D01*
X97502380Y-39954761D01*
X97502380Y-39859523D01*
X97502380Y-41145238D02*
X96978571Y-41145238D01*
X96883333Y-41097619D01*
X96835714Y-41002380D01*
X96835714Y-40811904D01*
X96883333Y-40716666D01*
X97454761Y-41145238D02*
X97502380Y-41050000D01*
X97502380Y-40811904D01*
X97454761Y-40716666D01*
X97359523Y-40669047D01*
X97264285Y-40669047D01*
X97169047Y-40716666D01*
X97121428Y-40811904D01*
X97121428Y-41050000D01*
X97073809Y-41145238D01*
X97454761Y-42050000D02*
X97502380Y-41954761D01*
X97502380Y-41764285D01*
X97454761Y-41669047D01*
X97407142Y-41621428D01*
X97311904Y-41573809D01*
X97026190Y-41573809D01*
X96930952Y-41621428D01*
X96883333Y-41669047D01*
X96835714Y-41764285D01*
X96835714Y-41954761D01*
X96883333Y-42050000D01*
X97502380Y-42478571D02*
X96502380Y-42478571D01*
X97121428Y-42573809D02*
X97502380Y-42859523D01*
X96835714Y-42859523D02*
X97216666Y-42478571D01*
X97454761Y-43240476D02*
X97502380Y-43335714D01*
X97502380Y-43526190D01*
X97454761Y-43621428D01*
X97359523Y-43669047D01*
X97311904Y-43669047D01*
X97216666Y-43621428D01*
X97169047Y-43526190D01*
X97169047Y-43383333D01*
X97121428Y-43288095D01*
X97026190Y-43240476D01*
X96978571Y-43240476D01*
X96883333Y-43288095D01*
X96835714Y-43383333D01*
X96835714Y-43526190D01*
X96883333Y-43621428D01*
X97502380Y-44240476D02*
X97454761Y-44145238D01*
X97407142Y-44097619D01*
X97311904Y-44050000D01*
X97026190Y-44050000D01*
X96930952Y-44097619D01*
X96883333Y-44145238D01*
X96835714Y-44240476D01*
X96835714Y-44383333D01*
X96883333Y-44478571D01*
X96930952Y-44526190D01*
X97026190Y-44573809D01*
X97311904Y-44573809D01*
X97407142Y-44526190D01*
X97454761Y-44478571D01*
X97502380Y-44383333D01*
X97502380Y-44240476D01*
X96835714Y-45002380D02*
X97502380Y-45002380D01*
X96930952Y-45002380D02*
X96883333Y-45050000D01*
X96835714Y-45145238D01*
X96835714Y-45288095D01*
X96883333Y-45383333D01*
X96978571Y-45430952D01*
X97502380Y-45430952D01*
X97502380Y-46669047D02*
X96502380Y-46669047D01*
X97216666Y-47002380D01*
X96502380Y-47335714D01*
X97502380Y-47335714D01*
X97502380Y-48573809D02*
X96502380Y-48573809D01*
X96978571Y-48573809D02*
X96978571Y-49145238D01*
X97502380Y-49145238D02*
X96502380Y-49145238D01*
X96835714Y-50050000D02*
X97502380Y-50050000D01*
X96835714Y-49621428D02*
X97359523Y-49621428D01*
X97454761Y-49669047D01*
X97502380Y-49764285D01*
X97502380Y-49907142D01*
X97454761Y-50002380D01*
X97407142Y-50050000D01*
X59502380Y-55050000D02*
X58502380Y-55050000D01*
X58502380Y-55288095D01*
X58550000Y-55430952D01*
X58645238Y-55526190D01*
X58740476Y-55573809D01*
X58930952Y-55621428D01*
X59073809Y-55621428D01*
X59264285Y-55573809D01*
X59359523Y-55526190D01*
X59454761Y-55430952D01*
X59502380Y-55288095D01*
X59502380Y-55050000D01*
X59454761Y-56430952D02*
X59502380Y-56335714D01*
X59502380Y-56145238D01*
X59454761Y-56050000D01*
X59359523Y-56002380D01*
X58978571Y-56002380D01*
X58883333Y-56050000D01*
X58835714Y-56145238D01*
X58835714Y-56335714D01*
X58883333Y-56430952D01*
X58978571Y-56478571D01*
X59073809Y-56478571D01*
X59169047Y-56002380D01*
X59454761Y-56859523D02*
X59502380Y-56954761D01*
X59502380Y-57145238D01*
X59454761Y-57240476D01*
X59359523Y-57288095D01*
X59311904Y-57288095D01*
X59216666Y-57240476D01*
X59169047Y-57145238D01*
X59169047Y-57002380D01*
X59121428Y-56907142D01*
X59026190Y-56859523D01*
X58978571Y-56859523D01*
X58883333Y-56907142D01*
X58835714Y-57002380D01*
X58835714Y-57145238D01*
X58883333Y-57240476D01*
X59502380Y-57716666D02*
X58835714Y-57716666D01*
X58502380Y-57716666D02*
X58550000Y-57669047D01*
X58597619Y-57716666D01*
X58550000Y-57764285D01*
X58502380Y-57716666D01*
X58597619Y-57716666D01*
X58835714Y-58621428D02*
X59645238Y-58621428D01*
X59740476Y-58573809D01*
X59788095Y-58526190D01*
X59835714Y-58430952D01*
X59835714Y-58288095D01*
X59788095Y-58192857D01*
X59454761Y-58621428D02*
X59502380Y-58526190D01*
X59502380Y-58335714D01*
X59454761Y-58240476D01*
X59407142Y-58192857D01*
X59311904Y-58145238D01*
X59026190Y-58145238D01*
X58930952Y-58192857D01*
X58883333Y-58240476D01*
X58835714Y-58335714D01*
X58835714Y-58526190D01*
X58883333Y-58621428D01*
X58835714Y-59097619D02*
X59502380Y-59097619D01*
X58930952Y-59097619D02*
X58883333Y-59145238D01*
X58835714Y-59240476D01*
X58835714Y-59383333D01*
X58883333Y-59478571D01*
X58978571Y-59526190D01*
X59502380Y-59526190D01*
X59454761Y-60383333D02*
X59502380Y-60288095D01*
X59502380Y-60097619D01*
X59454761Y-60002380D01*
X59359523Y-59954761D01*
X58978571Y-59954761D01*
X58883333Y-60002380D01*
X58835714Y-60097619D01*
X58835714Y-60288095D01*
X58883333Y-60383333D01*
X58978571Y-60430952D01*
X59073809Y-60430952D01*
X59169047Y-59954761D01*
X59502380Y-61288095D02*
X58502380Y-61288095D01*
X59454761Y-61288095D02*
X59502380Y-61192857D01*
X59502380Y-61002380D01*
X59454761Y-60907142D01*
X59407142Y-60859523D01*
X59311904Y-60811904D01*
X59026190Y-60811904D01*
X58930952Y-60859523D01*
X58883333Y-60907142D01*
X58835714Y-61002380D01*
X58835714Y-61192857D01*
X58883333Y-61288095D01*
X59502380Y-62526190D02*
X58502380Y-62526190D01*
X58883333Y-62526190D02*
X58835714Y-62621428D01*
X58835714Y-62811904D01*
X58883333Y-62907142D01*
X58930952Y-62954761D01*
X59026190Y-63002380D01*
X59311904Y-63002380D01*
X59407142Y-62954761D01*
X59454761Y-62907142D01*
X59502380Y-62811904D01*
X59502380Y-62621428D01*
X59454761Y-62526190D01*
X58835714Y-63335714D02*
X59502380Y-63573809D01*
X58835714Y-63811904D02*
X59502380Y-63573809D01*
X59740476Y-63478571D01*
X59788095Y-63430952D01*
X59835714Y-63335714D01*
X58502380Y-65240476D02*
X59216666Y-65240476D01*
X59359523Y-65192857D01*
X59454761Y-65097619D01*
X59502380Y-64954761D01*
X59502380Y-64859523D01*
X59502380Y-66145238D02*
X58978571Y-66145238D01*
X58883333Y-66097619D01*
X58835714Y-66002380D01*
X58835714Y-65811904D01*
X58883333Y-65716666D01*
X59454761Y-66145238D02*
X59502380Y-66049999D01*
X59502380Y-65811904D01*
X59454761Y-65716666D01*
X59359523Y-65669047D01*
X59264285Y-65669047D01*
X59169047Y-65716666D01*
X59121428Y-65811904D01*
X59121428Y-66049999D01*
X59073809Y-66145238D01*
X59454761Y-67049999D02*
X59502380Y-66954761D01*
X59502380Y-66764285D01*
X59454761Y-66669047D01*
X59407142Y-66621428D01*
X59311904Y-66573809D01*
X59026190Y-66573809D01*
X58930952Y-66621428D01*
X58883333Y-66669047D01*
X58835714Y-66764285D01*
X58835714Y-66954761D01*
X58883333Y-67049999D01*
X59502380Y-67478571D02*
X58502380Y-67478571D01*
X59121428Y-67573809D02*
X59502380Y-67859523D01*
X58835714Y-67859523D02*
X59216666Y-67478571D01*
X59454761Y-68240476D02*
X59502380Y-68335714D01*
X59502380Y-68526190D01*
X59454761Y-68621428D01*
X59359523Y-68669047D01*
X59311904Y-68669047D01*
X59216666Y-68621428D01*
X59169047Y-68526190D01*
X59169047Y-68383333D01*
X59121428Y-68288095D01*
X59026190Y-68240476D01*
X58978571Y-68240476D01*
X58883333Y-68288095D01*
X58835714Y-68383333D01*
X58835714Y-68526190D01*
X58883333Y-68621428D01*
X59502380Y-69240476D02*
X59454761Y-69145238D01*
X59407142Y-69097619D01*
X59311904Y-69050000D01*
X59026190Y-69050000D01*
X58930952Y-69097619D01*
X58883333Y-69145238D01*
X58835714Y-69240476D01*
X58835714Y-69383333D01*
X58883333Y-69478571D01*
X58930952Y-69526190D01*
X59026190Y-69573809D01*
X59311904Y-69573809D01*
X59407142Y-69526190D01*
X59454761Y-69478571D01*
X59502380Y-69383333D01*
X59502380Y-69240476D01*
X58835714Y-70002380D02*
X59502380Y-70002380D01*
X58930952Y-70002380D02*
X58883333Y-70050000D01*
X58835714Y-70145238D01*
X58835714Y-70288095D01*
X58883333Y-70383333D01*
X58978571Y-70430952D01*
X59502380Y-70430952D01*
X59502380Y-71669047D02*
X58502380Y-71669047D01*
X59216666Y-72002380D01*
X58502380Y-72335714D01*
X59502380Y-72335714D01*
X59502380Y-73573809D02*
X58502380Y-73573809D01*
X58978571Y-73573809D02*
X58978571Y-74145238D01*
X59502380Y-74145238D02*
X58502380Y-74145238D01*
X58835714Y-75050000D02*
X59502380Y-75050000D01*
X58835714Y-74621428D02*
X59359523Y-74621428D01*
X59454761Y-74669047D01*
X59502380Y-74764285D01*
X59502380Y-74907142D01*
X59454761Y-75002380D01*
X59407142Y-75050000D01*
X97502380Y-55050000D02*
X96502380Y-55050000D01*
X96502380Y-55288095D01*
X96550000Y-55430952D01*
X96645238Y-55526190D01*
X96740476Y-55573809D01*
X96930952Y-55621428D01*
X97073809Y-55621428D01*
X97264285Y-55573809D01*
X97359523Y-55526190D01*
X97454761Y-55430952D01*
X97502380Y-55288095D01*
X97502380Y-55050000D01*
X97454761Y-56430952D02*
X97502380Y-56335714D01*
X97502380Y-56145238D01*
X97454761Y-56050000D01*
X97359523Y-56002380D01*
X96978571Y-56002380D01*
X96883333Y-56050000D01*
X96835714Y-56145238D01*
X96835714Y-56335714D01*
X96883333Y-56430952D01*
X96978571Y-56478571D01*
X97073809Y-56478571D01*
X97169047Y-56002380D01*
X97454761Y-56859523D02*
X97502380Y-56954761D01*
X97502380Y-57145238D01*
X97454761Y-57240476D01*
X97359523Y-57288095D01*
X97311904Y-57288095D01*
X97216666Y-57240476D01*
X97169047Y-57145238D01*
X97169047Y-57002380D01*
X97121428Y-56907142D01*
X97026190Y-56859523D01*
X96978571Y-56859523D01*
X96883333Y-56907142D01*
X96835714Y-57002380D01*
X96835714Y-57145238D01*
X96883333Y-57240476D01*
X97502380Y-57716666D02*
X96835714Y-57716666D01*
X96502380Y-57716666D02*
X96550000Y-57669047D01*
X96597619Y-57716666D01*
X96550000Y-57764285D01*
X96502380Y-57716666D01*
X96597619Y-57716666D01*
X96835714Y-58621428D02*
X97645238Y-58621428D01*
X97740476Y-58573809D01*
X97788095Y-58526190D01*
X97835714Y-58430952D01*
X97835714Y-58288095D01*
X97788095Y-58192857D01*
X97454761Y-58621428D02*
X97502380Y-58526190D01*
X97502380Y-58335714D01*
X97454761Y-58240476D01*
X97407142Y-58192857D01*
X97311904Y-58145238D01*
X97026190Y-58145238D01*
X96930952Y-58192857D01*
X96883333Y-58240476D01*
X96835714Y-58335714D01*
X96835714Y-58526190D01*
X96883333Y-58621428D01*
X96835714Y-59097619D02*
X97502380Y-59097619D01*
X96930952Y-59097619D02*
X96883333Y-59145238D01*
X96835714Y-59240476D01*
X96835714Y-59383333D01*
X96883333Y-59478571D01*
X96978571Y-59526190D01*
X97502380Y-59526190D01*
X97454761Y-60383333D02*
X97502380Y-60288095D01*
X97502380Y-60097619D01*
X97454761Y-60002380D01*
X97359523Y-59954761D01*
X96978571Y-59954761D01*
X96883333Y-60002380D01*
X96835714Y-60097619D01*
X96835714Y-60288095D01*
X96883333Y-60383333D01*
X96978571Y-60430952D01*
X97073809Y-60430952D01*
X97169047Y-59954761D01*
X97502380Y-61288095D02*
X96502380Y-61288095D01*
X97454761Y-61288095D02*
X97502380Y-61192857D01*
X97502380Y-61002380D01*
X97454761Y-60907142D01*
X97407142Y-60859523D01*
X97311904Y-60811904D01*
X97026190Y-60811904D01*
X96930952Y-60859523D01*
X96883333Y-60907142D01*
X96835714Y-61002380D01*
X96835714Y-61192857D01*
X96883333Y-61288095D01*
X97502380Y-62526190D02*
X96502380Y-62526190D01*
X96883333Y-62526190D02*
X96835714Y-62621428D01*
X96835714Y-62811904D01*
X96883333Y-62907142D01*
X96930952Y-62954761D01*
X97026190Y-63002380D01*
X97311904Y-63002380D01*
X97407142Y-62954761D01*
X97454761Y-62907142D01*
X97502380Y-62811904D01*
X97502380Y-62621428D01*
X97454761Y-62526190D01*
X96835714Y-63335714D02*
X97502380Y-63573809D01*
X96835714Y-63811904D02*
X97502380Y-63573809D01*
X97740476Y-63478571D01*
X97788095Y-63430952D01*
X97835714Y-63335714D01*
X96502380Y-65240476D02*
X97216666Y-65240476D01*
X97359523Y-65192857D01*
X97454761Y-65097619D01*
X97502380Y-64954761D01*
X97502380Y-64859523D01*
X97502380Y-66145238D02*
X96978571Y-66145238D01*
X96883333Y-66097619D01*
X96835714Y-66002380D01*
X96835714Y-65811904D01*
X96883333Y-65716666D01*
X97454761Y-66145238D02*
X97502380Y-66050000D01*
X97502380Y-65811904D01*
X97454761Y-65716666D01*
X97359523Y-65669047D01*
X97264285Y-65669047D01*
X97169047Y-65716666D01*
X97121428Y-65811904D01*
X97121428Y-66050000D01*
X97073809Y-66145238D01*
X97454761Y-67050000D02*
X97502380Y-66954761D01*
X97502380Y-66764285D01*
X97454761Y-66669047D01*
X97407142Y-66621428D01*
X97311904Y-66573809D01*
X97026190Y-66573809D01*
X96930952Y-66621428D01*
X96883333Y-66669047D01*
X96835714Y-66764285D01*
X96835714Y-66954761D01*
X96883333Y-67050000D01*
X97502380Y-67478571D02*
X96502380Y-67478571D01*
X97121428Y-67573809D02*
X97502380Y-67859523D01*
X96835714Y-67859523D02*
X97216666Y-67478571D01*
X97454761Y-68240476D02*
X97502380Y-68335714D01*
X97502380Y-68526190D01*
X97454761Y-68621428D01*
X97359523Y-68669047D01*
X97311904Y-68669047D01*
X97216666Y-68621428D01*
X97169047Y-68526190D01*
X97169047Y-68383333D01*
X97121428Y-68288095D01*
X97026190Y-68240476D01*
X96978571Y-68240476D01*
X96883333Y-68288095D01*
X96835714Y-68383333D01*
X96835714Y-68526190D01*
X96883333Y-68621428D01*
X97502380Y-69240476D02*
X97454761Y-69145238D01*
X97407142Y-69097619D01*
X97311904Y-69050000D01*
X97026190Y-69050000D01*
X96930952Y-69097619D01*
X96883333Y-69145238D01*
X96835714Y-69240476D01*
X96835714Y-69383333D01*
X96883333Y-69478571D01*
X96930952Y-69526190D01*
X97026190Y-69573809D01*
X97311904Y-69573809D01*
X97407142Y-69526190D01*
X97454761Y-69478571D01*
X97502380Y-69383333D01*
X97502380Y-69240476D01*
X96835714Y-70002380D02*
X97502380Y-70002380D01*
X96930952Y-70002380D02*
X96883333Y-70050000D01*
X96835714Y-70145238D01*
X96835714Y-70288095D01*
X96883333Y-70383333D01*
X96978571Y-70430952D01*
X97502380Y-70430952D01*
X97502380Y-71669047D02*
X96502380Y-71669047D01*
X97216666Y-72002380D01*
X96502380Y-72335714D01*
X97502380Y-72335714D01*
X97502380Y-73573809D02*
X96502380Y-73573809D01*
X96978571Y-73573809D02*
X96978571Y-74145238D01*
X97502380Y-74145238D02*
X96502380Y-74145238D01*
X96835714Y-75050000D02*
X97502380Y-75050000D01*
X96835714Y-74621428D02*
X97359523Y-74621428D01*
X97454761Y-74669047D01*
X97502380Y-74764285D01*
X97502380Y-74907142D01*
X97454761Y-75002380D01*
X97407142Y-75050000D01*
X59502380Y-80050000D02*
X58502380Y-80050000D01*
X58502380Y-80288095D01*
X58550000Y-80430952D01*
X58645238Y-80526190D01*
X58740476Y-80573809D01*
X58930952Y-80621428D01*
X59073809Y-80621428D01*
X59264285Y-80573809D01*
X59359523Y-80526190D01*
X59454761Y-80430952D01*
X59502380Y-80288095D01*
X59502380Y-80050000D01*
X59454761Y-81430952D02*
X59502380Y-81335714D01*
X59502380Y-81145238D01*
X59454761Y-81050000D01*
X59359523Y-81002380D01*
X58978571Y-81002380D01*
X58883333Y-81050000D01*
X58835714Y-81145238D01*
X58835714Y-81335714D01*
X58883333Y-81430952D01*
X58978571Y-81478571D01*
X59073809Y-81478571D01*
X59169047Y-81002380D01*
X59454761Y-81859523D02*
X59502380Y-81954761D01*
X59502380Y-82145238D01*
X59454761Y-82240476D01*
X59359523Y-82288095D01*
X59311904Y-82288095D01*
X59216666Y-82240476D01*
X59169047Y-82145238D01*
X59169047Y-82002380D01*
X59121428Y-81907142D01*
X59026190Y-81859523D01*
X58978571Y-81859523D01*
X58883333Y-81907142D01*
X58835714Y-82002380D01*
X58835714Y-82145238D01*
X58883333Y-82240476D01*
X59502380Y-82716666D02*
X58835714Y-82716666D01*
X58502380Y-82716666D02*
X58550000Y-82669047D01*
X58597619Y-82716666D01*
X58550000Y-82764285D01*
X58502380Y-82716666D01*
X58597619Y-82716666D01*
X58835714Y-83621428D02*
X59645238Y-83621428D01*
X59740476Y-83573809D01*
X59788095Y-83526190D01*
X59835714Y-83430952D01*
X59835714Y-83288095D01*
X59788095Y-83192857D01*
X59454761Y-83621428D02*
X59502380Y-83526190D01*
X59502380Y-83335714D01*
X59454761Y-83240476D01*
X59407142Y-83192857D01*
X59311904Y-83145238D01*
X59026190Y-83145238D01*
X58930952Y-83192857D01*
X58883333Y-83240476D01*
X58835714Y-83335714D01*
X58835714Y-83526190D01*
X58883333Y-83621428D01*
X58835714Y-84097619D02*
X59502380Y-84097619D01*
X58930952Y-84097619D02*
X58883333Y-84145238D01*
X58835714Y-84240476D01*
X58835714Y-84383333D01*
X58883333Y-84478571D01*
X58978571Y-84526190D01*
X59502380Y-84526190D01*
X59454761Y-85383333D02*
X59502380Y-85288095D01*
X59502380Y-85097619D01*
X59454761Y-85002380D01*
X59359523Y-84954761D01*
X58978571Y-84954761D01*
X58883333Y-85002380D01*
X58835714Y-85097619D01*
X58835714Y-85288095D01*
X58883333Y-85383333D01*
X58978571Y-85430952D01*
X59073809Y-85430952D01*
X59169047Y-84954761D01*
X59502380Y-86288095D02*
X58502380Y-86288095D01*
X59454761Y-86288095D02*
X59502380Y-86192857D01*
X59502380Y-86002380D01*
X59454761Y-85907142D01*
X59407142Y-85859523D01*
X59311904Y-85811904D01*
X59026190Y-85811904D01*
X58930952Y-85859523D01*
X58883333Y-85907142D01*
X58835714Y-86002380D01*
X58835714Y-86192857D01*
X58883333Y-86288095D01*
X59502380Y-87526190D02*
X58502380Y-87526190D01*
X58883333Y-87526190D02*
X58835714Y-87621428D01*
X58835714Y-87811904D01*
X58883333Y-87907142D01*
X58930952Y-87954761D01*
X59026190Y-88002380D01*
X59311904Y-88002380D01*
X59407142Y-87954761D01*
X59454761Y-87907142D01*
X59502380Y-87811904D01*
X59502380Y-87621428D01*
X59454761Y-87526190D01*
X58835714Y-88335714D02*
X59502380Y-88573809D01*
X58835714Y-88811904D02*
X59502380Y-88573809D01*
X59740476Y-88478571D01*
X59788095Y-88430952D01*
X59835714Y-88335714D01*
X58502380Y-90240476D02*
X59216666Y-90240476D01*
X59359523Y-90192857D01*
X59454761Y-90097619D01*
X59502380Y-89954761D01*
X59502380Y-89859523D01*
X59502380Y-91145238D02*
X58978571Y-91145238D01*
X58883333Y-91097619D01*
X58835714Y-91002380D01*
X58835714Y-90811904D01*
X58883333Y-90716666D01*
X59454761Y-91145238D02*
X59502380Y-91050000D01*
X59502380Y-90811904D01*
X59454761Y-90716666D01*
X59359523Y-90669047D01*
X59264285Y-90669047D01*
X59169047Y-90716666D01*
X59121428Y-90811904D01*
X59121428Y-91050000D01*
X59073809Y-91145238D01*
X59454761Y-92050000D02*
X59502380Y-91954761D01*
X59502380Y-91764285D01*
X59454761Y-91669047D01*
X59407142Y-91621428D01*
X59311904Y-91573809D01*
X59026190Y-91573809D01*
X58930952Y-91621428D01*
X58883333Y-91669047D01*
X58835714Y-91764285D01*
X58835714Y-91954761D01*
X58883333Y-92050000D01*
X59502380Y-92478571D02*
X58502380Y-92478571D01*
X59121428Y-92573809D02*
X59502380Y-92859523D01*
X58835714Y-92859523D02*
X59216666Y-92478571D01*
X59454761Y-93240476D02*
X59502380Y-93335714D01*
X59502380Y-93526190D01*
X59454761Y-93621428D01*
X59359523Y-93669047D01*
X59311904Y-93669047D01*
X59216666Y-93621428D01*
X59169047Y-93526190D01*
X59169047Y-93383333D01*
X59121428Y-93288095D01*
X59026190Y-93240476D01*
X58978571Y-93240476D01*
X58883333Y-93288095D01*
X58835714Y-93383333D01*
X58835714Y-93526190D01*
X58883333Y-93621428D01*
X59502380Y-94240476D02*
X59454761Y-94145238D01*
X59407142Y-94097619D01*
X59311904Y-94050000D01*
X59026190Y-94050000D01*
X58930952Y-94097619D01*
X58883333Y-94145238D01*
X58835714Y-94240476D01*
X58835714Y-94383333D01*
X58883333Y-94478571D01*
X58930952Y-94526190D01*
X59026190Y-94573809D01*
X59311904Y-94573809D01*
X59407142Y-94526190D01*
X59454761Y-94478571D01*
X59502380Y-94383333D01*
X59502380Y-94240476D01*
X58835714Y-95002380D02*
X59502380Y-95002380D01*
X58930952Y-95002380D02*
X58883333Y-95050000D01*
X58835714Y-95145238D01*
X58835714Y-95288095D01*
X58883333Y-95383333D01*
X58978571Y-95430952D01*
X59502380Y-95430952D01*
X59502380Y-96669047D02*
X58502380Y-96669047D01*
X59216666Y-97002380D01*
X58502380Y-97335714D01*
X59502380Y-97335714D01*
X59502380Y-98573809D02*
X58502380Y-98573809D01*
X58978571Y-98573809D02*
X58978571Y-99145238D01*
X59502380Y-99145238D02*
X58502380Y-99145238D01*
X58835714Y-100050000D02*
X59502380Y-100050000D01*
X58835714Y-99621428D02*
X59359523Y-99621428D01*
X59454761Y-99669047D01*
X59502380Y-99764285D01*
X59502380Y-99907142D01*
X59454761Y-100002380D01*
X59407142Y-100050000D01*
X97502380Y-80050000D02*
X96502380Y-80050000D01*
X96502380Y-80288095D01*
X96550000Y-80430952D01*
X96645238Y-80526190D01*
X96740476Y-80573809D01*
X96930952Y-80621428D01*
X97073809Y-80621428D01*
X97264285Y-80573809D01*
X97359523Y-80526190D01*
X97454761Y-80430952D01*
X97502380Y-80288095D01*
X97502380Y-80050000D01*
X97454761Y-81430952D02*
X97502380Y-81335714D01*
X97502380Y-81145238D01*
X97454761Y-81050000D01*
X97359523Y-81002380D01*
X96978571Y-81002380D01*
X96883333Y-81050000D01*
X96835714Y-81145238D01*
X96835714Y-81335714D01*
X96883333Y-81430952D01*
X96978571Y-81478571D01*
X97073809Y-81478571D01*
X97169047Y-81002380D01*
X97454761Y-81859523D02*
X97502380Y-81954761D01*
X97502380Y-82145238D01*
X97454761Y-82240476D01*
X97359523Y-82288095D01*
X97311904Y-82288095D01*
X97216666Y-82240476D01*
X97169047Y-82145238D01*
X97169047Y-82002380D01*
X97121428Y-81907142D01*
X97026190Y-81859523D01*
X96978571Y-81859523D01*
X96883333Y-81907142D01*
X96835714Y-82002380D01*
X96835714Y-82145238D01*
X96883333Y-82240476D01*
X97502380Y-82716666D02*
X96835714Y-82716666D01*
X96502380Y-82716666D02*
X96550000Y-82669047D01*
X96597619Y-82716666D01*
X96550000Y-82764285D01*
X96502380Y-82716666D01*
X96597619Y-82716666D01*
X96835714Y-83621428D02*
X97645238Y-83621428D01*
X97740476Y-83573809D01*
X97788095Y-83526190D01*
X97835714Y-83430952D01*
X97835714Y-83288095D01*
X97788095Y-83192857D01*
X97454761Y-83621428D02*
X97502380Y-83526190D01*
X97502380Y-83335714D01*
X97454761Y-83240476D01*
X97407142Y-83192857D01*
X97311904Y-83145238D01*
X97026190Y-83145238D01*
X96930952Y-83192857D01*
X96883333Y-83240476D01*
X96835714Y-83335714D01*
X96835714Y-83526190D01*
X96883333Y-83621428D01*
X96835714Y-84097619D02*
X97502380Y-84097619D01*
X96930952Y-84097619D02*
X96883333Y-84145238D01*
X96835714Y-84240476D01*
X96835714Y-84383333D01*
X96883333Y-84478571D01*
X96978571Y-84526190D01*
X97502380Y-84526190D01*
X97454761Y-85383333D02*
X97502380Y-85288095D01*
X97502380Y-85097619D01*
X97454761Y-85002380D01*
X97359523Y-84954761D01*
X96978571Y-84954761D01*
X96883333Y-85002380D01*
X96835714Y-85097619D01*
X96835714Y-85288095D01*
X96883333Y-85383333D01*
X96978571Y-85430952D01*
X97073809Y-85430952D01*
X97169047Y-84954761D01*
X97502380Y-86288095D02*
X96502380Y-86288095D01*
X97454761Y-86288095D02*
X97502380Y-86192857D01*
X97502380Y-86002380D01*
X97454761Y-85907142D01*
X97407142Y-85859523D01*
X97311904Y-85811904D01*
X97026190Y-85811904D01*
X96930952Y-85859523D01*
X96883333Y-85907142D01*
X96835714Y-86002380D01*
X96835714Y-86192857D01*
X96883333Y-86288095D01*
X97502380Y-87526190D02*
X96502380Y-87526190D01*
X96883333Y-87526190D02*
X96835714Y-87621428D01*
X96835714Y-87811904D01*
X96883333Y-87907142D01*
X96930952Y-87954761D01*
X97026190Y-88002380D01*
X97311904Y-88002380D01*
X97407142Y-87954761D01*
X97454761Y-87907142D01*
X97502380Y-87811904D01*
X97502380Y-87621428D01*
X97454761Y-87526190D01*
X96835714Y-88335714D02*
X97502380Y-88573809D01*
X96835714Y-88811904D02*
X97502380Y-88573809D01*
X97740476Y-88478571D01*
X97788095Y-88430952D01*
X97835714Y-88335714D01*
X96502380Y-90240476D02*
X97216666Y-90240476D01*
X97359523Y-90192857D01*
X97454761Y-90097619D01*
X97502380Y-89954761D01*
X97502380Y-89859523D01*
X97502380Y-91145238D02*
X96978571Y-91145238D01*
X96883333Y-91097619D01*
X96835714Y-91002380D01*
X96835714Y-90811904D01*
X96883333Y-90716666D01*
X97454761Y-91145238D02*
X97502380Y-91050000D01*
X97502380Y-90811904D01*
X97454761Y-90716666D01*
X97359523Y-90669047D01*
X97264285Y-90669047D01*
X97169047Y-90716666D01*
X97121428Y-90811904D01*
X97121428Y-91050000D01*
X97073809Y-91145238D01*
X97454761Y-92050000D02*
X97502380Y-91954761D01*
X97502380Y-91764285D01*
X97454761Y-91669047D01*
X97407142Y-91621428D01*
X97311904Y-91573809D01*
X97026190Y-91573809D01*
X96930952Y-91621428D01*
X96883333Y-91669047D01*
X96835714Y-91764285D01*
X96835714Y-91954761D01*
X96883333Y-92050000D01*
X97502380Y-92478571D02*
X96502380Y-92478571D01*
X97121428Y-92573809D02*
X97502380Y-92859523D01*
X96835714Y-92859523D02*
X97216666Y-92478571D01*
X97454761Y-93240476D02*
X97502380Y-93335714D01*
X97502380Y-93526190D01*
X97454761Y-93621428D01*
X97359523Y-93669047D01*
X97311904Y-93669047D01*
X97216666Y-93621428D01*
X97169047Y-93526190D01*
X97169047Y-93383333D01*
X97121428Y-93288095D01*
X97026190Y-93240476D01*
X96978571Y-93240476D01*
X96883333Y-93288095D01*
X96835714Y-93383333D01*
X96835714Y-93526190D01*
X96883333Y-93621428D01*
X97502380Y-94240476D02*
X97454761Y-94145238D01*
X97407142Y-94097619D01*
X97311904Y-94050000D01*
X97026190Y-94050000D01*
X96930952Y-94097619D01*
X96883333Y-94145238D01*
X96835714Y-94240476D01*
X96835714Y-94383333D01*
X96883333Y-94478571D01*
X96930952Y-94526190D01*
X97026190Y-94573809D01*
X97311904Y-94573809D01*
X97407142Y-94526190D01*
X97454761Y-94478571D01*
X97502380Y-94383333D01*
X97502380Y-94240476D01*
X96835714Y-95002380D02*
X97502380Y-95002380D01*
X96930952Y-95002380D02*
X96883333Y-95050000D01*
X96835714Y-95145238D01*
X96835714Y-95288095D01*
X96883333Y-95383333D01*
X96978571Y-95430952D01*
X97502380Y-95430952D01*
X97502380Y-96669047D02*
X96502380Y-96669047D01*
X97216666Y-97002380D01*
X96502380Y-97335714D01*
X97502380Y-97335714D01*
X97502380Y-98573809D02*
X96502380Y-98573809D01*
X96978571Y-98573809D02*
X96978571Y-99145238D01*
X97502380Y-99145238D02*
X96502380Y-99145238D01*
X96835714Y-100050000D02*
X97502380Y-100050000D01*
X96835714Y-99621428D02*
X97359523Y-99621428D01*
X97454761Y-99669047D01*
X97502380Y-99764285D01*
X97502380Y-99907142D01*
X97454761Y-100002380D01*
X97407142Y-100050000D01*
X27477809Y-47402619D02*
X27477809Y-46688333D01*
X27430190Y-46545476D01*
X27334952Y-46450238D01*
X27192095Y-46402619D01*
X27096857Y-46402619D01*
X28382571Y-47069285D02*
X28382571Y-46402619D01*
X27954000Y-47069285D02*
X27954000Y-46545476D01*
X28001619Y-46450238D01*
X28096857Y-46402619D01*
X28239714Y-46402619D01*
X28334952Y-46450238D01*
X28382571Y-46497857D01*
X28858761Y-46402619D02*
X28858761Y-47069285D01*
X28858761Y-46974047D02*
X28906380Y-47021666D01*
X29001619Y-47069285D01*
X29144476Y-47069285D01*
X29239714Y-47021666D01*
X29287333Y-46926428D01*
X29287333Y-46402619D01*
X29287333Y-46926428D02*
X29334952Y-47021666D01*
X29430190Y-47069285D01*
X29573047Y-47069285D01*
X29668285Y-47021666D01*
X29715904Y-46926428D01*
X29715904Y-46402619D01*
X30192095Y-46402619D02*
X30192095Y-47402619D01*
X30192095Y-47021666D02*
X30287333Y-47069285D01*
X30477809Y-47069285D01*
X30573047Y-47021666D01*
X30620666Y-46974047D01*
X30668285Y-46878809D01*
X30668285Y-46593095D01*
X30620666Y-46497857D01*
X30573047Y-46450238D01*
X30477809Y-46402619D01*
X30287333Y-46402619D01*
X30192095Y-46450238D01*
X31239714Y-46402619D02*
X31144476Y-46450238D01*
X31096857Y-46497857D01*
X31049238Y-46593095D01*
X31049238Y-46878809D01*
X31096857Y-46974047D01*
X31144476Y-47021666D01*
X31239714Y-47069285D01*
X31382571Y-47069285D01*
X31477809Y-47021666D01*
X31525428Y-46974047D01*
X31573047Y-46878809D01*
X31573047Y-46593095D01*
X31525428Y-46497857D01*
X31477809Y-46450238D01*
X31382571Y-46402619D01*
X31239714Y-46402619D01*
X32763523Y-46926428D02*
X33096857Y-46926428D01*
X33239714Y-46402619D02*
X32763523Y-46402619D01*
X32763523Y-47402619D01*
X33239714Y-47402619D01*
X33620666Y-46450238D02*
X33763523Y-46402619D01*
X34001619Y-46402619D01*
X34096857Y-46450238D01*
X34144476Y-46497857D01*
X34192095Y-46593095D01*
X34192095Y-46688333D01*
X34144476Y-46783571D01*
X34096857Y-46831190D01*
X34001619Y-46878809D01*
X33811142Y-46926428D01*
X33715904Y-46974047D01*
X33668285Y-47021666D01*
X33620666Y-47116904D01*
X33620666Y-47212142D01*
X33668285Y-47307380D01*
X33715904Y-47355000D01*
X33811142Y-47402619D01*
X34049238Y-47402619D01*
X34192095Y-47355000D01*
X34620666Y-46402619D02*
X34620666Y-47402619D01*
X35001619Y-47402619D01*
X35096857Y-47355000D01*
X35144476Y-47307380D01*
X35192095Y-47212142D01*
X35192095Y-47069285D01*
X35144476Y-46974047D01*
X35096857Y-46926428D01*
X35001619Y-46878809D01*
X34620666Y-46878809D01*
X35525428Y-47402619D02*
X36144476Y-47402619D01*
X35811142Y-47021666D01*
X35954000Y-47021666D01*
X36049238Y-46974047D01*
X36096857Y-46926428D01*
X36144476Y-46831190D01*
X36144476Y-46593095D01*
X36096857Y-46497857D01*
X36049238Y-46450238D01*
X35954000Y-46402619D01*
X35668285Y-46402619D01*
X35573047Y-46450238D01*
X35525428Y-46497857D01*
X36525428Y-47307380D02*
X36573047Y-47355000D01*
X36668285Y-47402619D01*
X36906380Y-47402619D01*
X37001619Y-47355000D01*
X37049238Y-47307380D01*
X37096857Y-47212142D01*
X37096857Y-47116904D01*
X37049238Y-46974047D01*
X36477809Y-46402619D01*
X37096857Y-46402619D01*
X27192095Y-45316428D02*
X27525428Y-45316428D01*
X27668285Y-44792619D02*
X27192095Y-44792619D01*
X27192095Y-45792619D01*
X27668285Y-45792619D01*
X28049238Y-44840238D02*
X28192095Y-44792619D01*
X28430190Y-44792619D01*
X28525428Y-44840238D01*
X28573047Y-44887857D01*
X28620666Y-44983095D01*
X28620666Y-45078333D01*
X28573047Y-45173571D01*
X28525428Y-45221190D01*
X28430190Y-45268809D01*
X28239714Y-45316428D01*
X28144476Y-45364047D01*
X28096857Y-45411666D01*
X28049238Y-45506904D01*
X28049238Y-45602142D01*
X28096857Y-45697380D01*
X28144476Y-45745000D01*
X28239714Y-45792619D01*
X28477809Y-45792619D01*
X28620666Y-45745000D01*
X29049238Y-44792619D02*
X29049238Y-45792619D01*
X29430190Y-45792619D01*
X29525428Y-45745000D01*
X29573047Y-45697380D01*
X29620666Y-45602142D01*
X29620666Y-45459285D01*
X29573047Y-45364047D01*
X29525428Y-45316428D01*
X29430190Y-45268809D01*
X29049238Y-45268809D01*
X29954000Y-45792619D02*
X30573047Y-45792619D01*
X30239714Y-45411666D01*
X30382571Y-45411666D01*
X30477809Y-45364047D01*
X30525428Y-45316428D01*
X30573047Y-45221190D01*
X30573047Y-44983095D01*
X30525428Y-44887857D01*
X30477809Y-44840238D01*
X30382571Y-44792619D01*
X30096857Y-44792619D01*
X30001619Y-44840238D01*
X29954000Y-44887857D01*
X30954000Y-45697380D02*
X31001619Y-45745000D01*
X31096857Y-45792619D01*
X31334952Y-45792619D01*
X31430190Y-45745000D01*
X31477809Y-45697380D01*
X31525428Y-45602142D01*
X31525428Y-45506904D01*
X31477809Y-45364047D01*
X30906380Y-44792619D01*
X31525428Y-44792619D01*
X31906380Y-44840238D02*
X32049238Y-44792619D01*
X32287333Y-44792619D01*
X32382571Y-44840238D01*
X32430190Y-44887857D01*
X32477809Y-44983095D01*
X32477809Y-45078333D01*
X32430190Y-45173571D01*
X32382571Y-45221190D01*
X32287333Y-45268809D01*
X32096857Y-45316428D01*
X32001619Y-45364047D01*
X31954000Y-45411666D01*
X31906380Y-45506904D01*
X31906380Y-45602142D01*
X31954000Y-45697380D01*
X32001619Y-45745000D01*
X32096857Y-45792619D01*
X32334952Y-45792619D01*
X32477809Y-45745000D01*
X32811142Y-45792619D02*
X33430190Y-45792619D01*
X33096857Y-45411666D01*
X33239714Y-45411666D01*
X33334952Y-45364047D01*
X33382571Y-45316428D01*
X33430190Y-45221190D01*
X33430190Y-44983095D01*
X33382571Y-44887857D01*
X33334952Y-44840238D01*
X33239714Y-44792619D01*
X32953999Y-44792619D01*
X32858761Y-44840238D01*
X32811142Y-44887857D01*
X35430190Y-44792619D02*
X35382571Y-44792619D01*
X35287333Y-44840238D01*
X35144476Y-44983095D01*
X34906380Y-45268809D01*
X34811142Y-45411666D01*
X34763523Y-45554523D01*
X34763523Y-45649761D01*
X34811142Y-45745000D01*
X34906380Y-45792619D01*
X34953999Y-45792619D01*
X35049238Y-45745000D01*
X35096857Y-45649761D01*
X35096857Y-45602142D01*
X35049238Y-45506904D01*
X35001619Y-45459285D01*
X34715904Y-45268809D01*
X34668285Y-45221190D01*
X34620666Y-45125952D01*
X34620666Y-44983095D01*
X34668285Y-44887857D01*
X34715904Y-44840238D01*
X34811142Y-44792619D01*
X34953999Y-44792619D01*
X35049238Y-44840238D01*
X35096857Y-44887857D01*
X35239714Y-45078333D01*
X35287333Y-45221190D01*
X35287333Y-45316428D01*
X36573047Y-45078333D02*
X37049238Y-45078333D01*
X36477809Y-44792619D02*
X36811142Y-45792619D01*
X37144476Y-44792619D01*
X37477809Y-44792619D02*
X37477809Y-45792619D01*
X37858761Y-45792619D01*
X37954000Y-45745000D01*
X38001619Y-45697380D01*
X38049238Y-45602142D01*
X38049238Y-45459285D01*
X38001619Y-45364047D01*
X37954000Y-45316428D01*
X37858761Y-45268809D01*
X37477809Y-45268809D01*
X38430190Y-44840238D02*
X38573047Y-44792619D01*
X38811142Y-44792619D01*
X38906380Y-44840238D01*
X38954000Y-44887857D01*
X39001619Y-44983095D01*
X39001619Y-45078333D01*
X38954000Y-45173571D01*
X38906380Y-45221190D01*
X38811142Y-45268809D01*
X38620666Y-45316428D01*
X38525428Y-45364047D01*
X38477809Y-45411666D01*
X38430190Y-45506904D01*
X38430190Y-45602142D01*
X38477809Y-45697380D01*
X38525428Y-45745000D01*
X38620666Y-45792619D01*
X38858761Y-45792619D01*
X39001619Y-45745000D01*
X39954000Y-44792619D02*
X39382571Y-44792619D01*
X39668285Y-44792619D02*
X39668285Y-45792619D01*
X39573047Y-45649761D01*
X39477809Y-45554523D01*
X39382571Y-45506904D01*
X40334952Y-45697380D02*
X40382571Y-45745000D01*
X40477809Y-45792619D01*
X40715904Y-45792619D01*
X40811142Y-45745000D01*
X40858761Y-45697380D01*
X40906380Y-45602142D01*
X40906380Y-45506904D01*
X40858761Y-45364047D01*
X40287333Y-44792619D01*
X40906380Y-44792619D01*
X41477809Y-45364047D02*
X41382571Y-45411666D01*
X41334952Y-45459285D01*
X41287333Y-45554523D01*
X41287333Y-45602142D01*
X41334952Y-45697380D01*
X41382571Y-45745000D01*
X41477809Y-45792619D01*
X41668285Y-45792619D01*
X41763523Y-45745000D01*
X41811142Y-45697380D01*
X41858761Y-45602142D01*
X41858761Y-45554523D01*
X41811142Y-45459285D01*
X41763523Y-45411666D01*
X41668285Y-45364047D01*
X41477809Y-45364047D01*
X41382571Y-45316428D01*
X41334952Y-45268809D01*
X41287333Y-45173571D01*
X41287333Y-44983095D01*
X41334952Y-44887857D01*
X41382571Y-44840238D01*
X41477809Y-44792619D01*
X41668285Y-44792619D01*
X41763523Y-44840238D01*
X41811142Y-44887857D01*
X41858761Y-44983095D01*
X41858761Y-45173571D01*
X41811142Y-45268809D01*
X41763523Y-45316428D01*
X41668285Y-45364047D01*
X42477809Y-45792619D02*
X42573047Y-45792619D01*
X42668285Y-45745000D01*
X42715904Y-45697380D01*
X42763523Y-45602142D01*
X42811142Y-45411666D01*
X42811142Y-45173571D01*
X42763523Y-44983095D01*
X42715904Y-44887857D01*
X42668285Y-44840238D01*
X42573047Y-44792619D01*
X42477809Y-44792619D01*
X42382571Y-44840238D01*
X42334952Y-44887857D01*
X42287333Y-44983095D01*
X42239714Y-45173571D01*
X42239714Y-45411666D01*
X42287333Y-45602142D01*
X42334952Y-45697380D01*
X42382571Y-45745000D01*
X42477809Y-45792619D01*
X43382571Y-45364047D02*
X43287333Y-45411666D01*
X43239714Y-45459285D01*
X43192095Y-45554523D01*
X43192095Y-45602142D01*
X43239714Y-45697380D01*
X43287333Y-45745000D01*
X43382571Y-45792619D01*
X43573047Y-45792619D01*
X43668285Y-45745000D01*
X43715904Y-45697380D01*
X43763523Y-45602142D01*
X43763523Y-45554523D01*
X43715904Y-45459285D01*
X43668285Y-45411666D01*
X43573047Y-45364047D01*
X43382571Y-45364047D01*
X43287333Y-45316428D01*
X43239714Y-45268809D01*
X43192095Y-45173571D01*
X43192095Y-44983095D01*
X43239714Y-44887857D01*
X43287333Y-44840238D01*
X43382571Y-44792619D01*
X43573047Y-44792619D01*
X43668285Y-44840238D01*
X43715904Y-44887857D01*
X43763523Y-44983095D01*
X43763523Y-45173571D01*
X43715904Y-45268809D01*
X43668285Y-45316428D01*
X43573047Y-45364047D01*
X65477809Y-47402619D02*
X65477809Y-46688333D01*
X65430190Y-46545476D01*
X65334952Y-46450238D01*
X65192095Y-46402619D01*
X65096857Y-46402619D01*
X66382571Y-47069285D02*
X66382571Y-46402619D01*
X65954000Y-47069285D02*
X65954000Y-46545476D01*
X66001619Y-46450238D01*
X66096857Y-46402619D01*
X66239714Y-46402619D01*
X66334952Y-46450238D01*
X66382571Y-46497857D01*
X66858761Y-46402619D02*
X66858761Y-47069285D01*
X66858761Y-46974047D02*
X66906380Y-47021666D01*
X67001619Y-47069285D01*
X67144476Y-47069285D01*
X67239714Y-47021666D01*
X67287333Y-46926428D01*
X67287333Y-46402619D01*
X67287333Y-46926428D02*
X67334952Y-47021666D01*
X67430190Y-47069285D01*
X67573047Y-47069285D01*
X67668285Y-47021666D01*
X67715904Y-46926428D01*
X67715904Y-46402619D01*
X68192095Y-46402619D02*
X68192095Y-47402619D01*
X68192095Y-47021666D02*
X68287333Y-47069285D01*
X68477809Y-47069285D01*
X68573047Y-47021666D01*
X68620666Y-46974047D01*
X68668285Y-46878809D01*
X68668285Y-46593095D01*
X68620666Y-46497857D01*
X68573047Y-46450238D01*
X68477809Y-46402619D01*
X68287333Y-46402619D01*
X68192095Y-46450238D01*
X69239714Y-46402619D02*
X69144476Y-46450238D01*
X69096857Y-46497857D01*
X69049238Y-46593095D01*
X69049238Y-46878809D01*
X69096857Y-46974047D01*
X69144476Y-47021666D01*
X69239714Y-47069285D01*
X69382571Y-47069285D01*
X69477809Y-47021666D01*
X69525428Y-46974047D01*
X69573047Y-46878809D01*
X69573047Y-46593095D01*
X69525428Y-46497857D01*
X69477809Y-46450238D01*
X69382571Y-46402619D01*
X69239714Y-46402619D01*
X70763523Y-46926428D02*
X71096857Y-46926428D01*
X71239714Y-46402619D02*
X70763523Y-46402619D01*
X70763523Y-47402619D01*
X71239714Y-47402619D01*
X71620666Y-46450238D02*
X71763523Y-46402619D01*
X72001619Y-46402619D01*
X72096857Y-46450238D01*
X72144476Y-46497857D01*
X72192095Y-46593095D01*
X72192095Y-46688333D01*
X72144476Y-46783571D01*
X72096857Y-46831190D01*
X72001619Y-46878809D01*
X71811142Y-46926428D01*
X71715904Y-46974047D01*
X71668285Y-47021666D01*
X71620666Y-47116904D01*
X71620666Y-47212142D01*
X71668285Y-47307380D01*
X71715904Y-47355000D01*
X71811142Y-47402619D01*
X72049238Y-47402619D01*
X72192095Y-47355000D01*
X72620666Y-46402619D02*
X72620666Y-47402619D01*
X73001619Y-47402619D01*
X73096857Y-47355000D01*
X73144476Y-47307380D01*
X73192095Y-47212142D01*
X73192095Y-47069285D01*
X73144476Y-46974047D01*
X73096857Y-46926428D01*
X73001619Y-46878809D01*
X72620666Y-46878809D01*
X73525428Y-47402619D02*
X74144476Y-47402619D01*
X73811142Y-47021666D01*
X73954000Y-47021666D01*
X74049238Y-46974047D01*
X74096857Y-46926428D01*
X74144476Y-46831190D01*
X74144476Y-46593095D01*
X74096857Y-46497857D01*
X74049238Y-46450238D01*
X73954000Y-46402619D01*
X73668285Y-46402619D01*
X73573047Y-46450238D01*
X73525428Y-46497857D01*
X74525428Y-47307380D02*
X74573047Y-47355000D01*
X74668285Y-47402619D01*
X74906380Y-47402619D01*
X75001619Y-47355000D01*
X75049238Y-47307380D01*
X75096857Y-47212142D01*
X75096857Y-47116904D01*
X75049238Y-46974047D01*
X74477809Y-46402619D01*
X75096857Y-46402619D01*
X65192095Y-45316428D02*
X65525428Y-45316428D01*
X65668285Y-44792619D02*
X65192095Y-44792619D01*
X65192095Y-45792619D01*
X65668285Y-45792619D01*
X66049238Y-44840238D02*
X66192095Y-44792619D01*
X66430190Y-44792619D01*
X66525428Y-44840238D01*
X66573047Y-44887857D01*
X66620666Y-44983095D01*
X66620666Y-45078333D01*
X66573047Y-45173571D01*
X66525428Y-45221190D01*
X66430190Y-45268809D01*
X66239714Y-45316428D01*
X66144476Y-45364047D01*
X66096857Y-45411666D01*
X66049238Y-45506904D01*
X66049238Y-45602142D01*
X66096857Y-45697380D01*
X66144476Y-45745000D01*
X66239714Y-45792619D01*
X66477809Y-45792619D01*
X66620666Y-45745000D01*
X67049238Y-44792619D02*
X67049238Y-45792619D01*
X67430190Y-45792619D01*
X67525428Y-45745000D01*
X67573047Y-45697380D01*
X67620666Y-45602142D01*
X67620666Y-45459285D01*
X67573047Y-45364047D01*
X67525428Y-45316428D01*
X67430190Y-45268809D01*
X67049238Y-45268809D01*
X67954000Y-45792619D02*
X68573047Y-45792619D01*
X68239714Y-45411666D01*
X68382571Y-45411666D01*
X68477809Y-45364047D01*
X68525428Y-45316428D01*
X68573047Y-45221190D01*
X68573047Y-44983095D01*
X68525428Y-44887857D01*
X68477809Y-44840238D01*
X68382571Y-44792619D01*
X68096857Y-44792619D01*
X68001619Y-44840238D01*
X67954000Y-44887857D01*
X68954000Y-45697380D02*
X69001619Y-45745000D01*
X69096857Y-45792619D01*
X69334952Y-45792619D01*
X69430190Y-45745000D01*
X69477809Y-45697380D01*
X69525428Y-45602142D01*
X69525428Y-45506904D01*
X69477809Y-45364047D01*
X68906380Y-44792619D01*
X69525428Y-44792619D01*
X69906380Y-44840238D02*
X70049238Y-44792619D01*
X70287333Y-44792619D01*
X70382571Y-44840238D01*
X70430190Y-44887857D01*
X70477809Y-44983095D01*
X70477809Y-45078333D01*
X70430190Y-45173571D01*
X70382571Y-45221190D01*
X70287333Y-45268809D01*
X70096857Y-45316428D01*
X70001619Y-45364047D01*
X69954000Y-45411666D01*
X69906380Y-45506904D01*
X69906380Y-45602142D01*
X69954000Y-45697380D01*
X70001619Y-45745000D01*
X70096857Y-45792619D01*
X70334952Y-45792619D01*
X70477809Y-45745000D01*
X70811142Y-45792619D02*
X71430190Y-45792619D01*
X71096857Y-45411666D01*
X71239714Y-45411666D01*
X71334952Y-45364047D01*
X71382571Y-45316428D01*
X71430190Y-45221190D01*
X71430190Y-44983095D01*
X71382571Y-44887857D01*
X71334952Y-44840238D01*
X71239714Y-44792619D01*
X70954000Y-44792619D01*
X70858761Y-44840238D01*
X70811142Y-44887857D01*
X73430190Y-44792619D02*
X73382571Y-44792619D01*
X73287333Y-44840238D01*
X73144476Y-44983095D01*
X72906380Y-45268809D01*
X72811142Y-45411666D01*
X72763523Y-45554523D01*
X72763523Y-45649761D01*
X72811142Y-45745000D01*
X72906380Y-45792619D01*
X72954000Y-45792619D01*
X73049238Y-45745000D01*
X73096857Y-45649761D01*
X73096857Y-45602142D01*
X73049238Y-45506904D01*
X73001619Y-45459285D01*
X72715904Y-45268809D01*
X72668285Y-45221190D01*
X72620666Y-45125952D01*
X72620666Y-44983095D01*
X72668285Y-44887857D01*
X72715904Y-44840238D01*
X72811142Y-44792619D01*
X72954000Y-44792619D01*
X73049238Y-44840238D01*
X73096857Y-44887857D01*
X73239714Y-45078333D01*
X73287333Y-45221190D01*
X73287333Y-45316428D01*
X74573047Y-45078333D02*
X75049238Y-45078333D01*
X74477809Y-44792619D02*
X74811142Y-45792619D01*
X75144476Y-44792619D01*
X75477809Y-44792619D02*
X75477809Y-45792619D01*
X75858761Y-45792619D01*
X75954000Y-45745000D01*
X76001619Y-45697380D01*
X76049238Y-45602142D01*
X76049238Y-45459285D01*
X76001619Y-45364047D01*
X75954000Y-45316428D01*
X75858761Y-45268809D01*
X75477809Y-45268809D01*
X76430190Y-44840238D02*
X76573047Y-44792619D01*
X76811142Y-44792619D01*
X76906380Y-44840238D01*
X76954000Y-44887857D01*
X77001619Y-44983095D01*
X77001619Y-45078333D01*
X76954000Y-45173571D01*
X76906380Y-45221190D01*
X76811142Y-45268809D01*
X76620666Y-45316428D01*
X76525428Y-45364047D01*
X76477809Y-45411666D01*
X76430190Y-45506904D01*
X76430190Y-45602142D01*
X76477809Y-45697380D01*
X76525428Y-45745000D01*
X76620666Y-45792619D01*
X76858761Y-45792619D01*
X77001619Y-45745000D01*
X77954000Y-44792619D02*
X77382571Y-44792619D01*
X77668285Y-44792619D02*
X77668285Y-45792619D01*
X77573047Y-45649761D01*
X77477809Y-45554523D01*
X77382571Y-45506904D01*
X78334952Y-45697380D02*
X78382571Y-45745000D01*
X78477809Y-45792619D01*
X78715904Y-45792619D01*
X78811142Y-45745000D01*
X78858761Y-45697380D01*
X78906380Y-45602142D01*
X78906380Y-45506904D01*
X78858761Y-45364047D01*
X78287333Y-44792619D01*
X78906380Y-44792619D01*
X79477809Y-45364047D02*
X79382571Y-45411666D01*
X79334952Y-45459285D01*
X79287333Y-45554523D01*
X79287333Y-45602142D01*
X79334952Y-45697380D01*
X79382571Y-45745000D01*
X79477809Y-45792619D01*
X79668285Y-45792619D01*
X79763523Y-45745000D01*
X79811142Y-45697380D01*
X79858761Y-45602142D01*
X79858761Y-45554523D01*
X79811142Y-45459285D01*
X79763523Y-45411666D01*
X79668285Y-45364047D01*
X79477809Y-45364047D01*
X79382571Y-45316428D01*
X79334952Y-45268809D01*
X79287333Y-45173571D01*
X79287333Y-44983095D01*
X79334952Y-44887857D01*
X79382571Y-44840238D01*
X79477809Y-44792619D01*
X79668285Y-44792619D01*
X79763523Y-44840238D01*
X79811142Y-44887857D01*
X79858761Y-44983095D01*
X79858761Y-45173571D01*
X79811142Y-45268809D01*
X79763523Y-45316428D01*
X79668285Y-45364047D01*
X80477809Y-45792619D02*
X80573047Y-45792619D01*
X80668285Y-45745000D01*
X80715904Y-45697380D01*
X80763523Y-45602142D01*
X80811142Y-45411666D01*
X80811142Y-45173571D01*
X80763523Y-44983095D01*
X80715904Y-44887857D01*
X80668285Y-44840238D01*
X80573047Y-44792619D01*
X80477809Y-44792619D01*
X80382571Y-44840238D01*
X80334952Y-44887857D01*
X80287333Y-44983095D01*
X80239714Y-45173571D01*
X80239714Y-45411666D01*
X80287333Y-45602142D01*
X80334952Y-45697380D01*
X80382571Y-45745000D01*
X80477809Y-45792619D01*
X81382571Y-45364047D02*
X81287333Y-45411666D01*
X81239714Y-45459285D01*
X81192095Y-45554523D01*
X81192095Y-45602142D01*
X81239714Y-45697380D01*
X81287333Y-45745000D01*
X81382571Y-45792619D01*
X81573047Y-45792619D01*
X81668285Y-45745000D01*
X81715904Y-45697380D01*
X81763523Y-45602142D01*
X81763523Y-45554523D01*
X81715904Y-45459285D01*
X81668285Y-45411666D01*
X81573047Y-45364047D01*
X81382571Y-45364047D01*
X81287333Y-45316428D01*
X81239714Y-45268809D01*
X81192095Y-45173571D01*
X81192095Y-44983095D01*
X81239714Y-44887857D01*
X81287333Y-44840238D01*
X81382571Y-44792619D01*
X81573047Y-44792619D01*
X81668285Y-44840238D01*
X81715904Y-44887857D01*
X81763523Y-44983095D01*
X81763523Y-45173571D01*
X81715904Y-45268809D01*
X81668285Y-45316428D01*
X81573047Y-45364047D01*
X27477809Y-72402619D02*
X27477809Y-71688333D01*
X27430190Y-71545476D01*
X27334952Y-71450238D01*
X27192095Y-71402619D01*
X27096857Y-71402619D01*
X28382571Y-72069285D02*
X28382571Y-71402619D01*
X27954000Y-72069285D02*
X27954000Y-71545476D01*
X28001619Y-71450238D01*
X28096857Y-71402619D01*
X28239714Y-71402619D01*
X28334952Y-71450238D01*
X28382571Y-71497857D01*
X28858761Y-71402619D02*
X28858761Y-72069285D01*
X28858761Y-71974047D02*
X28906380Y-72021666D01*
X29001619Y-72069285D01*
X29144476Y-72069285D01*
X29239714Y-72021666D01*
X29287333Y-71926428D01*
X29287333Y-71402619D01*
X29287333Y-71926428D02*
X29334952Y-72021666D01*
X29430190Y-72069285D01*
X29573047Y-72069285D01*
X29668285Y-72021666D01*
X29715904Y-71926428D01*
X29715904Y-71402619D01*
X30192095Y-71402619D02*
X30192095Y-72402619D01*
X30192095Y-72021666D02*
X30287333Y-72069285D01*
X30477809Y-72069285D01*
X30573047Y-72021666D01*
X30620666Y-71974047D01*
X30668285Y-71878809D01*
X30668285Y-71593095D01*
X30620666Y-71497857D01*
X30573047Y-71450238D01*
X30477809Y-71402619D01*
X30287333Y-71402619D01*
X30192095Y-71450238D01*
X31239714Y-71402619D02*
X31144476Y-71450238D01*
X31096857Y-71497857D01*
X31049238Y-71593095D01*
X31049238Y-71878809D01*
X31096857Y-71974047D01*
X31144476Y-72021666D01*
X31239714Y-72069285D01*
X31382571Y-72069285D01*
X31477809Y-72021666D01*
X31525428Y-71974047D01*
X31573047Y-71878809D01*
X31573047Y-71593095D01*
X31525428Y-71497857D01*
X31477809Y-71450238D01*
X31382571Y-71402619D01*
X31239714Y-71402619D01*
X32763523Y-71926428D02*
X33096857Y-71926428D01*
X33239714Y-71402619D02*
X32763523Y-71402619D01*
X32763523Y-72402619D01*
X33239714Y-72402619D01*
X33620666Y-71450238D02*
X33763523Y-71402619D01*
X34001619Y-71402619D01*
X34096857Y-71450238D01*
X34144476Y-71497857D01*
X34192095Y-71593095D01*
X34192095Y-71688333D01*
X34144476Y-71783571D01*
X34096857Y-71831190D01*
X34001619Y-71878809D01*
X33811142Y-71926428D01*
X33715904Y-71974047D01*
X33668285Y-72021666D01*
X33620666Y-72116904D01*
X33620666Y-72212142D01*
X33668285Y-72307380D01*
X33715904Y-72355000D01*
X33811142Y-72402619D01*
X34049238Y-72402619D01*
X34192095Y-72355000D01*
X34620666Y-71402619D02*
X34620666Y-72402619D01*
X35001619Y-72402619D01*
X35096857Y-72355000D01*
X35144476Y-72307380D01*
X35192095Y-72212142D01*
X35192095Y-72069285D01*
X35144476Y-71974047D01*
X35096857Y-71926428D01*
X35001619Y-71878809D01*
X34620666Y-71878809D01*
X35525428Y-72402619D02*
X36144476Y-72402619D01*
X35811142Y-72021666D01*
X35954000Y-72021666D01*
X36049238Y-71974047D01*
X36096857Y-71926428D01*
X36144476Y-71831190D01*
X36144476Y-71593095D01*
X36096857Y-71497857D01*
X36049238Y-71450238D01*
X35954000Y-71402619D01*
X35668285Y-71402619D01*
X35573047Y-71450238D01*
X35525428Y-71497857D01*
X36525428Y-72307380D02*
X36573047Y-72355000D01*
X36668285Y-72402619D01*
X36906380Y-72402619D01*
X37001619Y-72355000D01*
X37049238Y-72307380D01*
X37096857Y-72212142D01*
X37096857Y-72116904D01*
X37049238Y-71974047D01*
X36477809Y-71402619D01*
X37096857Y-71402619D01*
X27192095Y-70316428D02*
X27525428Y-70316428D01*
X27668285Y-69792619D02*
X27192095Y-69792619D01*
X27192095Y-70792619D01*
X27668285Y-70792619D01*
X28049238Y-69840238D02*
X28192095Y-69792619D01*
X28430190Y-69792619D01*
X28525428Y-69840238D01*
X28573047Y-69887857D01*
X28620666Y-69983095D01*
X28620666Y-70078333D01*
X28573047Y-70173571D01*
X28525428Y-70221190D01*
X28430190Y-70268809D01*
X28239714Y-70316428D01*
X28144476Y-70364047D01*
X28096857Y-70411666D01*
X28049238Y-70506904D01*
X28049238Y-70602142D01*
X28096857Y-70697380D01*
X28144476Y-70745000D01*
X28239714Y-70792619D01*
X28477809Y-70792619D01*
X28620666Y-70745000D01*
X29049238Y-69792619D02*
X29049238Y-70792619D01*
X29430190Y-70792619D01*
X29525428Y-70745000D01*
X29573047Y-70697380D01*
X29620666Y-70602142D01*
X29620666Y-70459285D01*
X29573047Y-70364047D01*
X29525428Y-70316428D01*
X29430190Y-70268809D01*
X29049238Y-70268809D01*
X29954000Y-70792619D02*
X30573047Y-70792619D01*
X30239714Y-70411666D01*
X30382571Y-70411666D01*
X30477809Y-70364047D01*
X30525428Y-70316428D01*
X30573047Y-70221190D01*
X30573047Y-69983095D01*
X30525428Y-69887857D01*
X30477809Y-69840238D01*
X30382571Y-69792619D01*
X30096857Y-69792619D01*
X30001619Y-69840238D01*
X29954000Y-69887857D01*
X30954000Y-70697380D02*
X31001619Y-70745000D01*
X31096857Y-70792619D01*
X31334952Y-70792619D01*
X31430190Y-70745000D01*
X31477809Y-70697380D01*
X31525428Y-70602142D01*
X31525428Y-70506904D01*
X31477809Y-70364047D01*
X30906380Y-69792619D01*
X31525428Y-69792619D01*
X31906380Y-69840238D02*
X32049238Y-69792619D01*
X32287333Y-69792619D01*
X32382571Y-69840238D01*
X32430190Y-69887857D01*
X32477809Y-69983095D01*
X32477809Y-70078333D01*
X32430190Y-70173571D01*
X32382571Y-70221190D01*
X32287333Y-70268809D01*
X32096857Y-70316428D01*
X32001619Y-70364047D01*
X31954000Y-70411666D01*
X31906380Y-70506904D01*
X31906380Y-70602142D01*
X31954000Y-70697380D01*
X32001619Y-70745000D01*
X32096857Y-70792619D01*
X32334952Y-70792619D01*
X32477809Y-70745000D01*
X32811142Y-70792619D02*
X33430190Y-70792619D01*
X33096857Y-70411666D01*
X33239714Y-70411666D01*
X33334952Y-70364047D01*
X33382571Y-70316428D01*
X33430190Y-70221190D01*
X33430190Y-69983095D01*
X33382571Y-69887857D01*
X33334952Y-69840238D01*
X33239714Y-69792619D01*
X32953999Y-69792619D01*
X32858761Y-69840238D01*
X32811142Y-69887857D01*
X35430190Y-69792619D02*
X35382571Y-69792619D01*
X35287333Y-69840238D01*
X35144476Y-69983095D01*
X34906380Y-70268809D01*
X34811142Y-70411666D01*
X34763523Y-70554523D01*
X34763523Y-70649761D01*
X34811142Y-70745000D01*
X34906380Y-70792619D01*
X34953999Y-70792619D01*
X35049238Y-70745000D01*
X35096857Y-70649761D01*
X35096857Y-70602142D01*
X35049238Y-70506904D01*
X35001619Y-70459285D01*
X34715904Y-70268809D01*
X34668285Y-70221190D01*
X34620666Y-70125952D01*
X34620666Y-69983095D01*
X34668285Y-69887857D01*
X34715904Y-69840238D01*
X34811142Y-69792619D01*
X34953999Y-69792619D01*
X35049238Y-69840238D01*
X35096857Y-69887857D01*
X35239714Y-70078333D01*
X35287333Y-70221190D01*
X35287333Y-70316428D01*
X36573047Y-70078333D02*
X37049238Y-70078333D01*
X36477809Y-69792619D02*
X36811142Y-70792619D01*
X37144476Y-69792619D01*
X37477809Y-69792619D02*
X37477809Y-70792619D01*
X37858761Y-70792619D01*
X37954000Y-70745000D01*
X38001619Y-70697380D01*
X38049238Y-70602142D01*
X38049238Y-70459285D01*
X38001619Y-70364047D01*
X37954000Y-70316428D01*
X37858761Y-70268809D01*
X37477809Y-70268809D01*
X38430190Y-69840238D02*
X38573047Y-69792619D01*
X38811142Y-69792619D01*
X38906380Y-69840238D01*
X38954000Y-69887857D01*
X39001619Y-69983095D01*
X39001619Y-70078333D01*
X38954000Y-70173571D01*
X38906380Y-70221190D01*
X38811142Y-70268809D01*
X38620666Y-70316428D01*
X38525428Y-70364047D01*
X38477809Y-70411666D01*
X38430190Y-70506904D01*
X38430190Y-70602142D01*
X38477809Y-70697380D01*
X38525428Y-70745000D01*
X38620666Y-70792619D01*
X38858761Y-70792619D01*
X39001619Y-70745000D01*
X39954000Y-69792619D02*
X39382571Y-69792619D01*
X39668285Y-69792619D02*
X39668285Y-70792619D01*
X39573047Y-70649761D01*
X39477809Y-70554523D01*
X39382571Y-70506904D01*
X40334952Y-70697380D02*
X40382571Y-70745000D01*
X40477809Y-70792619D01*
X40715904Y-70792619D01*
X40811142Y-70745000D01*
X40858761Y-70697380D01*
X40906380Y-70602142D01*
X40906380Y-70506904D01*
X40858761Y-70364047D01*
X40287333Y-69792619D01*
X40906380Y-69792619D01*
X41477809Y-70364047D02*
X41382571Y-70411666D01*
X41334952Y-70459285D01*
X41287333Y-70554523D01*
X41287333Y-70602142D01*
X41334952Y-70697380D01*
X41382571Y-70745000D01*
X41477809Y-70792619D01*
X41668285Y-70792619D01*
X41763523Y-70745000D01*
X41811142Y-70697380D01*
X41858761Y-70602142D01*
X41858761Y-70554523D01*
X41811142Y-70459285D01*
X41763523Y-70411666D01*
X41668285Y-70364047D01*
X41477809Y-70364047D01*
X41382571Y-70316428D01*
X41334952Y-70268809D01*
X41287333Y-70173571D01*
X41287333Y-69983095D01*
X41334952Y-69887857D01*
X41382571Y-69840238D01*
X41477809Y-69792619D01*
X41668285Y-69792619D01*
X41763523Y-69840238D01*
X41811142Y-69887857D01*
X41858761Y-69983095D01*
X41858761Y-70173571D01*
X41811142Y-70268809D01*
X41763523Y-70316428D01*
X41668285Y-70364047D01*
X42477809Y-70792619D02*
X42573047Y-70792619D01*
X42668285Y-70745000D01*
X42715904Y-70697380D01*
X42763523Y-70602142D01*
X42811142Y-70411666D01*
X42811142Y-70173571D01*
X42763523Y-69983095D01*
X42715904Y-69887857D01*
X42668285Y-69840238D01*
X42573047Y-69792619D01*
X42477809Y-69792619D01*
X42382571Y-69840238D01*
X42334952Y-69887857D01*
X42287333Y-69983095D01*
X42239714Y-70173571D01*
X42239714Y-70411666D01*
X42287333Y-70602142D01*
X42334952Y-70697380D01*
X42382571Y-70745000D01*
X42477809Y-70792619D01*
X43382571Y-70364047D02*
X43287333Y-70411666D01*
X43239714Y-70459285D01*
X43192095Y-70554523D01*
X43192095Y-70602142D01*
X43239714Y-70697380D01*
X43287333Y-70745000D01*
X43382571Y-70792619D01*
X43573047Y-70792619D01*
X43668285Y-70745000D01*
X43715904Y-70697380D01*
X43763523Y-70602142D01*
X43763523Y-70554523D01*
X43715904Y-70459285D01*
X43668285Y-70411666D01*
X43573047Y-70364047D01*
X43382571Y-70364047D01*
X43287333Y-70316428D01*
X43239714Y-70268809D01*
X43192095Y-70173571D01*
X43192095Y-69983095D01*
X43239714Y-69887857D01*
X43287333Y-69840238D01*
X43382571Y-69792619D01*
X43573047Y-69792619D01*
X43668285Y-69840238D01*
X43715904Y-69887857D01*
X43763523Y-69983095D01*
X43763523Y-70173571D01*
X43715904Y-70268809D01*
X43668285Y-70316428D01*
X43573047Y-70364047D01*
X65477809Y-72402619D02*
X65477809Y-71688333D01*
X65430190Y-71545476D01*
X65334952Y-71450238D01*
X65192095Y-71402619D01*
X65096857Y-71402619D01*
X66382571Y-72069285D02*
X66382571Y-71402619D01*
X65954000Y-72069285D02*
X65954000Y-71545476D01*
X66001619Y-71450238D01*
X66096857Y-71402619D01*
X66239714Y-71402619D01*
X66334952Y-71450238D01*
X66382571Y-71497857D01*
X66858761Y-71402619D02*
X66858761Y-72069285D01*
X66858761Y-71974047D02*
X66906380Y-72021666D01*
X67001619Y-72069285D01*
X67144476Y-72069285D01*
X67239714Y-72021666D01*
X67287333Y-71926428D01*
X67287333Y-71402619D01*
X67287333Y-71926428D02*
X67334952Y-72021666D01*
X67430190Y-72069285D01*
X67573047Y-72069285D01*
X67668285Y-72021666D01*
X67715904Y-71926428D01*
X67715904Y-71402619D01*
X68192095Y-71402619D02*
X68192095Y-72402619D01*
X68192095Y-72021666D02*
X68287333Y-72069285D01*
X68477809Y-72069285D01*
X68573047Y-72021666D01*
X68620666Y-71974047D01*
X68668285Y-71878809D01*
X68668285Y-71593095D01*
X68620666Y-71497857D01*
X68573047Y-71450238D01*
X68477809Y-71402619D01*
X68287333Y-71402619D01*
X68192095Y-71450238D01*
X69239714Y-71402619D02*
X69144476Y-71450238D01*
X69096857Y-71497857D01*
X69049238Y-71593095D01*
X69049238Y-71878809D01*
X69096857Y-71974047D01*
X69144476Y-72021666D01*
X69239714Y-72069285D01*
X69382571Y-72069285D01*
X69477809Y-72021666D01*
X69525428Y-71974047D01*
X69573047Y-71878809D01*
X69573047Y-71593095D01*
X69525428Y-71497857D01*
X69477809Y-71450238D01*
X69382571Y-71402619D01*
X69239714Y-71402619D01*
X70763523Y-71926428D02*
X71096857Y-71926428D01*
X71239714Y-71402619D02*
X70763523Y-71402619D01*
X70763523Y-72402619D01*
X71239714Y-72402619D01*
X71620666Y-71450238D02*
X71763523Y-71402619D01*
X72001619Y-71402619D01*
X72096857Y-71450238D01*
X72144476Y-71497857D01*
X72192095Y-71593095D01*
X72192095Y-71688333D01*
X72144476Y-71783571D01*
X72096857Y-71831190D01*
X72001619Y-71878809D01*
X71811142Y-71926428D01*
X71715904Y-71974047D01*
X71668285Y-72021666D01*
X71620666Y-72116904D01*
X71620666Y-72212142D01*
X71668285Y-72307380D01*
X71715904Y-72355000D01*
X71811142Y-72402619D01*
X72049238Y-72402619D01*
X72192095Y-72355000D01*
X72620666Y-71402619D02*
X72620666Y-72402619D01*
X73001619Y-72402619D01*
X73096857Y-72355000D01*
X73144476Y-72307380D01*
X73192095Y-72212142D01*
X73192095Y-72069285D01*
X73144476Y-71974047D01*
X73096857Y-71926428D01*
X73001619Y-71878809D01*
X72620666Y-71878809D01*
X73525428Y-72402619D02*
X74144476Y-72402619D01*
X73811142Y-72021666D01*
X73954000Y-72021666D01*
X74049238Y-71974047D01*
X74096857Y-71926428D01*
X74144476Y-71831190D01*
X74144476Y-71593095D01*
X74096857Y-71497857D01*
X74049238Y-71450238D01*
X73954000Y-71402619D01*
X73668285Y-71402619D01*
X73573047Y-71450238D01*
X73525428Y-71497857D01*
X74525428Y-72307380D02*
X74573047Y-72355000D01*
X74668285Y-72402619D01*
X74906380Y-72402619D01*
X75001619Y-72355000D01*
X75049238Y-72307380D01*
X75096857Y-72212142D01*
X75096857Y-72116904D01*
X75049238Y-71974047D01*
X74477809Y-71402619D01*
X75096857Y-71402619D01*
X65192095Y-70316428D02*
X65525428Y-70316428D01*
X65668285Y-69792619D02*
X65192095Y-69792619D01*
X65192095Y-70792619D01*
X65668285Y-70792619D01*
X66049238Y-69840238D02*
X66192095Y-69792619D01*
X66430190Y-69792619D01*
X66525428Y-69840238D01*
X66573047Y-69887857D01*
X66620666Y-69983095D01*
X66620666Y-70078333D01*
X66573047Y-70173571D01*
X66525428Y-70221190D01*
X66430190Y-70268809D01*
X66239714Y-70316428D01*
X66144476Y-70364047D01*
X66096857Y-70411666D01*
X66049238Y-70506904D01*
X66049238Y-70602142D01*
X66096857Y-70697380D01*
X66144476Y-70745000D01*
X66239714Y-70792619D01*
X66477809Y-70792619D01*
X66620666Y-70745000D01*
X67049238Y-69792619D02*
X67049238Y-70792619D01*
X67430190Y-70792619D01*
X67525428Y-70745000D01*
X67573047Y-70697380D01*
X67620666Y-70602142D01*
X67620666Y-70459285D01*
X67573047Y-70364047D01*
X67525428Y-70316428D01*
X67430190Y-70268809D01*
X67049238Y-70268809D01*
X67954000Y-70792619D02*
X68573047Y-70792619D01*
X68239714Y-70411666D01*
X68382571Y-70411666D01*
X68477809Y-70364047D01*
X68525428Y-70316428D01*
X68573047Y-70221190D01*
X68573047Y-69983095D01*
X68525428Y-69887857D01*
X68477809Y-69840238D01*
X68382571Y-69792619D01*
X68096857Y-69792619D01*
X68001619Y-69840238D01*
X67954000Y-69887857D01*
X68954000Y-70697380D02*
X69001619Y-70745000D01*
X69096857Y-70792619D01*
X69334952Y-70792619D01*
X69430190Y-70745000D01*
X69477809Y-70697380D01*
X69525428Y-70602142D01*
X69525428Y-70506904D01*
X69477809Y-70364047D01*
X68906380Y-69792619D01*
X69525428Y-69792619D01*
X69906380Y-69840238D02*
X70049238Y-69792619D01*
X70287333Y-69792619D01*
X70382571Y-69840238D01*
X70430190Y-69887857D01*
X70477809Y-69983095D01*
X70477809Y-70078333D01*
X70430190Y-70173571D01*
X70382571Y-70221190D01*
X70287333Y-70268809D01*
X70096857Y-70316428D01*
X70001619Y-70364047D01*
X69954000Y-70411666D01*
X69906380Y-70506904D01*
X69906380Y-70602142D01*
X69954000Y-70697380D01*
X70001619Y-70745000D01*
X70096857Y-70792619D01*
X70334952Y-70792619D01*
X70477809Y-70745000D01*
X70811142Y-70792619D02*
X71430190Y-70792619D01*
X71096857Y-70411666D01*
X71239714Y-70411666D01*
X71334952Y-70364047D01*
X71382571Y-70316428D01*
X71430190Y-70221190D01*
X71430190Y-69983095D01*
X71382571Y-69887857D01*
X71334952Y-69840238D01*
X71239714Y-69792619D01*
X70954000Y-69792619D01*
X70858761Y-69840238D01*
X70811142Y-69887857D01*
X73430190Y-69792619D02*
X73382571Y-69792619D01*
X73287333Y-69840238D01*
X73144476Y-69983095D01*
X72906380Y-70268809D01*
X72811142Y-70411666D01*
X72763523Y-70554523D01*
X72763523Y-70649761D01*
X72811142Y-70745000D01*
X72906380Y-70792619D01*
X72954000Y-70792619D01*
X73049238Y-70745000D01*
X73096857Y-70649761D01*
X73096857Y-70602142D01*
X73049238Y-70506904D01*
X73001619Y-70459285D01*
X72715904Y-70268809D01*
X72668285Y-70221190D01*
X72620666Y-70125952D01*
X72620666Y-69983095D01*
X72668285Y-69887857D01*
X72715904Y-69840238D01*
X72811142Y-69792619D01*
X72954000Y-69792619D01*
X73049238Y-69840238D01*
X73096857Y-69887857D01*
X73239714Y-70078333D01*
X73287333Y-70221190D01*
X73287333Y-70316428D01*
X74573047Y-70078333D02*
X75049238Y-70078333D01*
X74477809Y-69792619D02*
X74811142Y-70792619D01*
X75144476Y-69792619D01*
X75477809Y-69792619D02*
X75477809Y-70792619D01*
X75858761Y-70792619D01*
X75954000Y-70745000D01*
X76001619Y-70697380D01*
X76049238Y-70602142D01*
X76049238Y-70459285D01*
X76001619Y-70364047D01*
X75954000Y-70316428D01*
X75858761Y-70268809D01*
X75477809Y-70268809D01*
X76430190Y-69840238D02*
X76573047Y-69792619D01*
X76811142Y-69792619D01*
X76906380Y-69840238D01*
X76954000Y-69887857D01*
X77001619Y-69983095D01*
X77001619Y-70078333D01*
X76954000Y-70173571D01*
X76906380Y-70221190D01*
X76811142Y-70268809D01*
X76620666Y-70316428D01*
X76525428Y-70364047D01*
X76477809Y-70411666D01*
X76430190Y-70506904D01*
X76430190Y-70602142D01*
X76477809Y-70697380D01*
X76525428Y-70745000D01*
X76620666Y-70792619D01*
X76858761Y-70792619D01*
X77001619Y-70745000D01*
X77954000Y-69792619D02*
X77382571Y-69792619D01*
X77668285Y-69792619D02*
X77668285Y-70792619D01*
X77573047Y-70649761D01*
X77477809Y-70554523D01*
X77382571Y-70506904D01*
X78334952Y-70697380D02*
X78382571Y-70745000D01*
X78477809Y-70792619D01*
X78715904Y-70792619D01*
X78811142Y-70745000D01*
X78858761Y-70697380D01*
X78906380Y-70602142D01*
X78906380Y-70506904D01*
X78858761Y-70364047D01*
X78287333Y-69792619D01*
X78906380Y-69792619D01*
X79477809Y-70364047D02*
X79382571Y-70411666D01*
X79334952Y-70459285D01*
X79287333Y-70554523D01*
X79287333Y-70602142D01*
X79334952Y-70697380D01*
X79382571Y-70745000D01*
X79477809Y-70792619D01*
X79668285Y-70792619D01*
X79763523Y-70745000D01*
X79811142Y-70697380D01*
X79858761Y-70602142D01*
X79858761Y-70554523D01*
X79811142Y-70459285D01*
X79763523Y-70411666D01*
X79668285Y-70364047D01*
X79477809Y-70364047D01*
X79382571Y-70316428D01*
X79334952Y-70268809D01*
X79287333Y-70173571D01*
X79287333Y-69983095D01*
X79334952Y-69887857D01*
X79382571Y-69840238D01*
X79477809Y-69792619D01*
X79668285Y-69792619D01*
X79763523Y-69840238D01*
X79811142Y-69887857D01*
X79858761Y-69983095D01*
X79858761Y-70173571D01*
X79811142Y-70268809D01*
X79763523Y-70316428D01*
X79668285Y-70364047D01*
X80477809Y-70792619D02*
X80573047Y-70792619D01*
X80668285Y-70745000D01*
X80715904Y-70697380D01*
X80763523Y-70602142D01*
X80811142Y-70411666D01*
X80811142Y-70173571D01*
X80763523Y-69983095D01*
X80715904Y-69887857D01*
X80668285Y-69840238D01*
X80573047Y-69792619D01*
X80477809Y-69792619D01*
X80382571Y-69840238D01*
X80334952Y-69887857D01*
X80287333Y-69983095D01*
X80239714Y-70173571D01*
X80239714Y-70411666D01*
X80287333Y-70602142D01*
X80334952Y-70697380D01*
X80382571Y-70745000D01*
X80477809Y-70792619D01*
X81382571Y-70364047D02*
X81287333Y-70411666D01*
X81239714Y-70459285D01*
X81192095Y-70554523D01*
X81192095Y-70602142D01*
X81239714Y-70697380D01*
X81287333Y-70745000D01*
X81382571Y-70792619D01*
X81573047Y-70792619D01*
X81668285Y-70745000D01*
X81715904Y-70697380D01*
X81763523Y-70602142D01*
X81763523Y-70554523D01*
X81715904Y-70459285D01*
X81668285Y-70411666D01*
X81573047Y-70364047D01*
X81382571Y-70364047D01*
X81287333Y-70316428D01*
X81239714Y-70268809D01*
X81192095Y-70173571D01*
X81192095Y-69983095D01*
X81239714Y-69887857D01*
X81287333Y-69840238D01*
X81382571Y-69792619D01*
X81573047Y-69792619D01*
X81668285Y-69840238D01*
X81715904Y-69887857D01*
X81763523Y-69983095D01*
X81763523Y-70173571D01*
X81715904Y-70268809D01*
X81668285Y-70316428D01*
X81573047Y-70364047D01*
X27477809Y-97402619D02*
X27477809Y-96688333D01*
X27430190Y-96545476D01*
X27334952Y-96450238D01*
X27192095Y-96402619D01*
X27096857Y-96402619D01*
X28382571Y-97069285D02*
X28382571Y-96402619D01*
X27954000Y-97069285D02*
X27954000Y-96545476D01*
X28001619Y-96450238D01*
X28096857Y-96402619D01*
X28239714Y-96402619D01*
X28334952Y-96450238D01*
X28382571Y-96497857D01*
X28858761Y-96402619D02*
X28858761Y-97069285D01*
X28858761Y-96974047D02*
X28906380Y-97021666D01*
X29001619Y-97069285D01*
X29144476Y-97069285D01*
X29239714Y-97021666D01*
X29287333Y-96926428D01*
X29287333Y-96402619D01*
X29287333Y-96926428D02*
X29334952Y-97021666D01*
X29430190Y-97069285D01*
X29573047Y-97069285D01*
X29668285Y-97021666D01*
X29715904Y-96926428D01*
X29715904Y-96402619D01*
X30192095Y-96402619D02*
X30192095Y-97402619D01*
X30192095Y-97021666D02*
X30287333Y-97069285D01*
X30477809Y-97069285D01*
X30573047Y-97021666D01*
X30620666Y-96974047D01*
X30668285Y-96878809D01*
X30668285Y-96593095D01*
X30620666Y-96497857D01*
X30573047Y-96450238D01*
X30477809Y-96402619D01*
X30287333Y-96402619D01*
X30192095Y-96450238D01*
X31239714Y-96402619D02*
X31144476Y-96450238D01*
X31096857Y-96497857D01*
X31049238Y-96593095D01*
X31049238Y-96878809D01*
X31096857Y-96974047D01*
X31144476Y-97021666D01*
X31239714Y-97069285D01*
X31382571Y-97069285D01*
X31477809Y-97021666D01*
X31525428Y-96974047D01*
X31573047Y-96878809D01*
X31573047Y-96593095D01*
X31525428Y-96497857D01*
X31477809Y-96450238D01*
X31382571Y-96402619D01*
X31239714Y-96402619D01*
X32763523Y-96926428D02*
X33096857Y-96926428D01*
X33239714Y-96402619D02*
X32763523Y-96402619D01*
X32763523Y-97402619D01*
X33239714Y-97402619D01*
X33620666Y-96450238D02*
X33763523Y-96402619D01*
X34001619Y-96402619D01*
X34096857Y-96450238D01*
X34144476Y-96497857D01*
X34192095Y-96593095D01*
X34192095Y-96688333D01*
X34144476Y-96783571D01*
X34096857Y-96831190D01*
X34001619Y-96878809D01*
X33811142Y-96926428D01*
X33715904Y-96974047D01*
X33668285Y-97021666D01*
X33620666Y-97116904D01*
X33620666Y-97212142D01*
X33668285Y-97307380D01*
X33715904Y-97355000D01*
X33811142Y-97402619D01*
X34049238Y-97402619D01*
X34192095Y-97355000D01*
X34620666Y-96402619D02*
X34620666Y-97402619D01*
X35001619Y-97402619D01*
X35096857Y-97355000D01*
X35144476Y-97307380D01*
X35192095Y-97212142D01*
X35192095Y-97069285D01*
X35144476Y-96974047D01*
X35096857Y-96926428D01*
X35001619Y-96878809D01*
X34620666Y-96878809D01*
X35525428Y-97402619D02*
X36144476Y-97402619D01*
X35811142Y-97021666D01*
X35954000Y-97021666D01*
X36049238Y-96974047D01*
X36096857Y-96926428D01*
X36144476Y-96831190D01*
X36144476Y-96593095D01*
X36096857Y-96497857D01*
X36049238Y-96450238D01*
X35954000Y-96402619D01*
X35668285Y-96402619D01*
X35573047Y-96450238D01*
X35525428Y-96497857D01*
X36525428Y-97307380D02*
X36573047Y-97355000D01*
X36668285Y-97402619D01*
X36906380Y-97402619D01*
X37001619Y-97355000D01*
X37049238Y-97307380D01*
X37096857Y-97212142D01*
X37096857Y-97116904D01*
X37049238Y-96974047D01*
X36477809Y-96402619D01*
X37096857Y-96402619D01*
X27192095Y-95316428D02*
X27525428Y-95316428D01*
X27668285Y-94792619D02*
X27192095Y-94792619D01*
X27192095Y-95792619D01*
X27668285Y-95792619D01*
X28049238Y-94840238D02*
X28192095Y-94792619D01*
X28430190Y-94792619D01*
X28525428Y-94840238D01*
X28573047Y-94887857D01*
X28620666Y-94983095D01*
X28620666Y-95078333D01*
X28573047Y-95173571D01*
X28525428Y-95221190D01*
X28430190Y-95268809D01*
X28239714Y-95316428D01*
X28144476Y-95364047D01*
X28096857Y-95411666D01*
X28049238Y-95506904D01*
X28049238Y-95602142D01*
X28096857Y-95697380D01*
X28144476Y-95745000D01*
X28239714Y-95792619D01*
X28477809Y-95792619D01*
X28620666Y-95745000D01*
X29049238Y-94792619D02*
X29049238Y-95792619D01*
X29430190Y-95792619D01*
X29525428Y-95745000D01*
X29573047Y-95697380D01*
X29620666Y-95602142D01*
X29620666Y-95459285D01*
X29573047Y-95364047D01*
X29525428Y-95316428D01*
X29430190Y-95268809D01*
X29049238Y-95268809D01*
X29954000Y-95792619D02*
X30573047Y-95792619D01*
X30239714Y-95411666D01*
X30382571Y-95411666D01*
X30477809Y-95364047D01*
X30525428Y-95316428D01*
X30573047Y-95221190D01*
X30573047Y-94983095D01*
X30525428Y-94887857D01*
X30477809Y-94840238D01*
X30382571Y-94792619D01*
X30096857Y-94792619D01*
X30001619Y-94840238D01*
X29954000Y-94887857D01*
X30954000Y-95697380D02*
X31001619Y-95745000D01*
X31096857Y-95792619D01*
X31334952Y-95792619D01*
X31430190Y-95745000D01*
X31477809Y-95697380D01*
X31525428Y-95602142D01*
X31525428Y-95506904D01*
X31477809Y-95364047D01*
X30906380Y-94792619D01*
X31525428Y-94792619D01*
X31906380Y-94840238D02*
X32049238Y-94792619D01*
X32287333Y-94792619D01*
X32382571Y-94840238D01*
X32430190Y-94887857D01*
X32477809Y-94983095D01*
X32477809Y-95078333D01*
X32430190Y-95173571D01*
X32382571Y-95221190D01*
X32287333Y-95268809D01*
X32096857Y-95316428D01*
X32001619Y-95364047D01*
X31954000Y-95411666D01*
X31906380Y-95506904D01*
X31906380Y-95602142D01*
X31954000Y-95697380D01*
X32001619Y-95745000D01*
X32096857Y-95792619D01*
X32334952Y-95792619D01*
X32477809Y-95745000D01*
X32811142Y-95792619D02*
X33430190Y-95792619D01*
X33096857Y-95411666D01*
X33239714Y-95411666D01*
X33334952Y-95364047D01*
X33382571Y-95316428D01*
X33430190Y-95221190D01*
X33430190Y-94983095D01*
X33382571Y-94887857D01*
X33334952Y-94840238D01*
X33239714Y-94792619D01*
X32953999Y-94792619D01*
X32858761Y-94840238D01*
X32811142Y-94887857D01*
X35430190Y-94792619D02*
X35382571Y-94792619D01*
X35287333Y-94840238D01*
X35144476Y-94983095D01*
X34906380Y-95268809D01*
X34811142Y-95411666D01*
X34763523Y-95554523D01*
X34763523Y-95649761D01*
X34811142Y-95745000D01*
X34906380Y-95792619D01*
X34953999Y-95792619D01*
X35049238Y-95745000D01*
X35096857Y-95649761D01*
X35096857Y-95602142D01*
X35049238Y-95506904D01*
X35001619Y-95459285D01*
X34715904Y-95268809D01*
X34668285Y-95221190D01*
X34620666Y-95125952D01*
X34620666Y-94983095D01*
X34668285Y-94887857D01*
X34715904Y-94840238D01*
X34811142Y-94792619D01*
X34953999Y-94792619D01*
X35049238Y-94840238D01*
X35096857Y-94887857D01*
X35239714Y-95078333D01*
X35287333Y-95221190D01*
X35287333Y-95316428D01*
X36573047Y-95078333D02*
X37049238Y-95078333D01*
X36477809Y-94792619D02*
X36811142Y-95792619D01*
X37144476Y-94792619D01*
X37477809Y-94792619D02*
X37477809Y-95792619D01*
X37858761Y-95792619D01*
X37954000Y-95745000D01*
X38001619Y-95697380D01*
X38049238Y-95602142D01*
X38049238Y-95459285D01*
X38001619Y-95364047D01*
X37954000Y-95316428D01*
X37858761Y-95268809D01*
X37477809Y-95268809D01*
X38430190Y-94840238D02*
X38573047Y-94792619D01*
X38811142Y-94792619D01*
X38906380Y-94840238D01*
X38954000Y-94887857D01*
X39001619Y-94983095D01*
X39001619Y-95078333D01*
X38954000Y-95173571D01*
X38906380Y-95221190D01*
X38811142Y-95268809D01*
X38620666Y-95316428D01*
X38525428Y-95364047D01*
X38477809Y-95411666D01*
X38430190Y-95506904D01*
X38430190Y-95602142D01*
X38477809Y-95697380D01*
X38525428Y-95745000D01*
X38620666Y-95792619D01*
X38858761Y-95792619D01*
X39001619Y-95745000D01*
X39954000Y-94792619D02*
X39382571Y-94792619D01*
X39668285Y-94792619D02*
X39668285Y-95792619D01*
X39573047Y-95649761D01*
X39477809Y-95554523D01*
X39382571Y-95506904D01*
X40334952Y-95697380D02*
X40382571Y-95745000D01*
X40477809Y-95792619D01*
X40715904Y-95792619D01*
X40811142Y-95745000D01*
X40858761Y-95697380D01*
X40906380Y-95602142D01*
X40906380Y-95506904D01*
X40858761Y-95364047D01*
X40287333Y-94792619D01*
X40906380Y-94792619D01*
X41477809Y-95364047D02*
X41382571Y-95411666D01*
X41334952Y-95459285D01*
X41287333Y-95554523D01*
X41287333Y-95602142D01*
X41334952Y-95697380D01*
X41382571Y-95745000D01*
X41477809Y-95792619D01*
X41668285Y-95792619D01*
X41763523Y-95745000D01*
X41811142Y-95697380D01*
X41858761Y-95602142D01*
X41858761Y-95554523D01*
X41811142Y-95459285D01*
X41763523Y-95411666D01*
X41668285Y-95364047D01*
X41477809Y-95364047D01*
X41382571Y-95316428D01*
X41334952Y-95268809D01*
X41287333Y-95173571D01*
X41287333Y-94983095D01*
X41334952Y-94887857D01*
X41382571Y-94840238D01*
X41477809Y-94792619D01*
X41668285Y-94792619D01*
X41763523Y-94840238D01*
X41811142Y-94887857D01*
X41858761Y-94983095D01*
X41858761Y-95173571D01*
X41811142Y-95268809D01*
X41763523Y-95316428D01*
X41668285Y-95364047D01*
X42477809Y-95792619D02*
X42573047Y-95792619D01*
X42668285Y-95745000D01*
X42715904Y-95697380D01*
X42763523Y-95602142D01*
X42811142Y-95411666D01*
X42811142Y-95173571D01*
X42763523Y-94983095D01*
X42715904Y-94887857D01*
X42668285Y-94840238D01*
X42573047Y-94792619D01*
X42477809Y-94792619D01*
X42382571Y-94840238D01*
X42334952Y-94887857D01*
X42287333Y-94983095D01*
X42239714Y-95173571D01*
X42239714Y-95411666D01*
X42287333Y-95602142D01*
X42334952Y-95697380D01*
X42382571Y-95745000D01*
X42477809Y-95792619D01*
X43382571Y-95364047D02*
X43287333Y-95411666D01*
X43239714Y-95459285D01*
X43192095Y-95554523D01*
X43192095Y-95602142D01*
X43239714Y-95697380D01*
X43287333Y-95745000D01*
X43382571Y-95792619D01*
X43573047Y-95792619D01*
X43668285Y-95745000D01*
X43715904Y-95697380D01*
X43763523Y-95602142D01*
X43763523Y-95554523D01*
X43715904Y-95459285D01*
X43668285Y-95411666D01*
X43573047Y-95364047D01*
X43382571Y-95364047D01*
X43287333Y-95316428D01*
X43239714Y-95268809D01*
X43192095Y-95173571D01*
X43192095Y-94983095D01*
X43239714Y-94887857D01*
X43287333Y-94840238D01*
X43382571Y-94792619D01*
X43573047Y-94792619D01*
X43668285Y-94840238D01*
X43715904Y-94887857D01*
X43763523Y-94983095D01*
X43763523Y-95173571D01*
X43715904Y-95268809D01*
X43668285Y-95316428D01*
X43573047Y-95364047D01*
X65477809Y-97402619D02*
X65477809Y-96688333D01*
X65430190Y-96545476D01*
X65334952Y-96450238D01*
X65192095Y-96402619D01*
X65096857Y-96402619D01*
X66382571Y-97069285D02*
X66382571Y-96402619D01*
X65954000Y-97069285D02*
X65954000Y-96545476D01*
X66001619Y-96450238D01*
X66096857Y-96402619D01*
X66239714Y-96402619D01*
X66334952Y-96450238D01*
X66382571Y-96497857D01*
X66858761Y-96402619D02*
X66858761Y-97069285D01*
X66858761Y-96974047D02*
X66906380Y-97021666D01*
X67001619Y-97069285D01*
X67144476Y-97069285D01*
X67239714Y-97021666D01*
X67287333Y-96926428D01*
X67287333Y-96402619D01*
X67287333Y-96926428D02*
X67334952Y-97021666D01*
X67430190Y-97069285D01*
X67573047Y-97069285D01*
X67668285Y-97021666D01*
X67715904Y-96926428D01*
X67715904Y-96402619D01*
X68192095Y-96402619D02*
X68192095Y-97402619D01*
X68192095Y-97021666D02*
X68287333Y-97069285D01*
X68477809Y-97069285D01*
X68573047Y-97021666D01*
X68620666Y-96974047D01*
X68668285Y-96878809D01*
X68668285Y-96593095D01*
X68620666Y-96497857D01*
X68573047Y-96450238D01*
X68477809Y-96402619D01*
X68287333Y-96402619D01*
X68192095Y-96450238D01*
X69239714Y-96402619D02*
X69144476Y-96450238D01*
X69096857Y-96497857D01*
X69049238Y-96593095D01*
X69049238Y-96878809D01*
X69096857Y-96974047D01*
X69144476Y-97021666D01*
X69239714Y-97069285D01*
X69382571Y-97069285D01*
X69477809Y-97021666D01*
X69525428Y-96974047D01*
X69573047Y-96878809D01*
X69573047Y-96593095D01*
X69525428Y-96497857D01*
X69477809Y-96450238D01*
X69382571Y-96402619D01*
X69239714Y-96402619D01*
X70763523Y-96926428D02*
X71096857Y-96926428D01*
X71239714Y-96402619D02*
X70763523Y-96402619D01*
X70763523Y-97402619D01*
X71239714Y-97402619D01*
X71620666Y-96450238D02*
X71763523Y-96402619D01*
X72001619Y-96402619D01*
X72096857Y-96450238D01*
X72144476Y-96497857D01*
X72192095Y-96593095D01*
X72192095Y-96688333D01*
X72144476Y-96783571D01*
X72096857Y-96831190D01*
X72001619Y-96878809D01*
X71811142Y-96926428D01*
X71715904Y-96974047D01*
X71668285Y-97021666D01*
X71620666Y-97116904D01*
X71620666Y-97212142D01*
X71668285Y-97307380D01*
X71715904Y-97355000D01*
X71811142Y-97402619D01*
X72049238Y-97402619D01*
X72192095Y-97355000D01*
X72620666Y-96402619D02*
X72620666Y-97402619D01*
X73001619Y-97402619D01*
X73096857Y-97355000D01*
X73144476Y-97307380D01*
X73192095Y-97212142D01*
X73192095Y-97069285D01*
X73144476Y-96974047D01*
X73096857Y-96926428D01*
X73001619Y-96878809D01*
X72620666Y-96878809D01*
X73525428Y-97402619D02*
X74144476Y-97402619D01*
X73811142Y-97021666D01*
X73954000Y-97021666D01*
X74049238Y-96974047D01*
X74096857Y-96926428D01*
X74144476Y-96831190D01*
X74144476Y-96593095D01*
X74096857Y-96497857D01*
X74049238Y-96450238D01*
X73954000Y-96402619D01*
X73668285Y-96402619D01*
X73573047Y-96450238D01*
X73525428Y-96497857D01*
X74525428Y-97307380D02*
X74573047Y-97355000D01*
X74668285Y-97402619D01*
X74906380Y-97402619D01*
X75001619Y-97355000D01*
X75049238Y-97307380D01*
X75096857Y-97212142D01*
X75096857Y-97116904D01*
X75049238Y-96974047D01*
X74477809Y-96402619D01*
X75096857Y-96402619D01*
X65192095Y-95316428D02*
X65525428Y-95316428D01*
X65668285Y-94792619D02*
X65192095Y-94792619D01*
X65192095Y-95792619D01*
X65668285Y-95792619D01*
X66049238Y-94840238D02*
X66192095Y-94792619D01*
X66430190Y-94792619D01*
X66525428Y-94840238D01*
X66573047Y-94887857D01*
X66620666Y-94983095D01*
X66620666Y-95078333D01*
X66573047Y-95173571D01*
X66525428Y-95221190D01*
X66430190Y-95268809D01*
X66239714Y-95316428D01*
X66144476Y-95364047D01*
X66096857Y-95411666D01*
X66049238Y-95506904D01*
X66049238Y-95602142D01*
X66096857Y-95697380D01*
X66144476Y-95745000D01*
X66239714Y-95792619D01*
X66477809Y-95792619D01*
X66620666Y-95745000D01*
X67049238Y-94792619D02*
X67049238Y-95792619D01*
X67430190Y-95792619D01*
X67525428Y-95745000D01*
X67573047Y-95697380D01*
X67620666Y-95602142D01*
X67620666Y-95459285D01*
X67573047Y-95364047D01*
X67525428Y-95316428D01*
X67430190Y-95268809D01*
X67049238Y-95268809D01*
X67954000Y-95792619D02*
X68573047Y-95792619D01*
X68239714Y-95411666D01*
X68382571Y-95411666D01*
X68477809Y-95364047D01*
X68525428Y-95316428D01*
X68573047Y-95221190D01*
X68573047Y-94983095D01*
X68525428Y-94887857D01*
X68477809Y-94840238D01*
X68382571Y-94792619D01*
X68096857Y-94792619D01*
X68001619Y-94840238D01*
X67954000Y-94887857D01*
X68954000Y-95697380D02*
X69001619Y-95745000D01*
X69096857Y-95792619D01*
X69334952Y-95792619D01*
X69430190Y-95745000D01*
X69477809Y-95697380D01*
X69525428Y-95602142D01*
X69525428Y-95506904D01*
X69477809Y-95364047D01*
X68906380Y-94792619D01*
X69525428Y-94792619D01*
X69906380Y-94840238D02*
X70049238Y-94792619D01*
X70287333Y-94792619D01*
X70382571Y-94840238D01*
X70430190Y-94887857D01*
X70477809Y-94983095D01*
X70477809Y-95078333D01*
X70430190Y-95173571D01*
X70382571Y-95221190D01*
X70287333Y-95268809D01*
X70096857Y-95316428D01*
X70001619Y-95364047D01*
X69954000Y-95411666D01*
X69906380Y-95506904D01*
X69906380Y-95602142D01*
X69954000Y-95697380D01*
X70001619Y-95745000D01*
X70096857Y-95792619D01*
X70334952Y-95792619D01*
X70477809Y-95745000D01*
X70811142Y-95792619D02*
X71430190Y-95792619D01*
X71096857Y-95411666D01*
X71239714Y-95411666D01*
X71334952Y-95364047D01*
X71382571Y-95316428D01*
X71430190Y-95221190D01*
X71430190Y-94983095D01*
X71382571Y-94887857D01*
X71334952Y-94840238D01*
X71239714Y-94792619D01*
X70954000Y-94792619D01*
X70858761Y-94840238D01*
X70811142Y-94887857D01*
X73430190Y-94792619D02*
X73382571Y-94792619D01*
X73287333Y-94840238D01*
X73144476Y-94983095D01*
X72906380Y-95268809D01*
X72811142Y-95411666D01*
X72763523Y-95554523D01*
X72763523Y-95649761D01*
X72811142Y-95745000D01*
X72906380Y-95792619D01*
X72954000Y-95792619D01*
X73049238Y-95745000D01*
X73096857Y-95649761D01*
X73096857Y-95602142D01*
X73049238Y-95506904D01*
X73001619Y-95459285D01*
X72715904Y-95268809D01*
X72668285Y-95221190D01*
X72620666Y-95125952D01*
X72620666Y-94983095D01*
X72668285Y-94887857D01*
X72715904Y-94840238D01*
X72811142Y-94792619D01*
X72954000Y-94792619D01*
X73049238Y-94840238D01*
X73096857Y-94887857D01*
X73239714Y-95078333D01*
X73287333Y-95221190D01*
X73287333Y-95316428D01*
X74573047Y-95078333D02*
X75049238Y-95078333D01*
X74477809Y-94792619D02*
X74811142Y-95792619D01*
X75144476Y-94792619D01*
X75477809Y-94792619D02*
X75477809Y-95792619D01*
X75858761Y-95792619D01*
X75954000Y-95745000D01*
X76001619Y-95697380D01*
X76049238Y-95602142D01*
X76049238Y-95459285D01*
X76001619Y-95364047D01*
X75954000Y-95316428D01*
X75858761Y-95268809D01*
X75477809Y-95268809D01*
X76430190Y-94840238D02*
X76573047Y-94792619D01*
X76811142Y-94792619D01*
X76906380Y-94840238D01*
X76954000Y-94887857D01*
X77001619Y-94983095D01*
X77001619Y-95078333D01*
X76954000Y-95173571D01*
X76906380Y-95221190D01*
X76811142Y-95268809D01*
X76620666Y-95316428D01*
X76525428Y-95364047D01*
X76477809Y-95411666D01*
X76430190Y-95506904D01*
X76430190Y-95602142D01*
X76477809Y-95697380D01*
X76525428Y-95745000D01*
X76620666Y-95792619D01*
X76858761Y-95792619D01*
X77001619Y-95745000D01*
X77954000Y-94792619D02*
X77382571Y-94792619D01*
X77668285Y-94792619D02*
X77668285Y-95792619D01*
X77573047Y-95649761D01*
X77477809Y-95554523D01*
X77382571Y-95506904D01*
X78334952Y-95697380D02*
X78382571Y-95745000D01*
X78477809Y-95792619D01*
X78715904Y-95792619D01*
X78811142Y-95745000D01*
X78858761Y-95697380D01*
X78906380Y-95602142D01*
X78906380Y-95506904D01*
X78858761Y-95364047D01*
X78287333Y-94792619D01*
X78906380Y-94792619D01*
X79477809Y-95364047D02*
X79382571Y-95411666D01*
X79334952Y-95459285D01*
X79287333Y-95554523D01*
X79287333Y-95602142D01*
X79334952Y-95697380D01*
X79382571Y-95745000D01*
X79477809Y-95792619D01*
X79668285Y-95792619D01*
X79763523Y-95745000D01*
X79811142Y-95697380D01*
X79858761Y-95602142D01*
X79858761Y-95554523D01*
X79811142Y-95459285D01*
X79763523Y-95411666D01*
X79668285Y-95364047D01*
X79477809Y-95364047D01*
X79382571Y-95316428D01*
X79334952Y-95268809D01*
X79287333Y-95173571D01*
X79287333Y-94983095D01*
X79334952Y-94887857D01*
X79382571Y-94840238D01*
X79477809Y-94792619D01*
X79668285Y-94792619D01*
X79763523Y-94840238D01*
X79811142Y-94887857D01*
X79858761Y-94983095D01*
X79858761Y-95173571D01*
X79811142Y-95268809D01*
X79763523Y-95316428D01*
X79668285Y-95364047D01*
X80477809Y-95792619D02*
X80573047Y-95792619D01*
X80668285Y-95745000D01*
X80715904Y-95697380D01*
X80763523Y-95602142D01*
X80811142Y-95411666D01*
X80811142Y-95173571D01*
X80763523Y-94983095D01*
X80715904Y-94887857D01*
X80668285Y-94840238D01*
X80573047Y-94792619D01*
X80477809Y-94792619D01*
X80382571Y-94840238D01*
X80334952Y-94887857D01*
X80287333Y-94983095D01*
X80239714Y-95173571D01*
X80239714Y-95411666D01*
X80287333Y-95602142D01*
X80334952Y-95697380D01*
X80382571Y-95745000D01*
X80477809Y-95792619D01*
X81382571Y-95364047D02*
X81287333Y-95411666D01*
X81239714Y-95459285D01*
X81192095Y-95554523D01*
X81192095Y-95602142D01*
X81239714Y-95697380D01*
X81287333Y-95745000D01*
X81382571Y-95792619D01*
X81573047Y-95792619D01*
X81668285Y-95745000D01*
X81715904Y-95697380D01*
X81763523Y-95602142D01*
X81763523Y-95554523D01*
X81715904Y-95459285D01*
X81668285Y-95411666D01*
X81573047Y-95364047D01*
X81382571Y-95364047D01*
X81287333Y-95316428D01*
X81239714Y-95268809D01*
X81192095Y-95173571D01*
X81192095Y-94983095D01*
X81239714Y-94887857D01*
X81287333Y-94840238D01*
X81382571Y-94792619D01*
X81573047Y-94792619D01*
X81668285Y-94840238D01*
X81715904Y-94887857D01*
X81763523Y-94983095D01*
X81763523Y-95173571D01*
X81715904Y-95268809D01*
X81668285Y-95316428D01*
X81573047Y-95364047D01*
X61202380Y-37300000D02*
X60726190Y-36966666D01*
X61202380Y-36728571D02*
X60202380Y-36728571D01*
X60202380Y-37109523D01*
X60250000Y-37204761D01*
X60297619Y-37252380D01*
X60392857Y-37300000D01*
X60535714Y-37300000D01*
X60630952Y-37252380D01*
X60678571Y-37204761D01*
X60726190Y-37109523D01*
X60726190Y-36728571D01*
X61154761Y-38109523D02*
X61202380Y-38014285D01*
X61202380Y-37823809D01*
X61154761Y-37728571D01*
X61059523Y-37680952D01*
X60678571Y-37680952D01*
X60583333Y-37728571D01*
X60535714Y-37823809D01*
X60535714Y-38014285D01*
X60583333Y-38109523D01*
X60678571Y-38157142D01*
X60773809Y-38157142D01*
X60869047Y-37680952D01*
X60535714Y-38490476D02*
X61202380Y-38728571D01*
X60535714Y-38966666D01*
X61107142Y-39347619D02*
X61154761Y-39395238D01*
X61202380Y-39347619D01*
X61154761Y-39300000D01*
X61107142Y-39347619D01*
X61202380Y-39347619D01*
X60297619Y-40538095D02*
X60250000Y-40585714D01*
X60202380Y-40680952D01*
X60202380Y-40919047D01*
X60250000Y-41014285D01*
X60297619Y-41061904D01*
X60392857Y-41109523D01*
X60488095Y-41109523D01*
X60630952Y-41061904D01*
X61202380Y-40490476D01*
X61202380Y-41109523D01*
X61154761Y-43014285D02*
X61202380Y-43157142D01*
X61202380Y-43395238D01*
X61154761Y-43490476D01*
X61107142Y-43538095D01*
X61011904Y-43585714D01*
X60916666Y-43585714D01*
X60821428Y-43538095D01*
X60773809Y-43490476D01*
X60726190Y-43395238D01*
X60678571Y-43204761D01*
X60630952Y-43109523D01*
X60583333Y-43061904D01*
X60488095Y-43014285D01*
X60392857Y-43014285D01*
X60297619Y-43061904D01*
X60250000Y-43109523D01*
X60202380Y-43204761D01*
X60202380Y-43442857D01*
X60250000Y-43585714D01*
X61154761Y-44395238D02*
X61202380Y-44300000D01*
X61202380Y-44109523D01*
X61154761Y-44014285D01*
X61059523Y-43966666D01*
X60678571Y-43966666D01*
X60583333Y-44014285D01*
X60535714Y-44109523D01*
X60535714Y-44300000D01*
X60583333Y-44395238D01*
X60678571Y-44442857D01*
X60773809Y-44442857D01*
X60869047Y-43966666D01*
X60535714Y-44871428D02*
X61535714Y-44871428D01*
X60583333Y-44871428D02*
X60535714Y-44966666D01*
X60535714Y-45157142D01*
X60583333Y-45252380D01*
X60630952Y-45300000D01*
X60726190Y-45347619D01*
X61011904Y-45347619D01*
X61107142Y-45300000D01*
X61154761Y-45252380D01*
X61202380Y-45157142D01*
X61202380Y-44966666D01*
X61154761Y-44871428D01*
X60297619Y-46490476D02*
X60250000Y-46538095D01*
X60202380Y-46633333D01*
X60202380Y-46871428D01*
X60250000Y-46966666D01*
X60297619Y-47014285D01*
X60392857Y-47061904D01*
X60488095Y-47061904D01*
X60630952Y-47014285D01*
X61202380Y-46442857D01*
X61202380Y-47061904D01*
X60202380Y-47680952D02*
X60202380Y-47776190D01*
X60250000Y-47871428D01*
X60297619Y-47919047D01*
X60392857Y-47966666D01*
X60583333Y-48014285D01*
X60821428Y-48014285D01*
X61011904Y-47966666D01*
X61107142Y-47919047D01*
X61154761Y-47871428D01*
X61202380Y-47776190D01*
X61202380Y-47680952D01*
X61154761Y-47585714D01*
X61107142Y-47538095D01*
X61011904Y-47490476D01*
X60821428Y-47442857D01*
X60583333Y-47442857D01*
X60392857Y-47490476D01*
X60297619Y-47538095D01*
X60250000Y-47585714D01*
X60202380Y-47680952D01*
X60297619Y-48395238D02*
X60250000Y-48442857D01*
X60202380Y-48538095D01*
X60202380Y-48776190D01*
X60250000Y-48871428D01*
X60297619Y-48919047D01*
X60392857Y-48966666D01*
X60488095Y-48966666D01*
X60630952Y-48919047D01*
X61202380Y-48347619D01*
X61202380Y-48966666D01*
X60297619Y-49347619D02*
X60250000Y-49395238D01*
X60202380Y-49490476D01*
X60202380Y-49728571D01*
X60250000Y-49823809D01*
X60297619Y-49871428D01*
X60392857Y-49919047D01*
X60488095Y-49919047D01*
X60630952Y-49871428D01*
X61202380Y-49300000D01*
X61202380Y-49919047D01*
X99202380Y-37300000D02*
X98726190Y-36966666D01*
X99202380Y-36728571D02*
X98202380Y-36728571D01*
X98202380Y-37109523D01*
X98250000Y-37204761D01*
X98297619Y-37252380D01*
X98392857Y-37300000D01*
X98535714Y-37300000D01*
X98630952Y-37252380D01*
X98678571Y-37204761D01*
X98726190Y-37109523D01*
X98726190Y-36728571D01*
X99154761Y-38109523D02*
X99202380Y-38014285D01*
X99202380Y-37823809D01*
X99154761Y-37728571D01*
X99059523Y-37680952D01*
X98678571Y-37680952D01*
X98583333Y-37728571D01*
X98535714Y-37823809D01*
X98535714Y-38014285D01*
X98583333Y-38109523D01*
X98678571Y-38157142D01*
X98773809Y-38157142D01*
X98869047Y-37680952D01*
X98535714Y-38490476D02*
X99202380Y-38728571D01*
X98535714Y-38966666D01*
X99107142Y-39347619D02*
X99154761Y-39395238D01*
X99202380Y-39347619D01*
X99154761Y-39300000D01*
X99107142Y-39347619D01*
X99202380Y-39347619D01*
X98297619Y-40538095D02*
X98250000Y-40585714D01*
X98202380Y-40680952D01*
X98202380Y-40919047D01*
X98250000Y-41014285D01*
X98297619Y-41061904D01*
X98392857Y-41109523D01*
X98488095Y-41109523D01*
X98630952Y-41061904D01*
X99202380Y-40490476D01*
X99202380Y-41109523D01*
X99154761Y-43014285D02*
X99202380Y-43157142D01*
X99202380Y-43395238D01*
X99154761Y-43490476D01*
X99107142Y-43538095D01*
X99011904Y-43585714D01*
X98916666Y-43585714D01*
X98821428Y-43538095D01*
X98773809Y-43490476D01*
X98726190Y-43395238D01*
X98678571Y-43204761D01*
X98630952Y-43109523D01*
X98583333Y-43061904D01*
X98488095Y-43014285D01*
X98392857Y-43014285D01*
X98297619Y-43061904D01*
X98250000Y-43109523D01*
X98202380Y-43204761D01*
X98202380Y-43442857D01*
X98250000Y-43585714D01*
X99154761Y-44395238D02*
X99202380Y-44299999D01*
X99202380Y-44109523D01*
X99154761Y-44014285D01*
X99059523Y-43966666D01*
X98678571Y-43966666D01*
X98583333Y-44014285D01*
X98535714Y-44109523D01*
X98535714Y-44299999D01*
X98583333Y-44395238D01*
X98678571Y-44442857D01*
X98773809Y-44442857D01*
X98869047Y-43966666D01*
X98535714Y-44871428D02*
X99535714Y-44871428D01*
X98583333Y-44871428D02*
X98535714Y-44966666D01*
X98535714Y-45157142D01*
X98583333Y-45252380D01*
X98630952Y-45299999D01*
X98726190Y-45347619D01*
X99011904Y-45347619D01*
X99107142Y-45299999D01*
X99154761Y-45252380D01*
X99202380Y-45157142D01*
X99202380Y-44966666D01*
X99154761Y-44871428D01*
X98297619Y-46490476D02*
X98250000Y-46538095D01*
X98202380Y-46633333D01*
X98202380Y-46871428D01*
X98250000Y-46966666D01*
X98297619Y-47014285D01*
X98392857Y-47061904D01*
X98488095Y-47061904D01*
X98630952Y-47014285D01*
X99202380Y-46442857D01*
X99202380Y-47061904D01*
X98202380Y-47680952D02*
X98202380Y-47776190D01*
X98250000Y-47871428D01*
X98297619Y-47919047D01*
X98392857Y-47966666D01*
X98583333Y-48014285D01*
X98821428Y-48014285D01*
X99011904Y-47966666D01*
X99107142Y-47919047D01*
X99154761Y-47871428D01*
X99202380Y-47776190D01*
X99202380Y-47680952D01*
X99154761Y-47585714D01*
X99107142Y-47538095D01*
X99011904Y-47490476D01*
X98821428Y-47442857D01*
X98583333Y-47442857D01*
X98392857Y-47490476D01*
X98297619Y-47538095D01*
X98250000Y-47585714D01*
X98202380Y-47680952D01*
X98297619Y-48395238D02*
X98250000Y-48442857D01*
X98202380Y-48538095D01*
X98202380Y-48776190D01*
X98250000Y-48871428D01*
X98297619Y-48919047D01*
X98392857Y-48966666D01*
X98488095Y-48966666D01*
X98630952Y-48919047D01*
X99202380Y-48347619D01*
X99202380Y-48966666D01*
X98297619Y-49347619D02*
X98250000Y-49395238D01*
X98202380Y-49490476D01*
X98202380Y-49728571D01*
X98250000Y-49823809D01*
X98297619Y-49871428D01*
X98392857Y-49919047D01*
X98488095Y-49919047D01*
X98630952Y-49871428D01*
X99202380Y-49299999D01*
X99202380Y-49919047D01*
X61202380Y-62300000D02*
X60726190Y-61966666D01*
X61202380Y-61728571D02*
X60202380Y-61728571D01*
X60202380Y-62109523D01*
X60250000Y-62204761D01*
X60297619Y-62252380D01*
X60392857Y-62300000D01*
X60535714Y-62300000D01*
X60630952Y-62252380D01*
X60678571Y-62204761D01*
X60726190Y-62109523D01*
X60726190Y-61728571D01*
X61154761Y-63109523D02*
X61202380Y-63014285D01*
X61202380Y-62823809D01*
X61154761Y-62728571D01*
X61059523Y-62680952D01*
X60678571Y-62680952D01*
X60583333Y-62728571D01*
X60535714Y-62823809D01*
X60535714Y-63014285D01*
X60583333Y-63109523D01*
X60678571Y-63157142D01*
X60773809Y-63157142D01*
X60869047Y-62680952D01*
X60535714Y-63490476D02*
X61202380Y-63728571D01*
X60535714Y-63966666D01*
X61107142Y-64347619D02*
X61154761Y-64395238D01*
X61202380Y-64347619D01*
X61154761Y-64300000D01*
X61107142Y-64347619D01*
X61202380Y-64347619D01*
X60297619Y-65538095D02*
X60250000Y-65585714D01*
X60202380Y-65680952D01*
X60202380Y-65919047D01*
X60250000Y-66014285D01*
X60297619Y-66061904D01*
X60392857Y-66109523D01*
X60488095Y-66109523D01*
X60630952Y-66061904D01*
X61202380Y-65490476D01*
X61202380Y-66109523D01*
X61154761Y-68014285D02*
X61202380Y-68157142D01*
X61202380Y-68395238D01*
X61154761Y-68490476D01*
X61107142Y-68538095D01*
X61011904Y-68585714D01*
X60916666Y-68585714D01*
X60821428Y-68538095D01*
X60773809Y-68490476D01*
X60726190Y-68395238D01*
X60678571Y-68204761D01*
X60630952Y-68109523D01*
X60583333Y-68061904D01*
X60488095Y-68014285D01*
X60392857Y-68014285D01*
X60297619Y-68061904D01*
X60250000Y-68109523D01*
X60202380Y-68204761D01*
X60202380Y-68442857D01*
X60250000Y-68585714D01*
X61154761Y-69395238D02*
X61202380Y-69300000D01*
X61202380Y-69109523D01*
X61154761Y-69014285D01*
X61059523Y-68966666D01*
X60678571Y-68966666D01*
X60583333Y-69014285D01*
X60535714Y-69109523D01*
X60535714Y-69300000D01*
X60583333Y-69395238D01*
X60678571Y-69442857D01*
X60773809Y-69442857D01*
X60869047Y-68966666D01*
X60535714Y-69871428D02*
X61535714Y-69871428D01*
X60583333Y-69871428D02*
X60535714Y-69966666D01*
X60535714Y-70157142D01*
X60583333Y-70252380D01*
X60630952Y-70300000D01*
X60726190Y-70347619D01*
X61011904Y-70347619D01*
X61107142Y-70300000D01*
X61154761Y-70252380D01*
X61202380Y-70157142D01*
X61202380Y-69966666D01*
X61154761Y-69871428D01*
X60297619Y-71490476D02*
X60250000Y-71538095D01*
X60202380Y-71633333D01*
X60202380Y-71871428D01*
X60250000Y-71966666D01*
X60297619Y-72014285D01*
X60392857Y-72061904D01*
X60488095Y-72061904D01*
X60630952Y-72014285D01*
X61202380Y-71442857D01*
X61202380Y-72061904D01*
X60202380Y-72680952D02*
X60202380Y-72776190D01*
X60250000Y-72871428D01*
X60297619Y-72919047D01*
X60392857Y-72966666D01*
X60583333Y-73014285D01*
X60821428Y-73014285D01*
X61011904Y-72966666D01*
X61107142Y-72919047D01*
X61154761Y-72871428D01*
X61202380Y-72776190D01*
X61202380Y-72680952D01*
X61154761Y-72585714D01*
X61107142Y-72538095D01*
X61011904Y-72490476D01*
X60821428Y-72442857D01*
X60583333Y-72442857D01*
X60392857Y-72490476D01*
X60297619Y-72538095D01*
X60250000Y-72585714D01*
X60202380Y-72680952D01*
X60297619Y-73395238D02*
X60250000Y-73442857D01*
X60202380Y-73538095D01*
X60202380Y-73776190D01*
X60250000Y-73871428D01*
X60297619Y-73919047D01*
X60392857Y-73966666D01*
X60488095Y-73966666D01*
X60630952Y-73919047D01*
X61202380Y-73347619D01*
X61202380Y-73966666D01*
X60297619Y-74347619D02*
X60250000Y-74395238D01*
X60202380Y-74490476D01*
X60202380Y-74728571D01*
X60250000Y-74823809D01*
X60297619Y-74871428D01*
X60392857Y-74919047D01*
X60488095Y-74919047D01*
X60630952Y-74871428D01*
X61202380Y-74300000D01*
X61202380Y-74919047D01*
X99202380Y-62300000D02*
X98726190Y-61966666D01*
X99202380Y-61728571D02*
X98202380Y-61728571D01*
X98202380Y-62109523D01*
X98250000Y-62204761D01*
X98297619Y-62252380D01*
X98392857Y-62300000D01*
X98535714Y-62300000D01*
X98630952Y-62252380D01*
X98678571Y-62204761D01*
X98726190Y-62109523D01*
X98726190Y-61728571D01*
X99154761Y-63109523D02*
X99202380Y-63014285D01*
X99202380Y-62823809D01*
X99154761Y-62728571D01*
X99059523Y-62680952D01*
X98678571Y-62680952D01*
X98583333Y-62728571D01*
X98535714Y-62823809D01*
X98535714Y-63014285D01*
X98583333Y-63109523D01*
X98678571Y-63157142D01*
X98773809Y-63157142D01*
X98869047Y-62680952D01*
X98535714Y-63490476D02*
X99202380Y-63728571D01*
X98535714Y-63966666D01*
X99107142Y-64347619D02*
X99154761Y-64395238D01*
X99202380Y-64347619D01*
X99154761Y-64300000D01*
X99107142Y-64347619D01*
X99202380Y-64347619D01*
X98297619Y-65538095D02*
X98250000Y-65585714D01*
X98202380Y-65680952D01*
X98202380Y-65919047D01*
X98250000Y-66014285D01*
X98297619Y-66061904D01*
X98392857Y-66109523D01*
X98488095Y-66109523D01*
X98630952Y-66061904D01*
X99202380Y-65490476D01*
X99202380Y-66109523D01*
X99154761Y-68014285D02*
X99202380Y-68157142D01*
X99202380Y-68395238D01*
X99154761Y-68490476D01*
X99107142Y-68538095D01*
X99011904Y-68585714D01*
X98916666Y-68585714D01*
X98821428Y-68538095D01*
X98773809Y-68490476D01*
X98726190Y-68395238D01*
X98678571Y-68204761D01*
X98630952Y-68109523D01*
X98583333Y-68061904D01*
X98488095Y-68014285D01*
X98392857Y-68014285D01*
X98297619Y-68061904D01*
X98250000Y-68109523D01*
X98202380Y-68204761D01*
X98202380Y-68442857D01*
X98250000Y-68585714D01*
X99154761Y-69395238D02*
X99202380Y-69299999D01*
X99202380Y-69109523D01*
X99154761Y-69014285D01*
X99059523Y-68966666D01*
X98678571Y-68966666D01*
X98583333Y-69014285D01*
X98535714Y-69109523D01*
X98535714Y-69299999D01*
X98583333Y-69395238D01*
X98678571Y-69442857D01*
X98773809Y-69442857D01*
X98869047Y-68966666D01*
X98535714Y-69871428D02*
X99535714Y-69871428D01*
X98583333Y-69871428D02*
X98535714Y-69966666D01*
X98535714Y-70157142D01*
X98583333Y-70252380D01*
X98630952Y-70299999D01*
X98726190Y-70347619D01*
X99011904Y-70347619D01*
X99107142Y-70299999D01*
X99154761Y-70252380D01*
X99202380Y-70157142D01*
X99202380Y-69966666D01*
X99154761Y-69871428D01*
X98297619Y-71490476D02*
X98250000Y-71538095D01*
X98202380Y-71633333D01*
X98202380Y-71871428D01*
X98250000Y-71966666D01*
X98297619Y-72014285D01*
X98392857Y-72061904D01*
X98488095Y-72061904D01*
X98630952Y-72014285D01*
X99202380Y-71442857D01*
X99202380Y-72061904D01*
X98202380Y-72680952D02*
X98202380Y-72776190D01*
X98250000Y-72871428D01*
X98297619Y-72919047D01*
X98392857Y-72966666D01*
X98583333Y-73014285D01*
X98821428Y-73014285D01*
X99011904Y-72966666D01*
X99107142Y-72919047D01*
X99154761Y-72871428D01*
X99202380Y-72776190D01*
X99202380Y-72680952D01*
X99154761Y-72585714D01*
X99107142Y-72538095D01*
X99011904Y-72490476D01*
X98821428Y-72442857D01*
X98583333Y-72442857D01*
X98392857Y-72490476D01*
X98297619Y-72538095D01*
X98250000Y-72585714D01*
X98202380Y-72680952D01*
X98297619Y-73395238D02*
X98250000Y-73442857D01*
X98202380Y-73538095D01*
X98202380Y-73776190D01*
X98250000Y-73871428D01*
X98297619Y-73919047D01*
X98392857Y-73966666D01*
X98488095Y-73966666D01*
X98630952Y-73919047D01*
X99202380Y-73347619D01*
X99202380Y-73966666D01*
X98297619Y-74347619D02*
X98250000Y-74395238D01*
X98202380Y-74490476D01*
X98202380Y-74728571D01*
X98250000Y-74823809D01*
X98297619Y-74871428D01*
X98392857Y-74919047D01*
X98488095Y-74919047D01*
X98630952Y-74871428D01*
X99202380Y-74299999D01*
X99202380Y-74919047D01*
X61202380Y-87300000D02*
X60726190Y-86966666D01*
X61202380Y-86728571D02*
X60202380Y-86728571D01*
X60202380Y-87109523D01*
X60250000Y-87204761D01*
X60297619Y-87252380D01*
X60392857Y-87300000D01*
X60535714Y-87300000D01*
X60630952Y-87252380D01*
X60678571Y-87204761D01*
X60726190Y-87109523D01*
X60726190Y-86728571D01*
X61154761Y-88109523D02*
X61202380Y-88014285D01*
X61202380Y-87823809D01*
X61154761Y-87728571D01*
X61059523Y-87680952D01*
X60678571Y-87680952D01*
X60583333Y-87728571D01*
X60535714Y-87823809D01*
X60535714Y-88014285D01*
X60583333Y-88109523D01*
X60678571Y-88157142D01*
X60773809Y-88157142D01*
X60869047Y-87680952D01*
X60535714Y-88490476D02*
X61202380Y-88728571D01*
X60535714Y-88966666D01*
X61107142Y-89347619D02*
X61154761Y-89395238D01*
X61202380Y-89347619D01*
X61154761Y-89300000D01*
X61107142Y-89347619D01*
X61202380Y-89347619D01*
X60297619Y-90538095D02*
X60250000Y-90585714D01*
X60202380Y-90680952D01*
X60202380Y-90919047D01*
X60250000Y-91014285D01*
X60297619Y-91061904D01*
X60392857Y-91109523D01*
X60488095Y-91109523D01*
X60630952Y-91061904D01*
X61202380Y-90490476D01*
X61202380Y-91109523D01*
X61154761Y-93014285D02*
X61202380Y-93157142D01*
X61202380Y-93395238D01*
X61154761Y-93490476D01*
X61107142Y-93538095D01*
X61011904Y-93585714D01*
X60916666Y-93585714D01*
X60821428Y-93538095D01*
X60773809Y-93490476D01*
X60726190Y-93395238D01*
X60678571Y-93204761D01*
X60630952Y-93109523D01*
X60583333Y-93061904D01*
X60488095Y-93014285D01*
X60392857Y-93014285D01*
X60297619Y-93061904D01*
X60250000Y-93109523D01*
X60202380Y-93204761D01*
X60202380Y-93442857D01*
X60250000Y-93585714D01*
X61154761Y-94395238D02*
X61202380Y-94300000D01*
X61202380Y-94109523D01*
X61154761Y-94014285D01*
X61059523Y-93966666D01*
X60678571Y-93966666D01*
X60583333Y-94014285D01*
X60535714Y-94109523D01*
X60535714Y-94300000D01*
X60583333Y-94395238D01*
X60678571Y-94442857D01*
X60773809Y-94442857D01*
X60869047Y-93966666D01*
X60535714Y-94871428D02*
X61535714Y-94871428D01*
X60583333Y-94871428D02*
X60535714Y-94966666D01*
X60535714Y-95157142D01*
X60583333Y-95252380D01*
X60630952Y-95300000D01*
X60726190Y-95347619D01*
X61011904Y-95347619D01*
X61107142Y-95300000D01*
X61154761Y-95252380D01*
X61202380Y-95157142D01*
X61202380Y-94966666D01*
X61154761Y-94871428D01*
X60297619Y-96490476D02*
X60250000Y-96538095D01*
X60202380Y-96633333D01*
X60202380Y-96871428D01*
X60250000Y-96966666D01*
X60297619Y-97014285D01*
X60392857Y-97061904D01*
X60488095Y-97061904D01*
X60630952Y-97014285D01*
X61202380Y-96442857D01*
X61202380Y-97061904D01*
X60202380Y-97680952D02*
X60202380Y-97776190D01*
X60250000Y-97871428D01*
X60297619Y-97919047D01*
X60392857Y-97966666D01*
X60583333Y-98014285D01*
X60821428Y-98014285D01*
X61011904Y-97966666D01*
X61107142Y-97919047D01*
X61154761Y-97871428D01*
X61202380Y-97776190D01*
X61202380Y-97680952D01*
X61154761Y-97585714D01*
X61107142Y-97538095D01*
X61011904Y-97490476D01*
X60821428Y-97442857D01*
X60583333Y-97442857D01*
X60392857Y-97490476D01*
X60297619Y-97538095D01*
X60250000Y-97585714D01*
X60202380Y-97680952D01*
X60297619Y-98395238D02*
X60250000Y-98442857D01*
X60202380Y-98538095D01*
X60202380Y-98776190D01*
X60250000Y-98871428D01*
X60297619Y-98919047D01*
X60392857Y-98966666D01*
X60488095Y-98966666D01*
X60630952Y-98919047D01*
X61202380Y-98347619D01*
X61202380Y-98966666D01*
X60297619Y-99347619D02*
X60250000Y-99395238D01*
X60202380Y-99490476D01*
X60202380Y-99728571D01*
X60250000Y-99823809D01*
X60297619Y-99871428D01*
X60392857Y-99919047D01*
X60488095Y-99919047D01*
X60630952Y-99871428D01*
X61202380Y-99300000D01*
X61202380Y-99919047D01*
X99202380Y-87300000D02*
X98726190Y-86966666D01*
X99202380Y-86728571D02*
X98202380Y-86728571D01*
X98202380Y-87109523D01*
X98250000Y-87204761D01*
X98297619Y-87252380D01*
X98392857Y-87300000D01*
X98535714Y-87300000D01*
X98630952Y-87252380D01*
X98678571Y-87204761D01*
X98726190Y-87109523D01*
X98726190Y-86728571D01*
X99154761Y-88109523D02*
X99202380Y-88014285D01*
X99202380Y-87823809D01*
X99154761Y-87728571D01*
X99059523Y-87680952D01*
X98678571Y-87680952D01*
X98583333Y-87728571D01*
X98535714Y-87823809D01*
X98535714Y-88014285D01*
X98583333Y-88109523D01*
X98678571Y-88157142D01*
X98773809Y-88157142D01*
X98869047Y-87680952D01*
X98535714Y-88490476D02*
X99202380Y-88728571D01*
X98535714Y-88966666D01*
X99107142Y-89347619D02*
X99154761Y-89395238D01*
X99202380Y-89347619D01*
X99154761Y-89300000D01*
X99107142Y-89347619D01*
X99202380Y-89347619D01*
X98297619Y-90538095D02*
X98250000Y-90585714D01*
X98202380Y-90680952D01*
X98202380Y-90919047D01*
X98250000Y-91014285D01*
X98297619Y-91061904D01*
X98392857Y-91109523D01*
X98488095Y-91109523D01*
X98630952Y-91061904D01*
X99202380Y-90490476D01*
X99202380Y-91109523D01*
X99154761Y-93014285D02*
X99202380Y-93157142D01*
X99202380Y-93395238D01*
X99154761Y-93490476D01*
X99107142Y-93538095D01*
X99011904Y-93585714D01*
X98916666Y-93585714D01*
X98821428Y-93538095D01*
X98773809Y-93490476D01*
X98726190Y-93395238D01*
X98678571Y-93204761D01*
X98630952Y-93109523D01*
X98583333Y-93061904D01*
X98488095Y-93014285D01*
X98392857Y-93014285D01*
X98297619Y-93061904D01*
X98250000Y-93109523D01*
X98202380Y-93204761D01*
X98202380Y-93442857D01*
X98250000Y-93585714D01*
X99154761Y-94395238D02*
X99202380Y-94299999D01*
X99202380Y-94109523D01*
X99154761Y-94014285D01*
X99059523Y-93966666D01*
X98678571Y-93966666D01*
X98583333Y-94014285D01*
X98535714Y-94109523D01*
X98535714Y-94299999D01*
X98583333Y-94395238D01*
X98678571Y-94442857D01*
X98773809Y-94442857D01*
X98869047Y-93966666D01*
X98535714Y-94871428D02*
X99535714Y-94871428D01*
X98583333Y-94871428D02*
X98535714Y-94966666D01*
X98535714Y-95157142D01*
X98583333Y-95252380D01*
X98630952Y-95299999D01*
X98726190Y-95347619D01*
X99011904Y-95347619D01*
X99107142Y-95299999D01*
X99154761Y-95252380D01*
X99202380Y-95157142D01*
X99202380Y-94966666D01*
X99154761Y-94871428D01*
X98297619Y-96490476D02*
X98250000Y-96538095D01*
X98202380Y-96633333D01*
X98202380Y-96871428D01*
X98250000Y-96966666D01*
X98297619Y-97014285D01*
X98392857Y-97061904D01*
X98488095Y-97061904D01*
X98630952Y-97014285D01*
X99202380Y-96442857D01*
X99202380Y-97061904D01*
X98202380Y-97680952D02*
X98202380Y-97776190D01*
X98250000Y-97871428D01*
X98297619Y-97919047D01*
X98392857Y-97966666D01*
X98583333Y-98014285D01*
X98821428Y-98014285D01*
X99011904Y-97966666D01*
X99107142Y-97919047D01*
X99154761Y-97871428D01*
X99202380Y-97776190D01*
X99202380Y-97680952D01*
X99154761Y-97585714D01*
X99107142Y-97538095D01*
X99011904Y-97490476D01*
X98821428Y-97442857D01*
X98583333Y-97442857D01*
X98392857Y-97490476D01*
X98297619Y-97538095D01*
X98250000Y-97585714D01*
X98202380Y-97680952D01*
X98297619Y-98395238D02*
X98250000Y-98442857D01*
X98202380Y-98538095D01*
X98202380Y-98776190D01*
X98250000Y-98871428D01*
X98297619Y-98919047D01*
X98392857Y-98966666D01*
X98488095Y-98966666D01*
X98630952Y-98919047D01*
X99202380Y-98347619D01*
X99202380Y-98966666D01*
X98297619Y-99347619D02*
X98250000Y-99395238D01*
X98202380Y-99490476D01*
X98202380Y-99728571D01*
X98250000Y-99823809D01*
X98297619Y-99871428D01*
X98392857Y-99919047D01*
X98488095Y-99919047D01*
X98630952Y-99871428D01*
X99202380Y-99299999D01*
X99202380Y-99919047D01*
D11*
X57282380Y-30116666D02*
X57996666Y-30116666D01*
X58139523Y-30069047D01*
X58234761Y-29973809D01*
X58282380Y-29830952D01*
X58282380Y-29735714D01*
X58282380Y-31116666D02*
X58282380Y-30545238D01*
X58282380Y-30830952D02*
X57282380Y-30830952D01*
X57425238Y-30735714D01*
X57520476Y-30640476D01*
X57568095Y-30545238D01*
X95282380Y-80116666D02*
X95996666Y-80116666D01*
X96139523Y-80069047D01*
X96234761Y-79973809D01*
X96282380Y-79830952D01*
X96282380Y-79735714D01*
X96282380Y-81116666D02*
X96282380Y-80545238D01*
X96282380Y-80830952D02*
X95282380Y-80830952D01*
X95425238Y-80735714D01*
X95520476Y-80640476D01*
X95568095Y-80545238D01*
X57282380Y-80116666D02*
X57996666Y-80116666D01*
X58139523Y-80069047D01*
X58234761Y-79973809D01*
X58282380Y-79830952D01*
X58282380Y-79735714D01*
X58282380Y-81116666D02*
X58282380Y-80545238D01*
X58282380Y-80830952D02*
X57282380Y-80830952D01*
X57425238Y-80735714D01*
X57520476Y-80640476D01*
X57568095Y-80545238D01*
X95282380Y-30116666D02*
X95996666Y-30116666D01*
X96139523Y-30069047D01*
X96234761Y-29973809D01*
X96282380Y-29830952D01*
X96282380Y-29735714D01*
X96282380Y-31116666D02*
X96282380Y-30545238D01*
X96282380Y-30830952D02*
X95282380Y-30830952D01*
X95425238Y-30735714D01*
X95520476Y-30640476D01*
X95568095Y-30545238D01*
X57282380Y-55116666D02*
X57996666Y-55116666D01*
X58139523Y-55069047D01*
X58234761Y-54973809D01*
X58282380Y-54830952D01*
X58282380Y-54735714D01*
X58282380Y-56116666D02*
X58282380Y-55545238D01*
X58282380Y-55830952D02*
X57282380Y-55830952D01*
X57425238Y-55735714D01*
X57520476Y-55640476D01*
X57568095Y-55545238D01*
X95282380Y-55116666D02*
X95996666Y-55116666D01*
X96139523Y-55069047D01*
X96234761Y-54973809D01*
X96282380Y-54830952D01*
X96282380Y-54735714D01*
X96282380Y-56116666D02*
X96282380Y-55545238D01*
X96282380Y-55830952D02*
X95282380Y-55830952D01*
X95425238Y-55735714D01*
X95520476Y-55640476D01*
X95568095Y-55545238D01*
D12*
X28835000Y-32215000D02*
X28770000Y-32215000D01*
X56830000Y-28685000D02*
X56765000Y-28685000D01*
X56830000Y-32215000D02*
X56830000Y-28685000D01*
X28770000Y-32215000D02*
X28770000Y-28685000D01*
X56765000Y-33540000D02*
X56765000Y-32215000D01*
X56830000Y-32215000D02*
X56765000Y-32215000D01*
X28835000Y-28685000D02*
X28770000Y-28685000D01*
X94830000Y-82215000D02*
X94830000Y-78685000D01*
X66835000Y-78685000D02*
X66770000Y-78685000D01*
X66835000Y-82215000D02*
X66770000Y-82215000D01*
X94765000Y-83540000D02*
X94765000Y-82215000D01*
X66770000Y-82215000D02*
X66770000Y-78685000D01*
X94830000Y-78685000D02*
X94765000Y-78685000D01*
X94830000Y-82215000D02*
X94765000Y-82215000D01*
X28835000Y-82215000D02*
X28770000Y-82215000D01*
X28835000Y-78685000D02*
X28770000Y-78685000D01*
X28770000Y-82215000D02*
X28770000Y-78685000D01*
X56830000Y-82215000D02*
X56830000Y-78685000D01*
X56830000Y-82215000D02*
X56765000Y-82215000D01*
X56830000Y-78685000D02*
X56765000Y-78685000D01*
X56765000Y-83540000D02*
X56765000Y-82215000D01*
X94830000Y-28685000D02*
X94765000Y-28685000D01*
X94830000Y-32215000D02*
X94830000Y-28685000D01*
X94765000Y-33540000D02*
X94765000Y-32215000D01*
X66835000Y-32215000D02*
X66770000Y-32215000D01*
X66770000Y-32215000D02*
X66770000Y-28685000D01*
X66835000Y-28685000D02*
X66770000Y-28685000D01*
X94830000Y-32215000D02*
X94765000Y-32215000D01*
X28835000Y-57215000D02*
X28770000Y-57215000D01*
X56830000Y-57215000D02*
X56765000Y-57215000D01*
X28835000Y-53685000D02*
X28770000Y-53685000D01*
X28770000Y-57215000D02*
X28770000Y-53685000D01*
X56830000Y-57215000D02*
X56830000Y-53685000D01*
X56830000Y-53685000D02*
X56765000Y-53685000D01*
X56765000Y-58540000D02*
X56765000Y-57215000D01*
X66770000Y-57215000D02*
X66770000Y-53685000D01*
X94765000Y-58540000D02*
X94765000Y-57215000D01*
X94830000Y-57215000D02*
X94830000Y-53685000D01*
X94830000Y-53685000D02*
X94765000Y-53685000D01*
X66835000Y-57215000D02*
X66770000Y-57215000D01*
X94830000Y-57215000D02*
X94765000Y-57215000D01*
X66835000Y-53685000D02*
X66770000Y-53685000D01*
%LPC*%
D13*
X20000000Y-20000000D03*
X108000000Y-20000000D03*
X20000000Y-107000000D03*
X108000000Y-107000000D03*
D14*
X56135000Y-32400000D03*
X56135000Y-28500000D03*
X54865000Y-32400000D03*
X54865000Y-28500000D03*
X53595000Y-32400000D03*
X53595000Y-28500000D03*
X52325000Y-32400000D03*
X52325000Y-28500000D03*
X51055000Y-32400000D03*
X51055000Y-28500000D03*
X49785000Y-32400000D03*
X49785000Y-28500000D03*
X48515000Y-32400000D03*
X48515000Y-28500000D03*
X47245000Y-32400000D03*
X47245000Y-28500000D03*
X45975000Y-32400000D03*
X45975000Y-28500000D03*
X44705000Y-32400000D03*
X44705000Y-28500000D03*
X43435000Y-32400000D03*
X43435000Y-28500000D03*
X42165000Y-32400000D03*
X42165000Y-28500000D03*
X40895000Y-32400000D03*
X40895000Y-28500000D03*
X39625000Y-32400000D03*
X39625000Y-28500000D03*
X38355000Y-32400000D03*
X38355000Y-28500000D03*
X37085000Y-32400000D03*
X37085000Y-28500000D03*
X35815000Y-32400000D03*
X35815000Y-28500000D03*
X34545000Y-32400000D03*
X34545000Y-28500000D03*
X33275000Y-32400000D03*
X33275000Y-28500000D03*
X32005000Y-32400000D03*
X32005000Y-28500000D03*
X30735000Y-32400000D03*
X30735000Y-28500000D03*
X29465000Y-32400000D03*
X29465000Y-28500000D03*
D15*
X104000000Y-107000000D03*
X24000000Y-20000000D03*
D14*
X94135000Y-82400000D03*
X94135000Y-78500000D03*
X92865000Y-82400000D03*
X92865000Y-78500000D03*
X91595000Y-82400000D03*
X91595000Y-78500000D03*
X90325000Y-82400000D03*
X90325000Y-78500000D03*
X89055000Y-82400000D03*
X89055000Y-78500000D03*
X87785000Y-82400000D03*
X87785000Y-78500000D03*
X86515000Y-82400000D03*
X86515000Y-78500000D03*
X85245000Y-82400000D03*
X85245000Y-78500000D03*
X83975000Y-82400000D03*
X83975000Y-78500000D03*
X82705000Y-82400000D03*
X82705000Y-78500000D03*
X81435000Y-82400000D03*
X81435000Y-78500000D03*
X80165000Y-82400000D03*
X80165000Y-78500000D03*
X78895000Y-82400000D03*
X78895000Y-78500000D03*
X77625000Y-82400000D03*
X77625000Y-78500000D03*
X76355000Y-82400000D03*
X76355000Y-78500000D03*
X75085000Y-82400000D03*
X75085000Y-78500000D03*
X73815000Y-82400000D03*
X73815000Y-78500000D03*
X72545000Y-82400000D03*
X72545000Y-78500000D03*
X71275000Y-82400000D03*
X71275000Y-78500000D03*
X70005000Y-82400000D03*
X70005000Y-78500000D03*
X68735000Y-82400000D03*
X68735000Y-78500000D03*
X67465000Y-82400000D03*
X67465000Y-78500000D03*
X56135000Y-82400000D03*
X56135000Y-78500000D03*
X54865000Y-82400000D03*
X54865000Y-78500000D03*
X53595000Y-82400000D03*
X53595000Y-78500000D03*
X52325000Y-82400000D03*
X52325000Y-78500000D03*
X51055000Y-82400000D03*
X51055000Y-78500000D03*
X49785000Y-82400000D03*
X49785000Y-78500000D03*
X48515000Y-82400000D03*
X48515000Y-78500000D03*
X47245000Y-82400000D03*
X47245000Y-78500000D03*
X45975000Y-82400000D03*
X45975000Y-78500000D03*
X44705000Y-82400000D03*
X44705000Y-78500000D03*
X43435000Y-82400000D03*
X43435000Y-78500000D03*
X42165000Y-82400000D03*
X42165000Y-78500000D03*
X40895000Y-82400000D03*
X40895000Y-78500000D03*
X39625000Y-82400000D03*
X39625000Y-78500000D03*
X38355000Y-82400000D03*
X38355000Y-78500000D03*
X37085000Y-82400000D03*
X37085000Y-78500000D03*
X35815000Y-82400000D03*
X35815000Y-78500000D03*
X34545000Y-82400000D03*
X34545000Y-78500000D03*
X33275000Y-82400000D03*
X33275000Y-78500000D03*
X32005000Y-82400000D03*
X32005000Y-78500000D03*
X30735000Y-82400000D03*
X30735000Y-78500000D03*
X29465000Y-82400000D03*
X29465000Y-78500000D03*
D15*
X104000000Y-20000000D03*
X24000000Y-107000000D03*
D14*
X94135000Y-32400000D03*
X94135000Y-28500000D03*
X92865000Y-32400000D03*
X92865000Y-28500000D03*
X91595000Y-32400000D03*
X91595000Y-28500000D03*
X90325000Y-32400000D03*
X90325000Y-28500000D03*
X89055000Y-32400000D03*
X89055000Y-28500000D03*
X87785000Y-32400000D03*
X87785000Y-28500000D03*
X86515000Y-32400000D03*
X86515000Y-28500000D03*
X85245000Y-32400000D03*
X85245000Y-28500000D03*
X83975000Y-32400000D03*
X83975000Y-28500000D03*
X82705000Y-32400000D03*
X82705000Y-28500000D03*
X81435000Y-32400000D03*
X81435000Y-28500000D03*
X80165000Y-32400000D03*
X80165000Y-28500000D03*
X78895000Y-32400000D03*
X78895000Y-28500000D03*
X77625000Y-32400000D03*
X77625000Y-28500000D03*
X76355000Y-32400000D03*
X76355000Y-28500000D03*
X75085000Y-32400000D03*
X75085000Y-28500000D03*
X73815000Y-32400000D03*
X73815000Y-28500000D03*
X72545000Y-32400000D03*
X72545000Y-28500000D03*
X71275000Y-32400000D03*
X71275000Y-28500000D03*
X70005000Y-32400000D03*
X70005000Y-28500000D03*
X68735000Y-32400000D03*
X68735000Y-28500000D03*
X67465000Y-32400000D03*
X67465000Y-28500000D03*
X56135000Y-57400000D03*
X56135000Y-53500000D03*
X54865000Y-57400000D03*
X54865000Y-53500000D03*
X53595000Y-57400000D03*
X53595000Y-53500000D03*
X52325000Y-57400000D03*
X52325000Y-53500000D03*
X51055000Y-57400000D03*
X51055000Y-53500000D03*
X49785000Y-57400000D03*
X49785000Y-53500000D03*
X48515000Y-57400000D03*
X48515000Y-53500000D03*
X47245000Y-57400000D03*
X47245000Y-53500000D03*
X45975000Y-57400000D03*
X45975000Y-53500000D03*
X44705000Y-57400000D03*
X44705000Y-53500000D03*
X43435000Y-57400000D03*
X43435000Y-53500000D03*
X42165000Y-57400000D03*
X42165000Y-53500000D03*
X40895000Y-57400000D03*
X40895000Y-53500000D03*
X39625000Y-57400000D03*
X39625000Y-53500000D03*
X38355000Y-57400000D03*
X38355000Y-53500000D03*
X37085000Y-57400000D03*
X37085000Y-53500000D03*
X35815000Y-57400000D03*
X35815000Y-53500000D03*
X34545000Y-57400000D03*
X34545000Y-53500000D03*
X33275000Y-57400000D03*
X33275000Y-53500000D03*
X32005000Y-57400000D03*
X32005000Y-53500000D03*
X30735000Y-57400000D03*
X30735000Y-53500000D03*
X29465000Y-57400000D03*
X29465000Y-53500000D03*
X94135000Y-57400000D03*
X94135000Y-53500000D03*
X92865000Y-57400000D03*
X92865000Y-53500000D03*
X91595000Y-57400000D03*
X91595000Y-53500000D03*
X90325000Y-57400000D03*
X90325000Y-53500000D03*
X89055000Y-57400000D03*
X89055000Y-53500000D03*
X87785000Y-57400000D03*
X87785000Y-53500000D03*
X86515000Y-57400000D03*
X86515000Y-53500000D03*
X85245000Y-57400000D03*
X85245000Y-53500000D03*
X83975000Y-57400000D03*
X83975000Y-53500000D03*
X82705000Y-57400000D03*
X82705000Y-53500000D03*
X81435000Y-57400000D03*
X81435000Y-53500000D03*
X80165000Y-57400000D03*
X80165000Y-53500000D03*
X78895000Y-57400000D03*
X78895000Y-53500000D03*
X77625000Y-57400000D03*
X77625000Y-53500000D03*
X76355000Y-57400000D03*
X76355000Y-53500000D03*
X75085000Y-57400000D03*
X75085000Y-53500000D03*
X73815000Y-57400000D03*
X73815000Y-53500000D03*
X72545000Y-57400000D03*
X72545000Y-53500000D03*
X71275000Y-57400000D03*
X71275000Y-53500000D03*
X70005000Y-57400000D03*
X70005000Y-53500000D03*
X68735000Y-57400000D03*
X68735000Y-53500000D03*
X67465000Y-57400000D03*
X67465000Y-53500000D03*
M02*
