G04 #@! TF.GenerationSoftware,KiCad,Pcbnew,6.0.7-f9a2dced07~116~ubuntu22.04.1*
G04 #@! TF.CreationDate,2022-09-22T09:51:42+10:00*
G04 #@! TF.ProjectId,panel,70616e65-6c2e-46b6-9963-61645f706362,rev?*
G04 #@! TF.SameCoordinates,Original*
G04 #@! TF.FileFunction,Legend,Top*
G04 #@! TF.FilePolarity,Positive*
%FSLAX46Y46*%
G04 Gerber Fmt 4.6, Leading zero omitted, Abs format (unit mm)*
G04 Created by KiCad (PCBNEW 6.0.7-f9a2dced07~116~ubuntu22.04.1) date 2022-09-22 09:51:42*
%MOMM*%
%LPD*%
G01*
G04 APERTURE LIST*
G04 Aperture macros list*
%AMRoundRect*
0 Rectangle with rounded corners*
0 $1 Rounding radius*
0 $2 $3 $4 $5 $6 $7 $8 $9 X,Y pos of 4 corners*
0 Add a 4 corners polygon primitive as box body*
4,1,4,$2,$3,$4,$5,$6,$7,$8,$9,$2,$3,0*
0 Add four circle primitives for the rounded corners*
1,1,$1+$1,$2,$3*
1,1,$1+$1,$4,$5*
1,1,$1+$1,$6,$7*
1,1,$1+$1,$8,$9*
0 Add four rect primitives between the rounded corners*
20,1,$1+$1,$2,$3,$4,$5,0*
20,1,$1+$1,$4,$5,$6,$7,0*
20,1,$1+$1,$6,$7,$8,$9,0*
20,1,$1+$1,$8,$9,$2,$3,0*%
G04 Aperture macros list end*
%ADD10C,0.150000*%
%ADD11C,0.120000*%
%ADD12C,0.360000*%
%ADD13RoundRect,0.237500X-0.300000X-0.237500X0.300000X-0.237500X0.300000X0.237500X-0.300000X0.237500X0*%
%ADD14RoundRect,0.237500X0.237500X-0.300000X0.237500X0.300000X-0.237500X0.300000X-0.237500X-0.300000X0*%
%ADD15RoundRect,0.050000X0.387500X0.050000X-0.387500X0.050000X-0.387500X-0.050000X0.387500X-0.050000X0*%
%ADD16RoundRect,0.050000X0.050000X0.387500X-0.050000X0.387500X-0.050000X-0.387500X0.050000X-0.387500X0*%
%ADD17R,5.600000X5.600000*%
%ADD18R,2.100000X1.800000*%
%ADD19RoundRect,0.237500X0.237500X-0.250000X0.237500X0.250000X-0.237500X0.250000X-0.237500X-0.250000X0*%
%ADD20RoundRect,0.237500X-0.287500X-0.237500X0.287500X-0.237500X0.287500X0.237500X-0.287500X0.237500X0*%
%ADD21RoundRect,0.237500X0.300000X0.237500X-0.300000X0.237500X-0.300000X-0.237500X0.300000X-0.237500X0*%
%ADD22RoundRect,0.237500X0.250000X0.237500X-0.250000X0.237500X-0.250000X-0.237500X0.250000X-0.237500X0*%
%ADD23C,0.400000*%
%ADD24RoundRect,0.237500X-0.237500X0.300000X-0.237500X-0.300000X0.237500X-0.300000X0.237500X0.300000X0*%
%ADD25RoundRect,0.237500X-0.237500X0.287500X-0.237500X-0.287500X0.237500X-0.287500X0.237500X0.287500X0*%
%ADD26C,1.000000*%
%ADD27C,3.000000*%
%ADD28RoundRect,0.237500X-0.250000X-0.237500X0.250000X-0.237500X0.250000X0.237500X-0.250000X0.237500X0*%
G04 APERTURE END LIST*
D10*
X47383333Y-30677142D02*
X47335714Y-30724761D01*
X47192857Y-30772380D01*
X47097619Y-30772380D01*
X46954761Y-30724761D01*
X46859523Y-30629523D01*
X46811904Y-30534285D01*
X46764285Y-30343809D01*
X46764285Y-30200952D01*
X46811904Y-30010476D01*
X46859523Y-29915238D01*
X46954761Y-29820000D01*
X47097619Y-29772380D01*
X47192857Y-29772380D01*
X47335714Y-29820000D01*
X47383333Y-29867619D01*
X48240476Y-30105714D02*
X48240476Y-30772380D01*
X48002380Y-29724761D02*
X47764285Y-30439047D01*
X48383333Y-30439047D01*
X93813333Y-90137142D02*
X93765714Y-90184761D01*
X93622857Y-90232380D01*
X93527619Y-90232380D01*
X93384761Y-90184761D01*
X93289523Y-90089523D01*
X93241904Y-89994285D01*
X93194285Y-89803809D01*
X93194285Y-89660952D01*
X93241904Y-89470476D01*
X93289523Y-89375238D01*
X93384761Y-89280000D01*
X93527619Y-89232380D01*
X93622857Y-89232380D01*
X93765714Y-89280000D01*
X93813333Y-89327619D01*
X94146666Y-89232380D02*
X94765714Y-89232380D01*
X94432380Y-89613333D01*
X94575238Y-89613333D01*
X94670476Y-89660952D01*
X94718095Y-89708571D01*
X94765714Y-89803809D01*
X94765714Y-90041904D01*
X94718095Y-90137142D01*
X94670476Y-90184761D01*
X94575238Y-90232380D01*
X94289523Y-90232380D01*
X94194285Y-90184761D01*
X94146666Y-90137142D01*
X85383333Y-30677142D02*
X85335714Y-30724761D01*
X85192857Y-30772380D01*
X85097619Y-30772380D01*
X84954761Y-30724761D01*
X84859523Y-30629523D01*
X84811904Y-30534285D01*
X84764285Y-30343809D01*
X84764285Y-30200952D01*
X84811904Y-30010476D01*
X84859523Y-29915238D01*
X84954761Y-29820000D01*
X85097619Y-29772380D01*
X85192857Y-29772380D01*
X85335714Y-29820000D01*
X85383333Y-29867619D01*
X86240476Y-30105714D02*
X86240476Y-30772380D01*
X86002380Y-29724761D02*
X85764285Y-30439047D01*
X86383333Y-30439047D01*
X56057142Y-87726666D02*
X56104761Y-87774285D01*
X56152380Y-87917142D01*
X56152380Y-88012380D01*
X56104761Y-88155238D01*
X56009523Y-88250476D01*
X55914285Y-88298095D01*
X55723809Y-88345714D01*
X55580952Y-88345714D01*
X55390476Y-88298095D01*
X55295238Y-88250476D01*
X55200000Y-88155238D01*
X55152380Y-88012380D01*
X55152380Y-87917142D01*
X55200000Y-87774285D01*
X55247619Y-87726666D01*
X55247619Y-87345714D02*
X55200000Y-87298095D01*
X55152380Y-87202857D01*
X55152380Y-86964761D01*
X55200000Y-86869523D01*
X55247619Y-86821904D01*
X55342857Y-86774285D01*
X55438095Y-86774285D01*
X55580952Y-86821904D01*
X56152380Y-87393333D01*
X56152380Y-86774285D01*
X79178095Y-58202380D02*
X79178095Y-59011904D01*
X79225714Y-59107142D01*
X79273333Y-59154761D01*
X79368571Y-59202380D01*
X79559047Y-59202380D01*
X79654285Y-59154761D01*
X79701904Y-59107142D01*
X79749523Y-59011904D01*
X79749523Y-58202380D01*
X80749523Y-59202380D02*
X80178095Y-59202380D01*
X80463809Y-59202380D02*
X80463809Y-58202380D01*
X80368571Y-58345238D01*
X80273333Y-58440476D01*
X80178095Y-58488095D01*
X50157142Y-50357142D02*
X50109523Y-50404761D01*
X49966666Y-50452380D01*
X49871428Y-50452380D01*
X49728571Y-50404761D01*
X49633333Y-50309523D01*
X49585714Y-50214285D01*
X49538095Y-50023809D01*
X49538095Y-49880952D01*
X49585714Y-49690476D01*
X49633333Y-49595238D01*
X49728571Y-49500000D01*
X49871428Y-49452380D01*
X49966666Y-49452380D01*
X50109523Y-49500000D01*
X50157142Y-49547619D01*
X51109523Y-50452380D02*
X50538095Y-50452380D01*
X50823809Y-50452380D02*
X50823809Y-49452380D01*
X50728571Y-49595238D01*
X50633333Y-49690476D01*
X50538095Y-49738095D01*
X51966666Y-49785714D02*
X51966666Y-50452380D01*
X51728571Y-49404761D02*
X51490476Y-50119047D01*
X52109523Y-50119047D01*
X88157142Y-50357142D02*
X88109523Y-50404761D01*
X87966666Y-50452380D01*
X87871428Y-50452380D01*
X87728571Y-50404761D01*
X87633333Y-50309523D01*
X87585714Y-50214285D01*
X87538095Y-50023809D01*
X87538095Y-49880952D01*
X87585714Y-49690476D01*
X87633333Y-49595238D01*
X87728571Y-49500000D01*
X87871428Y-49452380D01*
X87966666Y-49452380D01*
X88109523Y-49500000D01*
X88157142Y-49547619D01*
X89109523Y-50452380D02*
X88538095Y-50452380D01*
X88823809Y-50452380D02*
X88823809Y-49452380D01*
X88728571Y-49595238D01*
X88633333Y-49690476D01*
X88538095Y-49738095D01*
X89966666Y-49785714D02*
X89966666Y-50452380D01*
X89728571Y-49404761D02*
X89490476Y-50119047D01*
X90109523Y-50119047D01*
X48813809Y-43476190D02*
X48813809Y-43952380D01*
X48480476Y-42952380D02*
X48813809Y-43476190D01*
X49147142Y-42952380D01*
X50004285Y-43952380D02*
X49432857Y-43952380D01*
X49718571Y-43952380D02*
X49718571Y-42952380D01*
X49623333Y-43095238D01*
X49528095Y-43190476D01*
X49432857Y-43238095D01*
X80833333Y-93952380D02*
X80500000Y-93476190D01*
X80261904Y-93952380D02*
X80261904Y-92952380D01*
X80642857Y-92952380D01*
X80738095Y-93000000D01*
X80785714Y-93047619D01*
X80833333Y-93142857D01*
X80833333Y-93285714D01*
X80785714Y-93380952D01*
X80738095Y-93428571D01*
X80642857Y-93476190D01*
X80261904Y-93476190D01*
X81166666Y-92952380D02*
X81785714Y-92952380D01*
X81452380Y-93333333D01*
X81595238Y-93333333D01*
X81690476Y-93380952D01*
X81738095Y-93428571D01*
X81785714Y-93523809D01*
X81785714Y-93761904D01*
X81738095Y-93857142D01*
X81690476Y-93904761D01*
X81595238Y-93952380D01*
X81309523Y-93952380D01*
X81214285Y-93904761D01*
X81166666Y-93857142D01*
X37283333Y-98577142D02*
X37235714Y-98624761D01*
X37092857Y-98672380D01*
X36997619Y-98672380D01*
X36854761Y-98624761D01*
X36759523Y-98529523D01*
X36711904Y-98434285D01*
X36664285Y-98243809D01*
X36664285Y-98100952D01*
X36711904Y-97910476D01*
X36759523Y-97815238D01*
X36854761Y-97720000D01*
X36997619Y-97672380D01*
X37092857Y-97672380D01*
X37235714Y-97720000D01*
X37283333Y-97767619D01*
X37759523Y-98672380D02*
X37950000Y-98672380D01*
X38045238Y-98624761D01*
X38092857Y-98577142D01*
X38188095Y-98434285D01*
X38235714Y-98243809D01*
X38235714Y-97862857D01*
X38188095Y-97767619D01*
X38140476Y-97720000D01*
X38045238Y-97672380D01*
X37854761Y-97672380D01*
X37759523Y-97720000D01*
X37711904Y-97767619D01*
X37664285Y-97862857D01*
X37664285Y-98100952D01*
X37711904Y-98196190D01*
X37759523Y-98243809D01*
X37854761Y-98291428D01*
X38045238Y-98291428D01*
X38140476Y-98243809D01*
X38188095Y-98196190D01*
X38235714Y-98100952D01*
X48813809Y-68476190D02*
X48813809Y-68952380D01*
X48480476Y-67952380D02*
X48813809Y-68476190D01*
X49147142Y-67952380D01*
X50004285Y-68952380D02*
X49432857Y-68952380D01*
X49718571Y-68952380D02*
X49718571Y-67952380D01*
X49623333Y-68095238D01*
X49528095Y-68190476D01*
X49432857Y-68238095D01*
X55733333Y-41912380D02*
X55257142Y-41912380D01*
X55257142Y-40912380D01*
X56019047Y-41007619D02*
X56066666Y-40960000D01*
X56161904Y-40912380D01*
X56400000Y-40912380D01*
X56495238Y-40960000D01*
X56542857Y-41007619D01*
X56590476Y-41102857D01*
X56590476Y-41198095D01*
X56542857Y-41340952D01*
X55971428Y-41912380D01*
X56590476Y-41912380D01*
X43443333Y-30637142D02*
X43395714Y-30684761D01*
X43252857Y-30732380D01*
X43157619Y-30732380D01*
X43014761Y-30684761D01*
X42919523Y-30589523D01*
X42871904Y-30494285D01*
X42824285Y-30303809D01*
X42824285Y-30160952D01*
X42871904Y-29970476D01*
X42919523Y-29875238D01*
X43014761Y-29780000D01*
X43157619Y-29732380D01*
X43252857Y-29732380D01*
X43395714Y-29780000D01*
X43443333Y-29827619D01*
X44014761Y-30160952D02*
X43919523Y-30113333D01*
X43871904Y-30065714D01*
X43824285Y-29970476D01*
X43824285Y-29922857D01*
X43871904Y-29827619D01*
X43919523Y-29780000D01*
X44014761Y-29732380D01*
X44205238Y-29732380D01*
X44300476Y-29780000D01*
X44348095Y-29827619D01*
X44395714Y-29922857D01*
X44395714Y-29970476D01*
X44348095Y-30065714D01*
X44300476Y-30113333D01*
X44205238Y-30160952D01*
X44014761Y-30160952D01*
X43919523Y-30208571D01*
X43871904Y-30256190D01*
X43824285Y-30351428D01*
X43824285Y-30541904D01*
X43871904Y-30637142D01*
X43919523Y-30684761D01*
X44014761Y-30732380D01*
X44205238Y-30732380D01*
X44300476Y-30684761D01*
X44348095Y-30637142D01*
X44395714Y-30541904D01*
X44395714Y-30351428D01*
X44348095Y-30256190D01*
X44300476Y-30208571D01*
X44205238Y-30160952D01*
X72167142Y-45287142D02*
X72119523Y-45334761D01*
X71976666Y-45382380D01*
X71881428Y-45382380D01*
X71738571Y-45334761D01*
X71643333Y-45239523D01*
X71595714Y-45144285D01*
X71548095Y-44953809D01*
X71548095Y-44810952D01*
X71595714Y-44620476D01*
X71643333Y-44525238D01*
X71738571Y-44430000D01*
X71881428Y-44382380D01*
X71976666Y-44382380D01*
X72119523Y-44430000D01*
X72167142Y-44477619D01*
X73119523Y-45382380D02*
X72548095Y-45382380D01*
X72833809Y-45382380D02*
X72833809Y-44382380D01*
X72738571Y-44525238D01*
X72643333Y-44620476D01*
X72548095Y-44668095D01*
X74071904Y-45382380D02*
X73500476Y-45382380D01*
X73786190Y-45382380D02*
X73786190Y-44382380D01*
X73690952Y-44525238D01*
X73595714Y-44620476D01*
X73500476Y-44668095D01*
X73143333Y-32372380D02*
X72810000Y-31896190D01*
X72571904Y-32372380D02*
X72571904Y-31372380D01*
X72952857Y-31372380D01*
X73048095Y-31420000D01*
X73095714Y-31467619D01*
X73143333Y-31562857D01*
X73143333Y-31705714D01*
X73095714Y-31800952D01*
X73048095Y-31848571D01*
X72952857Y-31896190D01*
X72571904Y-31896190D01*
X73524285Y-31467619D02*
X73571904Y-31420000D01*
X73667142Y-31372380D01*
X73905238Y-31372380D01*
X74000476Y-31420000D01*
X74048095Y-31467619D01*
X74095714Y-31562857D01*
X74095714Y-31658095D01*
X74048095Y-31800952D01*
X73476666Y-32372380D01*
X74095714Y-32372380D01*
X42833333Y-68952380D02*
X42500000Y-68476190D01*
X42261904Y-68952380D02*
X42261904Y-67952380D01*
X42642857Y-67952380D01*
X42738095Y-68000000D01*
X42785714Y-68047619D01*
X42833333Y-68142857D01*
X42833333Y-68285714D01*
X42785714Y-68380952D01*
X42738095Y-68428571D01*
X42642857Y-68476190D01*
X42261904Y-68476190D01*
X43166666Y-67952380D02*
X43785714Y-67952380D01*
X43452380Y-68333333D01*
X43595238Y-68333333D01*
X43690476Y-68380952D01*
X43738095Y-68428571D01*
X43785714Y-68523809D01*
X43785714Y-68761904D01*
X43738095Y-68857142D01*
X43690476Y-68904761D01*
X43595238Y-68952380D01*
X43309523Y-68952380D01*
X43214285Y-68904761D01*
X43166666Y-68857142D01*
X91957142Y-47742857D02*
X92004761Y-47790476D01*
X92052380Y-47933333D01*
X92052380Y-48028571D01*
X92004761Y-48171428D01*
X91909523Y-48266666D01*
X91814285Y-48314285D01*
X91623809Y-48361904D01*
X91480952Y-48361904D01*
X91290476Y-48314285D01*
X91195238Y-48266666D01*
X91100000Y-48171428D01*
X91052380Y-48028571D01*
X91052380Y-47933333D01*
X91100000Y-47790476D01*
X91147619Y-47742857D01*
X92052380Y-46790476D02*
X92052380Y-47361904D01*
X92052380Y-47076190D02*
X91052380Y-47076190D01*
X91195238Y-47171428D01*
X91290476Y-47266666D01*
X91338095Y-47361904D01*
X91052380Y-45885714D02*
X91052380Y-46361904D01*
X91528571Y-46409523D01*
X91480952Y-46361904D01*
X91433333Y-46266666D01*
X91433333Y-46028571D01*
X91480952Y-45933333D01*
X91528571Y-45885714D01*
X91623809Y-45838095D01*
X91861904Y-45838095D01*
X91957142Y-45885714D01*
X92004761Y-45933333D01*
X92052380Y-46028571D01*
X92052380Y-46266666D01*
X92004761Y-46361904D01*
X91957142Y-46409523D01*
X75283333Y-98577142D02*
X75235714Y-98624761D01*
X75092857Y-98672380D01*
X74997619Y-98672380D01*
X74854761Y-98624761D01*
X74759523Y-98529523D01*
X74711904Y-98434285D01*
X74664285Y-98243809D01*
X74664285Y-98100952D01*
X74711904Y-97910476D01*
X74759523Y-97815238D01*
X74854761Y-97720000D01*
X74997619Y-97672380D01*
X75092857Y-97672380D01*
X75235714Y-97720000D01*
X75283333Y-97767619D01*
X75759523Y-98672380D02*
X75950000Y-98672380D01*
X76045238Y-98624761D01*
X76092857Y-98577142D01*
X76188095Y-98434285D01*
X76235714Y-98243809D01*
X76235714Y-97862857D01*
X76188095Y-97767619D01*
X76140476Y-97720000D01*
X76045238Y-97672380D01*
X75854761Y-97672380D01*
X75759523Y-97720000D01*
X75711904Y-97767619D01*
X75664285Y-97862857D01*
X75664285Y-98100952D01*
X75711904Y-98196190D01*
X75759523Y-98243809D01*
X75854761Y-98291428D01*
X76045238Y-98291428D01*
X76140476Y-98243809D01*
X76188095Y-98196190D01*
X76235714Y-98100952D01*
X50157142Y-75357142D02*
X50109523Y-75404761D01*
X49966666Y-75452380D01*
X49871428Y-75452380D01*
X49728571Y-75404761D01*
X49633333Y-75309523D01*
X49585714Y-75214285D01*
X49538095Y-75023809D01*
X49538095Y-74880952D01*
X49585714Y-74690476D01*
X49633333Y-74595238D01*
X49728571Y-74500000D01*
X49871428Y-74452380D01*
X49966666Y-74452380D01*
X50109523Y-74500000D01*
X50157142Y-74547619D01*
X51109523Y-75452380D02*
X50538095Y-75452380D01*
X50823809Y-75452380D02*
X50823809Y-74452380D01*
X50728571Y-74595238D01*
X50633333Y-74690476D01*
X50538095Y-74738095D01*
X51966666Y-74785714D02*
X51966666Y-75452380D01*
X51728571Y-74404761D02*
X51490476Y-75119047D01*
X52109523Y-75119047D01*
X81443333Y-30637142D02*
X81395714Y-30684761D01*
X81252857Y-30732380D01*
X81157619Y-30732380D01*
X81014761Y-30684761D01*
X80919523Y-30589523D01*
X80871904Y-30494285D01*
X80824285Y-30303809D01*
X80824285Y-30160952D01*
X80871904Y-29970476D01*
X80919523Y-29875238D01*
X81014761Y-29780000D01*
X81157619Y-29732380D01*
X81252857Y-29732380D01*
X81395714Y-29780000D01*
X81443333Y-29827619D01*
X82014761Y-30160952D02*
X81919523Y-30113333D01*
X81871904Y-30065714D01*
X81824285Y-29970476D01*
X81824285Y-29922857D01*
X81871904Y-29827619D01*
X81919523Y-29780000D01*
X82014761Y-29732380D01*
X82205238Y-29732380D01*
X82300476Y-29780000D01*
X82348095Y-29827619D01*
X82395714Y-29922857D01*
X82395714Y-29970476D01*
X82348095Y-30065714D01*
X82300476Y-30113333D01*
X82205238Y-30160952D01*
X82014761Y-30160952D01*
X81919523Y-30208571D01*
X81871904Y-30256190D01*
X81824285Y-30351428D01*
X81824285Y-30541904D01*
X81871904Y-30637142D01*
X81919523Y-30684761D01*
X82014761Y-30732380D01*
X82205238Y-30732380D01*
X82300476Y-30684761D01*
X82348095Y-30637142D01*
X82395714Y-30541904D01*
X82395714Y-30351428D01*
X82348095Y-30256190D01*
X82300476Y-30208571D01*
X82205238Y-30160952D01*
X56057142Y-37726666D02*
X56104761Y-37774285D01*
X56152380Y-37917142D01*
X56152380Y-38012380D01*
X56104761Y-38155238D01*
X56009523Y-38250476D01*
X55914285Y-38298095D01*
X55723809Y-38345714D01*
X55580952Y-38345714D01*
X55390476Y-38298095D01*
X55295238Y-38250476D01*
X55200000Y-38155238D01*
X55152380Y-38012380D01*
X55152380Y-37917142D01*
X55200000Y-37774285D01*
X55247619Y-37726666D01*
X55247619Y-37345714D02*
X55200000Y-37298095D01*
X55152380Y-37202857D01*
X55152380Y-36964761D01*
X55200000Y-36869523D01*
X55247619Y-36821904D01*
X55342857Y-36774285D01*
X55438095Y-36774285D01*
X55580952Y-36821904D01*
X56152380Y-37393333D01*
X56152380Y-36774285D01*
X66618095Y-43262380D02*
X66618095Y-44071904D01*
X66665714Y-44167142D01*
X66713333Y-44214761D01*
X66808571Y-44262380D01*
X66999047Y-44262380D01*
X67094285Y-44214761D01*
X67141904Y-44167142D01*
X67189523Y-44071904D01*
X67189523Y-43262380D01*
X67618095Y-43357619D02*
X67665714Y-43310000D01*
X67760952Y-43262380D01*
X67999047Y-43262380D01*
X68094285Y-43310000D01*
X68141904Y-43357619D01*
X68189523Y-43452857D01*
X68189523Y-43548095D01*
X68141904Y-43690952D01*
X67570476Y-44262380D01*
X68189523Y-44262380D01*
X55733333Y-91912380D02*
X55257142Y-91912380D01*
X55257142Y-90912380D01*
X56019047Y-91007619D02*
X56066666Y-90960000D01*
X56161904Y-90912380D01*
X56400000Y-90912380D01*
X56495238Y-90960000D01*
X56542857Y-91007619D01*
X56590476Y-91102857D01*
X56590476Y-91198095D01*
X56542857Y-91340952D01*
X55971428Y-91912380D01*
X56590476Y-91912380D01*
X80833333Y-68952380D02*
X80500000Y-68476190D01*
X80261904Y-68952380D02*
X80261904Y-67952380D01*
X80642857Y-67952380D01*
X80738095Y-68000000D01*
X80785714Y-68047619D01*
X80833333Y-68142857D01*
X80833333Y-68285714D01*
X80785714Y-68380952D01*
X80738095Y-68428571D01*
X80642857Y-68476190D01*
X80261904Y-68476190D01*
X81166666Y-67952380D02*
X81785714Y-67952380D01*
X81452380Y-68333333D01*
X81595238Y-68333333D01*
X81690476Y-68380952D01*
X81738095Y-68428571D01*
X81785714Y-68523809D01*
X81785714Y-68761904D01*
X81738095Y-68857142D01*
X81690476Y-68904761D01*
X81595238Y-68952380D01*
X81309523Y-68952380D01*
X81214285Y-68904761D01*
X81166666Y-68857142D01*
X64796666Y-63356666D02*
X64796666Y-62880476D01*
X65082380Y-63451904D02*
X64082380Y-63118571D01*
X65082380Y-62785238D01*
X64558571Y-62451904D02*
X64558571Y-62118571D01*
X65082380Y-61975714D02*
X65082380Y-62451904D01*
X64082380Y-62451904D01*
X64082380Y-61975714D01*
X65082380Y-61023333D02*
X65082380Y-61594761D01*
X65082380Y-61309047D02*
X64082380Y-61309047D01*
X64225238Y-61404285D01*
X64320476Y-61499523D01*
X64368095Y-61594761D01*
X93813333Y-65137142D02*
X93765714Y-65184761D01*
X93622857Y-65232380D01*
X93527619Y-65232380D01*
X93384761Y-65184761D01*
X93289523Y-65089523D01*
X93241904Y-64994285D01*
X93194285Y-64803809D01*
X93194285Y-64660952D01*
X93241904Y-64470476D01*
X93289523Y-64375238D01*
X93384761Y-64280000D01*
X93527619Y-64232380D01*
X93622857Y-64232380D01*
X93765714Y-64280000D01*
X93813333Y-64327619D01*
X94146666Y-64232380D02*
X94765714Y-64232380D01*
X94432380Y-64613333D01*
X94575238Y-64613333D01*
X94670476Y-64660952D01*
X94718095Y-64708571D01*
X94765714Y-64803809D01*
X94765714Y-65041904D01*
X94718095Y-65137142D01*
X94670476Y-65184761D01*
X94575238Y-65232380D01*
X94289523Y-65232380D01*
X94194285Y-65184761D01*
X94146666Y-65137142D01*
X64796666Y-38356666D02*
X64796666Y-37880476D01*
X65082380Y-38451904D02*
X64082380Y-38118571D01*
X65082380Y-37785238D01*
X64558571Y-37451904D02*
X64558571Y-37118571D01*
X65082380Y-36975714D02*
X65082380Y-37451904D01*
X64082380Y-37451904D01*
X64082380Y-36975714D01*
X65082380Y-36023333D02*
X65082380Y-36594761D01*
X65082380Y-36309047D02*
X64082380Y-36309047D01*
X64225238Y-36404285D01*
X64320476Y-36499523D01*
X64368095Y-36594761D01*
X35143333Y-57372380D02*
X34810000Y-56896190D01*
X34571904Y-57372380D02*
X34571904Y-56372380D01*
X34952857Y-56372380D01*
X35048095Y-56420000D01*
X35095714Y-56467619D01*
X35143333Y-56562857D01*
X35143333Y-56705714D01*
X35095714Y-56800952D01*
X35048095Y-56848571D01*
X34952857Y-56896190D01*
X34571904Y-56896190D01*
X35524285Y-56467619D02*
X35571904Y-56420000D01*
X35667142Y-56372380D01*
X35905238Y-56372380D01*
X36000476Y-56420000D01*
X36048095Y-56467619D01*
X36095714Y-56562857D01*
X36095714Y-56658095D01*
X36048095Y-56800952D01*
X35476666Y-57372380D01*
X36095714Y-57372380D01*
X86813809Y-93476190D02*
X86813809Y-93952380D01*
X86480476Y-92952380D02*
X86813809Y-93476190D01*
X87147142Y-92952380D01*
X88004285Y-93952380D02*
X87432857Y-93952380D01*
X87718571Y-93952380D02*
X87718571Y-92952380D01*
X87623333Y-93095238D01*
X87528095Y-93190476D01*
X87432857Y-93238095D01*
X93633333Y-84767142D02*
X93585714Y-84814761D01*
X93442857Y-84862380D01*
X93347619Y-84862380D01*
X93204761Y-84814761D01*
X93109523Y-84719523D01*
X93061904Y-84624285D01*
X93014285Y-84433809D01*
X93014285Y-84290952D01*
X93061904Y-84100476D01*
X93109523Y-84005238D01*
X93204761Y-83910000D01*
X93347619Y-83862380D01*
X93442857Y-83862380D01*
X93585714Y-83910000D01*
X93633333Y-83957619D01*
X93966666Y-83862380D02*
X94633333Y-83862380D01*
X94204761Y-84862380D01*
X39047142Y-56756666D02*
X39094761Y-56804285D01*
X39142380Y-56947142D01*
X39142380Y-57042380D01*
X39094761Y-57185238D01*
X38999523Y-57280476D01*
X38904285Y-57328095D01*
X38713809Y-57375714D01*
X38570952Y-57375714D01*
X38380476Y-57328095D01*
X38285238Y-57280476D01*
X38190000Y-57185238D01*
X38142380Y-57042380D01*
X38142380Y-56947142D01*
X38190000Y-56804285D01*
X38237619Y-56756666D01*
X38142380Y-55899523D02*
X38142380Y-56090000D01*
X38190000Y-56185238D01*
X38237619Y-56232857D01*
X38380476Y-56328095D01*
X38570952Y-56375714D01*
X38951904Y-56375714D01*
X39047142Y-56328095D01*
X39094761Y-56280476D01*
X39142380Y-56185238D01*
X39142380Y-55994761D01*
X39094761Y-55899523D01*
X39047142Y-55851904D01*
X38951904Y-55804285D01*
X38713809Y-55804285D01*
X38618571Y-55851904D01*
X38570952Y-55899523D01*
X38523333Y-55994761D01*
X38523333Y-56185238D01*
X38570952Y-56280476D01*
X38618571Y-56328095D01*
X38713809Y-56375714D01*
X91957142Y-97742857D02*
X92004761Y-97790476D01*
X92052380Y-97933333D01*
X92052380Y-98028571D01*
X92004761Y-98171428D01*
X91909523Y-98266666D01*
X91814285Y-98314285D01*
X91623809Y-98361904D01*
X91480952Y-98361904D01*
X91290476Y-98314285D01*
X91195238Y-98266666D01*
X91100000Y-98171428D01*
X91052380Y-98028571D01*
X91052380Y-97933333D01*
X91100000Y-97790476D01*
X91147619Y-97742857D01*
X92052380Y-96790476D02*
X92052380Y-97361904D01*
X92052380Y-97076190D02*
X91052380Y-97076190D01*
X91195238Y-97171428D01*
X91290476Y-97266666D01*
X91338095Y-97361904D01*
X91052380Y-95885714D02*
X91052380Y-96361904D01*
X91528571Y-96409523D01*
X91480952Y-96361904D01*
X91433333Y-96266666D01*
X91433333Y-96028571D01*
X91480952Y-95933333D01*
X91528571Y-95885714D01*
X91623809Y-95838095D01*
X91861904Y-95838095D01*
X91957142Y-95885714D01*
X92004761Y-95933333D01*
X92052380Y-96028571D01*
X92052380Y-96266666D01*
X92004761Y-96361904D01*
X91957142Y-96409523D01*
X94067142Y-96602857D02*
X94114761Y-96650476D01*
X94162380Y-96793333D01*
X94162380Y-96888571D01*
X94114761Y-97031428D01*
X94019523Y-97126666D01*
X93924285Y-97174285D01*
X93733809Y-97221904D01*
X93590952Y-97221904D01*
X93400476Y-97174285D01*
X93305238Y-97126666D01*
X93210000Y-97031428D01*
X93162380Y-96888571D01*
X93162380Y-96793333D01*
X93210000Y-96650476D01*
X93257619Y-96602857D01*
X94162380Y-95650476D02*
X94162380Y-96221904D01*
X94162380Y-95936190D02*
X93162380Y-95936190D01*
X93305238Y-96031428D01*
X93400476Y-96126666D01*
X93448095Y-96221904D01*
X93257619Y-95269523D02*
X93210000Y-95221904D01*
X93162380Y-95126666D01*
X93162380Y-94888571D01*
X93210000Y-94793333D01*
X93257619Y-94745714D01*
X93352857Y-94698095D01*
X93448095Y-94698095D01*
X93590952Y-94745714D01*
X94162380Y-95317142D01*
X94162380Y-94698095D01*
X39047142Y-31756666D02*
X39094761Y-31804285D01*
X39142380Y-31947142D01*
X39142380Y-32042380D01*
X39094761Y-32185238D01*
X38999523Y-32280476D01*
X38904285Y-32328095D01*
X38713809Y-32375714D01*
X38570952Y-32375714D01*
X38380476Y-32328095D01*
X38285238Y-32280476D01*
X38190000Y-32185238D01*
X38142380Y-32042380D01*
X38142380Y-31947142D01*
X38190000Y-31804285D01*
X38237619Y-31756666D01*
X38142380Y-30899523D02*
X38142380Y-31090000D01*
X38190000Y-31185238D01*
X38237619Y-31232857D01*
X38380476Y-31328095D01*
X38570952Y-31375714D01*
X38951904Y-31375714D01*
X39047142Y-31328095D01*
X39094761Y-31280476D01*
X39142380Y-31185238D01*
X39142380Y-30994761D01*
X39094761Y-30899523D01*
X39047142Y-30851904D01*
X38951904Y-30804285D01*
X38713809Y-30804285D01*
X38618571Y-30851904D01*
X38570952Y-30899523D01*
X38523333Y-30994761D01*
X38523333Y-31185238D01*
X38570952Y-31280476D01*
X38618571Y-31328095D01*
X38713809Y-31375714D01*
X51272380Y-36466666D02*
X51272380Y-36942857D01*
X50272380Y-36942857D01*
X51272380Y-35609523D02*
X51272380Y-36180952D01*
X51272380Y-35895238D02*
X50272380Y-35895238D01*
X50415238Y-35990476D01*
X50510476Y-36085714D01*
X50558095Y-36180952D01*
X93733333Y-66912380D02*
X93257142Y-66912380D01*
X93257142Y-65912380D01*
X94019047Y-66007619D02*
X94066666Y-65960000D01*
X94161904Y-65912380D01*
X94400000Y-65912380D01*
X94495238Y-65960000D01*
X94542857Y-66007619D01*
X94590476Y-66102857D01*
X94590476Y-66198095D01*
X94542857Y-66340952D01*
X93971428Y-66912380D01*
X94590476Y-66912380D01*
X55733333Y-66912380D02*
X55257142Y-66912380D01*
X55257142Y-65912380D01*
X56019047Y-66007619D02*
X56066666Y-65960000D01*
X56161904Y-65912380D01*
X56400000Y-65912380D01*
X56495238Y-65960000D01*
X56542857Y-66007619D01*
X56590476Y-66102857D01*
X56590476Y-66198095D01*
X56542857Y-66340952D01*
X55971428Y-66912380D01*
X56590476Y-66912380D01*
X48813809Y-93476190D02*
X48813809Y-93952380D01*
X48480476Y-92952380D02*
X48813809Y-93476190D01*
X49147142Y-92952380D01*
X50004285Y-93952380D02*
X49432857Y-93952380D01*
X49718571Y-93952380D02*
X49718571Y-92952380D01*
X49623333Y-93095238D01*
X49528095Y-93190476D01*
X49432857Y-93238095D01*
X89272380Y-36466666D02*
X89272380Y-36942857D01*
X88272380Y-36942857D01*
X89272380Y-35609523D02*
X89272380Y-36180952D01*
X89272380Y-35895238D02*
X88272380Y-35895238D01*
X88415238Y-35990476D01*
X88510476Y-36085714D01*
X88558095Y-36180952D01*
X78147142Y-70076666D02*
X78194761Y-70124285D01*
X78242380Y-70267142D01*
X78242380Y-70362380D01*
X78194761Y-70505238D01*
X78099523Y-70600476D01*
X78004285Y-70648095D01*
X77813809Y-70695714D01*
X77670952Y-70695714D01*
X77480476Y-70648095D01*
X77385238Y-70600476D01*
X77290000Y-70505238D01*
X77242380Y-70362380D01*
X77242380Y-70267142D01*
X77290000Y-70124285D01*
X77337619Y-70076666D01*
X77242380Y-69171904D02*
X77242380Y-69648095D01*
X77718571Y-69695714D01*
X77670952Y-69648095D01*
X77623333Y-69552857D01*
X77623333Y-69314761D01*
X77670952Y-69219523D01*
X77718571Y-69171904D01*
X77813809Y-69124285D01*
X78051904Y-69124285D01*
X78147142Y-69171904D01*
X78194761Y-69219523D01*
X78242380Y-69314761D01*
X78242380Y-69552857D01*
X78194761Y-69648095D01*
X78147142Y-69695714D01*
X85383333Y-55677142D02*
X85335714Y-55724761D01*
X85192857Y-55772380D01*
X85097619Y-55772380D01*
X84954761Y-55724761D01*
X84859523Y-55629523D01*
X84811904Y-55534285D01*
X84764285Y-55343809D01*
X84764285Y-55200952D01*
X84811904Y-55010476D01*
X84859523Y-54915238D01*
X84954761Y-54820000D01*
X85097619Y-54772380D01*
X85192857Y-54772380D01*
X85335714Y-54820000D01*
X85383333Y-54867619D01*
X86240476Y-55105714D02*
X86240476Y-55772380D01*
X86002380Y-54724761D02*
X85764285Y-55439047D01*
X86383333Y-55439047D01*
X88157142Y-75357142D02*
X88109523Y-75404761D01*
X87966666Y-75452380D01*
X87871428Y-75452380D01*
X87728571Y-75404761D01*
X87633333Y-75309523D01*
X87585714Y-75214285D01*
X87538095Y-75023809D01*
X87538095Y-74880952D01*
X87585714Y-74690476D01*
X87633333Y-74595238D01*
X87728571Y-74500000D01*
X87871428Y-74452380D01*
X87966666Y-74452380D01*
X88109523Y-74500000D01*
X88157142Y-74547619D01*
X89109523Y-75452380D02*
X88538095Y-75452380D01*
X88823809Y-75452380D02*
X88823809Y-74452380D01*
X88728571Y-74595238D01*
X88633333Y-74690476D01*
X88538095Y-74738095D01*
X89966666Y-74785714D02*
X89966666Y-75452380D01*
X89728571Y-74404761D02*
X89490476Y-75119047D01*
X90109523Y-75119047D01*
X55813333Y-65137142D02*
X55765714Y-65184761D01*
X55622857Y-65232380D01*
X55527619Y-65232380D01*
X55384761Y-65184761D01*
X55289523Y-65089523D01*
X55241904Y-64994285D01*
X55194285Y-64803809D01*
X55194285Y-64660952D01*
X55241904Y-64470476D01*
X55289523Y-64375238D01*
X55384761Y-64280000D01*
X55527619Y-64232380D01*
X55622857Y-64232380D01*
X55765714Y-64280000D01*
X55813333Y-64327619D01*
X56146666Y-64232380D02*
X56765714Y-64232380D01*
X56432380Y-64613333D01*
X56575238Y-64613333D01*
X56670476Y-64660952D01*
X56718095Y-64708571D01*
X56765714Y-64803809D01*
X56765714Y-65041904D01*
X56718095Y-65137142D01*
X56670476Y-65184761D01*
X56575238Y-65232380D01*
X56289523Y-65232380D01*
X56194285Y-65184761D01*
X56146666Y-65137142D01*
X56057142Y-62726666D02*
X56104761Y-62774285D01*
X56152380Y-62917142D01*
X56152380Y-63012380D01*
X56104761Y-63155238D01*
X56009523Y-63250476D01*
X55914285Y-63298095D01*
X55723809Y-63345714D01*
X55580952Y-63345714D01*
X55390476Y-63298095D01*
X55295238Y-63250476D01*
X55200000Y-63155238D01*
X55152380Y-63012380D01*
X55152380Y-62917142D01*
X55200000Y-62774285D01*
X55247619Y-62726666D01*
X55247619Y-62345714D02*
X55200000Y-62298095D01*
X55152380Y-62202857D01*
X55152380Y-61964761D01*
X55200000Y-61869523D01*
X55247619Y-61821904D01*
X55342857Y-61774285D01*
X55438095Y-61774285D01*
X55580952Y-61821904D01*
X56152380Y-62393333D01*
X56152380Y-61774285D01*
X66618095Y-93262380D02*
X66618095Y-94071904D01*
X66665714Y-94167142D01*
X66713333Y-94214761D01*
X66808571Y-94262380D01*
X66999047Y-94262380D01*
X67094285Y-94214761D01*
X67141904Y-94167142D01*
X67189523Y-94071904D01*
X67189523Y-93262380D01*
X67618095Y-93357619D02*
X67665714Y-93310000D01*
X67760952Y-93262380D01*
X67999047Y-93262380D01*
X68094285Y-93310000D01*
X68141904Y-93357619D01*
X68189523Y-93452857D01*
X68189523Y-93548095D01*
X68141904Y-93690952D01*
X67570476Y-94262380D01*
X68189523Y-94262380D01*
X93633333Y-34767142D02*
X93585714Y-34814761D01*
X93442857Y-34862380D01*
X93347619Y-34862380D01*
X93204761Y-34814761D01*
X93109523Y-34719523D01*
X93061904Y-34624285D01*
X93014285Y-34433809D01*
X93014285Y-34290952D01*
X93061904Y-34100476D01*
X93109523Y-34005238D01*
X93204761Y-33910000D01*
X93347619Y-33862380D01*
X93442857Y-33862380D01*
X93585714Y-33910000D01*
X93633333Y-33957619D01*
X93966666Y-33862380D02*
X94633333Y-33862380D01*
X94204761Y-34862380D01*
X94067142Y-71602857D02*
X94114761Y-71650476D01*
X94162380Y-71793333D01*
X94162380Y-71888571D01*
X94114761Y-72031428D01*
X94019523Y-72126666D01*
X93924285Y-72174285D01*
X93733809Y-72221904D01*
X93590952Y-72221904D01*
X93400476Y-72174285D01*
X93305238Y-72126666D01*
X93210000Y-72031428D01*
X93162380Y-71888571D01*
X93162380Y-71793333D01*
X93210000Y-71650476D01*
X93257619Y-71602857D01*
X94162380Y-70650476D02*
X94162380Y-71221904D01*
X94162380Y-70936190D02*
X93162380Y-70936190D01*
X93305238Y-71031428D01*
X93400476Y-71126666D01*
X93448095Y-71221904D01*
X93257619Y-70269523D02*
X93210000Y-70221904D01*
X93162380Y-70126666D01*
X93162380Y-69888571D01*
X93210000Y-69793333D01*
X93257619Y-69745714D01*
X93352857Y-69698095D01*
X93448095Y-69698095D01*
X93590952Y-69745714D01*
X94162380Y-70317142D01*
X94162380Y-69698095D01*
X27807142Y-33516666D02*
X27854761Y-33564285D01*
X27902380Y-33707142D01*
X27902380Y-33802380D01*
X27854761Y-33945238D01*
X27759523Y-34040476D01*
X27664285Y-34088095D01*
X27473809Y-34135714D01*
X27330952Y-34135714D01*
X27140476Y-34088095D01*
X27045238Y-34040476D01*
X26950000Y-33945238D01*
X26902380Y-33802380D01*
X26902380Y-33707142D01*
X26950000Y-33564285D01*
X26997619Y-33516666D01*
X27902380Y-32564285D02*
X27902380Y-33135714D01*
X27902380Y-32850000D02*
X26902380Y-32850000D01*
X27045238Y-32945238D01*
X27140476Y-33040476D01*
X27188095Y-33135714D01*
X35143333Y-32372380D02*
X34810000Y-31896190D01*
X34571904Y-32372380D02*
X34571904Y-31372380D01*
X34952857Y-31372380D01*
X35048095Y-31420000D01*
X35095714Y-31467619D01*
X35143333Y-31562857D01*
X35143333Y-31705714D01*
X35095714Y-31800952D01*
X35048095Y-31848571D01*
X34952857Y-31896190D01*
X34571904Y-31896190D01*
X35524285Y-31467619D02*
X35571904Y-31420000D01*
X35667142Y-31372380D01*
X35905238Y-31372380D01*
X36000476Y-31420000D01*
X36048095Y-31467619D01*
X36095714Y-31562857D01*
X36095714Y-31658095D01*
X36048095Y-31800952D01*
X35476666Y-32372380D01*
X36095714Y-32372380D01*
X75283333Y-73577142D02*
X75235714Y-73624761D01*
X75092857Y-73672380D01*
X74997619Y-73672380D01*
X74854761Y-73624761D01*
X74759523Y-73529523D01*
X74711904Y-73434285D01*
X74664285Y-73243809D01*
X74664285Y-73100952D01*
X74711904Y-72910476D01*
X74759523Y-72815238D01*
X74854761Y-72720000D01*
X74997619Y-72672380D01*
X75092857Y-72672380D01*
X75235714Y-72720000D01*
X75283333Y-72767619D01*
X75759523Y-73672380D02*
X75950000Y-73672380D01*
X76045238Y-73624761D01*
X76092857Y-73577142D01*
X76188095Y-73434285D01*
X76235714Y-73243809D01*
X76235714Y-72862857D01*
X76188095Y-72767619D01*
X76140476Y-72720000D01*
X76045238Y-72672380D01*
X75854761Y-72672380D01*
X75759523Y-72720000D01*
X75711904Y-72767619D01*
X75664285Y-72862857D01*
X75664285Y-73100952D01*
X75711904Y-73196190D01*
X75759523Y-73243809D01*
X75854761Y-73291428D01*
X76045238Y-73291428D01*
X76140476Y-73243809D01*
X76188095Y-73196190D01*
X76235714Y-73100952D01*
X28618095Y-43262380D02*
X28618095Y-44071904D01*
X28665714Y-44167142D01*
X28713333Y-44214761D01*
X28808571Y-44262380D01*
X28999047Y-44262380D01*
X29094285Y-44214761D01*
X29141904Y-44167142D01*
X29189523Y-44071904D01*
X29189523Y-43262380D01*
X29618095Y-43357619D02*
X29665714Y-43310000D01*
X29760952Y-43262380D01*
X29999047Y-43262380D01*
X30094285Y-43310000D01*
X30141904Y-43357619D01*
X30189523Y-43452857D01*
X30189523Y-43548095D01*
X30141904Y-43690952D01*
X29570476Y-44262380D01*
X30189523Y-44262380D01*
X93733333Y-41912380D02*
X93257142Y-41912380D01*
X93257142Y-40912380D01*
X94019047Y-41007619D02*
X94066666Y-40960000D01*
X94161904Y-40912380D01*
X94400000Y-40912380D01*
X94495238Y-40960000D01*
X94542857Y-41007619D01*
X94590476Y-41102857D01*
X94590476Y-41198095D01*
X94542857Y-41340952D01*
X93971428Y-41912380D01*
X94590476Y-41912380D01*
X40517142Y-50477142D02*
X40469523Y-50524761D01*
X40326666Y-50572380D01*
X40231428Y-50572380D01*
X40088571Y-50524761D01*
X39993333Y-50429523D01*
X39945714Y-50334285D01*
X39898095Y-50143809D01*
X39898095Y-50000952D01*
X39945714Y-49810476D01*
X39993333Y-49715238D01*
X40088571Y-49620000D01*
X40231428Y-49572380D01*
X40326666Y-49572380D01*
X40469523Y-49620000D01*
X40517142Y-49667619D01*
X41469523Y-50572380D02*
X40898095Y-50572380D01*
X41183809Y-50572380D02*
X41183809Y-49572380D01*
X41088571Y-49715238D01*
X40993333Y-49810476D01*
X40898095Y-49858095D01*
X41802857Y-49572380D02*
X42421904Y-49572380D01*
X42088571Y-49953333D01*
X42231428Y-49953333D01*
X42326666Y-50000952D01*
X42374285Y-50048571D01*
X42421904Y-50143809D01*
X42421904Y-50381904D01*
X42374285Y-50477142D01*
X42326666Y-50524761D01*
X42231428Y-50572380D01*
X41945714Y-50572380D01*
X41850476Y-50524761D01*
X41802857Y-50477142D01*
X94057142Y-87726666D02*
X94104761Y-87774285D01*
X94152380Y-87917142D01*
X94152380Y-88012380D01*
X94104761Y-88155238D01*
X94009523Y-88250476D01*
X93914285Y-88298095D01*
X93723809Y-88345714D01*
X93580952Y-88345714D01*
X93390476Y-88298095D01*
X93295238Y-88250476D01*
X93200000Y-88155238D01*
X93152380Y-88012380D01*
X93152380Y-87917142D01*
X93200000Y-87774285D01*
X93247619Y-87726666D01*
X93247619Y-87345714D02*
X93200000Y-87298095D01*
X93152380Y-87202857D01*
X93152380Y-86964761D01*
X93200000Y-86869523D01*
X93247619Y-86821904D01*
X93342857Y-86774285D01*
X93438095Y-86774285D01*
X93580952Y-86821904D01*
X94152380Y-87393333D01*
X94152380Y-86774285D01*
X28618095Y-93262380D02*
X28618095Y-94071904D01*
X28665714Y-94167142D01*
X28713333Y-94214761D01*
X28808571Y-94262380D01*
X28999047Y-94262380D01*
X29094285Y-94214761D01*
X29141904Y-94167142D01*
X29189523Y-94071904D01*
X29189523Y-93262380D01*
X29618095Y-93357619D02*
X29665714Y-93310000D01*
X29760952Y-93262380D01*
X29999047Y-93262380D01*
X30094285Y-93310000D01*
X30141904Y-93357619D01*
X30189523Y-93452857D01*
X30189523Y-93548095D01*
X30141904Y-93690952D01*
X29570476Y-94262380D01*
X30189523Y-94262380D01*
X42833333Y-43952380D02*
X42500000Y-43476190D01*
X42261904Y-43952380D02*
X42261904Y-42952380D01*
X42642857Y-42952380D01*
X42738095Y-43000000D01*
X42785714Y-43047619D01*
X42833333Y-43142857D01*
X42833333Y-43285714D01*
X42785714Y-43380952D01*
X42738095Y-43428571D01*
X42642857Y-43476190D01*
X42261904Y-43476190D01*
X43166666Y-42952380D02*
X43785714Y-42952380D01*
X43452380Y-43333333D01*
X43595238Y-43333333D01*
X43690476Y-43380952D01*
X43738095Y-43428571D01*
X43785714Y-43523809D01*
X43785714Y-43761904D01*
X43738095Y-43857142D01*
X43690476Y-43904761D01*
X43595238Y-43952380D01*
X43309523Y-43952380D01*
X43214285Y-43904761D01*
X43166666Y-43857142D01*
X55633333Y-84767142D02*
X55585714Y-84814761D01*
X55442857Y-84862380D01*
X55347619Y-84862380D01*
X55204761Y-84814761D01*
X55109523Y-84719523D01*
X55061904Y-84624285D01*
X55014285Y-84433809D01*
X55014285Y-84290952D01*
X55061904Y-84100476D01*
X55109523Y-84005238D01*
X55204761Y-83910000D01*
X55347619Y-83862380D01*
X55442857Y-83862380D01*
X55585714Y-83910000D01*
X55633333Y-83957619D01*
X55966666Y-83862380D02*
X56633333Y-83862380D01*
X56204761Y-84862380D01*
X80833333Y-43952380D02*
X80500000Y-43476190D01*
X80261904Y-43952380D02*
X80261904Y-42952380D01*
X80642857Y-42952380D01*
X80738095Y-43000000D01*
X80785714Y-43047619D01*
X80833333Y-43142857D01*
X80833333Y-43285714D01*
X80785714Y-43380952D01*
X80738095Y-43428571D01*
X80642857Y-43476190D01*
X80261904Y-43476190D01*
X81166666Y-42952380D02*
X81785714Y-42952380D01*
X81452380Y-43333333D01*
X81595238Y-43333333D01*
X81690476Y-43380952D01*
X81738095Y-43428571D01*
X81785714Y-43523809D01*
X81785714Y-43761904D01*
X81738095Y-43857142D01*
X81690476Y-43904761D01*
X81595238Y-43952380D01*
X81309523Y-43952380D01*
X81214285Y-43904761D01*
X81166666Y-43857142D01*
X39047142Y-81756666D02*
X39094761Y-81804285D01*
X39142380Y-81947142D01*
X39142380Y-82042380D01*
X39094761Y-82185238D01*
X38999523Y-82280476D01*
X38904285Y-82328095D01*
X38713809Y-82375714D01*
X38570952Y-82375714D01*
X38380476Y-82328095D01*
X38285238Y-82280476D01*
X38190000Y-82185238D01*
X38142380Y-82042380D01*
X38142380Y-81947142D01*
X38190000Y-81804285D01*
X38237619Y-81756666D01*
X38142380Y-80899523D02*
X38142380Y-81090000D01*
X38190000Y-81185238D01*
X38237619Y-81232857D01*
X38380476Y-81328095D01*
X38570952Y-81375714D01*
X38951904Y-81375714D01*
X39047142Y-81328095D01*
X39094761Y-81280476D01*
X39142380Y-81185238D01*
X39142380Y-80994761D01*
X39094761Y-80899523D01*
X39047142Y-80851904D01*
X38951904Y-80804285D01*
X38713809Y-80804285D01*
X38618571Y-80851904D01*
X38570952Y-80899523D01*
X38523333Y-80994761D01*
X38523333Y-81185238D01*
X38570952Y-81280476D01*
X38618571Y-81328095D01*
X38713809Y-81375714D01*
X71633333Y-48672380D02*
X71300000Y-48196190D01*
X71061904Y-48672380D02*
X71061904Y-47672380D01*
X71442857Y-47672380D01*
X71538095Y-47720000D01*
X71585714Y-47767619D01*
X71633333Y-47862857D01*
X71633333Y-48005714D01*
X71585714Y-48100952D01*
X71538095Y-48148571D01*
X71442857Y-48196190D01*
X71061904Y-48196190D01*
X72585714Y-48672380D02*
X72014285Y-48672380D01*
X72300000Y-48672380D02*
X72300000Y-47672380D01*
X72204761Y-47815238D01*
X72109523Y-47910476D01*
X72014285Y-47958095D01*
X81443333Y-55637142D02*
X81395714Y-55684761D01*
X81252857Y-55732380D01*
X81157619Y-55732380D01*
X81014761Y-55684761D01*
X80919523Y-55589523D01*
X80871904Y-55494285D01*
X80824285Y-55303809D01*
X80824285Y-55160952D01*
X80871904Y-54970476D01*
X80919523Y-54875238D01*
X81014761Y-54780000D01*
X81157619Y-54732380D01*
X81252857Y-54732380D01*
X81395714Y-54780000D01*
X81443333Y-54827619D01*
X82014761Y-55160952D02*
X81919523Y-55113333D01*
X81871904Y-55065714D01*
X81824285Y-54970476D01*
X81824285Y-54922857D01*
X81871904Y-54827619D01*
X81919523Y-54780000D01*
X82014761Y-54732380D01*
X82205238Y-54732380D01*
X82300476Y-54780000D01*
X82348095Y-54827619D01*
X82395714Y-54922857D01*
X82395714Y-54970476D01*
X82348095Y-55065714D01*
X82300476Y-55113333D01*
X82205238Y-55160952D01*
X82014761Y-55160952D01*
X81919523Y-55208571D01*
X81871904Y-55256190D01*
X81824285Y-55351428D01*
X81824285Y-55541904D01*
X81871904Y-55637142D01*
X81919523Y-55684761D01*
X82014761Y-55732380D01*
X82205238Y-55732380D01*
X82300476Y-55684761D01*
X82348095Y-55637142D01*
X82395714Y-55541904D01*
X82395714Y-55351428D01*
X82348095Y-55256190D01*
X82300476Y-55208571D01*
X82205238Y-55160952D01*
X73143333Y-57372380D02*
X72810000Y-56896190D01*
X72571904Y-57372380D02*
X72571904Y-56372380D01*
X72952857Y-56372380D01*
X73048095Y-56420000D01*
X73095714Y-56467619D01*
X73143333Y-56562857D01*
X73143333Y-56705714D01*
X73095714Y-56800952D01*
X73048095Y-56848571D01*
X72952857Y-56896190D01*
X72571904Y-56896190D01*
X73524285Y-56467619D02*
X73571904Y-56420000D01*
X73667142Y-56372380D01*
X73905238Y-56372380D01*
X74000476Y-56420000D01*
X74048095Y-56467619D01*
X74095714Y-56562857D01*
X74095714Y-56658095D01*
X74048095Y-56800952D01*
X73476666Y-57372380D01*
X74095714Y-57372380D01*
X40147142Y-45076666D02*
X40194761Y-45124285D01*
X40242380Y-45267142D01*
X40242380Y-45362380D01*
X40194761Y-45505238D01*
X40099523Y-45600476D01*
X40004285Y-45648095D01*
X39813809Y-45695714D01*
X39670952Y-45695714D01*
X39480476Y-45648095D01*
X39385238Y-45600476D01*
X39290000Y-45505238D01*
X39242380Y-45362380D01*
X39242380Y-45267142D01*
X39290000Y-45124285D01*
X39337619Y-45076666D01*
X39242380Y-44171904D02*
X39242380Y-44648095D01*
X39718571Y-44695714D01*
X39670952Y-44648095D01*
X39623333Y-44552857D01*
X39623333Y-44314761D01*
X39670952Y-44219523D01*
X39718571Y-44171904D01*
X39813809Y-44124285D01*
X40051904Y-44124285D01*
X40147142Y-44171904D01*
X40194761Y-44219523D01*
X40242380Y-44314761D01*
X40242380Y-44552857D01*
X40194761Y-44648095D01*
X40147142Y-44695714D01*
X89272380Y-86466666D02*
X89272380Y-86942857D01*
X88272380Y-86942857D01*
X89272380Y-85609523D02*
X89272380Y-86180952D01*
X89272380Y-85895238D02*
X88272380Y-85895238D01*
X88415238Y-85990476D01*
X88510476Y-86085714D01*
X88558095Y-86180952D01*
X40147142Y-95076666D02*
X40194761Y-95124285D01*
X40242380Y-95267142D01*
X40242380Y-95362380D01*
X40194761Y-95505238D01*
X40099523Y-95600476D01*
X40004285Y-95648095D01*
X39813809Y-95695714D01*
X39670952Y-95695714D01*
X39480476Y-95648095D01*
X39385238Y-95600476D01*
X39290000Y-95505238D01*
X39242380Y-95362380D01*
X39242380Y-95267142D01*
X39290000Y-95124285D01*
X39337619Y-95076666D01*
X39242380Y-94171904D02*
X39242380Y-94648095D01*
X39718571Y-94695714D01*
X39670952Y-94648095D01*
X39623333Y-94552857D01*
X39623333Y-94314761D01*
X39670952Y-94219523D01*
X39718571Y-94171904D01*
X39813809Y-94124285D01*
X40051904Y-94124285D01*
X40147142Y-94171904D01*
X40194761Y-94219523D01*
X40242380Y-94314761D01*
X40242380Y-94552857D01*
X40194761Y-94648095D01*
X40147142Y-94695714D01*
X78147142Y-45076666D02*
X78194761Y-45124285D01*
X78242380Y-45267142D01*
X78242380Y-45362380D01*
X78194761Y-45505238D01*
X78099523Y-45600476D01*
X78004285Y-45648095D01*
X77813809Y-45695714D01*
X77670952Y-45695714D01*
X77480476Y-45648095D01*
X77385238Y-45600476D01*
X77290000Y-45505238D01*
X77242380Y-45362380D01*
X77242380Y-45267142D01*
X77290000Y-45124285D01*
X77337619Y-45076666D01*
X77242380Y-44171904D02*
X77242380Y-44648095D01*
X77718571Y-44695714D01*
X77670952Y-44648095D01*
X77623333Y-44552857D01*
X77623333Y-44314761D01*
X77670952Y-44219523D01*
X77718571Y-44171904D01*
X77813809Y-44124285D01*
X78051904Y-44124285D01*
X78147142Y-44171904D01*
X78194761Y-44219523D01*
X78242380Y-44314761D01*
X78242380Y-44552857D01*
X78194761Y-44648095D01*
X78147142Y-44695714D01*
X86813809Y-43476190D02*
X86813809Y-43952380D01*
X86480476Y-42952380D02*
X86813809Y-43476190D01*
X87147142Y-42952380D01*
X88004285Y-43952380D02*
X87432857Y-43952380D01*
X87718571Y-43952380D02*
X87718571Y-42952380D01*
X87623333Y-43095238D01*
X87528095Y-43190476D01*
X87432857Y-43238095D01*
X41178095Y-33202380D02*
X41178095Y-34011904D01*
X41225714Y-34107142D01*
X41273333Y-34154761D01*
X41368571Y-34202380D01*
X41559047Y-34202380D01*
X41654285Y-34154761D01*
X41701904Y-34107142D01*
X41749523Y-34011904D01*
X41749523Y-33202380D01*
X42749523Y-34202380D02*
X42178095Y-34202380D01*
X42463809Y-34202380D02*
X42463809Y-33202380D01*
X42368571Y-33345238D01*
X42273333Y-33440476D01*
X42178095Y-33488095D01*
X94057142Y-62726666D02*
X94104761Y-62774285D01*
X94152380Y-62917142D01*
X94152380Y-63012380D01*
X94104761Y-63155238D01*
X94009523Y-63250476D01*
X93914285Y-63298095D01*
X93723809Y-63345714D01*
X93580952Y-63345714D01*
X93390476Y-63298095D01*
X93295238Y-63250476D01*
X93200000Y-63155238D01*
X93152380Y-63012380D01*
X93152380Y-62917142D01*
X93200000Y-62774285D01*
X93247619Y-62726666D01*
X93247619Y-62345714D02*
X93200000Y-62298095D01*
X93152380Y-62202857D01*
X93152380Y-61964761D01*
X93200000Y-61869523D01*
X93247619Y-61821904D01*
X93342857Y-61774285D01*
X93438095Y-61774285D01*
X93580952Y-61821904D01*
X94152380Y-62393333D01*
X94152380Y-61774285D01*
X33633333Y-98672380D02*
X33300000Y-98196190D01*
X33061904Y-98672380D02*
X33061904Y-97672380D01*
X33442857Y-97672380D01*
X33538095Y-97720000D01*
X33585714Y-97767619D01*
X33633333Y-97862857D01*
X33633333Y-98005714D01*
X33585714Y-98100952D01*
X33538095Y-98148571D01*
X33442857Y-98196190D01*
X33061904Y-98196190D01*
X34585714Y-98672380D02*
X34014285Y-98672380D01*
X34300000Y-98672380D02*
X34300000Y-97672380D01*
X34204761Y-97815238D01*
X34109523Y-97910476D01*
X34014285Y-97958095D01*
X78147142Y-95076666D02*
X78194761Y-95124285D01*
X78242380Y-95267142D01*
X78242380Y-95362380D01*
X78194761Y-95505238D01*
X78099523Y-95600476D01*
X78004285Y-95648095D01*
X77813809Y-95695714D01*
X77670952Y-95695714D01*
X77480476Y-95648095D01*
X77385238Y-95600476D01*
X77290000Y-95505238D01*
X77242380Y-95362380D01*
X77242380Y-95267142D01*
X77290000Y-95124285D01*
X77337619Y-95076666D01*
X77242380Y-94171904D02*
X77242380Y-94648095D01*
X77718571Y-94695714D01*
X77670952Y-94648095D01*
X77623333Y-94552857D01*
X77623333Y-94314761D01*
X77670952Y-94219523D01*
X77718571Y-94171904D01*
X77813809Y-94124285D01*
X78051904Y-94124285D01*
X78147142Y-94171904D01*
X78194761Y-94219523D01*
X78242380Y-94314761D01*
X78242380Y-94552857D01*
X78194761Y-94648095D01*
X78147142Y-94695714D01*
X94067142Y-46602857D02*
X94114761Y-46650476D01*
X94162380Y-46793333D01*
X94162380Y-46888571D01*
X94114761Y-47031428D01*
X94019523Y-47126666D01*
X93924285Y-47174285D01*
X93733809Y-47221904D01*
X93590952Y-47221904D01*
X93400476Y-47174285D01*
X93305238Y-47126666D01*
X93210000Y-47031428D01*
X93162380Y-46888571D01*
X93162380Y-46793333D01*
X93210000Y-46650476D01*
X93257619Y-46602857D01*
X94162380Y-45650476D02*
X94162380Y-46221904D01*
X94162380Y-45936190D02*
X93162380Y-45936190D01*
X93305238Y-46031428D01*
X93400476Y-46126666D01*
X93448095Y-46221904D01*
X93257619Y-45269523D02*
X93210000Y-45221904D01*
X93162380Y-45126666D01*
X93162380Y-44888571D01*
X93210000Y-44793333D01*
X93257619Y-44745714D01*
X93352857Y-44698095D01*
X93448095Y-44698095D01*
X93590952Y-44745714D01*
X94162380Y-45317142D01*
X94162380Y-44698095D01*
X93633333Y-59767142D02*
X93585714Y-59814761D01*
X93442857Y-59862380D01*
X93347619Y-59862380D01*
X93204761Y-59814761D01*
X93109523Y-59719523D01*
X93061904Y-59624285D01*
X93014285Y-59433809D01*
X93014285Y-59290952D01*
X93061904Y-59100476D01*
X93109523Y-59005238D01*
X93204761Y-58910000D01*
X93347619Y-58862380D01*
X93442857Y-58862380D01*
X93585714Y-58910000D01*
X93633333Y-58957619D01*
X93966666Y-58862380D02*
X94633333Y-58862380D01*
X94204761Y-59862380D01*
X89272380Y-61466666D02*
X89272380Y-61942857D01*
X88272380Y-61942857D01*
X89272380Y-60609523D02*
X89272380Y-61180952D01*
X89272380Y-60895238D02*
X88272380Y-60895238D01*
X88415238Y-60990476D01*
X88510476Y-61085714D01*
X88558095Y-61180952D01*
X73143333Y-82372380D02*
X72810000Y-81896190D01*
X72571904Y-82372380D02*
X72571904Y-81372380D01*
X72952857Y-81372380D01*
X73048095Y-81420000D01*
X73095714Y-81467619D01*
X73143333Y-81562857D01*
X73143333Y-81705714D01*
X73095714Y-81800952D01*
X73048095Y-81848571D01*
X72952857Y-81896190D01*
X72571904Y-81896190D01*
X73524285Y-81467619D02*
X73571904Y-81420000D01*
X73667142Y-81372380D01*
X73905238Y-81372380D01*
X74000476Y-81420000D01*
X74048095Y-81467619D01*
X74095714Y-81562857D01*
X74095714Y-81658095D01*
X74048095Y-81800952D01*
X73476666Y-82372380D01*
X74095714Y-82372380D01*
X33633333Y-73672380D02*
X33300000Y-73196190D01*
X33061904Y-73672380D02*
X33061904Y-72672380D01*
X33442857Y-72672380D01*
X33538095Y-72720000D01*
X33585714Y-72767619D01*
X33633333Y-72862857D01*
X33633333Y-73005714D01*
X33585714Y-73100952D01*
X33538095Y-73148571D01*
X33442857Y-73196190D01*
X33061904Y-73196190D01*
X34585714Y-73672380D02*
X34014285Y-73672380D01*
X34300000Y-73672380D02*
X34300000Y-72672380D01*
X34204761Y-72815238D01*
X34109523Y-72910476D01*
X34014285Y-72958095D01*
X94057142Y-37726666D02*
X94104761Y-37774285D01*
X94152380Y-37917142D01*
X94152380Y-38012380D01*
X94104761Y-38155238D01*
X94009523Y-38250476D01*
X93914285Y-38298095D01*
X93723809Y-38345714D01*
X93580952Y-38345714D01*
X93390476Y-38298095D01*
X93295238Y-38250476D01*
X93200000Y-38155238D01*
X93152380Y-38012380D01*
X93152380Y-37917142D01*
X93200000Y-37774285D01*
X93247619Y-37726666D01*
X93247619Y-37345714D02*
X93200000Y-37298095D01*
X93152380Y-37202857D01*
X93152380Y-36964761D01*
X93200000Y-36869523D01*
X93247619Y-36821904D01*
X93342857Y-36774285D01*
X93438095Y-36774285D01*
X93580952Y-36821904D01*
X94152380Y-37393333D01*
X94152380Y-36774285D01*
X65807142Y-58516666D02*
X65854761Y-58564285D01*
X65902380Y-58707142D01*
X65902380Y-58802380D01*
X65854761Y-58945238D01*
X65759523Y-59040476D01*
X65664285Y-59088095D01*
X65473809Y-59135714D01*
X65330952Y-59135714D01*
X65140476Y-59088095D01*
X65045238Y-59040476D01*
X64950000Y-58945238D01*
X64902380Y-58802380D01*
X64902380Y-58707142D01*
X64950000Y-58564285D01*
X64997619Y-58516666D01*
X65902380Y-57564285D02*
X65902380Y-58135714D01*
X65902380Y-57850000D02*
X64902380Y-57850000D01*
X65045238Y-57945238D01*
X65140476Y-58040476D01*
X65188095Y-58135714D01*
X51272380Y-86466666D02*
X51272380Y-86942857D01*
X50272380Y-86942857D01*
X51272380Y-85609523D02*
X51272380Y-86180952D01*
X51272380Y-85895238D02*
X50272380Y-85895238D01*
X50415238Y-85990476D01*
X50510476Y-86085714D01*
X50558095Y-86180952D01*
X47383333Y-55677142D02*
X47335714Y-55724761D01*
X47192857Y-55772380D01*
X47097619Y-55772380D01*
X46954761Y-55724761D01*
X46859523Y-55629523D01*
X46811904Y-55534285D01*
X46764285Y-55343809D01*
X46764285Y-55200952D01*
X46811904Y-55010476D01*
X46859523Y-54915238D01*
X46954761Y-54820000D01*
X47097619Y-54772380D01*
X47192857Y-54772380D01*
X47335714Y-54820000D01*
X47383333Y-54867619D01*
X48240476Y-55105714D02*
X48240476Y-55772380D01*
X48002380Y-54724761D02*
X47764285Y-55439047D01*
X48383333Y-55439047D01*
X37283333Y-73577142D02*
X37235714Y-73624761D01*
X37092857Y-73672380D01*
X36997619Y-73672380D01*
X36854761Y-73624761D01*
X36759523Y-73529523D01*
X36711904Y-73434285D01*
X36664285Y-73243809D01*
X36664285Y-73100952D01*
X36711904Y-72910476D01*
X36759523Y-72815238D01*
X36854761Y-72720000D01*
X36997619Y-72672380D01*
X37092857Y-72672380D01*
X37235714Y-72720000D01*
X37283333Y-72767619D01*
X37759523Y-73672380D02*
X37950000Y-73672380D01*
X38045238Y-73624761D01*
X38092857Y-73577142D01*
X38188095Y-73434285D01*
X38235714Y-73243809D01*
X38235714Y-72862857D01*
X38188095Y-72767619D01*
X38140476Y-72720000D01*
X38045238Y-72672380D01*
X37854761Y-72672380D01*
X37759523Y-72720000D01*
X37711904Y-72767619D01*
X37664285Y-72862857D01*
X37664285Y-73100952D01*
X37711904Y-73196190D01*
X37759523Y-73243809D01*
X37854761Y-73291428D01*
X38045238Y-73291428D01*
X38140476Y-73243809D01*
X38188095Y-73196190D01*
X38235714Y-73100952D01*
X56067142Y-46602857D02*
X56114761Y-46650476D01*
X56162380Y-46793333D01*
X56162380Y-46888571D01*
X56114761Y-47031428D01*
X56019523Y-47126666D01*
X55924285Y-47174285D01*
X55733809Y-47221904D01*
X55590952Y-47221904D01*
X55400476Y-47174285D01*
X55305238Y-47126666D01*
X55210000Y-47031428D01*
X55162380Y-46888571D01*
X55162380Y-46793333D01*
X55210000Y-46650476D01*
X55257619Y-46602857D01*
X56162380Y-45650476D02*
X56162380Y-46221904D01*
X56162380Y-45936190D02*
X55162380Y-45936190D01*
X55305238Y-46031428D01*
X55400476Y-46126666D01*
X55448095Y-46221904D01*
X55257619Y-45269523D02*
X55210000Y-45221904D01*
X55162380Y-45126666D01*
X55162380Y-44888571D01*
X55210000Y-44793333D01*
X55257619Y-44745714D01*
X55352857Y-44698095D01*
X55448095Y-44698095D01*
X55590952Y-44745714D01*
X56162380Y-45317142D01*
X56162380Y-44698095D01*
X77047142Y-56756666D02*
X77094761Y-56804285D01*
X77142380Y-56947142D01*
X77142380Y-57042380D01*
X77094761Y-57185238D01*
X76999523Y-57280476D01*
X76904285Y-57328095D01*
X76713809Y-57375714D01*
X76570952Y-57375714D01*
X76380476Y-57328095D01*
X76285238Y-57280476D01*
X76190000Y-57185238D01*
X76142380Y-57042380D01*
X76142380Y-56947142D01*
X76190000Y-56804285D01*
X76237619Y-56756666D01*
X76142380Y-55899523D02*
X76142380Y-56090000D01*
X76190000Y-56185238D01*
X76237619Y-56232857D01*
X76380476Y-56328095D01*
X76570952Y-56375714D01*
X76951904Y-56375714D01*
X77047142Y-56328095D01*
X77094761Y-56280476D01*
X77142380Y-56185238D01*
X77142380Y-55994761D01*
X77094761Y-55899523D01*
X77047142Y-55851904D01*
X76951904Y-55804285D01*
X76713809Y-55804285D01*
X76618571Y-55851904D01*
X76570952Y-55899523D01*
X76523333Y-55994761D01*
X76523333Y-56185238D01*
X76570952Y-56280476D01*
X76618571Y-56328095D01*
X76713809Y-56375714D01*
X79178095Y-33202380D02*
X79178095Y-34011904D01*
X79225714Y-34107142D01*
X79273333Y-34154761D01*
X79368571Y-34202380D01*
X79559047Y-34202380D01*
X79654285Y-34154761D01*
X79701904Y-34107142D01*
X79749523Y-34011904D01*
X79749523Y-33202380D01*
X80749523Y-34202380D02*
X80178095Y-34202380D01*
X80463809Y-34202380D02*
X80463809Y-33202380D01*
X80368571Y-33345238D01*
X80273333Y-33440476D01*
X80178095Y-33488095D01*
X75283333Y-48577142D02*
X75235714Y-48624761D01*
X75092857Y-48672380D01*
X74997619Y-48672380D01*
X74854761Y-48624761D01*
X74759523Y-48529523D01*
X74711904Y-48434285D01*
X74664285Y-48243809D01*
X74664285Y-48100952D01*
X74711904Y-47910476D01*
X74759523Y-47815238D01*
X74854761Y-47720000D01*
X74997619Y-47672380D01*
X75092857Y-47672380D01*
X75235714Y-47720000D01*
X75283333Y-47767619D01*
X75759523Y-48672380D02*
X75950000Y-48672380D01*
X76045238Y-48624761D01*
X76092857Y-48577142D01*
X76188095Y-48434285D01*
X76235714Y-48243809D01*
X76235714Y-47862857D01*
X76188095Y-47767619D01*
X76140476Y-47720000D01*
X76045238Y-47672380D01*
X75854761Y-47672380D01*
X75759523Y-47720000D01*
X75711904Y-47767619D01*
X75664285Y-47862857D01*
X75664285Y-48100952D01*
X75711904Y-48196190D01*
X75759523Y-48243809D01*
X75854761Y-48291428D01*
X76045238Y-48291428D01*
X76140476Y-48243809D01*
X76188095Y-48196190D01*
X76235714Y-48100952D01*
X79178095Y-83202380D02*
X79178095Y-84011904D01*
X79225714Y-84107142D01*
X79273333Y-84154761D01*
X79368571Y-84202380D01*
X79559047Y-84202380D01*
X79654285Y-84154761D01*
X79701904Y-84107142D01*
X79749523Y-84011904D01*
X79749523Y-83202380D01*
X80749523Y-84202380D02*
X80178095Y-84202380D01*
X80463809Y-84202380D02*
X80463809Y-83202380D01*
X80368571Y-83345238D01*
X80273333Y-83440476D01*
X80178095Y-83488095D01*
X53957142Y-72742857D02*
X54004761Y-72790476D01*
X54052380Y-72933333D01*
X54052380Y-73028571D01*
X54004761Y-73171428D01*
X53909523Y-73266666D01*
X53814285Y-73314285D01*
X53623809Y-73361904D01*
X53480952Y-73361904D01*
X53290476Y-73314285D01*
X53195238Y-73266666D01*
X53100000Y-73171428D01*
X53052380Y-73028571D01*
X53052380Y-72933333D01*
X53100000Y-72790476D01*
X53147619Y-72742857D01*
X54052380Y-71790476D02*
X54052380Y-72361904D01*
X54052380Y-72076190D02*
X53052380Y-72076190D01*
X53195238Y-72171428D01*
X53290476Y-72266666D01*
X53338095Y-72361904D01*
X53052380Y-70885714D02*
X53052380Y-71361904D01*
X53528571Y-71409523D01*
X53480952Y-71361904D01*
X53433333Y-71266666D01*
X53433333Y-71028571D01*
X53480952Y-70933333D01*
X53528571Y-70885714D01*
X53623809Y-70838095D01*
X53861904Y-70838095D01*
X53957142Y-70885714D01*
X54004761Y-70933333D01*
X54052380Y-71028571D01*
X54052380Y-71266666D01*
X54004761Y-71361904D01*
X53957142Y-71409523D01*
X47383333Y-80677142D02*
X47335714Y-80724761D01*
X47192857Y-80772380D01*
X47097619Y-80772380D01*
X46954761Y-80724761D01*
X46859523Y-80629523D01*
X46811904Y-80534285D01*
X46764285Y-80343809D01*
X46764285Y-80200952D01*
X46811904Y-80010476D01*
X46859523Y-79915238D01*
X46954761Y-79820000D01*
X47097619Y-79772380D01*
X47192857Y-79772380D01*
X47335714Y-79820000D01*
X47383333Y-79867619D01*
X48240476Y-80105714D02*
X48240476Y-80772380D01*
X48002380Y-79724761D02*
X47764285Y-80439047D01*
X48383333Y-80439047D01*
X77047142Y-31756666D02*
X77094761Y-31804285D01*
X77142380Y-31947142D01*
X77142380Y-32042380D01*
X77094761Y-32185238D01*
X76999523Y-32280476D01*
X76904285Y-32328095D01*
X76713809Y-32375714D01*
X76570952Y-32375714D01*
X76380476Y-32328095D01*
X76285238Y-32280476D01*
X76190000Y-32185238D01*
X76142380Y-32042380D01*
X76142380Y-31947142D01*
X76190000Y-31804285D01*
X76237619Y-31756666D01*
X76142380Y-30899523D02*
X76142380Y-31090000D01*
X76190000Y-31185238D01*
X76237619Y-31232857D01*
X76380476Y-31328095D01*
X76570952Y-31375714D01*
X76951904Y-31375714D01*
X77047142Y-31328095D01*
X77094761Y-31280476D01*
X77142380Y-31185238D01*
X77142380Y-30994761D01*
X77094761Y-30899523D01*
X77047142Y-30851904D01*
X76951904Y-30804285D01*
X76713809Y-30804285D01*
X76618571Y-30851904D01*
X76570952Y-30899523D01*
X76523333Y-30994761D01*
X76523333Y-31185238D01*
X76570952Y-31280476D01*
X76618571Y-31328095D01*
X76713809Y-31375714D01*
X78517142Y-75477142D02*
X78469523Y-75524761D01*
X78326666Y-75572380D01*
X78231428Y-75572380D01*
X78088571Y-75524761D01*
X77993333Y-75429523D01*
X77945714Y-75334285D01*
X77898095Y-75143809D01*
X77898095Y-75000952D01*
X77945714Y-74810476D01*
X77993333Y-74715238D01*
X78088571Y-74620000D01*
X78231428Y-74572380D01*
X78326666Y-74572380D01*
X78469523Y-74620000D01*
X78517142Y-74667619D01*
X79469523Y-75572380D02*
X78898095Y-75572380D01*
X79183809Y-75572380D02*
X79183809Y-74572380D01*
X79088571Y-74715238D01*
X78993333Y-74810476D01*
X78898095Y-74858095D01*
X79802857Y-74572380D02*
X80421904Y-74572380D01*
X80088571Y-74953333D01*
X80231428Y-74953333D01*
X80326666Y-75000952D01*
X80374285Y-75048571D01*
X80421904Y-75143809D01*
X80421904Y-75381904D01*
X80374285Y-75477142D01*
X80326666Y-75524761D01*
X80231428Y-75572380D01*
X79945714Y-75572380D01*
X79850476Y-75524761D01*
X79802857Y-75477142D01*
X71633333Y-98672380D02*
X71300000Y-98196190D01*
X71061904Y-98672380D02*
X71061904Y-97672380D01*
X71442857Y-97672380D01*
X71538095Y-97720000D01*
X71585714Y-97767619D01*
X71633333Y-97862857D01*
X71633333Y-98005714D01*
X71585714Y-98100952D01*
X71538095Y-98148571D01*
X71442857Y-98196190D01*
X71061904Y-98196190D01*
X72585714Y-98672380D02*
X72014285Y-98672380D01*
X72300000Y-98672380D02*
X72300000Y-97672380D01*
X72204761Y-97815238D01*
X72109523Y-97910476D01*
X72014285Y-97958095D01*
X42833333Y-93952380D02*
X42500000Y-93476190D01*
X42261904Y-93952380D02*
X42261904Y-92952380D01*
X42642857Y-92952380D01*
X42738095Y-93000000D01*
X42785714Y-93047619D01*
X42833333Y-93142857D01*
X42833333Y-93285714D01*
X42785714Y-93380952D01*
X42738095Y-93428571D01*
X42642857Y-93476190D01*
X42261904Y-93476190D01*
X43166666Y-92952380D02*
X43785714Y-92952380D01*
X43452380Y-93333333D01*
X43595238Y-93333333D01*
X43690476Y-93380952D01*
X43738095Y-93428571D01*
X43785714Y-93523809D01*
X43785714Y-93761904D01*
X43738095Y-93857142D01*
X43690476Y-93904761D01*
X43595238Y-93952380D01*
X43309523Y-93952380D01*
X43214285Y-93904761D01*
X43166666Y-93857142D01*
X102796666Y-38356666D02*
X102796666Y-37880476D01*
X103082380Y-38451904D02*
X102082380Y-38118571D01*
X103082380Y-37785238D01*
X102558571Y-37451904D02*
X102558571Y-37118571D01*
X103082380Y-36975714D02*
X103082380Y-37451904D01*
X102082380Y-37451904D01*
X102082380Y-36975714D01*
X103082380Y-36023333D02*
X103082380Y-36594761D01*
X103082380Y-36309047D02*
X102082380Y-36309047D01*
X102225238Y-36404285D01*
X102320476Y-36499523D01*
X102368095Y-36594761D01*
X91957142Y-72742857D02*
X92004761Y-72790476D01*
X92052380Y-72933333D01*
X92052380Y-73028571D01*
X92004761Y-73171428D01*
X91909523Y-73266666D01*
X91814285Y-73314285D01*
X91623809Y-73361904D01*
X91480952Y-73361904D01*
X91290476Y-73314285D01*
X91195238Y-73266666D01*
X91100000Y-73171428D01*
X91052380Y-73028571D01*
X91052380Y-72933333D01*
X91100000Y-72790476D01*
X91147619Y-72742857D01*
X92052380Y-71790476D02*
X92052380Y-72361904D01*
X92052380Y-72076190D02*
X91052380Y-72076190D01*
X91195238Y-72171428D01*
X91290476Y-72266666D01*
X91338095Y-72361904D01*
X91052380Y-70885714D02*
X91052380Y-71361904D01*
X91528571Y-71409523D01*
X91480952Y-71361904D01*
X91433333Y-71266666D01*
X91433333Y-71028571D01*
X91480952Y-70933333D01*
X91528571Y-70885714D01*
X91623809Y-70838095D01*
X91861904Y-70838095D01*
X91957142Y-70885714D01*
X92004761Y-70933333D01*
X92052380Y-71028571D01*
X92052380Y-71266666D01*
X92004761Y-71361904D01*
X91957142Y-71409523D01*
X27807142Y-58516666D02*
X27854761Y-58564285D01*
X27902380Y-58707142D01*
X27902380Y-58802380D01*
X27854761Y-58945238D01*
X27759523Y-59040476D01*
X27664285Y-59088095D01*
X27473809Y-59135714D01*
X27330952Y-59135714D01*
X27140476Y-59088095D01*
X27045238Y-59040476D01*
X26950000Y-58945238D01*
X26902380Y-58802380D01*
X26902380Y-58707142D01*
X26950000Y-58564285D01*
X26997619Y-58516666D01*
X27902380Y-57564285D02*
X27902380Y-58135714D01*
X27902380Y-57850000D02*
X26902380Y-57850000D01*
X27045238Y-57945238D01*
X27140476Y-58040476D01*
X27188095Y-58135714D01*
X78517142Y-100477142D02*
X78469523Y-100524761D01*
X78326666Y-100572380D01*
X78231428Y-100572380D01*
X78088571Y-100524761D01*
X77993333Y-100429523D01*
X77945714Y-100334285D01*
X77898095Y-100143809D01*
X77898095Y-100000952D01*
X77945714Y-99810476D01*
X77993333Y-99715238D01*
X78088571Y-99620000D01*
X78231428Y-99572380D01*
X78326666Y-99572380D01*
X78469523Y-99620000D01*
X78517142Y-99667619D01*
X79469523Y-100572380D02*
X78898095Y-100572380D01*
X79183809Y-100572380D02*
X79183809Y-99572380D01*
X79088571Y-99715238D01*
X78993333Y-99810476D01*
X78898095Y-99858095D01*
X79802857Y-99572380D02*
X80421904Y-99572380D01*
X80088571Y-99953333D01*
X80231428Y-99953333D01*
X80326666Y-100000952D01*
X80374285Y-100048571D01*
X80421904Y-100143809D01*
X80421904Y-100381904D01*
X80374285Y-100477142D01*
X80326666Y-100524761D01*
X80231428Y-100572380D01*
X79945714Y-100572380D01*
X79850476Y-100524761D01*
X79802857Y-100477142D01*
X55813333Y-90137142D02*
X55765714Y-90184761D01*
X55622857Y-90232380D01*
X55527619Y-90232380D01*
X55384761Y-90184761D01*
X55289523Y-90089523D01*
X55241904Y-89994285D01*
X55194285Y-89803809D01*
X55194285Y-89660952D01*
X55241904Y-89470476D01*
X55289523Y-89375238D01*
X55384761Y-89280000D01*
X55527619Y-89232380D01*
X55622857Y-89232380D01*
X55765714Y-89280000D01*
X55813333Y-89327619D01*
X56146666Y-89232380D02*
X56765714Y-89232380D01*
X56432380Y-89613333D01*
X56575238Y-89613333D01*
X56670476Y-89660952D01*
X56718095Y-89708571D01*
X56765714Y-89803809D01*
X56765714Y-90041904D01*
X56718095Y-90137142D01*
X56670476Y-90184761D01*
X56575238Y-90232380D01*
X56289523Y-90232380D01*
X56194285Y-90184761D01*
X56146666Y-90137142D01*
X85383333Y-80677142D02*
X85335714Y-80724761D01*
X85192857Y-80772380D01*
X85097619Y-80772380D01*
X84954761Y-80724761D01*
X84859523Y-80629523D01*
X84811904Y-80534285D01*
X84764285Y-80343809D01*
X84764285Y-80200952D01*
X84811904Y-80010476D01*
X84859523Y-79915238D01*
X84954761Y-79820000D01*
X85097619Y-79772380D01*
X85192857Y-79772380D01*
X85335714Y-79820000D01*
X85383333Y-79867619D01*
X86240476Y-80105714D02*
X86240476Y-80772380D01*
X86002380Y-79724761D02*
X85764285Y-80439047D01*
X86383333Y-80439047D01*
X65807142Y-33516666D02*
X65854761Y-33564285D01*
X65902380Y-33707142D01*
X65902380Y-33802380D01*
X65854761Y-33945238D01*
X65759523Y-34040476D01*
X65664285Y-34088095D01*
X65473809Y-34135714D01*
X65330952Y-34135714D01*
X65140476Y-34088095D01*
X65045238Y-34040476D01*
X64950000Y-33945238D01*
X64902380Y-33802380D01*
X64902380Y-33707142D01*
X64950000Y-33564285D01*
X64997619Y-33516666D01*
X65902380Y-32564285D02*
X65902380Y-33135714D01*
X65902380Y-32850000D02*
X64902380Y-32850000D01*
X65045238Y-32945238D01*
X65140476Y-33040476D01*
X65188095Y-33135714D01*
X93733333Y-91912380D02*
X93257142Y-91912380D01*
X93257142Y-90912380D01*
X94019047Y-91007619D02*
X94066666Y-90960000D01*
X94161904Y-90912380D01*
X94400000Y-90912380D01*
X94495238Y-90960000D01*
X94542857Y-91007619D01*
X94590476Y-91102857D01*
X94590476Y-91198095D01*
X94542857Y-91340952D01*
X93971428Y-91912380D01*
X94590476Y-91912380D01*
X72167142Y-95287142D02*
X72119523Y-95334761D01*
X71976666Y-95382380D01*
X71881428Y-95382380D01*
X71738571Y-95334761D01*
X71643333Y-95239523D01*
X71595714Y-95144285D01*
X71548095Y-94953809D01*
X71548095Y-94810952D01*
X71595714Y-94620476D01*
X71643333Y-94525238D01*
X71738571Y-94430000D01*
X71881428Y-94382380D01*
X71976666Y-94382380D01*
X72119523Y-94430000D01*
X72167142Y-94477619D01*
X73119523Y-95382380D02*
X72548095Y-95382380D01*
X72833809Y-95382380D02*
X72833809Y-94382380D01*
X72738571Y-94525238D01*
X72643333Y-94620476D01*
X72548095Y-94668095D01*
X74071904Y-95382380D02*
X73500476Y-95382380D01*
X73786190Y-95382380D02*
X73786190Y-94382380D01*
X73690952Y-94525238D01*
X73595714Y-94620476D01*
X73500476Y-94668095D01*
X89257142Y-67842857D02*
X89304761Y-67890476D01*
X89352380Y-68033333D01*
X89352380Y-68128571D01*
X89304761Y-68271428D01*
X89209523Y-68366666D01*
X89114285Y-68414285D01*
X88923809Y-68461904D01*
X88780952Y-68461904D01*
X88590476Y-68414285D01*
X88495238Y-68366666D01*
X88400000Y-68271428D01*
X88352380Y-68128571D01*
X88352380Y-68033333D01*
X88400000Y-67890476D01*
X88447619Y-67842857D01*
X89352380Y-66890476D02*
X89352380Y-67461904D01*
X89352380Y-67176190D02*
X88352380Y-67176190D01*
X88495238Y-67271428D01*
X88590476Y-67366666D01*
X88638095Y-67461904D01*
X88352380Y-66271428D02*
X88352380Y-66176190D01*
X88400000Y-66080952D01*
X88447619Y-66033333D01*
X88542857Y-65985714D01*
X88733333Y-65938095D01*
X88971428Y-65938095D01*
X89161904Y-65985714D01*
X89257142Y-66033333D01*
X89304761Y-66080952D01*
X89352380Y-66176190D01*
X89352380Y-66271428D01*
X89304761Y-66366666D01*
X89257142Y-66414285D01*
X89161904Y-66461904D01*
X88971428Y-66509523D01*
X88733333Y-66509523D01*
X88542857Y-66461904D01*
X88447619Y-66414285D01*
X88400000Y-66366666D01*
X88352380Y-66271428D01*
X27807142Y-83516666D02*
X27854761Y-83564285D01*
X27902380Y-83707142D01*
X27902380Y-83802380D01*
X27854761Y-83945238D01*
X27759523Y-84040476D01*
X27664285Y-84088095D01*
X27473809Y-84135714D01*
X27330952Y-84135714D01*
X27140476Y-84088095D01*
X27045238Y-84040476D01*
X26950000Y-83945238D01*
X26902380Y-83802380D01*
X26902380Y-83707142D01*
X26950000Y-83564285D01*
X26997619Y-83516666D01*
X27902380Y-82564285D02*
X27902380Y-83135714D01*
X27902380Y-82850000D02*
X26902380Y-82850000D01*
X27045238Y-82945238D01*
X27140476Y-83040476D01*
X27188095Y-83135714D01*
X53957142Y-97742857D02*
X54004761Y-97790476D01*
X54052380Y-97933333D01*
X54052380Y-98028571D01*
X54004761Y-98171428D01*
X53909523Y-98266666D01*
X53814285Y-98314285D01*
X53623809Y-98361904D01*
X53480952Y-98361904D01*
X53290476Y-98314285D01*
X53195238Y-98266666D01*
X53100000Y-98171428D01*
X53052380Y-98028571D01*
X53052380Y-97933333D01*
X53100000Y-97790476D01*
X53147619Y-97742857D01*
X54052380Y-96790476D02*
X54052380Y-97361904D01*
X54052380Y-97076190D02*
X53052380Y-97076190D01*
X53195238Y-97171428D01*
X53290476Y-97266666D01*
X53338095Y-97361904D01*
X53052380Y-95885714D02*
X53052380Y-96361904D01*
X53528571Y-96409523D01*
X53480952Y-96361904D01*
X53433333Y-96266666D01*
X53433333Y-96028571D01*
X53480952Y-95933333D01*
X53528571Y-95885714D01*
X53623809Y-95838095D01*
X53861904Y-95838095D01*
X53957142Y-95885714D01*
X54004761Y-95933333D01*
X54052380Y-96028571D01*
X54052380Y-96266666D01*
X54004761Y-96361904D01*
X53957142Y-96409523D01*
X56067142Y-96602857D02*
X56114761Y-96650476D01*
X56162380Y-96793333D01*
X56162380Y-96888571D01*
X56114761Y-97031428D01*
X56019523Y-97126666D01*
X55924285Y-97174285D01*
X55733809Y-97221904D01*
X55590952Y-97221904D01*
X55400476Y-97174285D01*
X55305238Y-97126666D01*
X55210000Y-97031428D01*
X55162380Y-96888571D01*
X55162380Y-96793333D01*
X55210000Y-96650476D01*
X55257619Y-96602857D01*
X56162380Y-95650476D02*
X56162380Y-96221904D01*
X56162380Y-95936190D02*
X55162380Y-95936190D01*
X55305238Y-96031428D01*
X55400476Y-96126666D01*
X55448095Y-96221904D01*
X55257619Y-95269523D02*
X55210000Y-95221904D01*
X55162380Y-95126666D01*
X55162380Y-94888571D01*
X55210000Y-94793333D01*
X55257619Y-94745714D01*
X55352857Y-94698095D01*
X55448095Y-94698095D01*
X55590952Y-94745714D01*
X56162380Y-95317142D01*
X56162380Y-94698095D01*
X86813809Y-68476190D02*
X86813809Y-68952380D01*
X86480476Y-67952380D02*
X86813809Y-68476190D01*
X87147142Y-67952380D01*
X88004285Y-68952380D02*
X87432857Y-68952380D01*
X87718571Y-68952380D02*
X87718571Y-67952380D01*
X87623333Y-68095238D01*
X87528095Y-68190476D01*
X87432857Y-68238095D01*
X89257142Y-42842857D02*
X89304761Y-42890476D01*
X89352380Y-43033333D01*
X89352380Y-43128571D01*
X89304761Y-43271428D01*
X89209523Y-43366666D01*
X89114285Y-43414285D01*
X88923809Y-43461904D01*
X88780952Y-43461904D01*
X88590476Y-43414285D01*
X88495238Y-43366666D01*
X88400000Y-43271428D01*
X88352380Y-43128571D01*
X88352380Y-43033333D01*
X88400000Y-42890476D01*
X88447619Y-42842857D01*
X89352380Y-41890476D02*
X89352380Y-42461904D01*
X89352380Y-42176190D02*
X88352380Y-42176190D01*
X88495238Y-42271428D01*
X88590476Y-42366666D01*
X88638095Y-42461904D01*
X88352380Y-41271428D02*
X88352380Y-41176190D01*
X88400000Y-41080952D01*
X88447619Y-41033333D01*
X88542857Y-40985714D01*
X88733333Y-40938095D01*
X88971428Y-40938095D01*
X89161904Y-40985714D01*
X89257142Y-41033333D01*
X89304761Y-41080952D01*
X89352380Y-41176190D01*
X89352380Y-41271428D01*
X89304761Y-41366666D01*
X89257142Y-41414285D01*
X89161904Y-41461904D01*
X88971428Y-41509523D01*
X88733333Y-41509523D01*
X88542857Y-41461904D01*
X88447619Y-41414285D01*
X88400000Y-41366666D01*
X88352380Y-41271428D01*
X28618095Y-68262380D02*
X28618095Y-69071904D01*
X28665714Y-69167142D01*
X28713333Y-69214761D01*
X28808571Y-69262380D01*
X28999047Y-69262380D01*
X29094285Y-69214761D01*
X29141904Y-69167142D01*
X29189523Y-69071904D01*
X29189523Y-68262380D01*
X29618095Y-68357619D02*
X29665714Y-68310000D01*
X29760952Y-68262380D01*
X29999047Y-68262380D01*
X30094285Y-68310000D01*
X30141904Y-68357619D01*
X30189523Y-68452857D01*
X30189523Y-68548095D01*
X30141904Y-68690952D01*
X29570476Y-69262380D01*
X30189523Y-69262380D01*
X102796666Y-63356666D02*
X102796666Y-62880476D01*
X103082380Y-63451904D02*
X102082380Y-63118571D01*
X103082380Y-62785238D01*
X102558571Y-62451904D02*
X102558571Y-62118571D01*
X103082380Y-61975714D02*
X103082380Y-62451904D01*
X102082380Y-62451904D01*
X102082380Y-61975714D01*
X103082380Y-61023333D02*
X103082380Y-61594761D01*
X103082380Y-61309047D02*
X102082380Y-61309047D01*
X102225238Y-61404285D01*
X102320476Y-61499523D01*
X102368095Y-61594761D01*
X51272380Y-61466666D02*
X51272380Y-61942857D01*
X50272380Y-61942857D01*
X51272380Y-60609523D02*
X51272380Y-61180952D01*
X51272380Y-60895238D02*
X50272380Y-60895238D01*
X50415238Y-60990476D01*
X50510476Y-61085714D01*
X50558095Y-61180952D01*
X40517142Y-100477142D02*
X40469523Y-100524761D01*
X40326666Y-100572380D01*
X40231428Y-100572380D01*
X40088571Y-100524761D01*
X39993333Y-100429523D01*
X39945714Y-100334285D01*
X39898095Y-100143809D01*
X39898095Y-100000952D01*
X39945714Y-99810476D01*
X39993333Y-99715238D01*
X40088571Y-99620000D01*
X40231428Y-99572380D01*
X40326666Y-99572380D01*
X40469523Y-99620000D01*
X40517142Y-99667619D01*
X41469523Y-100572380D02*
X40898095Y-100572380D01*
X41183809Y-100572380D02*
X41183809Y-99572380D01*
X41088571Y-99715238D01*
X40993333Y-99810476D01*
X40898095Y-99858095D01*
X41802857Y-99572380D02*
X42421904Y-99572380D01*
X42088571Y-99953333D01*
X42231428Y-99953333D01*
X42326666Y-100000952D01*
X42374285Y-100048571D01*
X42421904Y-100143809D01*
X42421904Y-100381904D01*
X42374285Y-100477142D01*
X42326666Y-100524761D01*
X42231428Y-100572380D01*
X41945714Y-100572380D01*
X41850476Y-100524761D01*
X41802857Y-100477142D01*
X55813333Y-40137142D02*
X55765714Y-40184761D01*
X55622857Y-40232380D01*
X55527619Y-40232380D01*
X55384761Y-40184761D01*
X55289523Y-40089523D01*
X55241904Y-39994285D01*
X55194285Y-39803809D01*
X55194285Y-39660952D01*
X55241904Y-39470476D01*
X55289523Y-39375238D01*
X55384761Y-39280000D01*
X55527619Y-39232380D01*
X55622857Y-39232380D01*
X55765714Y-39280000D01*
X55813333Y-39327619D01*
X56146666Y-39232380D02*
X56765714Y-39232380D01*
X56432380Y-39613333D01*
X56575238Y-39613333D01*
X56670476Y-39660952D01*
X56718095Y-39708571D01*
X56765714Y-39803809D01*
X56765714Y-40041904D01*
X56718095Y-40137142D01*
X56670476Y-40184761D01*
X56575238Y-40232380D01*
X56289523Y-40232380D01*
X56194285Y-40184761D01*
X56146666Y-40137142D01*
X51257142Y-42842857D02*
X51304761Y-42890476D01*
X51352380Y-43033333D01*
X51352380Y-43128571D01*
X51304761Y-43271428D01*
X51209523Y-43366666D01*
X51114285Y-43414285D01*
X50923809Y-43461904D01*
X50780952Y-43461904D01*
X50590476Y-43414285D01*
X50495238Y-43366666D01*
X50400000Y-43271428D01*
X50352380Y-43128571D01*
X50352380Y-43033333D01*
X50400000Y-42890476D01*
X50447619Y-42842857D01*
X51352380Y-41890476D02*
X51352380Y-42461904D01*
X51352380Y-42176190D02*
X50352380Y-42176190D01*
X50495238Y-42271428D01*
X50590476Y-42366666D01*
X50638095Y-42461904D01*
X50352380Y-41271428D02*
X50352380Y-41176190D01*
X50400000Y-41080952D01*
X50447619Y-41033333D01*
X50542857Y-40985714D01*
X50733333Y-40938095D01*
X50971428Y-40938095D01*
X51161904Y-40985714D01*
X51257142Y-41033333D01*
X51304761Y-41080952D01*
X51352380Y-41176190D01*
X51352380Y-41271428D01*
X51304761Y-41366666D01*
X51257142Y-41414285D01*
X51161904Y-41461904D01*
X50971428Y-41509523D01*
X50733333Y-41509523D01*
X50542857Y-41461904D01*
X50447619Y-41414285D01*
X50400000Y-41366666D01*
X50352380Y-41271428D01*
X51257142Y-67842857D02*
X51304761Y-67890476D01*
X51352380Y-68033333D01*
X51352380Y-68128571D01*
X51304761Y-68271428D01*
X51209523Y-68366666D01*
X51114285Y-68414285D01*
X50923809Y-68461904D01*
X50780952Y-68461904D01*
X50590476Y-68414285D01*
X50495238Y-68366666D01*
X50400000Y-68271428D01*
X50352380Y-68128571D01*
X50352380Y-68033333D01*
X50400000Y-67890476D01*
X50447619Y-67842857D01*
X51352380Y-66890476D02*
X51352380Y-67461904D01*
X51352380Y-67176190D02*
X50352380Y-67176190D01*
X50495238Y-67271428D01*
X50590476Y-67366666D01*
X50638095Y-67461904D01*
X50352380Y-66271428D02*
X50352380Y-66176190D01*
X50400000Y-66080952D01*
X50447619Y-66033333D01*
X50542857Y-65985714D01*
X50733333Y-65938095D01*
X50971428Y-65938095D01*
X51161904Y-65985714D01*
X51257142Y-66033333D01*
X51304761Y-66080952D01*
X51352380Y-66176190D01*
X51352380Y-66271428D01*
X51304761Y-66366666D01*
X51257142Y-66414285D01*
X51161904Y-66461904D01*
X50971428Y-66509523D01*
X50733333Y-66509523D01*
X50542857Y-66461904D01*
X50447619Y-66414285D01*
X50400000Y-66366666D01*
X50352380Y-66271428D01*
X88157142Y-100357142D02*
X88109523Y-100404761D01*
X87966666Y-100452380D01*
X87871428Y-100452380D01*
X87728571Y-100404761D01*
X87633333Y-100309523D01*
X87585714Y-100214285D01*
X87538095Y-100023809D01*
X87538095Y-99880952D01*
X87585714Y-99690476D01*
X87633333Y-99595238D01*
X87728571Y-99500000D01*
X87871428Y-99452380D01*
X87966666Y-99452380D01*
X88109523Y-99500000D01*
X88157142Y-99547619D01*
X89109523Y-100452380D02*
X88538095Y-100452380D01*
X88823809Y-100452380D02*
X88823809Y-99452380D01*
X88728571Y-99595238D01*
X88633333Y-99690476D01*
X88538095Y-99738095D01*
X89966666Y-99785714D02*
X89966666Y-100452380D01*
X89728571Y-99404761D02*
X89490476Y-100119047D01*
X90109523Y-100119047D01*
X53957142Y-47742857D02*
X54004761Y-47790476D01*
X54052380Y-47933333D01*
X54052380Y-48028571D01*
X54004761Y-48171428D01*
X53909523Y-48266666D01*
X53814285Y-48314285D01*
X53623809Y-48361904D01*
X53480952Y-48361904D01*
X53290476Y-48314285D01*
X53195238Y-48266666D01*
X53100000Y-48171428D01*
X53052380Y-48028571D01*
X53052380Y-47933333D01*
X53100000Y-47790476D01*
X53147619Y-47742857D01*
X54052380Y-46790476D02*
X54052380Y-47361904D01*
X54052380Y-47076190D02*
X53052380Y-47076190D01*
X53195238Y-47171428D01*
X53290476Y-47266666D01*
X53338095Y-47361904D01*
X53052380Y-45885714D02*
X53052380Y-46361904D01*
X53528571Y-46409523D01*
X53480952Y-46361904D01*
X53433333Y-46266666D01*
X53433333Y-46028571D01*
X53480952Y-45933333D01*
X53528571Y-45885714D01*
X53623809Y-45838095D01*
X53861904Y-45838095D01*
X53957142Y-45885714D01*
X54004761Y-45933333D01*
X54052380Y-46028571D01*
X54052380Y-46266666D01*
X54004761Y-46361904D01*
X53957142Y-46409523D01*
X50157142Y-100357142D02*
X50109523Y-100404761D01*
X49966666Y-100452380D01*
X49871428Y-100452380D01*
X49728571Y-100404761D01*
X49633333Y-100309523D01*
X49585714Y-100214285D01*
X49538095Y-100023809D01*
X49538095Y-99880952D01*
X49585714Y-99690476D01*
X49633333Y-99595238D01*
X49728571Y-99500000D01*
X49871428Y-99452380D01*
X49966666Y-99452380D01*
X50109523Y-99500000D01*
X50157142Y-99547619D01*
X51109523Y-100452380D02*
X50538095Y-100452380D01*
X50823809Y-100452380D02*
X50823809Y-99452380D01*
X50728571Y-99595238D01*
X50633333Y-99690476D01*
X50538095Y-99738095D01*
X51966666Y-99785714D02*
X51966666Y-100452380D01*
X51728571Y-99404761D02*
X51490476Y-100119047D01*
X52109523Y-100119047D01*
X93813333Y-40137142D02*
X93765714Y-40184761D01*
X93622857Y-40232380D01*
X93527619Y-40232380D01*
X93384761Y-40184761D01*
X93289523Y-40089523D01*
X93241904Y-39994285D01*
X93194285Y-39803809D01*
X93194285Y-39660952D01*
X93241904Y-39470476D01*
X93289523Y-39375238D01*
X93384761Y-39280000D01*
X93527619Y-39232380D01*
X93622857Y-39232380D01*
X93765714Y-39280000D01*
X93813333Y-39327619D01*
X94146666Y-39232380D02*
X94765714Y-39232380D01*
X94432380Y-39613333D01*
X94575238Y-39613333D01*
X94670476Y-39660952D01*
X94718095Y-39708571D01*
X94765714Y-39803809D01*
X94765714Y-40041904D01*
X94718095Y-40137142D01*
X94670476Y-40184761D01*
X94575238Y-40232380D01*
X94289523Y-40232380D01*
X94194285Y-40184761D01*
X94146666Y-40137142D01*
X43443333Y-55637142D02*
X43395714Y-55684761D01*
X43252857Y-55732380D01*
X43157619Y-55732380D01*
X43014761Y-55684761D01*
X42919523Y-55589523D01*
X42871904Y-55494285D01*
X42824285Y-55303809D01*
X42824285Y-55160952D01*
X42871904Y-54970476D01*
X42919523Y-54875238D01*
X43014761Y-54780000D01*
X43157619Y-54732380D01*
X43252857Y-54732380D01*
X43395714Y-54780000D01*
X43443333Y-54827619D01*
X44014761Y-55160952D02*
X43919523Y-55113333D01*
X43871904Y-55065714D01*
X43824285Y-54970476D01*
X43824285Y-54922857D01*
X43871904Y-54827619D01*
X43919523Y-54780000D01*
X44014761Y-54732380D01*
X44205238Y-54732380D01*
X44300476Y-54780000D01*
X44348095Y-54827619D01*
X44395714Y-54922857D01*
X44395714Y-54970476D01*
X44348095Y-55065714D01*
X44300476Y-55113333D01*
X44205238Y-55160952D01*
X44014761Y-55160952D01*
X43919523Y-55208571D01*
X43871904Y-55256190D01*
X43824285Y-55351428D01*
X43824285Y-55541904D01*
X43871904Y-55637142D01*
X43919523Y-55684761D01*
X44014761Y-55732380D01*
X44205238Y-55732380D01*
X44300476Y-55684761D01*
X44348095Y-55637142D01*
X44395714Y-55541904D01*
X44395714Y-55351428D01*
X44348095Y-55256190D01*
X44300476Y-55208571D01*
X44205238Y-55160952D01*
X64796666Y-88356666D02*
X64796666Y-87880476D01*
X65082380Y-88451904D02*
X64082380Y-88118571D01*
X65082380Y-87785238D01*
X64558571Y-87451904D02*
X64558571Y-87118571D01*
X65082380Y-86975714D02*
X65082380Y-87451904D01*
X64082380Y-87451904D01*
X64082380Y-86975714D01*
X65082380Y-86023333D02*
X65082380Y-86594761D01*
X65082380Y-86309047D02*
X64082380Y-86309047D01*
X64225238Y-86404285D01*
X64320476Y-86499523D01*
X64368095Y-86594761D01*
X34167142Y-95287142D02*
X34119523Y-95334761D01*
X33976666Y-95382380D01*
X33881428Y-95382380D01*
X33738571Y-95334761D01*
X33643333Y-95239523D01*
X33595714Y-95144285D01*
X33548095Y-94953809D01*
X33548095Y-94810952D01*
X33595714Y-94620476D01*
X33643333Y-94525238D01*
X33738571Y-94430000D01*
X33881428Y-94382380D01*
X33976666Y-94382380D01*
X34119523Y-94430000D01*
X34167142Y-94477619D01*
X35119523Y-95382380D02*
X34548095Y-95382380D01*
X34833809Y-95382380D02*
X34833809Y-94382380D01*
X34738571Y-94525238D01*
X34643333Y-94620476D01*
X34548095Y-94668095D01*
X36071904Y-95382380D02*
X35500476Y-95382380D01*
X35786190Y-95382380D02*
X35786190Y-94382380D01*
X35690952Y-94525238D01*
X35595714Y-94620476D01*
X35500476Y-94668095D01*
X43443333Y-80637142D02*
X43395714Y-80684761D01*
X43252857Y-80732380D01*
X43157619Y-80732380D01*
X43014761Y-80684761D01*
X42919523Y-80589523D01*
X42871904Y-80494285D01*
X42824285Y-80303809D01*
X42824285Y-80160952D01*
X42871904Y-79970476D01*
X42919523Y-79875238D01*
X43014761Y-79780000D01*
X43157619Y-79732380D01*
X43252857Y-79732380D01*
X43395714Y-79780000D01*
X43443333Y-79827619D01*
X44014761Y-80160952D02*
X43919523Y-80113333D01*
X43871904Y-80065714D01*
X43824285Y-79970476D01*
X43824285Y-79922857D01*
X43871904Y-79827619D01*
X43919523Y-79780000D01*
X44014761Y-79732380D01*
X44205238Y-79732380D01*
X44300476Y-79780000D01*
X44348095Y-79827619D01*
X44395714Y-79922857D01*
X44395714Y-79970476D01*
X44348095Y-80065714D01*
X44300476Y-80113333D01*
X44205238Y-80160952D01*
X44014761Y-80160952D01*
X43919523Y-80208571D01*
X43871904Y-80256190D01*
X43824285Y-80351428D01*
X43824285Y-80541904D01*
X43871904Y-80637142D01*
X43919523Y-80684761D01*
X44014761Y-80732380D01*
X44205238Y-80732380D01*
X44300476Y-80684761D01*
X44348095Y-80637142D01*
X44395714Y-80541904D01*
X44395714Y-80351428D01*
X44348095Y-80256190D01*
X44300476Y-80208571D01*
X44205238Y-80160952D01*
X37283333Y-48577142D02*
X37235714Y-48624761D01*
X37092857Y-48672380D01*
X36997619Y-48672380D01*
X36854761Y-48624761D01*
X36759523Y-48529523D01*
X36711904Y-48434285D01*
X36664285Y-48243809D01*
X36664285Y-48100952D01*
X36711904Y-47910476D01*
X36759523Y-47815238D01*
X36854761Y-47720000D01*
X36997619Y-47672380D01*
X37092857Y-47672380D01*
X37235714Y-47720000D01*
X37283333Y-47767619D01*
X37759523Y-48672380D02*
X37950000Y-48672380D01*
X38045238Y-48624761D01*
X38092857Y-48577142D01*
X38188095Y-48434285D01*
X38235714Y-48243809D01*
X38235714Y-47862857D01*
X38188095Y-47767619D01*
X38140476Y-47720000D01*
X38045238Y-47672380D01*
X37854761Y-47672380D01*
X37759523Y-47720000D01*
X37711904Y-47767619D01*
X37664285Y-47862857D01*
X37664285Y-48100952D01*
X37711904Y-48196190D01*
X37759523Y-48243809D01*
X37854761Y-48291428D01*
X38045238Y-48291428D01*
X38140476Y-48243809D01*
X38188095Y-48196190D01*
X38235714Y-48100952D01*
X51257142Y-92842857D02*
X51304761Y-92890476D01*
X51352380Y-93033333D01*
X51352380Y-93128571D01*
X51304761Y-93271428D01*
X51209523Y-93366666D01*
X51114285Y-93414285D01*
X50923809Y-93461904D01*
X50780952Y-93461904D01*
X50590476Y-93414285D01*
X50495238Y-93366666D01*
X50400000Y-93271428D01*
X50352380Y-93128571D01*
X50352380Y-93033333D01*
X50400000Y-92890476D01*
X50447619Y-92842857D01*
X51352380Y-91890476D02*
X51352380Y-92461904D01*
X51352380Y-92176190D02*
X50352380Y-92176190D01*
X50495238Y-92271428D01*
X50590476Y-92366666D01*
X50638095Y-92461904D01*
X50352380Y-91271428D02*
X50352380Y-91176190D01*
X50400000Y-91080952D01*
X50447619Y-91033333D01*
X50542857Y-90985714D01*
X50733333Y-90938095D01*
X50971428Y-90938095D01*
X51161904Y-90985714D01*
X51257142Y-91033333D01*
X51304761Y-91080952D01*
X51352380Y-91176190D01*
X51352380Y-91271428D01*
X51304761Y-91366666D01*
X51257142Y-91414285D01*
X51161904Y-91461904D01*
X50971428Y-91509523D01*
X50733333Y-91509523D01*
X50542857Y-91461904D01*
X50447619Y-91414285D01*
X50400000Y-91366666D01*
X50352380Y-91271428D01*
X41178095Y-58202380D02*
X41178095Y-59011904D01*
X41225714Y-59107142D01*
X41273333Y-59154761D01*
X41368571Y-59202380D01*
X41559047Y-59202380D01*
X41654285Y-59154761D01*
X41701904Y-59107142D01*
X41749523Y-59011904D01*
X41749523Y-58202380D01*
X42749523Y-59202380D02*
X42178095Y-59202380D01*
X42463809Y-59202380D02*
X42463809Y-58202380D01*
X42368571Y-58345238D01*
X42273333Y-58440476D01*
X42178095Y-58488095D01*
X40517142Y-75477142D02*
X40469523Y-75524761D01*
X40326666Y-75572380D01*
X40231428Y-75572380D01*
X40088571Y-75524761D01*
X39993333Y-75429523D01*
X39945714Y-75334285D01*
X39898095Y-75143809D01*
X39898095Y-75000952D01*
X39945714Y-74810476D01*
X39993333Y-74715238D01*
X40088571Y-74620000D01*
X40231428Y-74572380D01*
X40326666Y-74572380D01*
X40469523Y-74620000D01*
X40517142Y-74667619D01*
X41469523Y-75572380D02*
X40898095Y-75572380D01*
X41183809Y-75572380D02*
X41183809Y-74572380D01*
X41088571Y-74715238D01*
X40993333Y-74810476D01*
X40898095Y-74858095D01*
X41802857Y-74572380D02*
X42421904Y-74572380D01*
X42088571Y-74953333D01*
X42231428Y-74953333D01*
X42326666Y-75000952D01*
X42374285Y-75048571D01*
X42421904Y-75143809D01*
X42421904Y-75381904D01*
X42374285Y-75477142D01*
X42326666Y-75524761D01*
X42231428Y-75572380D01*
X41945714Y-75572380D01*
X41850476Y-75524761D01*
X41802857Y-75477142D01*
X40147142Y-70076666D02*
X40194761Y-70124285D01*
X40242380Y-70267142D01*
X40242380Y-70362380D01*
X40194761Y-70505238D01*
X40099523Y-70600476D01*
X40004285Y-70648095D01*
X39813809Y-70695714D01*
X39670952Y-70695714D01*
X39480476Y-70648095D01*
X39385238Y-70600476D01*
X39290000Y-70505238D01*
X39242380Y-70362380D01*
X39242380Y-70267142D01*
X39290000Y-70124285D01*
X39337619Y-70076666D01*
X39242380Y-69171904D02*
X39242380Y-69648095D01*
X39718571Y-69695714D01*
X39670952Y-69648095D01*
X39623333Y-69552857D01*
X39623333Y-69314761D01*
X39670952Y-69219523D01*
X39718571Y-69171904D01*
X39813809Y-69124285D01*
X40051904Y-69124285D01*
X40147142Y-69171904D01*
X40194761Y-69219523D01*
X40242380Y-69314761D01*
X40242380Y-69552857D01*
X40194761Y-69648095D01*
X40147142Y-69695714D01*
X34167142Y-70287142D02*
X34119523Y-70334761D01*
X33976666Y-70382380D01*
X33881428Y-70382380D01*
X33738571Y-70334761D01*
X33643333Y-70239523D01*
X33595714Y-70144285D01*
X33548095Y-69953809D01*
X33548095Y-69810952D01*
X33595714Y-69620476D01*
X33643333Y-69525238D01*
X33738571Y-69430000D01*
X33881428Y-69382380D01*
X33976666Y-69382380D01*
X34119523Y-69430000D01*
X34167142Y-69477619D01*
X35119523Y-70382380D02*
X34548095Y-70382380D01*
X34833809Y-70382380D02*
X34833809Y-69382380D01*
X34738571Y-69525238D01*
X34643333Y-69620476D01*
X34548095Y-69668095D01*
X36071904Y-70382380D02*
X35500476Y-70382380D01*
X35786190Y-70382380D02*
X35786190Y-69382380D01*
X35690952Y-69525238D01*
X35595714Y-69620476D01*
X35500476Y-69668095D01*
X65807142Y-83516666D02*
X65854761Y-83564285D01*
X65902380Y-83707142D01*
X65902380Y-83802380D01*
X65854761Y-83945238D01*
X65759523Y-84040476D01*
X65664285Y-84088095D01*
X65473809Y-84135714D01*
X65330952Y-84135714D01*
X65140476Y-84088095D01*
X65045238Y-84040476D01*
X64950000Y-83945238D01*
X64902380Y-83802380D01*
X64902380Y-83707142D01*
X64950000Y-83564285D01*
X64997619Y-83516666D01*
X65902380Y-82564285D02*
X65902380Y-83135714D01*
X65902380Y-82850000D02*
X64902380Y-82850000D01*
X65045238Y-82945238D01*
X65140476Y-83040476D01*
X65188095Y-83135714D01*
X78517142Y-50477142D02*
X78469523Y-50524761D01*
X78326666Y-50572380D01*
X78231428Y-50572380D01*
X78088571Y-50524761D01*
X77993333Y-50429523D01*
X77945714Y-50334285D01*
X77898095Y-50143809D01*
X77898095Y-50000952D01*
X77945714Y-49810476D01*
X77993333Y-49715238D01*
X78088571Y-49620000D01*
X78231428Y-49572380D01*
X78326666Y-49572380D01*
X78469523Y-49620000D01*
X78517142Y-49667619D01*
X79469523Y-50572380D02*
X78898095Y-50572380D01*
X79183809Y-50572380D02*
X79183809Y-49572380D01*
X79088571Y-49715238D01*
X78993333Y-49810476D01*
X78898095Y-49858095D01*
X79802857Y-49572380D02*
X80421904Y-49572380D01*
X80088571Y-49953333D01*
X80231428Y-49953333D01*
X80326666Y-50000952D01*
X80374285Y-50048571D01*
X80421904Y-50143809D01*
X80421904Y-50381904D01*
X80374285Y-50477142D01*
X80326666Y-50524761D01*
X80231428Y-50572380D01*
X79945714Y-50572380D01*
X79850476Y-50524761D01*
X79802857Y-50477142D01*
X71633333Y-73672380D02*
X71300000Y-73196190D01*
X71061904Y-73672380D02*
X71061904Y-72672380D01*
X71442857Y-72672380D01*
X71538095Y-72720000D01*
X71585714Y-72767619D01*
X71633333Y-72862857D01*
X71633333Y-73005714D01*
X71585714Y-73100952D01*
X71538095Y-73148571D01*
X71442857Y-73196190D01*
X71061904Y-73196190D01*
X72585714Y-73672380D02*
X72014285Y-73672380D01*
X72300000Y-73672380D02*
X72300000Y-72672380D01*
X72204761Y-72815238D01*
X72109523Y-72910476D01*
X72014285Y-72958095D01*
X102796666Y-88356666D02*
X102796666Y-87880476D01*
X103082380Y-88451904D02*
X102082380Y-88118571D01*
X103082380Y-87785238D01*
X102558571Y-87451904D02*
X102558571Y-87118571D01*
X103082380Y-86975714D02*
X103082380Y-87451904D01*
X102082380Y-87451904D01*
X102082380Y-86975714D01*
X103082380Y-86023333D02*
X103082380Y-86594761D01*
X103082380Y-86309047D02*
X102082380Y-86309047D01*
X102225238Y-86404285D01*
X102320476Y-86499523D01*
X102368095Y-86594761D01*
X56067142Y-71602857D02*
X56114761Y-71650476D01*
X56162380Y-71793333D01*
X56162380Y-71888571D01*
X56114761Y-72031428D01*
X56019523Y-72126666D01*
X55924285Y-72174285D01*
X55733809Y-72221904D01*
X55590952Y-72221904D01*
X55400476Y-72174285D01*
X55305238Y-72126666D01*
X55210000Y-72031428D01*
X55162380Y-71888571D01*
X55162380Y-71793333D01*
X55210000Y-71650476D01*
X55257619Y-71602857D01*
X56162380Y-70650476D02*
X56162380Y-71221904D01*
X56162380Y-70936190D02*
X55162380Y-70936190D01*
X55305238Y-71031428D01*
X55400476Y-71126666D01*
X55448095Y-71221904D01*
X55257619Y-70269523D02*
X55210000Y-70221904D01*
X55162380Y-70126666D01*
X55162380Y-69888571D01*
X55210000Y-69793333D01*
X55257619Y-69745714D01*
X55352857Y-69698095D01*
X55448095Y-69698095D01*
X55590952Y-69745714D01*
X56162380Y-70317142D01*
X56162380Y-69698095D01*
X81443333Y-80637142D02*
X81395714Y-80684761D01*
X81252857Y-80732380D01*
X81157619Y-80732380D01*
X81014761Y-80684761D01*
X80919523Y-80589523D01*
X80871904Y-80494285D01*
X80824285Y-80303809D01*
X80824285Y-80160952D01*
X80871904Y-79970476D01*
X80919523Y-79875238D01*
X81014761Y-79780000D01*
X81157619Y-79732380D01*
X81252857Y-79732380D01*
X81395714Y-79780000D01*
X81443333Y-79827619D01*
X82014761Y-80160952D02*
X81919523Y-80113333D01*
X81871904Y-80065714D01*
X81824285Y-79970476D01*
X81824285Y-79922857D01*
X81871904Y-79827619D01*
X81919523Y-79780000D01*
X82014761Y-79732380D01*
X82205238Y-79732380D01*
X82300476Y-79780000D01*
X82348095Y-79827619D01*
X82395714Y-79922857D01*
X82395714Y-79970476D01*
X82348095Y-80065714D01*
X82300476Y-80113333D01*
X82205238Y-80160952D01*
X82014761Y-80160952D01*
X81919523Y-80208571D01*
X81871904Y-80256190D01*
X81824285Y-80351428D01*
X81824285Y-80541904D01*
X81871904Y-80637142D01*
X81919523Y-80684761D01*
X82014761Y-80732380D01*
X82205238Y-80732380D01*
X82300476Y-80684761D01*
X82348095Y-80637142D01*
X82395714Y-80541904D01*
X82395714Y-80351428D01*
X82348095Y-80256190D01*
X82300476Y-80208571D01*
X82205238Y-80160952D01*
X66618095Y-68262380D02*
X66618095Y-69071904D01*
X66665714Y-69167142D01*
X66713333Y-69214761D01*
X66808571Y-69262380D01*
X66999047Y-69262380D01*
X67094285Y-69214761D01*
X67141904Y-69167142D01*
X67189523Y-69071904D01*
X67189523Y-68262380D01*
X67618095Y-68357619D02*
X67665714Y-68310000D01*
X67760952Y-68262380D01*
X67999047Y-68262380D01*
X68094285Y-68310000D01*
X68141904Y-68357619D01*
X68189523Y-68452857D01*
X68189523Y-68548095D01*
X68141904Y-68690952D01*
X67570476Y-69262380D01*
X68189523Y-69262380D01*
X34167142Y-45287142D02*
X34119523Y-45334761D01*
X33976666Y-45382380D01*
X33881428Y-45382380D01*
X33738571Y-45334761D01*
X33643333Y-45239523D01*
X33595714Y-45144285D01*
X33548095Y-44953809D01*
X33548095Y-44810952D01*
X33595714Y-44620476D01*
X33643333Y-44525238D01*
X33738571Y-44430000D01*
X33881428Y-44382380D01*
X33976666Y-44382380D01*
X34119523Y-44430000D01*
X34167142Y-44477619D01*
X35119523Y-45382380D02*
X34548095Y-45382380D01*
X34833809Y-45382380D02*
X34833809Y-44382380D01*
X34738571Y-44525238D01*
X34643333Y-44620476D01*
X34548095Y-44668095D01*
X36071904Y-45382380D02*
X35500476Y-45382380D01*
X35786190Y-45382380D02*
X35786190Y-44382380D01*
X35690952Y-44525238D01*
X35595714Y-44620476D01*
X35500476Y-44668095D01*
X33633333Y-48672380D02*
X33300000Y-48196190D01*
X33061904Y-48672380D02*
X33061904Y-47672380D01*
X33442857Y-47672380D01*
X33538095Y-47720000D01*
X33585714Y-47767619D01*
X33633333Y-47862857D01*
X33633333Y-48005714D01*
X33585714Y-48100952D01*
X33538095Y-48148571D01*
X33442857Y-48196190D01*
X33061904Y-48196190D01*
X34585714Y-48672380D02*
X34014285Y-48672380D01*
X34300000Y-48672380D02*
X34300000Y-47672380D01*
X34204761Y-47815238D01*
X34109523Y-47910476D01*
X34014285Y-47958095D01*
X55633333Y-34767142D02*
X55585714Y-34814761D01*
X55442857Y-34862380D01*
X55347619Y-34862380D01*
X55204761Y-34814761D01*
X55109523Y-34719523D01*
X55061904Y-34624285D01*
X55014285Y-34433809D01*
X55014285Y-34290952D01*
X55061904Y-34100476D01*
X55109523Y-34005238D01*
X55204761Y-33910000D01*
X55347619Y-33862380D01*
X55442857Y-33862380D01*
X55585714Y-33910000D01*
X55633333Y-33957619D01*
X55966666Y-33862380D02*
X56633333Y-33862380D01*
X56204761Y-34862380D01*
X55633333Y-59767142D02*
X55585714Y-59814761D01*
X55442857Y-59862380D01*
X55347619Y-59862380D01*
X55204761Y-59814761D01*
X55109523Y-59719523D01*
X55061904Y-59624285D01*
X55014285Y-59433809D01*
X55014285Y-59290952D01*
X55061904Y-59100476D01*
X55109523Y-59005238D01*
X55204761Y-58910000D01*
X55347619Y-58862380D01*
X55442857Y-58862380D01*
X55585714Y-58910000D01*
X55633333Y-58957619D01*
X55966666Y-58862380D02*
X56633333Y-58862380D01*
X56204761Y-59862380D01*
X77047142Y-81756666D02*
X77094761Y-81804285D01*
X77142380Y-81947142D01*
X77142380Y-82042380D01*
X77094761Y-82185238D01*
X76999523Y-82280476D01*
X76904285Y-82328095D01*
X76713809Y-82375714D01*
X76570952Y-82375714D01*
X76380476Y-82328095D01*
X76285238Y-82280476D01*
X76190000Y-82185238D01*
X76142380Y-82042380D01*
X76142380Y-81947142D01*
X76190000Y-81804285D01*
X76237619Y-81756666D01*
X76142380Y-80899523D02*
X76142380Y-81090000D01*
X76190000Y-81185238D01*
X76237619Y-81232857D01*
X76380476Y-81328095D01*
X76570952Y-81375714D01*
X76951904Y-81375714D01*
X77047142Y-81328095D01*
X77094761Y-81280476D01*
X77142380Y-81185238D01*
X77142380Y-80994761D01*
X77094761Y-80899523D01*
X77047142Y-80851904D01*
X76951904Y-80804285D01*
X76713809Y-80804285D01*
X76618571Y-80851904D01*
X76570952Y-80899523D01*
X76523333Y-80994761D01*
X76523333Y-81185238D01*
X76570952Y-81280476D01*
X76618571Y-81328095D01*
X76713809Y-81375714D01*
X35143333Y-82372380D02*
X34810000Y-81896190D01*
X34571904Y-82372380D02*
X34571904Y-81372380D01*
X34952857Y-81372380D01*
X35048095Y-81420000D01*
X35095714Y-81467619D01*
X35143333Y-81562857D01*
X35143333Y-81705714D01*
X35095714Y-81800952D01*
X35048095Y-81848571D01*
X34952857Y-81896190D01*
X34571904Y-81896190D01*
X35524285Y-81467619D02*
X35571904Y-81420000D01*
X35667142Y-81372380D01*
X35905238Y-81372380D01*
X36000476Y-81420000D01*
X36048095Y-81467619D01*
X36095714Y-81562857D01*
X36095714Y-81658095D01*
X36048095Y-81800952D01*
X35476666Y-82372380D01*
X36095714Y-82372380D01*
X72167142Y-70287142D02*
X72119523Y-70334761D01*
X71976666Y-70382380D01*
X71881428Y-70382380D01*
X71738571Y-70334761D01*
X71643333Y-70239523D01*
X71595714Y-70144285D01*
X71548095Y-69953809D01*
X71548095Y-69810952D01*
X71595714Y-69620476D01*
X71643333Y-69525238D01*
X71738571Y-69430000D01*
X71881428Y-69382380D01*
X71976666Y-69382380D01*
X72119523Y-69430000D01*
X72167142Y-69477619D01*
X73119523Y-70382380D02*
X72548095Y-70382380D01*
X72833809Y-70382380D02*
X72833809Y-69382380D01*
X72738571Y-69525238D01*
X72643333Y-69620476D01*
X72548095Y-69668095D01*
X74071904Y-70382380D02*
X73500476Y-70382380D01*
X73786190Y-70382380D02*
X73786190Y-69382380D01*
X73690952Y-69525238D01*
X73595714Y-69620476D01*
X73500476Y-69668095D01*
X89257142Y-92842857D02*
X89304761Y-92890476D01*
X89352380Y-93033333D01*
X89352380Y-93128571D01*
X89304761Y-93271428D01*
X89209523Y-93366666D01*
X89114285Y-93414285D01*
X88923809Y-93461904D01*
X88780952Y-93461904D01*
X88590476Y-93414285D01*
X88495238Y-93366666D01*
X88400000Y-93271428D01*
X88352380Y-93128571D01*
X88352380Y-93033333D01*
X88400000Y-92890476D01*
X88447619Y-92842857D01*
X89352380Y-91890476D02*
X89352380Y-92461904D01*
X89352380Y-92176190D02*
X88352380Y-92176190D01*
X88495238Y-92271428D01*
X88590476Y-92366666D01*
X88638095Y-92461904D01*
X88352380Y-91271428D02*
X88352380Y-91176190D01*
X88400000Y-91080952D01*
X88447619Y-91033333D01*
X88542857Y-90985714D01*
X88733333Y-90938095D01*
X88971428Y-90938095D01*
X89161904Y-90985714D01*
X89257142Y-91033333D01*
X89304761Y-91080952D01*
X89352380Y-91176190D01*
X89352380Y-91271428D01*
X89304761Y-91366666D01*
X89257142Y-91414285D01*
X89161904Y-91461904D01*
X88971428Y-91509523D01*
X88733333Y-91509523D01*
X88542857Y-91461904D01*
X88447619Y-91414285D01*
X88400000Y-91366666D01*
X88352380Y-91271428D01*
X41178095Y-83202380D02*
X41178095Y-84011904D01*
X41225714Y-84107142D01*
X41273333Y-84154761D01*
X41368571Y-84202380D01*
X41559047Y-84202380D01*
X41654285Y-84154761D01*
X41701904Y-84107142D01*
X41749523Y-84011904D01*
X41749523Y-83202380D01*
X42749523Y-84202380D02*
X42178095Y-84202380D01*
X42463809Y-84202380D02*
X42463809Y-83202380D01*
X42368571Y-83345238D01*
X42273333Y-83440476D01*
X42178095Y-83488095D01*
D11*
X47403733Y-32260000D02*
X47696267Y-32260000D01*
X47403733Y-31240000D02*
X47696267Y-31240000D01*
X91073733Y-90300000D02*
X91366267Y-90300000D01*
X91073733Y-89280000D02*
X91366267Y-89280000D01*
X85403733Y-32260000D02*
X85696267Y-32260000D01*
X85403733Y-31240000D02*
X85696267Y-31240000D01*
X54640000Y-87386267D02*
X54640000Y-87093733D01*
X53620000Y-87386267D02*
X53620000Y-87093733D01*
X86950000Y-59950000D02*
X86950000Y-60600000D01*
X79730000Y-59950000D02*
X79730000Y-60600000D01*
X80380000Y-67170000D02*
X79730000Y-67170000D01*
X79730000Y-67170000D02*
X79730000Y-66520000D01*
X86300000Y-67170000D02*
X86950000Y-67170000D01*
X80380000Y-59950000D02*
X79730000Y-59950000D01*
X86300000Y-59950000D02*
X86950000Y-59950000D01*
X51363733Y-48020000D02*
X51656267Y-48020000D01*
X51363733Y-49040000D02*
X51656267Y-49040000D01*
X89363733Y-48020000D02*
X89656267Y-48020000D01*
X89363733Y-49040000D02*
X89656267Y-49040000D01*
X49560000Y-48700000D02*
X49560000Y-44200000D01*
X49560000Y-44200000D02*
X44160000Y-44200000D01*
X80447500Y-95934724D02*
X80447500Y-95425276D01*
X81492500Y-95934724D02*
X81492500Y-95425276D01*
X37303733Y-99140000D02*
X37596267Y-99140000D01*
X37303733Y-100160000D02*
X37596267Y-100160000D01*
X49560000Y-73700000D02*
X49560000Y-69200000D01*
X49560000Y-69200000D02*
X44160000Y-69200000D01*
X53068733Y-41990000D02*
X53411267Y-41990000D01*
X53068733Y-40970000D02*
X53411267Y-40970000D01*
X43303733Y-31290000D02*
X43596267Y-31290000D01*
X43303733Y-32310000D02*
X43596267Y-32310000D01*
X72496267Y-47050000D02*
X72203733Y-47050000D01*
X72496267Y-46030000D02*
X72203733Y-46030000D01*
X72714724Y-32847500D02*
X72205276Y-32847500D01*
X72714724Y-33892500D02*
X72205276Y-33892500D01*
X42447500Y-70934724D02*
X42447500Y-70425276D01*
X43492500Y-70934724D02*
X43492500Y-70425276D01*
X89780000Y-44288767D02*
X89780000Y-43996233D01*
X90800000Y-44288767D02*
X90800000Y-43996233D01*
X75303733Y-100160000D02*
X75596267Y-100160000D01*
X75303733Y-99140000D02*
X75596267Y-99140000D01*
X51363733Y-74040000D02*
X51656267Y-74040000D01*
X51363733Y-73020000D02*
X51656267Y-73020000D01*
X81303733Y-31290000D02*
X81596267Y-31290000D01*
X81303733Y-32310000D02*
X81596267Y-32310000D01*
X54640000Y-37386267D02*
X54640000Y-37093733D01*
X53620000Y-37386267D02*
X53620000Y-37093733D01*
X66680000Y-34660000D02*
X72680000Y-34660000D01*
X72680000Y-34660000D02*
X72680000Y-42660000D01*
X72680000Y-42660000D02*
X66680000Y-42660000D01*
X66680000Y-42660000D02*
X66680000Y-34660000D01*
D12*
X67610000Y-35410000D02*
G75*
G03*
X67610000Y-35410000I-180000J0D01*
G01*
D11*
X53068733Y-91990000D02*
X53411267Y-91990000D01*
X53068733Y-90970000D02*
X53411267Y-90970000D01*
X80447500Y-70934724D02*
X80447500Y-70425276D01*
X81492500Y-70934724D02*
X81492500Y-70425276D01*
X91073733Y-64280000D02*
X91366267Y-64280000D01*
X91073733Y-65300000D02*
X91366267Y-65300000D01*
X34714724Y-57847500D02*
X34205276Y-57847500D01*
X34714724Y-58892500D02*
X34205276Y-58892500D01*
X87560000Y-98700000D02*
X87560000Y-94200000D01*
X87560000Y-94200000D02*
X82160000Y-94200000D01*
X91033733Y-85030000D02*
X91326267Y-85030000D01*
X91033733Y-84010000D02*
X91326267Y-84010000D01*
X36640000Y-57546267D02*
X36640000Y-57253733D01*
X37660000Y-57546267D02*
X37660000Y-57253733D01*
X90800000Y-94288767D02*
X90800000Y-93996233D01*
X89780000Y-94288767D02*
X89780000Y-93996233D01*
X92710000Y-93913733D02*
X92710000Y-94206267D01*
X91690000Y-93913733D02*
X91690000Y-94206267D01*
X36640000Y-32546267D02*
X36640000Y-32253733D01*
X37660000Y-32546267D02*
X37660000Y-32253733D01*
X52790000Y-37068733D02*
X52790000Y-37411267D01*
X51770000Y-37068733D02*
X51770000Y-37411267D01*
X91068733Y-66990000D02*
X91411267Y-66990000D01*
X91068733Y-65970000D02*
X91411267Y-65970000D01*
X53068733Y-66990000D02*
X53411267Y-66990000D01*
X53068733Y-65970000D02*
X53411267Y-65970000D01*
X49560000Y-98700000D02*
X49560000Y-94200000D01*
X49560000Y-94200000D02*
X44160000Y-94200000D01*
X90790000Y-37068733D02*
X90790000Y-37411267D01*
X89770000Y-37068733D02*
X89770000Y-37411267D01*
X79760000Y-70523733D02*
X79760000Y-70816267D01*
X78740000Y-70523733D02*
X78740000Y-70816267D01*
X85403733Y-56240000D02*
X85696267Y-56240000D01*
X85403733Y-57260000D02*
X85696267Y-57260000D01*
X89363733Y-74040000D02*
X89656267Y-74040000D01*
X89363733Y-73020000D02*
X89656267Y-73020000D01*
X53073733Y-64280000D02*
X53366267Y-64280000D01*
X53073733Y-65300000D02*
X53366267Y-65300000D01*
X53620000Y-62386267D02*
X53620000Y-62093733D01*
X54640000Y-62386267D02*
X54640000Y-62093733D01*
X66680000Y-84660000D02*
X72680000Y-84660000D01*
X72680000Y-84660000D02*
X72680000Y-92660000D01*
X72680000Y-92660000D02*
X66680000Y-92660000D01*
X66680000Y-92660000D02*
X66680000Y-84660000D01*
D12*
X67610000Y-85410000D02*
G75*
G03*
X67610000Y-85410000I-180000J0D01*
G01*
D11*
X91033733Y-34010000D02*
X91326267Y-34010000D01*
X91033733Y-35030000D02*
X91326267Y-35030000D01*
X92710000Y-68913733D02*
X92710000Y-69206267D01*
X91690000Y-68913733D02*
X91690000Y-69206267D01*
X28020000Y-36246267D02*
X28020000Y-35953733D01*
X27000000Y-36246267D02*
X27000000Y-35953733D01*
X34714724Y-32847500D02*
X34205276Y-32847500D01*
X34714724Y-33892500D02*
X34205276Y-33892500D01*
X75303733Y-74140000D02*
X75596267Y-74140000D01*
X75303733Y-75160000D02*
X75596267Y-75160000D01*
X28680000Y-34660000D02*
X34680000Y-34660000D01*
X34680000Y-34660000D02*
X34680000Y-42660000D01*
X34680000Y-42660000D02*
X28680000Y-42660000D01*
X28680000Y-42660000D02*
X28680000Y-34660000D01*
D12*
X29610000Y-35410000D02*
G75*
G03*
X29610000Y-35410000I-180000J0D01*
G01*
D11*
X91068733Y-41990000D02*
X91411267Y-41990000D01*
X91068733Y-40970000D02*
X91411267Y-40970000D01*
X44373733Y-49660000D02*
X44666267Y-49660000D01*
X44373733Y-50680000D02*
X44666267Y-50680000D01*
X91620000Y-87386267D02*
X91620000Y-87093733D01*
X92640000Y-87386267D02*
X92640000Y-87093733D01*
X28680000Y-84660000D02*
X34680000Y-84660000D01*
X34680000Y-84660000D02*
X34680000Y-92660000D01*
X34680000Y-92660000D02*
X28680000Y-92660000D01*
X28680000Y-92660000D02*
X28680000Y-84660000D01*
D12*
X29610000Y-85410000D02*
G75*
G03*
X29610000Y-85410000I-180000J0D01*
G01*
D11*
X43492500Y-45934724D02*
X43492500Y-45425276D01*
X42447500Y-45934724D02*
X42447500Y-45425276D01*
X53033733Y-85030000D02*
X53326267Y-85030000D01*
X53033733Y-84010000D02*
X53326267Y-84010000D01*
X81492500Y-45934724D02*
X81492500Y-45425276D01*
X80447500Y-45934724D02*
X80447500Y-45425276D01*
X37660000Y-82546267D02*
X37660000Y-82253733D01*
X36640000Y-82546267D02*
X36640000Y-82253733D01*
X71545276Y-50172500D02*
X72054724Y-50172500D01*
X71545276Y-49127500D02*
X72054724Y-49127500D01*
X81303733Y-56290000D02*
X81596267Y-56290000D01*
X81303733Y-57310000D02*
X81596267Y-57310000D01*
X72714724Y-57847500D02*
X72205276Y-57847500D01*
X72714724Y-58892500D02*
X72205276Y-58892500D01*
X40740000Y-45523733D02*
X40740000Y-45816267D01*
X41760000Y-45523733D02*
X41760000Y-45816267D01*
X89770000Y-87068733D02*
X89770000Y-87411267D01*
X90790000Y-87068733D02*
X90790000Y-87411267D01*
X40740000Y-95523733D02*
X40740000Y-95816267D01*
X41760000Y-95523733D02*
X41760000Y-95816267D01*
X79760000Y-45523733D02*
X79760000Y-45816267D01*
X78740000Y-45523733D02*
X78740000Y-45816267D01*
X87560000Y-48700000D02*
X87560000Y-44200000D01*
X87560000Y-44200000D02*
X82160000Y-44200000D01*
X48300000Y-42170000D02*
X48950000Y-42170000D01*
X48950000Y-34950000D02*
X48950000Y-35600000D01*
X41730000Y-34950000D02*
X41730000Y-35600000D01*
X48300000Y-34950000D02*
X48950000Y-34950000D01*
X42380000Y-42170000D02*
X41730000Y-42170000D01*
X41730000Y-42170000D02*
X41730000Y-41520000D01*
X42380000Y-34950000D02*
X41730000Y-34950000D01*
X91620000Y-62386267D02*
X91620000Y-62093733D01*
X92640000Y-62386267D02*
X92640000Y-62093733D01*
X33545276Y-100172500D02*
X34054724Y-100172500D01*
X33545276Y-99127500D02*
X34054724Y-99127500D01*
X78740000Y-95523733D02*
X78740000Y-95816267D01*
X79760000Y-95523733D02*
X79760000Y-95816267D01*
X91690000Y-43913733D02*
X91690000Y-44206267D01*
X92710000Y-43913733D02*
X92710000Y-44206267D01*
X91033733Y-60030000D02*
X91326267Y-60030000D01*
X91033733Y-59010000D02*
X91326267Y-59010000D01*
X90790000Y-62068733D02*
X90790000Y-62411267D01*
X89770000Y-62068733D02*
X89770000Y-62411267D01*
X72714724Y-83892500D02*
X72205276Y-83892500D01*
X72714724Y-82847500D02*
X72205276Y-82847500D01*
X33545276Y-75172500D02*
X34054724Y-75172500D01*
X33545276Y-74127500D02*
X34054724Y-74127500D01*
X92640000Y-37386267D02*
X92640000Y-37093733D01*
X91620000Y-37386267D02*
X91620000Y-37093733D01*
X66020000Y-61246267D02*
X66020000Y-60953733D01*
X65000000Y-61246267D02*
X65000000Y-60953733D01*
X52790000Y-87068733D02*
X52790000Y-87411267D01*
X51770000Y-87068733D02*
X51770000Y-87411267D01*
X47403733Y-57260000D02*
X47696267Y-57260000D01*
X47403733Y-56240000D02*
X47696267Y-56240000D01*
X37303733Y-74140000D02*
X37596267Y-74140000D01*
X37303733Y-75160000D02*
X37596267Y-75160000D01*
X53690000Y-43913733D02*
X53690000Y-44206267D01*
X54710000Y-43913733D02*
X54710000Y-44206267D01*
X74640000Y-57546267D02*
X74640000Y-57253733D01*
X75660000Y-57546267D02*
X75660000Y-57253733D01*
X86300000Y-34950000D02*
X86950000Y-34950000D01*
X79730000Y-34950000D02*
X79730000Y-35600000D01*
X80380000Y-42170000D02*
X79730000Y-42170000D01*
X86300000Y-42170000D02*
X86950000Y-42170000D01*
X86950000Y-34950000D02*
X86950000Y-35600000D01*
X79730000Y-42170000D02*
X79730000Y-41520000D01*
X80380000Y-34950000D02*
X79730000Y-34950000D01*
X75303733Y-49140000D02*
X75596267Y-49140000D01*
X75303733Y-50160000D02*
X75596267Y-50160000D01*
X86950000Y-84950000D02*
X86950000Y-85600000D01*
X79730000Y-84950000D02*
X79730000Y-85600000D01*
X79730000Y-92170000D02*
X79730000Y-91520000D01*
X86300000Y-92170000D02*
X86950000Y-92170000D01*
X80380000Y-92170000D02*
X79730000Y-92170000D01*
X86300000Y-84950000D02*
X86950000Y-84950000D01*
X80380000Y-84950000D02*
X79730000Y-84950000D01*
X51780000Y-69288767D02*
X51780000Y-68996233D01*
X52800000Y-69288767D02*
X52800000Y-68996233D01*
X47403733Y-82260000D02*
X47696267Y-82260000D01*
X47403733Y-81240000D02*
X47696267Y-81240000D01*
X74640000Y-32546267D02*
X74640000Y-32253733D01*
X75660000Y-32546267D02*
X75660000Y-32253733D01*
X82373733Y-75680000D02*
X82666267Y-75680000D01*
X82373733Y-74660000D02*
X82666267Y-74660000D01*
X71545276Y-99127500D02*
X72054724Y-99127500D01*
X71545276Y-100172500D02*
X72054724Y-100172500D01*
X43492500Y-95934724D02*
X43492500Y-95425276D01*
X42447500Y-95934724D02*
X42447500Y-95425276D01*
X90800000Y-69288767D02*
X90800000Y-68996233D01*
X89780000Y-69288767D02*
X89780000Y-68996233D01*
X27000000Y-61246267D02*
X27000000Y-60953733D01*
X28020000Y-61246267D02*
X28020000Y-60953733D01*
X82373733Y-99660000D02*
X82666267Y-99660000D01*
X82373733Y-100680000D02*
X82666267Y-100680000D01*
X53073733Y-90300000D02*
X53366267Y-90300000D01*
X53073733Y-89280000D02*
X53366267Y-89280000D01*
X85403733Y-81240000D02*
X85696267Y-81240000D01*
X85403733Y-82260000D02*
X85696267Y-82260000D01*
X66020000Y-36246267D02*
X66020000Y-35953733D01*
X65000000Y-36246267D02*
X65000000Y-35953733D01*
X91068733Y-91990000D02*
X91411267Y-91990000D01*
X91068733Y-90970000D02*
X91411267Y-90970000D01*
X72496267Y-97050000D02*
X72203733Y-97050000D01*
X72496267Y-96030000D02*
X72203733Y-96030000D01*
X88130000Y-70436267D02*
X88130000Y-70143733D01*
X89150000Y-70436267D02*
X89150000Y-70143733D01*
X27000000Y-86246267D02*
X27000000Y-85953733D01*
X28020000Y-86246267D02*
X28020000Y-85953733D01*
X51780000Y-94288767D02*
X51780000Y-93996233D01*
X52800000Y-94288767D02*
X52800000Y-93996233D01*
X53690000Y-93913733D02*
X53690000Y-94206267D01*
X54710000Y-93913733D02*
X54710000Y-94206267D01*
X87560000Y-73700000D02*
X87560000Y-69200000D01*
X87560000Y-69200000D02*
X82160000Y-69200000D01*
X89150000Y-45436267D02*
X89150000Y-45143733D01*
X88130000Y-45436267D02*
X88130000Y-45143733D01*
X28680000Y-59660000D02*
X34680000Y-59660000D01*
X34680000Y-59660000D02*
X34680000Y-67660000D01*
X34680000Y-67660000D02*
X28680000Y-67660000D01*
X28680000Y-67660000D02*
X28680000Y-59660000D01*
D12*
X29610000Y-60410000D02*
G75*
G03*
X29610000Y-60410000I-180000J0D01*
G01*
D11*
X51770000Y-62068733D02*
X51770000Y-62411267D01*
X52790000Y-62068733D02*
X52790000Y-62411267D01*
X44373733Y-99660000D02*
X44666267Y-99660000D01*
X44373733Y-100680000D02*
X44666267Y-100680000D01*
X53073733Y-39280000D02*
X53366267Y-39280000D01*
X53073733Y-40300000D02*
X53366267Y-40300000D01*
X51150000Y-45436267D02*
X51150000Y-45143733D01*
X50130000Y-45436267D02*
X50130000Y-45143733D01*
X51150000Y-70436267D02*
X51150000Y-70143733D01*
X50130000Y-70436267D02*
X50130000Y-70143733D01*
X89363733Y-99040000D02*
X89656267Y-99040000D01*
X89363733Y-98020000D02*
X89656267Y-98020000D01*
X51780000Y-44288767D02*
X51780000Y-43996233D01*
X52800000Y-44288767D02*
X52800000Y-43996233D01*
X51363733Y-98020000D02*
X51656267Y-98020000D01*
X51363733Y-99040000D02*
X51656267Y-99040000D01*
X91073733Y-39280000D02*
X91366267Y-39280000D01*
X91073733Y-40300000D02*
X91366267Y-40300000D01*
X43303733Y-57310000D02*
X43596267Y-57310000D01*
X43303733Y-56290000D02*
X43596267Y-56290000D01*
X34496267Y-97050000D02*
X34203733Y-97050000D01*
X34496267Y-96030000D02*
X34203733Y-96030000D01*
X43303733Y-81290000D02*
X43596267Y-81290000D01*
X43303733Y-82310000D02*
X43596267Y-82310000D01*
X37303733Y-49140000D02*
X37596267Y-49140000D01*
X37303733Y-50160000D02*
X37596267Y-50160000D01*
X51150000Y-95436267D02*
X51150000Y-95143733D01*
X50130000Y-95436267D02*
X50130000Y-95143733D01*
X41730000Y-67170000D02*
X41730000Y-66520000D01*
X42380000Y-59950000D02*
X41730000Y-59950000D01*
X48300000Y-59950000D02*
X48950000Y-59950000D01*
X41730000Y-59950000D02*
X41730000Y-60600000D01*
X48950000Y-59950000D02*
X48950000Y-60600000D01*
X42380000Y-67170000D02*
X41730000Y-67170000D01*
X48300000Y-67170000D02*
X48950000Y-67170000D01*
X44373733Y-74660000D02*
X44666267Y-74660000D01*
X44373733Y-75680000D02*
X44666267Y-75680000D01*
X40740000Y-70523733D02*
X40740000Y-70816267D01*
X41760000Y-70523733D02*
X41760000Y-70816267D01*
X34496267Y-72050000D02*
X34203733Y-72050000D01*
X34496267Y-71030000D02*
X34203733Y-71030000D01*
X65000000Y-86246267D02*
X65000000Y-85953733D01*
X66020000Y-86246267D02*
X66020000Y-85953733D01*
X82373733Y-49660000D02*
X82666267Y-49660000D01*
X82373733Y-50680000D02*
X82666267Y-50680000D01*
X71545276Y-74127500D02*
X72054724Y-74127500D01*
X71545276Y-75172500D02*
X72054724Y-75172500D01*
X53690000Y-68913733D02*
X53690000Y-69206267D01*
X54710000Y-68913733D02*
X54710000Y-69206267D01*
X81303733Y-82310000D02*
X81596267Y-82310000D01*
X81303733Y-81290000D02*
X81596267Y-81290000D01*
X66680000Y-59660000D02*
X72680000Y-59660000D01*
X72680000Y-59660000D02*
X72680000Y-67660000D01*
X72680000Y-67660000D02*
X66680000Y-67660000D01*
X66680000Y-67660000D02*
X66680000Y-59660000D01*
D12*
X67610000Y-60410000D02*
G75*
G03*
X67610000Y-60410000I-180000J0D01*
G01*
D11*
X34496267Y-46030000D02*
X34203733Y-46030000D01*
X34496267Y-47050000D02*
X34203733Y-47050000D01*
X33545276Y-50172500D02*
X34054724Y-50172500D01*
X33545276Y-49127500D02*
X34054724Y-49127500D01*
X53033733Y-34010000D02*
X53326267Y-34010000D01*
X53033733Y-35030000D02*
X53326267Y-35030000D01*
X53033733Y-60030000D02*
X53326267Y-60030000D01*
X53033733Y-59010000D02*
X53326267Y-59010000D01*
X74640000Y-82546267D02*
X74640000Y-82253733D01*
X75660000Y-82546267D02*
X75660000Y-82253733D01*
X34714724Y-83892500D02*
X34205276Y-83892500D01*
X34714724Y-82847500D02*
X34205276Y-82847500D01*
X72496267Y-71030000D02*
X72203733Y-71030000D01*
X72496267Y-72050000D02*
X72203733Y-72050000D01*
X88130000Y-95436267D02*
X88130000Y-95143733D01*
X89150000Y-95436267D02*
X89150000Y-95143733D01*
X42380000Y-84950000D02*
X41730000Y-84950000D01*
X48300000Y-84950000D02*
X48950000Y-84950000D01*
X48300000Y-92170000D02*
X48950000Y-92170000D01*
X48950000Y-84950000D02*
X48950000Y-85600000D01*
X41730000Y-92170000D02*
X41730000Y-91520000D01*
X41730000Y-84950000D02*
X41730000Y-85600000D01*
X42380000Y-92170000D02*
X41730000Y-92170000D01*
%LPC*%
D13*
X46687500Y-31750000D03*
X48412500Y-31750000D03*
X90357500Y-89790000D03*
X92082500Y-89790000D03*
X84687500Y-31750000D03*
X86412500Y-31750000D03*
D14*
X54130000Y-88102500D03*
X54130000Y-86377500D03*
D15*
X86777500Y-66160000D03*
X86777500Y-65760000D03*
X86777500Y-65360000D03*
X86777500Y-64960000D03*
X86777500Y-64560000D03*
X86777500Y-64160000D03*
X86777500Y-63760000D03*
X86777500Y-63360000D03*
X86777500Y-62960000D03*
X86777500Y-62560000D03*
X86777500Y-62160000D03*
X86777500Y-61760000D03*
X86777500Y-61360000D03*
X86777500Y-60960000D03*
D16*
X85940000Y-60122500D03*
X85540000Y-60122500D03*
X85140000Y-60122500D03*
X84740000Y-60122500D03*
X84340000Y-60122500D03*
X83940000Y-60122500D03*
X83540000Y-60122500D03*
X83140000Y-60122500D03*
X82740000Y-60122500D03*
X82340000Y-60122500D03*
X81940000Y-60122500D03*
X81540000Y-60122500D03*
X81140000Y-60122500D03*
X80740000Y-60122500D03*
D15*
X79902500Y-60960000D03*
X79902500Y-61360000D03*
X79902500Y-61760000D03*
X79902500Y-62160000D03*
X79902500Y-62560000D03*
X79902500Y-62960000D03*
X79902500Y-63360000D03*
X79902500Y-63760000D03*
X79902500Y-64160000D03*
X79902500Y-64560000D03*
X79902500Y-64960000D03*
X79902500Y-65360000D03*
X79902500Y-65760000D03*
X79902500Y-66160000D03*
D16*
X80740000Y-66997500D03*
X81140000Y-66997500D03*
X81540000Y-66997500D03*
X81940000Y-66997500D03*
X82340000Y-66997500D03*
X82740000Y-66997500D03*
X83140000Y-66997500D03*
X83540000Y-66997500D03*
X83940000Y-66997500D03*
X84340000Y-66997500D03*
X84740000Y-66997500D03*
X85140000Y-66997500D03*
X85540000Y-66997500D03*
X85940000Y-66997500D03*
D17*
X83340000Y-63560000D03*
D13*
X50647500Y-48530000D03*
X52372500Y-48530000D03*
X88647500Y-48530000D03*
X90372500Y-48530000D03*
D18*
X48310000Y-45300000D03*
X45410000Y-45300000D03*
X45410000Y-47600000D03*
X48310000Y-47600000D03*
D19*
X80970000Y-96592500D03*
X80970000Y-94767500D03*
D13*
X36587500Y-99650000D03*
X38312500Y-99650000D03*
D18*
X48310000Y-70300000D03*
X45410000Y-70300000D03*
X45410000Y-72600000D03*
X48310000Y-72600000D03*
D20*
X52365000Y-41480000D03*
X54115000Y-41480000D03*
D13*
X42587500Y-31800000D03*
X44312500Y-31800000D03*
D21*
X73212500Y-46540000D03*
X71487500Y-46540000D03*
D22*
X73372500Y-33370000D03*
X71547500Y-33370000D03*
D19*
X42970000Y-71592500D03*
X42970000Y-69767500D03*
D14*
X90290000Y-45005000D03*
X90290000Y-43280000D03*
D13*
X74587500Y-99650000D03*
X76312500Y-99650000D03*
X50647500Y-73530000D03*
X52372500Y-73530000D03*
X80587500Y-31800000D03*
X82312500Y-31800000D03*
D14*
X54130000Y-38102500D03*
X54130000Y-36377500D03*
D23*
X68675744Y-36655744D03*
X69675744Y-36655744D03*
X70675744Y-36655744D03*
X71675744Y-36655744D03*
X67680000Y-37660000D03*
X68680000Y-37660000D03*
X69680000Y-37660000D03*
X70680000Y-37660000D03*
X71680000Y-37660000D03*
X67680000Y-38660000D03*
X68680000Y-38660000D03*
X69680000Y-38660000D03*
X70680000Y-38660000D03*
X71680000Y-38660000D03*
X67680000Y-39660000D03*
X68680000Y-39660000D03*
X69680000Y-39660000D03*
X70680000Y-39660000D03*
X71680000Y-39660000D03*
X67680000Y-40660000D03*
X68680000Y-40660000D03*
X69680000Y-40660000D03*
X70680000Y-40660000D03*
X71680000Y-40660000D03*
D20*
X52365000Y-91480000D03*
X54115000Y-91480000D03*
D19*
X80970000Y-71592500D03*
X80970000Y-69767500D03*
D13*
X90357500Y-64790000D03*
X92082500Y-64790000D03*
D22*
X35372500Y-58370000D03*
X33547500Y-58370000D03*
D18*
X86310000Y-95300000D03*
X83410000Y-95300000D03*
X83410000Y-97600000D03*
X86310000Y-97600000D03*
D13*
X90317500Y-84520000D03*
X92042500Y-84520000D03*
D14*
X37150000Y-58262500D03*
X37150000Y-56537500D03*
X90290000Y-95005000D03*
X90290000Y-93280000D03*
D24*
X92200000Y-93197500D03*
X92200000Y-94922500D03*
D14*
X37150000Y-33262500D03*
X37150000Y-31537500D03*
D25*
X52280000Y-36365000D03*
X52280000Y-38115000D03*
D20*
X90365000Y-66480000D03*
X92115000Y-66480000D03*
X52365000Y-66480000D03*
X54115000Y-66480000D03*
D18*
X48310000Y-95300000D03*
X45410000Y-95300000D03*
X45410000Y-97600000D03*
X48310000Y-97600000D03*
D25*
X90280000Y-36365000D03*
X90280000Y-38115000D03*
D24*
X79250000Y-69807500D03*
X79250000Y-71532500D03*
D13*
X84687500Y-56750000D03*
X86412500Y-56750000D03*
X88647500Y-73530000D03*
X90372500Y-73530000D03*
X52357500Y-64790000D03*
X54082500Y-64790000D03*
D14*
X54130000Y-63102500D03*
X54130000Y-61377500D03*
D26*
X24000000Y-20000000D03*
D23*
X68675744Y-86655744D03*
X69675744Y-86655744D03*
X70675744Y-86655744D03*
X71675744Y-86655744D03*
X67680000Y-87660000D03*
X68680000Y-87660000D03*
X69680000Y-87660000D03*
X70680000Y-87660000D03*
X71680000Y-87660000D03*
X67680000Y-88660000D03*
X68680000Y-88660000D03*
X69680000Y-88660000D03*
X70680000Y-88660000D03*
X71680000Y-88660000D03*
X67680000Y-89660000D03*
X68680000Y-89660000D03*
X69680000Y-89660000D03*
X70680000Y-89660000D03*
X71680000Y-89660000D03*
X67680000Y-90660000D03*
X68680000Y-90660000D03*
X69680000Y-90660000D03*
X70680000Y-90660000D03*
X71680000Y-90660000D03*
D13*
X90317500Y-34520000D03*
X92042500Y-34520000D03*
D27*
X20000000Y-20000000D03*
X108000000Y-20000000D03*
D24*
X92200000Y-68197500D03*
X92200000Y-69922500D03*
D26*
X104000000Y-107000000D03*
D14*
X27510000Y-36962500D03*
X27510000Y-35237500D03*
D22*
X35372500Y-33370000D03*
X33547500Y-33370000D03*
D13*
X74587500Y-74650000D03*
X76312500Y-74650000D03*
D23*
X30675744Y-36655744D03*
X31675744Y-36655744D03*
X32675744Y-36655744D03*
X33675744Y-36655744D03*
X29680000Y-37660000D03*
X30680000Y-37660000D03*
X31680000Y-37660000D03*
X32680000Y-37660000D03*
X33680000Y-37660000D03*
X29680000Y-38660000D03*
X30680000Y-38660000D03*
X31680000Y-38660000D03*
X32680000Y-38660000D03*
X33680000Y-38660000D03*
X29680000Y-39660000D03*
X30680000Y-39660000D03*
X31680000Y-39660000D03*
X32680000Y-39660000D03*
X33680000Y-39660000D03*
X29680000Y-40660000D03*
X30680000Y-40660000D03*
X31680000Y-40660000D03*
X32680000Y-40660000D03*
X33680000Y-40660000D03*
D20*
X90365000Y-41480000D03*
X92115000Y-41480000D03*
D13*
X43657500Y-50170000D03*
X45382500Y-50170000D03*
D14*
X92130000Y-88102500D03*
X92130000Y-86377500D03*
D23*
X30675744Y-86655744D03*
X31675744Y-86655744D03*
X32675744Y-86655744D03*
X33675744Y-86655744D03*
X29680000Y-87660000D03*
X30680000Y-87660000D03*
X31680000Y-87660000D03*
X32680000Y-87660000D03*
X33680000Y-87660000D03*
X29680000Y-88660000D03*
X30680000Y-88660000D03*
X31680000Y-88660000D03*
X32680000Y-88660000D03*
X33680000Y-88660000D03*
X29680000Y-89660000D03*
X30680000Y-89660000D03*
X31680000Y-89660000D03*
X32680000Y-89660000D03*
X33680000Y-89660000D03*
X29680000Y-90660000D03*
X30680000Y-90660000D03*
X31680000Y-90660000D03*
X32680000Y-90660000D03*
X33680000Y-90660000D03*
D19*
X42970000Y-46592500D03*
X42970000Y-44767500D03*
D13*
X52317500Y-84520000D03*
X54042500Y-84520000D03*
D19*
X80970000Y-46592500D03*
X80970000Y-44767500D03*
D14*
X37150000Y-83262500D03*
X37150000Y-81537500D03*
D28*
X70887500Y-49650000D03*
X72712500Y-49650000D03*
D13*
X80587500Y-56800000D03*
X82312500Y-56800000D03*
D22*
X73372500Y-58370000D03*
X71547500Y-58370000D03*
D24*
X41250000Y-44807500D03*
X41250000Y-46532500D03*
D25*
X90280000Y-86365000D03*
X90280000Y-88115000D03*
D24*
X41250000Y-94807500D03*
X41250000Y-96532500D03*
X79250000Y-44807500D03*
X79250000Y-46532500D03*
D18*
X86310000Y-45300000D03*
X83410000Y-45300000D03*
X83410000Y-47600000D03*
X86310000Y-47600000D03*
D27*
X20000000Y-107000000D03*
D15*
X48777500Y-41160000D03*
X48777500Y-40760000D03*
X48777500Y-40360000D03*
X48777500Y-39960000D03*
X48777500Y-39560000D03*
X48777500Y-39160000D03*
X48777500Y-38760000D03*
X48777500Y-38360000D03*
X48777500Y-37960000D03*
X48777500Y-37560000D03*
X48777500Y-37160000D03*
X48777500Y-36760000D03*
X48777500Y-36360000D03*
X48777500Y-35960000D03*
D16*
X47940000Y-35122500D03*
X47540000Y-35122500D03*
X47140000Y-35122500D03*
X46740000Y-35122500D03*
X46340000Y-35122500D03*
X45940000Y-35122500D03*
X45540000Y-35122500D03*
X45140000Y-35122500D03*
X44740000Y-35122500D03*
X44340000Y-35122500D03*
X43940000Y-35122500D03*
X43540000Y-35122500D03*
X43140000Y-35122500D03*
X42740000Y-35122500D03*
D15*
X41902500Y-35960000D03*
X41902500Y-36360000D03*
X41902500Y-36760000D03*
X41902500Y-37160000D03*
X41902500Y-37560000D03*
X41902500Y-37960000D03*
X41902500Y-38360000D03*
X41902500Y-38760000D03*
X41902500Y-39160000D03*
X41902500Y-39560000D03*
X41902500Y-39960000D03*
X41902500Y-40360000D03*
X41902500Y-40760000D03*
X41902500Y-41160000D03*
D16*
X42740000Y-41997500D03*
X43140000Y-41997500D03*
X43540000Y-41997500D03*
X43940000Y-41997500D03*
X44340000Y-41997500D03*
X44740000Y-41997500D03*
X45140000Y-41997500D03*
X45540000Y-41997500D03*
X45940000Y-41997500D03*
X46340000Y-41997500D03*
X46740000Y-41997500D03*
X47140000Y-41997500D03*
X47540000Y-41997500D03*
X47940000Y-41997500D03*
D17*
X45340000Y-38560000D03*
D14*
X92130000Y-63102500D03*
X92130000Y-61377500D03*
D28*
X32887500Y-99650000D03*
X34712500Y-99650000D03*
D24*
X79250000Y-94807500D03*
X79250000Y-96532500D03*
X92200000Y-43197500D03*
X92200000Y-44922500D03*
D13*
X90317500Y-59520000D03*
X92042500Y-59520000D03*
D25*
X90280000Y-61365000D03*
X90280000Y-63115000D03*
D22*
X73372500Y-83370000D03*
X71547500Y-83370000D03*
D28*
X32887500Y-74650000D03*
X34712500Y-74650000D03*
D14*
X92130000Y-38102500D03*
X92130000Y-36377500D03*
X65510000Y-61962500D03*
X65510000Y-60237500D03*
D25*
X52280000Y-86365000D03*
X52280000Y-88115000D03*
D13*
X46687500Y-56750000D03*
X48412500Y-56750000D03*
X36587500Y-74650000D03*
X38312500Y-74650000D03*
D24*
X54200000Y-43197500D03*
X54200000Y-44922500D03*
D14*
X75150000Y-58262500D03*
X75150000Y-56537500D03*
D15*
X86777500Y-41160000D03*
X86777500Y-40760000D03*
X86777500Y-40360000D03*
X86777500Y-39960000D03*
X86777500Y-39560000D03*
X86777500Y-39160000D03*
X86777500Y-38760000D03*
X86777500Y-38360000D03*
X86777500Y-37960000D03*
X86777500Y-37560000D03*
X86777500Y-37160000D03*
X86777500Y-36760000D03*
X86777500Y-36360000D03*
X86777500Y-35960000D03*
D16*
X85940000Y-35122500D03*
X85540000Y-35122500D03*
X85140000Y-35122500D03*
X84740000Y-35122500D03*
X84340000Y-35122500D03*
X83940000Y-35122500D03*
X83540000Y-35122500D03*
X83140000Y-35122500D03*
X82740000Y-35122500D03*
X82340000Y-35122500D03*
X81940000Y-35122500D03*
X81540000Y-35122500D03*
X81140000Y-35122500D03*
X80740000Y-35122500D03*
D15*
X79902500Y-35960000D03*
X79902500Y-36360000D03*
X79902500Y-36760000D03*
X79902500Y-37160000D03*
X79902500Y-37560000D03*
X79902500Y-37960000D03*
X79902500Y-38360000D03*
X79902500Y-38760000D03*
X79902500Y-39160000D03*
X79902500Y-39560000D03*
X79902500Y-39960000D03*
X79902500Y-40360000D03*
X79902500Y-40760000D03*
X79902500Y-41160000D03*
D16*
X80740000Y-41997500D03*
X81140000Y-41997500D03*
X81540000Y-41997500D03*
X81940000Y-41997500D03*
X82340000Y-41997500D03*
X82740000Y-41997500D03*
X83140000Y-41997500D03*
X83540000Y-41997500D03*
X83940000Y-41997500D03*
X84340000Y-41997500D03*
X84740000Y-41997500D03*
X85140000Y-41997500D03*
X85540000Y-41997500D03*
X85940000Y-41997500D03*
D17*
X83340000Y-38560000D03*
D13*
X74587500Y-49650000D03*
X76312500Y-49650000D03*
D15*
X86777500Y-91160000D03*
X86777500Y-90760000D03*
X86777500Y-90360000D03*
X86777500Y-89960000D03*
X86777500Y-89560000D03*
X86777500Y-89160000D03*
X86777500Y-88760000D03*
X86777500Y-88360000D03*
X86777500Y-87960000D03*
X86777500Y-87560000D03*
X86777500Y-87160000D03*
X86777500Y-86760000D03*
X86777500Y-86360000D03*
X86777500Y-85960000D03*
D16*
X85940000Y-85122500D03*
X85540000Y-85122500D03*
X85140000Y-85122500D03*
X84740000Y-85122500D03*
X84340000Y-85122500D03*
X83940000Y-85122500D03*
X83540000Y-85122500D03*
X83140000Y-85122500D03*
X82740000Y-85122500D03*
X82340000Y-85122500D03*
X81940000Y-85122500D03*
X81540000Y-85122500D03*
X81140000Y-85122500D03*
X80740000Y-85122500D03*
D15*
X79902500Y-85960000D03*
X79902500Y-86360000D03*
X79902500Y-86760000D03*
X79902500Y-87160000D03*
X79902500Y-87560000D03*
X79902500Y-87960000D03*
X79902500Y-88360000D03*
X79902500Y-88760000D03*
X79902500Y-89160000D03*
X79902500Y-89560000D03*
X79902500Y-89960000D03*
X79902500Y-90360000D03*
X79902500Y-90760000D03*
X79902500Y-91160000D03*
D16*
X80740000Y-91997500D03*
X81140000Y-91997500D03*
X81540000Y-91997500D03*
X81940000Y-91997500D03*
X82340000Y-91997500D03*
X82740000Y-91997500D03*
X83140000Y-91997500D03*
X83540000Y-91997500D03*
X83940000Y-91997500D03*
X84340000Y-91997500D03*
X84740000Y-91997500D03*
X85140000Y-91997500D03*
X85540000Y-91997500D03*
X85940000Y-91997500D03*
D17*
X83340000Y-88560000D03*
D14*
X52290000Y-70005000D03*
X52290000Y-68280000D03*
D13*
X46687500Y-81750000D03*
X48412500Y-81750000D03*
D14*
X75150000Y-33262500D03*
X75150000Y-31537500D03*
D13*
X81657500Y-75170000D03*
X83382500Y-75170000D03*
D27*
X108000000Y-107000000D03*
D28*
X70887500Y-99650000D03*
X72712500Y-99650000D03*
D19*
X42970000Y-96592500D03*
X42970000Y-94767500D03*
D14*
X90290000Y-70005000D03*
X90290000Y-68280000D03*
X27510000Y-61962500D03*
X27510000Y-60237500D03*
D13*
X81657500Y-100170000D03*
X83382500Y-100170000D03*
X52357500Y-89790000D03*
X54082500Y-89790000D03*
X84687500Y-81750000D03*
X86412500Y-81750000D03*
D14*
X65510000Y-36962500D03*
X65510000Y-35237500D03*
D20*
X90365000Y-91480000D03*
X92115000Y-91480000D03*
D21*
X73212500Y-96540000D03*
X71487500Y-96540000D03*
D14*
X88640000Y-71152500D03*
X88640000Y-69427500D03*
X27510000Y-86962500D03*
X27510000Y-85237500D03*
X52290000Y-95005000D03*
X52290000Y-93280000D03*
D24*
X54200000Y-93197500D03*
X54200000Y-94922500D03*
D18*
X86310000Y-70300000D03*
X83410000Y-70300000D03*
X83410000Y-72600000D03*
X86310000Y-72600000D03*
D14*
X88640000Y-46152500D03*
X88640000Y-44427500D03*
D23*
X30675744Y-61655744D03*
X31675744Y-61655744D03*
X32675744Y-61655744D03*
X33675744Y-61655744D03*
X29680000Y-62660000D03*
X30680000Y-62660000D03*
X31680000Y-62660000D03*
X32680000Y-62660000D03*
X33680000Y-62660000D03*
X29680000Y-63660000D03*
X30680000Y-63660000D03*
X31680000Y-63660000D03*
X32680000Y-63660000D03*
X33680000Y-63660000D03*
X29680000Y-64660000D03*
X30680000Y-64660000D03*
X31680000Y-64660000D03*
X32680000Y-64660000D03*
X33680000Y-64660000D03*
X29680000Y-65660000D03*
X30680000Y-65660000D03*
X31680000Y-65660000D03*
X32680000Y-65660000D03*
X33680000Y-65660000D03*
D26*
X24000000Y-107000000D03*
D25*
X52280000Y-61365000D03*
X52280000Y-63115000D03*
D13*
X43657500Y-100170000D03*
X45382500Y-100170000D03*
X52357500Y-39790000D03*
X54082500Y-39790000D03*
D14*
X50640000Y-46152500D03*
X50640000Y-44427500D03*
X50640000Y-71152500D03*
X50640000Y-69427500D03*
D13*
X88647500Y-98530000D03*
X90372500Y-98530000D03*
D14*
X52290000Y-45005000D03*
X52290000Y-43280000D03*
D13*
X50647500Y-98530000D03*
X52372500Y-98530000D03*
X90357500Y-39790000D03*
X92082500Y-39790000D03*
X42587500Y-56800000D03*
X44312500Y-56800000D03*
D21*
X35212500Y-96540000D03*
X33487500Y-96540000D03*
D26*
X104000000Y-20000000D03*
D13*
X42587500Y-81800000D03*
X44312500Y-81800000D03*
X36587500Y-49650000D03*
X38312500Y-49650000D03*
D14*
X50640000Y-96152500D03*
X50640000Y-94427500D03*
D15*
X48777500Y-66160000D03*
X48777500Y-65760000D03*
X48777500Y-65360000D03*
X48777500Y-64960000D03*
X48777500Y-64560000D03*
X48777500Y-64160000D03*
X48777500Y-63760000D03*
X48777500Y-63360000D03*
X48777500Y-62960000D03*
X48777500Y-62560000D03*
X48777500Y-62160000D03*
X48777500Y-61760000D03*
X48777500Y-61360000D03*
X48777500Y-60960000D03*
D16*
X47940000Y-60122500D03*
X47540000Y-60122500D03*
X47140000Y-60122500D03*
X46740000Y-60122500D03*
X46340000Y-60122500D03*
X45940000Y-60122500D03*
X45540000Y-60122500D03*
X45140000Y-60122500D03*
X44740000Y-60122500D03*
X44340000Y-60122500D03*
X43940000Y-60122500D03*
X43540000Y-60122500D03*
X43140000Y-60122500D03*
X42740000Y-60122500D03*
D15*
X41902500Y-60960000D03*
X41902500Y-61360000D03*
X41902500Y-61760000D03*
X41902500Y-62160000D03*
X41902500Y-62560000D03*
X41902500Y-62960000D03*
X41902500Y-63360000D03*
X41902500Y-63760000D03*
X41902500Y-64160000D03*
X41902500Y-64560000D03*
X41902500Y-64960000D03*
X41902500Y-65360000D03*
X41902500Y-65760000D03*
X41902500Y-66160000D03*
D16*
X42740000Y-66997500D03*
X43140000Y-66997500D03*
X43540000Y-66997500D03*
X43940000Y-66997500D03*
X44340000Y-66997500D03*
X44740000Y-66997500D03*
X45140000Y-66997500D03*
X45540000Y-66997500D03*
X45940000Y-66997500D03*
X46340000Y-66997500D03*
X46740000Y-66997500D03*
X47140000Y-66997500D03*
X47540000Y-66997500D03*
X47940000Y-66997500D03*
D17*
X45340000Y-63560000D03*
D13*
X43657500Y-75170000D03*
X45382500Y-75170000D03*
D24*
X41250000Y-69807500D03*
X41250000Y-71532500D03*
D21*
X35212500Y-71540000D03*
X33487500Y-71540000D03*
D14*
X65510000Y-86962500D03*
X65510000Y-85237500D03*
D13*
X81657500Y-50170000D03*
X83382500Y-50170000D03*
D28*
X70887500Y-74650000D03*
X72712500Y-74650000D03*
D24*
X54200000Y-68197500D03*
X54200000Y-69922500D03*
D13*
X80587500Y-81800000D03*
X82312500Y-81800000D03*
D23*
X68675744Y-61655744D03*
X69675744Y-61655744D03*
X70675744Y-61655744D03*
X71675744Y-61655744D03*
X67680000Y-62660000D03*
X68680000Y-62660000D03*
X69680000Y-62660000D03*
X70680000Y-62660000D03*
X71680000Y-62660000D03*
X67680000Y-63660000D03*
X68680000Y-63660000D03*
X69680000Y-63660000D03*
X70680000Y-63660000D03*
X71680000Y-63660000D03*
X67680000Y-64660000D03*
X68680000Y-64660000D03*
X69680000Y-64660000D03*
X70680000Y-64660000D03*
X71680000Y-64660000D03*
X67680000Y-65660000D03*
X68680000Y-65660000D03*
X69680000Y-65660000D03*
X70680000Y-65660000D03*
X71680000Y-65660000D03*
D21*
X35212500Y-46540000D03*
X33487500Y-46540000D03*
D28*
X32887500Y-49650000D03*
X34712500Y-49650000D03*
D13*
X52317500Y-34520000D03*
X54042500Y-34520000D03*
X52317500Y-59520000D03*
X54042500Y-59520000D03*
D14*
X75150000Y-83262500D03*
X75150000Y-81537500D03*
D22*
X35372500Y-83370000D03*
X33547500Y-83370000D03*
D21*
X73212500Y-71540000D03*
X71487500Y-71540000D03*
D14*
X88640000Y-96152500D03*
X88640000Y-94427500D03*
D15*
X48777500Y-91160000D03*
X48777500Y-90760000D03*
X48777500Y-90360000D03*
X48777500Y-89960000D03*
X48777500Y-89560000D03*
X48777500Y-89160000D03*
X48777500Y-88760000D03*
X48777500Y-88360000D03*
X48777500Y-87960000D03*
X48777500Y-87560000D03*
X48777500Y-87160000D03*
X48777500Y-86760000D03*
X48777500Y-86360000D03*
X48777500Y-85960000D03*
D16*
X47940000Y-85122500D03*
X47540000Y-85122500D03*
X47140000Y-85122500D03*
X46740000Y-85122500D03*
X46340000Y-85122500D03*
X45940000Y-85122500D03*
X45540000Y-85122500D03*
X45140000Y-85122500D03*
X44740000Y-85122500D03*
X44340000Y-85122500D03*
X43940000Y-85122500D03*
X43540000Y-85122500D03*
X43140000Y-85122500D03*
X42740000Y-85122500D03*
D15*
X41902500Y-85960000D03*
X41902500Y-86360000D03*
X41902500Y-86760000D03*
X41902500Y-87160000D03*
X41902500Y-87560000D03*
X41902500Y-87960000D03*
X41902500Y-88360000D03*
X41902500Y-88760000D03*
X41902500Y-89160000D03*
X41902500Y-89560000D03*
X41902500Y-89960000D03*
X41902500Y-90360000D03*
X41902500Y-90760000D03*
X41902500Y-91160000D03*
D16*
X42740000Y-91997500D03*
X43140000Y-91997500D03*
X43540000Y-91997500D03*
X43940000Y-91997500D03*
X44340000Y-91997500D03*
X44740000Y-91997500D03*
X45140000Y-91997500D03*
X45540000Y-91997500D03*
X45940000Y-91997500D03*
X46340000Y-91997500D03*
X46740000Y-91997500D03*
X47140000Y-91997500D03*
X47540000Y-91997500D03*
X47940000Y-91997500D03*
D17*
X45340000Y-88560000D03*
M02*
