G04 #@! TF.GenerationSoftware,KiCad,Pcbnew,6.0.7-f9a2dced07~116~ubuntu22.04.1*
G04 #@! TF.CreationDate,2022-09-22T09:51:42+10:00*
G04 #@! TF.ProjectId,panel,70616e65-6c2e-46b6-9963-61645f706362,rev?*
G04 #@! TF.SameCoordinates,Original*
G04 #@! TF.FileFunction,Soldermask,Top*
G04 #@! TF.FilePolarity,Negative*
%FSLAX46Y46*%
G04 Gerber Fmt 4.6, Leading zero omitted, Abs format (unit mm)*
G04 Created by KiCad (PCBNEW 6.0.7-f9a2dced07~116~ubuntu22.04.1) date 2022-09-22 09:51:42*
%MOMM*%
%LPD*%
G01*
G04 APERTURE LIST*
G04 Aperture macros list*
%AMRoundRect*
0 Rectangle with rounded corners*
0 $1 Rounding radius*
0 $2 $3 $4 $5 $6 $7 $8 $9 X,Y pos of 4 corners*
0 Add a 4 corners polygon primitive as box body*
4,1,4,$2,$3,$4,$5,$6,$7,$8,$9,$2,$3,0*
0 Add four circle primitives for the rounded corners*
1,1,$1+$1,$2,$3*
1,1,$1+$1,$4,$5*
1,1,$1+$1,$6,$7*
1,1,$1+$1,$8,$9*
0 Add four rect primitives between the rounded corners*
20,1,$1+$1,$2,$3,$4,$5,0*
20,1,$1+$1,$4,$5,$6,$7,0*
20,1,$1+$1,$6,$7,$8,$9,0*
20,1,$1+$1,$8,$9,$2,$3,0*%
G04 Aperture macros list end*
%ADD10RoundRect,0.237500X-0.300000X-0.237500X0.300000X-0.237500X0.300000X0.237500X-0.300000X0.237500X0*%
%ADD11RoundRect,0.237500X0.237500X-0.300000X0.237500X0.300000X-0.237500X0.300000X-0.237500X-0.300000X0*%
%ADD12RoundRect,0.050000X0.387500X0.050000X-0.387500X0.050000X-0.387500X-0.050000X0.387500X-0.050000X0*%
%ADD13RoundRect,0.050000X0.050000X0.387500X-0.050000X0.387500X-0.050000X-0.387500X0.050000X-0.387500X0*%
%ADD14R,5.600000X5.600000*%
%ADD15R,2.100000X1.800000*%
%ADD16RoundRect,0.237500X0.237500X-0.250000X0.237500X0.250000X-0.237500X0.250000X-0.237500X-0.250000X0*%
%ADD17RoundRect,0.237500X-0.287500X-0.237500X0.287500X-0.237500X0.287500X0.237500X-0.287500X0.237500X0*%
%ADD18RoundRect,0.237500X0.300000X0.237500X-0.300000X0.237500X-0.300000X-0.237500X0.300000X-0.237500X0*%
%ADD19RoundRect,0.237500X0.250000X0.237500X-0.250000X0.237500X-0.250000X-0.237500X0.250000X-0.237500X0*%
%ADD20C,0.400000*%
%ADD21RoundRect,0.237500X-0.237500X0.300000X-0.237500X-0.300000X0.237500X-0.300000X0.237500X0.300000X0*%
%ADD22RoundRect,0.237500X-0.237500X0.287500X-0.237500X-0.287500X0.237500X-0.287500X0.237500X0.287500X0*%
%ADD23C,1.000000*%
%ADD24C,3.000000*%
%ADD25RoundRect,0.237500X-0.250000X-0.237500X0.250000X-0.237500X0.250000X0.237500X-0.250000X0.237500X0*%
G04 APERTURE END LIST*
D10*
X46687500Y-31750000D03*
X48412500Y-31750000D03*
X90357500Y-89790000D03*
X92082500Y-89790000D03*
X84687500Y-31750000D03*
X86412500Y-31750000D03*
D11*
X54130000Y-88102500D03*
X54130000Y-86377500D03*
D12*
X86777500Y-66160000D03*
X86777500Y-65760000D03*
X86777500Y-65360000D03*
X86777500Y-64960000D03*
X86777500Y-64560000D03*
X86777500Y-64160000D03*
X86777500Y-63760000D03*
X86777500Y-63360000D03*
X86777500Y-62960000D03*
X86777500Y-62560000D03*
X86777500Y-62160000D03*
X86777500Y-61760000D03*
X86777500Y-61360000D03*
X86777500Y-60960000D03*
D13*
X85940000Y-60122500D03*
X85540000Y-60122500D03*
X85140000Y-60122500D03*
X84740000Y-60122500D03*
X84340000Y-60122500D03*
X83940000Y-60122500D03*
X83540000Y-60122500D03*
X83140000Y-60122500D03*
X82740000Y-60122500D03*
X82340000Y-60122500D03*
X81940000Y-60122500D03*
X81540000Y-60122500D03*
X81140000Y-60122500D03*
X80740000Y-60122500D03*
D12*
X79902500Y-60960000D03*
X79902500Y-61360000D03*
X79902500Y-61760000D03*
X79902500Y-62160000D03*
X79902500Y-62560000D03*
X79902500Y-62960000D03*
X79902500Y-63360000D03*
X79902500Y-63760000D03*
X79902500Y-64160000D03*
X79902500Y-64560000D03*
X79902500Y-64960000D03*
X79902500Y-65360000D03*
X79902500Y-65760000D03*
X79902500Y-66160000D03*
D13*
X80740000Y-66997500D03*
X81140000Y-66997500D03*
X81540000Y-66997500D03*
X81940000Y-66997500D03*
X82340000Y-66997500D03*
X82740000Y-66997500D03*
X83140000Y-66997500D03*
X83540000Y-66997500D03*
X83940000Y-66997500D03*
X84340000Y-66997500D03*
X84740000Y-66997500D03*
X85140000Y-66997500D03*
X85540000Y-66997500D03*
X85940000Y-66997500D03*
D14*
X83340000Y-63560000D03*
D10*
X50647500Y-48530000D03*
X52372500Y-48530000D03*
X88647500Y-48530000D03*
X90372500Y-48530000D03*
D15*
X48310000Y-45300000D03*
X45410000Y-45300000D03*
X45410000Y-47600000D03*
X48310000Y-47600000D03*
D16*
X80970000Y-96592500D03*
X80970000Y-94767500D03*
D10*
X36587500Y-99650000D03*
X38312500Y-99650000D03*
D15*
X48310000Y-70300000D03*
X45410000Y-70300000D03*
X45410000Y-72600000D03*
X48310000Y-72600000D03*
D17*
X52365000Y-41480000D03*
X54115000Y-41480000D03*
D10*
X42587500Y-31800000D03*
X44312500Y-31800000D03*
D18*
X73212500Y-46540000D03*
X71487500Y-46540000D03*
D19*
X73372500Y-33370000D03*
X71547500Y-33370000D03*
D16*
X42970000Y-71592500D03*
X42970000Y-69767500D03*
D11*
X90290000Y-45005000D03*
X90290000Y-43280000D03*
D10*
X74587500Y-99650000D03*
X76312500Y-99650000D03*
X50647500Y-73530000D03*
X52372500Y-73530000D03*
X80587500Y-31800000D03*
X82312500Y-31800000D03*
D11*
X54130000Y-38102500D03*
X54130000Y-36377500D03*
D20*
X68675744Y-36655744D03*
X69675744Y-36655744D03*
X70675744Y-36655744D03*
X71675744Y-36655744D03*
X67680000Y-37660000D03*
X68680000Y-37660000D03*
X69680000Y-37660000D03*
X70680000Y-37660000D03*
X71680000Y-37660000D03*
X67680000Y-38660000D03*
X68680000Y-38660000D03*
X69680000Y-38660000D03*
X70680000Y-38660000D03*
X71680000Y-38660000D03*
X67680000Y-39660000D03*
X68680000Y-39660000D03*
X69680000Y-39660000D03*
X70680000Y-39660000D03*
X71680000Y-39660000D03*
X67680000Y-40660000D03*
X68680000Y-40660000D03*
X69680000Y-40660000D03*
X70680000Y-40660000D03*
X71680000Y-40660000D03*
D17*
X52365000Y-91480000D03*
X54115000Y-91480000D03*
D16*
X80970000Y-71592500D03*
X80970000Y-69767500D03*
D10*
X90357500Y-64790000D03*
X92082500Y-64790000D03*
D19*
X35372500Y-58370000D03*
X33547500Y-58370000D03*
D15*
X86310000Y-95300000D03*
X83410000Y-95300000D03*
X83410000Y-97600000D03*
X86310000Y-97600000D03*
D10*
X90317500Y-84520000D03*
X92042500Y-84520000D03*
D11*
X37150000Y-58262500D03*
X37150000Y-56537500D03*
X90290000Y-95005000D03*
X90290000Y-93280000D03*
D21*
X92200000Y-93197500D03*
X92200000Y-94922500D03*
D11*
X37150000Y-33262500D03*
X37150000Y-31537500D03*
D22*
X52280000Y-36365000D03*
X52280000Y-38115000D03*
D17*
X90365000Y-66480000D03*
X92115000Y-66480000D03*
X52365000Y-66480000D03*
X54115000Y-66480000D03*
D15*
X48310000Y-95300000D03*
X45410000Y-95300000D03*
X45410000Y-97600000D03*
X48310000Y-97600000D03*
D22*
X90280000Y-36365000D03*
X90280000Y-38115000D03*
D21*
X79250000Y-69807500D03*
X79250000Y-71532500D03*
D10*
X84687500Y-56750000D03*
X86412500Y-56750000D03*
X88647500Y-73530000D03*
X90372500Y-73530000D03*
X52357500Y-64790000D03*
X54082500Y-64790000D03*
D11*
X54130000Y-63102500D03*
X54130000Y-61377500D03*
D23*
X24000000Y-20000000D03*
D20*
X68675744Y-86655744D03*
X69675744Y-86655744D03*
X70675744Y-86655744D03*
X71675744Y-86655744D03*
X67680000Y-87660000D03*
X68680000Y-87660000D03*
X69680000Y-87660000D03*
X70680000Y-87660000D03*
X71680000Y-87660000D03*
X67680000Y-88660000D03*
X68680000Y-88660000D03*
X69680000Y-88660000D03*
X70680000Y-88660000D03*
X71680000Y-88660000D03*
X67680000Y-89660000D03*
X68680000Y-89660000D03*
X69680000Y-89660000D03*
X70680000Y-89660000D03*
X71680000Y-89660000D03*
X67680000Y-90660000D03*
X68680000Y-90660000D03*
X69680000Y-90660000D03*
X70680000Y-90660000D03*
X71680000Y-90660000D03*
D10*
X90317500Y-34520000D03*
X92042500Y-34520000D03*
D24*
X20000000Y-20000000D03*
X108000000Y-20000000D03*
D21*
X92200000Y-68197500D03*
X92200000Y-69922500D03*
D23*
X104000000Y-107000000D03*
D11*
X27510000Y-36962500D03*
X27510000Y-35237500D03*
D19*
X35372500Y-33370000D03*
X33547500Y-33370000D03*
D10*
X74587500Y-74650000D03*
X76312500Y-74650000D03*
D20*
X30675744Y-36655744D03*
X31675744Y-36655744D03*
X32675744Y-36655744D03*
X33675744Y-36655744D03*
X29680000Y-37660000D03*
X30680000Y-37660000D03*
X31680000Y-37660000D03*
X32680000Y-37660000D03*
X33680000Y-37660000D03*
X29680000Y-38660000D03*
X30680000Y-38660000D03*
X31680000Y-38660000D03*
X32680000Y-38660000D03*
X33680000Y-38660000D03*
X29680000Y-39660000D03*
X30680000Y-39660000D03*
X31680000Y-39660000D03*
X32680000Y-39660000D03*
X33680000Y-39660000D03*
X29680000Y-40660000D03*
X30680000Y-40660000D03*
X31680000Y-40660000D03*
X32680000Y-40660000D03*
X33680000Y-40660000D03*
D17*
X90365000Y-41480000D03*
X92115000Y-41480000D03*
D10*
X43657500Y-50170000D03*
X45382500Y-50170000D03*
D11*
X92130000Y-88102500D03*
X92130000Y-86377500D03*
D20*
X30675744Y-86655744D03*
X31675744Y-86655744D03*
X32675744Y-86655744D03*
X33675744Y-86655744D03*
X29680000Y-87660000D03*
X30680000Y-87660000D03*
X31680000Y-87660000D03*
X32680000Y-87660000D03*
X33680000Y-87660000D03*
X29680000Y-88660000D03*
X30680000Y-88660000D03*
X31680000Y-88660000D03*
X32680000Y-88660000D03*
X33680000Y-88660000D03*
X29680000Y-89660000D03*
X30680000Y-89660000D03*
X31680000Y-89660000D03*
X32680000Y-89660000D03*
X33680000Y-89660000D03*
X29680000Y-90660000D03*
X30680000Y-90660000D03*
X31680000Y-90660000D03*
X32680000Y-90660000D03*
X33680000Y-90660000D03*
D16*
X42970000Y-46592500D03*
X42970000Y-44767500D03*
D10*
X52317500Y-84520000D03*
X54042500Y-84520000D03*
D16*
X80970000Y-46592500D03*
X80970000Y-44767500D03*
D11*
X37150000Y-83262500D03*
X37150000Y-81537500D03*
D25*
X70887500Y-49650000D03*
X72712500Y-49650000D03*
D10*
X80587500Y-56800000D03*
X82312500Y-56800000D03*
D19*
X73372500Y-58370000D03*
X71547500Y-58370000D03*
D21*
X41250000Y-44807500D03*
X41250000Y-46532500D03*
D22*
X90280000Y-86365000D03*
X90280000Y-88115000D03*
D21*
X41250000Y-94807500D03*
X41250000Y-96532500D03*
X79250000Y-44807500D03*
X79250000Y-46532500D03*
D15*
X86310000Y-45300000D03*
X83410000Y-45300000D03*
X83410000Y-47600000D03*
X86310000Y-47600000D03*
D24*
X20000000Y-107000000D03*
D12*
X48777500Y-41160000D03*
X48777500Y-40760000D03*
X48777500Y-40360000D03*
X48777500Y-39960000D03*
X48777500Y-39560000D03*
X48777500Y-39160000D03*
X48777500Y-38760000D03*
X48777500Y-38360000D03*
X48777500Y-37960000D03*
X48777500Y-37560000D03*
X48777500Y-37160000D03*
X48777500Y-36760000D03*
X48777500Y-36360000D03*
X48777500Y-35960000D03*
D13*
X47940000Y-35122500D03*
X47540000Y-35122500D03*
X47140000Y-35122500D03*
X46740000Y-35122500D03*
X46340000Y-35122500D03*
X45940000Y-35122500D03*
X45540000Y-35122500D03*
X45140000Y-35122500D03*
X44740000Y-35122500D03*
X44340000Y-35122500D03*
X43940000Y-35122500D03*
X43540000Y-35122500D03*
X43140000Y-35122500D03*
X42740000Y-35122500D03*
D12*
X41902500Y-35960000D03*
X41902500Y-36360000D03*
X41902500Y-36760000D03*
X41902500Y-37160000D03*
X41902500Y-37560000D03*
X41902500Y-37960000D03*
X41902500Y-38360000D03*
X41902500Y-38760000D03*
X41902500Y-39160000D03*
X41902500Y-39560000D03*
X41902500Y-39960000D03*
X41902500Y-40360000D03*
X41902500Y-40760000D03*
X41902500Y-41160000D03*
D13*
X42740000Y-41997500D03*
X43140000Y-41997500D03*
X43540000Y-41997500D03*
X43940000Y-41997500D03*
X44340000Y-41997500D03*
X44740000Y-41997500D03*
X45140000Y-41997500D03*
X45540000Y-41997500D03*
X45940000Y-41997500D03*
X46340000Y-41997500D03*
X46740000Y-41997500D03*
X47140000Y-41997500D03*
X47540000Y-41997500D03*
X47940000Y-41997500D03*
D14*
X45340000Y-38560000D03*
D11*
X92130000Y-63102500D03*
X92130000Y-61377500D03*
D25*
X32887500Y-99650000D03*
X34712500Y-99650000D03*
D21*
X79250000Y-94807500D03*
X79250000Y-96532500D03*
X92200000Y-43197500D03*
X92200000Y-44922500D03*
D10*
X90317500Y-59520000D03*
X92042500Y-59520000D03*
D22*
X90280000Y-61365000D03*
X90280000Y-63115000D03*
D19*
X73372500Y-83370000D03*
X71547500Y-83370000D03*
D25*
X32887500Y-74650000D03*
X34712500Y-74650000D03*
D11*
X92130000Y-38102500D03*
X92130000Y-36377500D03*
X65510000Y-61962500D03*
X65510000Y-60237500D03*
D22*
X52280000Y-86365000D03*
X52280000Y-88115000D03*
D10*
X46687500Y-56750000D03*
X48412500Y-56750000D03*
X36587500Y-74650000D03*
X38312500Y-74650000D03*
D21*
X54200000Y-43197500D03*
X54200000Y-44922500D03*
D11*
X75150000Y-58262500D03*
X75150000Y-56537500D03*
D12*
X86777500Y-41160000D03*
X86777500Y-40760000D03*
X86777500Y-40360000D03*
X86777500Y-39960000D03*
X86777500Y-39560000D03*
X86777500Y-39160000D03*
X86777500Y-38760000D03*
X86777500Y-38360000D03*
X86777500Y-37960000D03*
X86777500Y-37560000D03*
X86777500Y-37160000D03*
X86777500Y-36760000D03*
X86777500Y-36360000D03*
X86777500Y-35960000D03*
D13*
X85940000Y-35122500D03*
X85540000Y-35122500D03*
X85140000Y-35122500D03*
X84740000Y-35122500D03*
X84340000Y-35122500D03*
X83940000Y-35122500D03*
X83540000Y-35122500D03*
X83140000Y-35122500D03*
X82740000Y-35122500D03*
X82340000Y-35122500D03*
X81940000Y-35122500D03*
X81540000Y-35122500D03*
X81140000Y-35122500D03*
X80740000Y-35122500D03*
D12*
X79902500Y-35960000D03*
X79902500Y-36360000D03*
X79902500Y-36760000D03*
X79902500Y-37160000D03*
X79902500Y-37560000D03*
X79902500Y-37960000D03*
X79902500Y-38360000D03*
X79902500Y-38760000D03*
X79902500Y-39160000D03*
X79902500Y-39560000D03*
X79902500Y-39960000D03*
X79902500Y-40360000D03*
X79902500Y-40760000D03*
X79902500Y-41160000D03*
D13*
X80740000Y-41997500D03*
X81140000Y-41997500D03*
X81540000Y-41997500D03*
X81940000Y-41997500D03*
X82340000Y-41997500D03*
X82740000Y-41997500D03*
X83140000Y-41997500D03*
X83540000Y-41997500D03*
X83940000Y-41997500D03*
X84340000Y-41997500D03*
X84740000Y-41997500D03*
X85140000Y-41997500D03*
X85540000Y-41997500D03*
X85940000Y-41997500D03*
D14*
X83340000Y-38560000D03*
D10*
X74587500Y-49650000D03*
X76312500Y-49650000D03*
D12*
X86777500Y-91160000D03*
X86777500Y-90760000D03*
X86777500Y-90360000D03*
X86777500Y-89960000D03*
X86777500Y-89560000D03*
X86777500Y-89160000D03*
X86777500Y-88760000D03*
X86777500Y-88360000D03*
X86777500Y-87960000D03*
X86777500Y-87560000D03*
X86777500Y-87160000D03*
X86777500Y-86760000D03*
X86777500Y-86360000D03*
X86777500Y-85960000D03*
D13*
X85940000Y-85122500D03*
X85540000Y-85122500D03*
X85140000Y-85122500D03*
X84740000Y-85122500D03*
X84340000Y-85122500D03*
X83940000Y-85122500D03*
X83540000Y-85122500D03*
X83140000Y-85122500D03*
X82740000Y-85122500D03*
X82340000Y-85122500D03*
X81940000Y-85122500D03*
X81540000Y-85122500D03*
X81140000Y-85122500D03*
X80740000Y-85122500D03*
D12*
X79902500Y-85960000D03*
X79902500Y-86360000D03*
X79902500Y-86760000D03*
X79902500Y-87160000D03*
X79902500Y-87560000D03*
X79902500Y-87960000D03*
X79902500Y-88360000D03*
X79902500Y-88760000D03*
X79902500Y-89160000D03*
X79902500Y-89560000D03*
X79902500Y-89960000D03*
X79902500Y-90360000D03*
X79902500Y-90760000D03*
X79902500Y-91160000D03*
D13*
X80740000Y-91997500D03*
X81140000Y-91997500D03*
X81540000Y-91997500D03*
X81940000Y-91997500D03*
X82340000Y-91997500D03*
X82740000Y-91997500D03*
X83140000Y-91997500D03*
X83540000Y-91997500D03*
X83940000Y-91997500D03*
X84340000Y-91997500D03*
X84740000Y-91997500D03*
X85140000Y-91997500D03*
X85540000Y-91997500D03*
X85940000Y-91997500D03*
D14*
X83340000Y-88560000D03*
D11*
X52290000Y-70005000D03*
X52290000Y-68280000D03*
D10*
X46687500Y-81750000D03*
X48412500Y-81750000D03*
D11*
X75150000Y-33262500D03*
X75150000Y-31537500D03*
D10*
X81657500Y-75170000D03*
X83382500Y-75170000D03*
D24*
X108000000Y-107000000D03*
D25*
X70887500Y-99650000D03*
X72712500Y-99650000D03*
D16*
X42970000Y-96592500D03*
X42970000Y-94767500D03*
D11*
X90290000Y-70005000D03*
X90290000Y-68280000D03*
X27510000Y-61962500D03*
X27510000Y-60237500D03*
D10*
X81657500Y-100170000D03*
X83382500Y-100170000D03*
X52357500Y-89790000D03*
X54082500Y-89790000D03*
X84687500Y-81750000D03*
X86412500Y-81750000D03*
D11*
X65510000Y-36962500D03*
X65510000Y-35237500D03*
D17*
X90365000Y-91480000D03*
X92115000Y-91480000D03*
D18*
X73212500Y-96540000D03*
X71487500Y-96540000D03*
D11*
X88640000Y-71152500D03*
X88640000Y-69427500D03*
X27510000Y-86962500D03*
X27510000Y-85237500D03*
X52290000Y-95005000D03*
X52290000Y-93280000D03*
D21*
X54200000Y-93197500D03*
X54200000Y-94922500D03*
D15*
X86310000Y-70300000D03*
X83410000Y-70300000D03*
X83410000Y-72600000D03*
X86310000Y-72600000D03*
D11*
X88640000Y-46152500D03*
X88640000Y-44427500D03*
D20*
X30675744Y-61655744D03*
X31675744Y-61655744D03*
X32675744Y-61655744D03*
X33675744Y-61655744D03*
X29680000Y-62660000D03*
X30680000Y-62660000D03*
X31680000Y-62660000D03*
X32680000Y-62660000D03*
X33680000Y-62660000D03*
X29680000Y-63660000D03*
X30680000Y-63660000D03*
X31680000Y-63660000D03*
X32680000Y-63660000D03*
X33680000Y-63660000D03*
X29680000Y-64660000D03*
X30680000Y-64660000D03*
X31680000Y-64660000D03*
X32680000Y-64660000D03*
X33680000Y-64660000D03*
X29680000Y-65660000D03*
X30680000Y-65660000D03*
X31680000Y-65660000D03*
X32680000Y-65660000D03*
X33680000Y-65660000D03*
D23*
X24000000Y-107000000D03*
D22*
X52280000Y-61365000D03*
X52280000Y-63115000D03*
D10*
X43657500Y-100170000D03*
X45382500Y-100170000D03*
X52357500Y-39790000D03*
X54082500Y-39790000D03*
D11*
X50640000Y-46152500D03*
X50640000Y-44427500D03*
X50640000Y-71152500D03*
X50640000Y-69427500D03*
D10*
X88647500Y-98530000D03*
X90372500Y-98530000D03*
D11*
X52290000Y-45005000D03*
X52290000Y-43280000D03*
D10*
X50647500Y-98530000D03*
X52372500Y-98530000D03*
X90357500Y-39790000D03*
X92082500Y-39790000D03*
X42587500Y-56800000D03*
X44312500Y-56800000D03*
D18*
X35212500Y-96540000D03*
X33487500Y-96540000D03*
D23*
X104000000Y-20000000D03*
D10*
X42587500Y-81800000D03*
X44312500Y-81800000D03*
X36587500Y-49650000D03*
X38312500Y-49650000D03*
D11*
X50640000Y-96152500D03*
X50640000Y-94427500D03*
D12*
X48777500Y-66160000D03*
X48777500Y-65760000D03*
X48777500Y-65360000D03*
X48777500Y-64960000D03*
X48777500Y-64560000D03*
X48777500Y-64160000D03*
X48777500Y-63760000D03*
X48777500Y-63360000D03*
X48777500Y-62960000D03*
X48777500Y-62560000D03*
X48777500Y-62160000D03*
X48777500Y-61760000D03*
X48777500Y-61360000D03*
X48777500Y-60960000D03*
D13*
X47940000Y-60122500D03*
X47540000Y-60122500D03*
X47140000Y-60122500D03*
X46740000Y-60122500D03*
X46340000Y-60122500D03*
X45940000Y-60122500D03*
X45540000Y-60122500D03*
X45140000Y-60122500D03*
X44740000Y-60122500D03*
X44340000Y-60122500D03*
X43940000Y-60122500D03*
X43540000Y-60122500D03*
X43140000Y-60122500D03*
X42740000Y-60122500D03*
D12*
X41902500Y-60960000D03*
X41902500Y-61360000D03*
X41902500Y-61760000D03*
X41902500Y-62160000D03*
X41902500Y-62560000D03*
X41902500Y-62960000D03*
X41902500Y-63360000D03*
X41902500Y-63760000D03*
X41902500Y-64160000D03*
X41902500Y-64560000D03*
X41902500Y-64960000D03*
X41902500Y-65360000D03*
X41902500Y-65760000D03*
X41902500Y-66160000D03*
D13*
X42740000Y-66997500D03*
X43140000Y-66997500D03*
X43540000Y-66997500D03*
X43940000Y-66997500D03*
X44340000Y-66997500D03*
X44740000Y-66997500D03*
X45140000Y-66997500D03*
X45540000Y-66997500D03*
X45940000Y-66997500D03*
X46340000Y-66997500D03*
X46740000Y-66997500D03*
X47140000Y-66997500D03*
X47540000Y-66997500D03*
X47940000Y-66997500D03*
D14*
X45340000Y-63560000D03*
D10*
X43657500Y-75170000D03*
X45382500Y-75170000D03*
D21*
X41250000Y-69807500D03*
X41250000Y-71532500D03*
D18*
X35212500Y-71540000D03*
X33487500Y-71540000D03*
D11*
X65510000Y-86962500D03*
X65510000Y-85237500D03*
D10*
X81657500Y-50170000D03*
X83382500Y-50170000D03*
D25*
X70887500Y-74650000D03*
X72712500Y-74650000D03*
D21*
X54200000Y-68197500D03*
X54200000Y-69922500D03*
D10*
X80587500Y-81800000D03*
X82312500Y-81800000D03*
D20*
X68675744Y-61655744D03*
X69675744Y-61655744D03*
X70675744Y-61655744D03*
X71675744Y-61655744D03*
X67680000Y-62660000D03*
X68680000Y-62660000D03*
X69680000Y-62660000D03*
X70680000Y-62660000D03*
X71680000Y-62660000D03*
X67680000Y-63660000D03*
X68680000Y-63660000D03*
X69680000Y-63660000D03*
X70680000Y-63660000D03*
X71680000Y-63660000D03*
X67680000Y-64660000D03*
X68680000Y-64660000D03*
X69680000Y-64660000D03*
X70680000Y-64660000D03*
X71680000Y-64660000D03*
X67680000Y-65660000D03*
X68680000Y-65660000D03*
X69680000Y-65660000D03*
X70680000Y-65660000D03*
X71680000Y-65660000D03*
D18*
X35212500Y-46540000D03*
X33487500Y-46540000D03*
D25*
X32887500Y-49650000D03*
X34712500Y-49650000D03*
D10*
X52317500Y-34520000D03*
X54042500Y-34520000D03*
X52317500Y-59520000D03*
X54042500Y-59520000D03*
D11*
X75150000Y-83262500D03*
X75150000Y-81537500D03*
D19*
X35372500Y-83370000D03*
X33547500Y-83370000D03*
D18*
X73212500Y-71540000D03*
X71487500Y-71540000D03*
D11*
X88640000Y-96152500D03*
X88640000Y-94427500D03*
D12*
X48777500Y-91160000D03*
X48777500Y-90760000D03*
X48777500Y-90360000D03*
X48777500Y-89960000D03*
X48777500Y-89560000D03*
X48777500Y-89160000D03*
X48777500Y-88760000D03*
X48777500Y-88360000D03*
X48777500Y-87960000D03*
X48777500Y-87560000D03*
X48777500Y-87160000D03*
X48777500Y-86760000D03*
X48777500Y-86360000D03*
X48777500Y-85960000D03*
D13*
X47940000Y-85122500D03*
X47540000Y-85122500D03*
X47140000Y-85122500D03*
X46740000Y-85122500D03*
X46340000Y-85122500D03*
X45940000Y-85122500D03*
X45540000Y-85122500D03*
X45140000Y-85122500D03*
X44740000Y-85122500D03*
X44340000Y-85122500D03*
X43940000Y-85122500D03*
X43540000Y-85122500D03*
X43140000Y-85122500D03*
X42740000Y-85122500D03*
D12*
X41902500Y-85960000D03*
X41902500Y-86360000D03*
X41902500Y-86760000D03*
X41902500Y-87160000D03*
X41902500Y-87560000D03*
X41902500Y-87960000D03*
X41902500Y-88360000D03*
X41902500Y-88760000D03*
X41902500Y-89160000D03*
X41902500Y-89560000D03*
X41902500Y-89960000D03*
X41902500Y-90360000D03*
X41902500Y-90760000D03*
X41902500Y-91160000D03*
D13*
X42740000Y-91997500D03*
X43140000Y-91997500D03*
X43540000Y-91997500D03*
X43940000Y-91997500D03*
X44340000Y-91997500D03*
X44740000Y-91997500D03*
X45140000Y-91997500D03*
X45540000Y-91997500D03*
X45940000Y-91997500D03*
X46340000Y-91997500D03*
X46740000Y-91997500D03*
X47140000Y-91997500D03*
X47540000Y-91997500D03*
X47940000Y-91997500D03*
D14*
X45340000Y-88560000D03*
M02*
