M48
; DRILL file {KiCad 6.0.7-f9a2dced07~116~ubuntu22.04.1} date Sat 03 Sep 2022 23:28:11
; FORMAT={-:-/ absolute / metric / decimal}
; #@! TF.CreationDate,2022-09-03T23:28:11+10:00
; #@! TF.GenerationSoftware,Kicad,Pcbnew,6.0.7-f9a2dced07~116~ubuntu22.04.1
; #@! TF.FileFunction,Plated,1,2,PTH
FMAT,2
METRIC
; #@! TA.AperFunction,Plated,PTH,ViaDrill
T1C0.200
; #@! TA.AperFunction,Plated,PTH,ViaDrill
T2C0.300
; #@! TA.AperFunction,Plated,PTH,ComponentDrill
T3C0.300
; #@! TA.AperFunction,Plated,PTH,ComponentDrill
T4C1.000
%
G90
G05
T1
X18.1Y-40.1
X18.1Y-40.7
X18.1Y-41.3
X18.1Y-72.4
X18.1Y-73.0
X18.1Y-73.6
X18.2Y-42.0
X18.2Y-74.3
X18.5Y-42.7
X18.5Y-75.0
X18.8Y-43.3
X18.8Y-75.6
X19.556Y-42.062
X19.556Y-74.362
X19.6Y-44.2
X19.6Y-44.8
X19.6Y-76.5
X19.6Y-77.1
X19.67Y-41.22
X19.67Y-73.52
X19.75Y-40.0
X19.75Y-72.3
X20.1Y-31.5
X20.1Y-63.8
X20.6Y-36.0
X20.6Y-68.3
X21.0Y-43.234
X21.0Y-75.534
X22.5Y-45.5
X22.5Y-77.8
X23.0Y-31.75
X23.0Y-36.25
X23.0Y-64.05
X23.0Y-68.55
X23.25Y-45.75
X23.25Y-78.05
X23.5Y-32.25
X23.5Y-64.55
X23.7Y-40.195
X23.7Y-72.495
X23.75Y-36.25
X23.75Y-68.55
X24.25Y-32.75
X24.25Y-65.05
X24.775Y-46.075
X24.775Y-78.375
X24.875Y-50.125
X24.875Y-82.425
X25.25Y-31.5
X25.25Y-63.8
X25.8Y-46.075
X25.8Y-78.375
X25.9Y-32.1
X25.9Y-36.25
X25.9Y-64.4
X25.9Y-68.55
X26.25Y-49.75
X26.25Y-82.05
X26.69Y-38.09
X26.69Y-70.39
X26.81Y-40.14
X26.81Y-72.44
X26.85Y-46.075
X26.85Y-78.375
X26.89Y-35.38
X26.89Y-67.68
X27.425Y-53.025
X27.425Y-85.325
X27.475Y-43.386
X27.475Y-75.685
X27.75Y-38.25
X27.75Y-70.55
X27.925Y-46.1
X27.925Y-78.4
X28.0Y-35.75
X28.0Y-68.05
X28.1Y-31.7
X28.1Y-64.0
X28.25Y-46.75
X28.25Y-79.05
X28.275Y-43.375
X28.275Y-75.675
X28.75Y-47.25
X28.75Y-79.55
X28.825Y-53.05
X28.825Y-85.35
X28.955Y-38.665
X28.955Y-70.965
X29.0Y-32.25
X29.0Y-64.55
X29.25Y-46.75
X29.25Y-49.75
X29.25Y-79.05
X29.25Y-82.05
X29.375Y-42.325
X29.375Y-74.625
X29.61Y-38.24
X29.61Y-70.54
X29.75Y-32.25
X29.75Y-46.25
X29.75Y-64.55
X29.75Y-78.55
X29.825Y-36.2
X29.825Y-68.5
X30.0Y-49.75
X30.0Y-82.05
X30.083Y-41.808
X30.083Y-74.108
X30.5Y-32.25
X30.5Y-64.55
X30.575Y-36.275
X30.575Y-68.575
X30.75Y-30.75
X30.75Y-63.05
X30.8Y-34.6
X30.8Y-66.9
X31.25Y-32.25
X31.25Y-64.55
X31.6Y-34.6
X31.6Y-66.9
X32.0Y-32.25
X32.0Y-35.25
X32.0Y-64.55
X32.0Y-67.55
X32.225Y-36.55
X32.225Y-37.637
X32.225Y-68.85
X32.225Y-69.937
X32.25Y-49.75
X32.25Y-82.05
X32.48Y-41.02
X32.48Y-73.32
X32.49Y-42.874
X32.49Y-75.174
X32.75Y-32.25
X32.75Y-64.55
X33.0Y-45.75
X33.0Y-50.0
X33.0Y-78.05
X33.0Y-82.3
X33.425Y-36.45
X33.425Y-68.75
X33.6Y-47.7
X33.6Y-80.0
X33.75Y-52.575
X33.75Y-84.875
X34.67Y-42.62
X34.67Y-74.92
X34.78Y-39.04
X34.78Y-71.34
X34.971Y-36.025
X34.971Y-68.325
X35.3Y-47.7
X35.3Y-80.0
X35.48Y-35.44
X35.48Y-67.74
X36.25Y-46.25
X36.25Y-78.55
X36.5Y-36.0
X36.5Y-68.3
X36.725Y-34.95
X36.725Y-67.25
X36.8Y-33.85
X36.8Y-66.15
X36.83Y-40.61
X36.83Y-72.91
X36.87Y-45.02
X36.87Y-77.32
X37.0Y-46.75
X37.0Y-79.05
X38.5Y-28.2
X38.5Y-60.5
X38.9Y-35.0
X38.9Y-67.3
X38.93Y-39.09
X38.93Y-71.39
X39.0Y-48.5
X39.0Y-80.8
X39.16Y-42.75
X39.16Y-75.05
X39.5Y-45.0
X39.5Y-77.3
X39.7Y-35.0
X39.7Y-67.3
X39.75Y-32.25
X39.75Y-64.55
X40.5Y-48.5
X40.5Y-80.8
X40.9Y-45.15
X40.9Y-77.45
X41.1Y-28.2
X41.1Y-60.5
X41.45Y-38.225
X41.45Y-70.525
X41.81Y-40.79
X41.81Y-73.09
X42.0Y-37.5
X42.0Y-69.8
X42.29Y-41.74
X42.29Y-74.04
X43.2Y-33.0
X43.2Y-34.4
X43.2Y-65.3
X43.2Y-66.7
X43.6Y-28.2
X43.6Y-60.5
X43.7Y-31.3
X43.7Y-63.6
X43.75Y-35.0
X43.75Y-67.3
X44.72Y-47.005
X44.72Y-79.305
X44.75Y-42.75
X44.75Y-75.05
X45.7Y-48.2
X45.7Y-80.5
X46.0Y-32.1
X46.0Y-64.4
X46.2Y-31.3
X46.2Y-35.2
X46.2Y-63.6
X46.2Y-67.5
X47.0Y-42.7
X47.0Y-44.75
X47.0Y-45.5
X47.0Y-46.25
X47.0Y-47.1
X47.0Y-75.0
X47.0Y-77.05
X47.0Y-77.8
X47.0Y-78.55
X47.0Y-79.4
X47.7Y-42.7
X47.7Y-75.0
X47.75Y-44.75
X47.75Y-45.5
X47.75Y-46.25
X47.75Y-77.05
X47.75Y-77.8
X47.75Y-78.55
X48.0Y-38.5
X48.0Y-70.8
X48.25Y-33.0
X48.25Y-33.75
X48.25Y-34.5
X48.25Y-35.25
X48.25Y-36.0
X48.25Y-37.0
X48.25Y-37.75
X48.25Y-39.25
X48.25Y-40.0
X48.25Y-40.75
X48.25Y-65.3
X48.25Y-66.05
X48.25Y-66.8
X48.25Y-67.55
X48.25Y-68.3
X48.25Y-69.3
X48.25Y-70.05
X48.25Y-71.55
X48.25Y-72.3
X48.25Y-73.05
X48.3Y-31.6
X48.3Y-32.3
X48.3Y-63.9
X48.3Y-64.6
X48.4Y-30.9
X48.4Y-41.4
X48.4Y-42.1
X48.4Y-42.7
X48.4Y-44.7
X48.4Y-63.2
X48.4Y-73.7
X48.4Y-74.4
X48.4Y-75.0
X48.4Y-77.0
X63.6Y-40.1
X63.6Y-40.7
X63.6Y-41.3
X63.6Y-72.4
X63.6Y-73.0
X63.6Y-73.6
X63.7Y-42.0
X63.7Y-74.3
X64.0Y-42.7
X64.0Y-75.0
X64.3Y-43.3
X64.3Y-75.6
X65.056Y-42.062
X65.056Y-74.362
X65.1Y-44.2
X65.1Y-44.8
X65.1Y-76.5
X65.1Y-77.1
X65.17Y-41.22
X65.17Y-73.52
X65.25Y-40.0
X65.25Y-72.3
X65.6Y-31.5
X65.6Y-63.8
X66.1Y-36.0
X66.1Y-68.3
X66.5Y-43.234
X66.5Y-75.534
X68.0Y-45.5
X68.0Y-77.8
X68.5Y-31.75
X68.5Y-36.25
X68.5Y-64.05
X68.5Y-68.55
X68.75Y-45.75
X68.75Y-78.05
X69.0Y-32.25
X69.0Y-64.55
X69.2Y-40.195
X69.2Y-72.495
X69.25Y-36.25
X69.25Y-68.55
X69.75Y-32.75
X69.75Y-65.05
X70.275Y-46.075
X70.275Y-78.375
X70.375Y-50.125
X70.375Y-82.425
X70.75Y-31.5
X70.75Y-63.8
X71.3Y-46.075
X71.3Y-78.375
X71.4Y-32.1
X71.4Y-36.25
X71.4Y-64.4
X71.4Y-68.55
X71.75Y-49.75
X71.75Y-82.05
X72.19Y-38.09
X72.19Y-70.39
X72.31Y-40.14
X72.31Y-72.44
X72.35Y-46.075
X72.35Y-78.375
X72.39Y-35.38
X72.39Y-67.68
X72.925Y-53.025
X72.925Y-85.325
X72.975Y-43.386
X72.975Y-75.685
X73.25Y-38.25
X73.25Y-70.55
X73.425Y-46.1
X73.425Y-78.4
X73.5Y-35.75
X73.5Y-68.05
X73.6Y-31.7
X73.6Y-64.0
X73.75Y-46.75
X73.75Y-79.05
X73.775Y-43.375
X73.775Y-75.675
X74.25Y-47.25
X74.25Y-79.55
X74.325Y-53.05
X74.325Y-85.35
X74.455Y-38.665
X74.455Y-70.965
X74.5Y-32.25
X74.5Y-64.55
X74.75Y-46.75
X74.75Y-49.75
X74.75Y-79.05
X74.75Y-82.05
X74.875Y-42.325
X74.875Y-74.625
X75.11Y-38.24
X75.11Y-70.54
X75.25Y-32.25
X75.25Y-46.25
X75.25Y-64.55
X75.25Y-78.55
X75.325Y-36.2
X75.325Y-68.5
X75.5Y-49.75
X75.5Y-82.05
X75.583Y-41.808
X75.583Y-74.108
X76.0Y-32.25
X76.0Y-64.55
X76.075Y-36.275
X76.075Y-68.575
X76.25Y-30.75
X76.25Y-63.05
X76.3Y-34.6
X76.3Y-66.9
X76.75Y-32.25
X76.75Y-64.55
X77.1Y-34.6
X77.1Y-66.9
X77.5Y-32.25
X77.5Y-35.25
X77.5Y-64.55
X77.5Y-67.55
X77.725Y-36.55
X77.725Y-37.637
X77.725Y-68.85
X77.725Y-69.937
X77.75Y-49.75
X77.75Y-82.05
X77.98Y-41.02
X77.98Y-73.32
X77.99Y-42.874
X77.99Y-75.174
X78.25Y-32.25
X78.25Y-64.55
X78.5Y-45.75
X78.5Y-50.0
X78.5Y-78.05
X78.5Y-82.3
X78.925Y-36.45
X78.925Y-68.75
X79.1Y-47.7
X79.1Y-80.0
X79.25Y-52.575
X79.25Y-84.875
X80.17Y-42.62
X80.17Y-74.92
X80.28Y-39.04
X80.28Y-71.34
X80.471Y-36.025
X80.471Y-68.325
X80.8Y-47.7
X80.8Y-80.0
X80.98Y-35.44
X80.98Y-67.74
X81.75Y-46.25
X81.75Y-78.55
X82.0Y-36.0
X82.0Y-68.3
X82.225Y-34.95
X82.225Y-67.25
X82.3Y-33.85
X82.3Y-66.15
X82.33Y-40.61
X82.33Y-72.91
X82.37Y-45.02
X82.37Y-77.32
X82.5Y-46.75
X82.5Y-79.05
X84.0Y-28.2
X84.0Y-60.5
X84.4Y-35.0
X84.4Y-67.3
X84.43Y-39.09
X84.43Y-71.39
X84.5Y-48.5
X84.5Y-80.8
X84.66Y-42.75
X84.66Y-75.05
X85.0Y-45.0
X85.0Y-77.3
X85.2Y-35.0
X85.2Y-67.3
X85.25Y-32.25
X85.25Y-64.55
X86.0Y-48.5
X86.0Y-80.8
X86.4Y-45.15
X86.4Y-77.45
X86.6Y-28.2
X86.6Y-60.5
X86.95Y-38.225
X86.95Y-70.525
X87.31Y-40.79
X87.31Y-73.09
X87.5Y-37.5
X87.5Y-69.8
X87.79Y-41.74
X87.79Y-74.04
X88.7Y-33.0
X88.7Y-34.4
X88.7Y-65.3
X88.7Y-66.7
X89.1Y-28.2
X89.1Y-60.5
X89.2Y-31.3
X89.2Y-63.6
X89.25Y-35.0
X89.25Y-67.3
X90.22Y-47.005
X90.22Y-79.305
X90.25Y-42.75
X90.25Y-75.05
X91.2Y-48.2
X91.2Y-80.5
X91.5Y-32.1
X91.5Y-64.4
X91.7Y-31.3
X91.7Y-35.2
X91.7Y-63.6
X91.7Y-67.5
X92.5Y-42.7
X92.5Y-44.75
X92.5Y-45.5
X92.5Y-46.25
X92.5Y-47.1
X92.5Y-75.0
X92.5Y-77.05
X92.5Y-77.8
X92.5Y-78.55
X92.5Y-79.4
X93.2Y-42.7
X93.2Y-75.0
X93.25Y-44.75
X93.25Y-45.5
X93.25Y-46.25
X93.25Y-77.05
X93.25Y-77.8
X93.25Y-78.55
X93.5Y-38.5
X93.5Y-70.8
X93.75Y-33.0
X93.75Y-33.75
X93.75Y-34.5
X93.75Y-35.25
X93.75Y-36.0
X93.75Y-37.0
X93.75Y-37.75
X93.75Y-39.25
X93.75Y-40.0
X93.75Y-40.75
X93.75Y-65.3
X93.75Y-66.05
X93.75Y-66.8
X93.75Y-67.55
X93.75Y-68.3
X93.75Y-69.3
X93.75Y-70.05
X93.75Y-71.55
X93.75Y-72.3
X93.75Y-73.05
X93.8Y-31.6
X93.8Y-32.3
X93.8Y-63.9
X93.8Y-64.6
X93.9Y-30.9
X93.9Y-41.4
X93.9Y-42.1
X93.9Y-42.7
X93.9Y-44.7
X93.9Y-63.2
X93.9Y-73.7
X93.9Y-74.4
X93.9Y-75.0
X93.9Y-77.0
T2
X43.75Y-32.25
X43.75Y-33.75
X43.75Y-64.55
X43.75Y-66.05
X43.817Y-37.462
X43.817Y-69.763
X46.0Y-33.2
X46.0Y-34.25
X46.0Y-65.5
X46.0Y-66.55
X48.25Y-27.75
X48.25Y-60.05
X89.25Y-32.25
X89.25Y-33.75
X89.25Y-64.55
X89.25Y-66.05
X89.317Y-37.462
X89.317Y-69.763
X91.5Y-33.2
X91.5Y-34.25
X91.5Y-65.5
X91.5Y-66.55
X93.75Y-27.75
X93.75Y-60.05
T3
X49.72Y-45.84
X49.72Y-78.14
X95.22Y-45.84
X95.22Y-78.14
T4
X19.46Y-29.45
X19.46Y-61.75
X22.0Y-29.45
X22.0Y-61.75
X23.65Y-51.35
X23.65Y-83.65
X24.54Y-29.45
X24.54Y-61.75
X26.19Y-51.35
X26.19Y-83.65
X27.08Y-29.45
X27.08Y-61.75
X28.73Y-51.35
X28.73Y-83.65
X29.62Y-29.45
X29.62Y-61.75
X31.27Y-51.35
X31.27Y-83.65
X32.16Y-29.45
X32.16Y-61.75
X34.7Y-29.45
X34.7Y-61.75
X37.24Y-29.45
X37.24Y-61.75
X39.78Y-29.45
X39.78Y-61.75
X42.32Y-29.45
X42.32Y-61.75
X44.86Y-29.45
X44.86Y-61.75
X47.4Y-29.45
X47.4Y-61.75
X64.96Y-29.45
X64.96Y-61.75
X67.5Y-29.45
X67.5Y-61.75
X69.15Y-51.35
X69.15Y-83.65
X70.04Y-29.45
X70.04Y-61.75
X71.69Y-51.35
X71.69Y-83.65
X72.58Y-29.45
X72.58Y-61.75
X74.23Y-51.35
X74.23Y-83.65
X75.12Y-29.45
X75.12Y-61.75
X76.77Y-51.35
X76.77Y-83.65
X77.66Y-29.45
X77.66Y-61.75
X80.2Y-29.45
X80.2Y-61.75
X82.74Y-29.45
X82.74Y-61.75
X85.28Y-29.45
X85.28Y-61.75
X87.82Y-29.45
X87.82Y-61.75
X90.36Y-29.45
X90.36Y-61.75
X92.9Y-29.45
X92.9Y-61.75
T0
M30
