G04 #@! TF.GenerationSoftware,KiCad,Pcbnew,6.0.7-f9a2dced07~116~ubuntu22.04.1*
G04 #@! TF.CreationDate,2022-09-03T23:27:29+10:00*
G04 #@! TF.ProjectId,panel,70616e65-6c2e-46b6-9963-61645f706362,rev?*
G04 #@! TF.SameCoordinates,Original*
G04 #@! TF.FileFunction,Profile,NP*
%FSLAX46Y46*%
G04 Gerber Fmt 4.6, Leading zero omitted, Abs format (unit mm)*
G04 Created by KiCad (PCBNEW 6.0.7-f9a2dced07~116~ubuntu22.04.1) date 2022-09-03 23:27:29*
%MOMM*%
%LPD*%
G01*
G04 APERTURE LIST*
G04 #@! TA.AperFunction,Profile*
%ADD10C,0.100000*%
G04 #@! TD*
G04 #@! TA.AperFunction,Profile*
%ADD11C,0.400000*%
G04 #@! TD*
%ADD12C,0.400000*%
G04 APERTURE END LIST*
D10*
X60500000Y-76000000D02*
X55500000Y-76000000D01*
X43875000Y-88600000D02*
X36750000Y-88600000D01*
X101000000Y-98600000D02*
X101000000Y-88600000D01*
X60500000Y-79000000D02*
X60500000Y-86600000D01*
X89375000Y-54300000D02*
X89375000Y-59300000D01*
X36750000Y-27000000D02*
X36750000Y-25000000D01*
X72125000Y-88600000D02*
X72125000Y-86600000D01*
X15000000Y-86600000D02*
X23625000Y-86600000D01*
X33750000Y-86600000D02*
X33750000Y-88600000D01*
X26625000Y-86600000D02*
X33750000Y-86600000D01*
X92375000Y-54300000D02*
X101000000Y-54300000D01*
D11*
X60500000Y-12000000D02*
X60500000Y-101600000D01*
D10*
X46875000Y-25000000D02*
X69125000Y-25000000D01*
D11*
X12000000Y-59300000D02*
X104000000Y-59300000D01*
D10*
X43875000Y-27000000D02*
X36750000Y-27000000D01*
X55500000Y-86600000D02*
X55500000Y-79000000D01*
X43875000Y-59300000D02*
X36750000Y-59300000D01*
X23625000Y-27000000D02*
X15000000Y-27000000D01*
X26625000Y-59300000D02*
X26625000Y-54300000D01*
X43875000Y-25000000D02*
X43875000Y-27000000D01*
X101000000Y-15000000D02*
X15000000Y-15000000D01*
X60500000Y-46700000D02*
X60500000Y-54300000D01*
X60500000Y-86600000D02*
X69125000Y-86600000D01*
X101000000Y-54300000D02*
X101000000Y-27000000D01*
X36750000Y-54300000D02*
X43875000Y-54300000D01*
X79250000Y-59300000D02*
X72125000Y-59300000D01*
X82250000Y-59300000D02*
X82250000Y-54300000D01*
X89375000Y-86600000D02*
X89375000Y-88600000D01*
X72125000Y-27000000D02*
X72125000Y-25000000D01*
X92375000Y-27000000D02*
X92375000Y-25000000D01*
X43875000Y-54300000D02*
X43875000Y-59300000D01*
X46875000Y-88600000D02*
X46875000Y-86600000D01*
X55500000Y-46700000D02*
X60500000Y-46700000D01*
X72125000Y-59300000D02*
X72125000Y-54300000D01*
X101000000Y-59300000D02*
X92375000Y-59300000D01*
X15000000Y-25000000D02*
X23625000Y-25000000D01*
X69125000Y-88600000D02*
X46875000Y-88600000D01*
X79250000Y-25000000D02*
X79250000Y-27000000D01*
X46875000Y-86600000D02*
X55500000Y-86600000D01*
X55500000Y-34600000D02*
X55500000Y-27000000D01*
X46875000Y-54300000D02*
X55500000Y-54300000D01*
X101000000Y-27000000D02*
X92375000Y-27000000D01*
X58000000Y-69900000D02*
X60500000Y-69900000D01*
X82250000Y-88600000D02*
X82250000Y-86600000D01*
X33750000Y-88600000D02*
X26625000Y-88600000D01*
X46875000Y-59300000D02*
X46875000Y-54300000D01*
X15000000Y-15000000D02*
X15000000Y-25000000D01*
X33750000Y-25000000D02*
X33750000Y-27000000D01*
X46875000Y-27000000D02*
X46875000Y-25000000D01*
X15000000Y-88600000D02*
X15000000Y-98600000D01*
X72125000Y-86600000D02*
X79250000Y-86600000D01*
X89375000Y-59300000D02*
X82250000Y-59300000D01*
X82250000Y-86600000D02*
X89375000Y-86600000D01*
X60500000Y-37600000D02*
X60500000Y-43700000D01*
X82250000Y-54300000D02*
X89375000Y-54300000D01*
X60500000Y-69900000D02*
X60500000Y-76000000D01*
X89375000Y-25000000D02*
X89375000Y-27000000D01*
X15000000Y-59300000D02*
X15000000Y-86600000D01*
X43875000Y-86600000D02*
X43875000Y-88600000D01*
X82250000Y-25000000D02*
X89375000Y-25000000D01*
X60500000Y-27000000D02*
X60500000Y-34600000D01*
X36750000Y-88600000D02*
X36750000Y-86600000D01*
X92375000Y-25000000D02*
X101000000Y-25000000D01*
X60500000Y-59300000D02*
X60500000Y-66900000D01*
X26625000Y-27000000D02*
X26625000Y-25000000D01*
X23625000Y-54300000D02*
X23625000Y-59300000D01*
X33750000Y-59300000D02*
X26625000Y-59300000D01*
X55500000Y-43700000D02*
X55500000Y-37600000D01*
X79250000Y-27000000D02*
X72125000Y-27000000D01*
X60500000Y-34600000D02*
X55500000Y-34600000D01*
X55500000Y-37600000D02*
X58000000Y-37600000D01*
X15000000Y-54300000D02*
X23625000Y-54300000D01*
X89375000Y-27000000D02*
X82250000Y-27000000D01*
X69125000Y-59300000D02*
X60500000Y-59300000D01*
X69125000Y-27000000D02*
X60500000Y-27000000D01*
X55500000Y-79000000D02*
X60500000Y-79000000D01*
X36750000Y-59300000D02*
X36750000Y-54300000D01*
X36750000Y-86600000D02*
X43875000Y-86600000D01*
X101000000Y-25000000D02*
X101000000Y-15000000D01*
X101000000Y-88600000D02*
X92375000Y-88600000D01*
X15000000Y-98600000D02*
X101000000Y-98600000D01*
X89375000Y-88600000D02*
X82250000Y-88600000D01*
D11*
X55500000Y-12000000D02*
X55500000Y-101600000D01*
D10*
X23625000Y-59300000D02*
X15000000Y-59300000D01*
X72125000Y-25000000D02*
X79250000Y-25000000D01*
X92375000Y-86600000D02*
X101000000Y-86600000D01*
X58000000Y-37600000D02*
X60500000Y-37600000D01*
X60500000Y-43700000D02*
X55500000Y-43700000D01*
X92375000Y-59300000D02*
X92375000Y-54300000D01*
X15000000Y-27000000D02*
X15000000Y-54300000D01*
X26625000Y-54300000D02*
X33750000Y-54300000D01*
X23625000Y-25000000D02*
X23625000Y-27000000D01*
X33750000Y-27000000D02*
X26625000Y-27000000D01*
X79250000Y-54300000D02*
X79250000Y-59300000D01*
X69125000Y-25000000D02*
X69125000Y-27000000D01*
X26625000Y-88600000D02*
X26625000Y-86600000D01*
X82250000Y-27000000D02*
X82250000Y-25000000D01*
X55500000Y-59300000D02*
X46875000Y-59300000D01*
X69125000Y-86600000D02*
X69125000Y-88600000D01*
X26625000Y-25000000D02*
X33750000Y-25000000D01*
X92375000Y-88600000D02*
X92375000Y-86600000D01*
D11*
X12000000Y-86600000D02*
X104000000Y-86600000D01*
X12000000Y-27000000D02*
X104000000Y-27000000D01*
D10*
X79250000Y-86600000D02*
X79250000Y-88600000D01*
X79250000Y-88600000D02*
X72125000Y-88600000D01*
X23625000Y-86600000D02*
X23625000Y-88600000D01*
X55500000Y-69900000D02*
X58000000Y-69900000D01*
D11*
X12000000Y-54300000D02*
X104000000Y-54300000D01*
D10*
X69125000Y-54300000D02*
X69125000Y-59300000D01*
X60500000Y-54300000D02*
X69125000Y-54300000D01*
X55500000Y-54300000D02*
X55500000Y-46700000D01*
X36750000Y-25000000D02*
X43875000Y-25000000D01*
X60500000Y-66900000D02*
X55500000Y-66900000D01*
X55500000Y-76000000D02*
X55500000Y-69900000D01*
X33750000Y-54300000D02*
X33750000Y-59300000D01*
X72125000Y-54300000D02*
X79250000Y-54300000D01*
X55500000Y-66900000D02*
X55500000Y-59300000D01*
X55500000Y-27000000D02*
X46875000Y-27000000D01*
X23625000Y-88600000D02*
X15000000Y-88600000D01*
X101000000Y-86600000D02*
X101000000Y-59300000D01*
D12*
X54404761Y-8549523D02*
X56404761Y-7882857D01*
X54404761Y-7216190D01*
X55642857Y-6549523D02*
X55642857Y-5025714D01*
X56214285Y-2930476D02*
X56309523Y-3025714D01*
X56404761Y-3311428D01*
X56404761Y-3501904D01*
X56309523Y-3787619D01*
X56119047Y-3978095D01*
X55928571Y-4073333D01*
X55547619Y-4168571D01*
X55261904Y-4168571D01*
X54880952Y-4073333D01*
X54690476Y-3978095D01*
X54500000Y-3787619D01*
X54404761Y-3501904D01*
X54404761Y-3311428D01*
X54500000Y-3025714D01*
X54595238Y-2930476D01*
X54404761Y-2073333D02*
X56023809Y-2073333D01*
X56214285Y-1978095D01*
X56309523Y-1882857D01*
X56404761Y-1692380D01*
X56404761Y-1311428D01*
X56309523Y-1120952D01*
X56214285Y-1025714D01*
X56023809Y-930476D01*
X54404761Y-930476D01*
X54404761Y-263809D02*
X54404761Y879047D01*
X56404761Y307619D02*
X54404761Y307619D01*
X107450476Y-58204761D02*
X108117142Y-60204761D01*
X108783809Y-58204761D01*
X109450476Y-59442857D02*
X110974285Y-59442857D01*
X113069523Y-60014285D02*
X112974285Y-60109523D01*
X112688571Y-60204761D01*
X112498095Y-60204761D01*
X112212380Y-60109523D01*
X112021904Y-59919047D01*
X111926666Y-59728571D01*
X111831428Y-59347619D01*
X111831428Y-59061904D01*
X111926666Y-58680952D01*
X112021904Y-58490476D01*
X112212380Y-58300000D01*
X112498095Y-58204761D01*
X112688571Y-58204761D01*
X112974285Y-58300000D01*
X113069523Y-58395238D01*
X113926666Y-58204761D02*
X113926666Y-59823809D01*
X114021904Y-60014285D01*
X114117142Y-60109523D01*
X114307619Y-60204761D01*
X114688571Y-60204761D01*
X114879047Y-60109523D01*
X114974285Y-60014285D01*
X115069523Y-59823809D01*
X115069523Y-58204761D01*
X115736190Y-58204761D02*
X116879047Y-58204761D01*
X116307619Y-60204761D02*
X116307619Y-58204761D01*
X59404761Y-8549523D02*
X61404761Y-7882857D01*
X59404761Y-7216190D01*
X60642857Y-6549523D02*
X60642857Y-5025714D01*
X61214285Y-2930476D02*
X61309523Y-3025714D01*
X61404761Y-3311428D01*
X61404761Y-3501904D01*
X61309523Y-3787619D01*
X61119047Y-3978095D01*
X60928571Y-4073333D01*
X60547619Y-4168571D01*
X60261904Y-4168571D01*
X59880952Y-4073333D01*
X59690476Y-3978095D01*
X59500000Y-3787619D01*
X59404761Y-3501904D01*
X59404761Y-3311428D01*
X59500000Y-3025714D01*
X59595238Y-2930476D01*
X59404761Y-2073333D02*
X61023809Y-2073333D01*
X61214285Y-1978095D01*
X61309523Y-1882857D01*
X61404761Y-1692380D01*
X61404761Y-1311428D01*
X61309523Y-1120952D01*
X61214285Y-1025714D01*
X61023809Y-930476D01*
X59404761Y-930476D01*
X59404761Y-263809D02*
X59404761Y879047D01*
X61404761Y307619D02*
X59404761Y307619D01*
X107450476Y-85504761D02*
X108117142Y-87504761D01*
X108783809Y-85504761D01*
X109450476Y-86742857D02*
X110974285Y-86742857D01*
X113069523Y-87314285D02*
X112974285Y-87409523D01*
X112688571Y-87504761D01*
X112498095Y-87504761D01*
X112212380Y-87409523D01*
X112021904Y-87219047D01*
X111926666Y-87028571D01*
X111831428Y-86647619D01*
X111831428Y-86361904D01*
X111926666Y-85980952D01*
X112021904Y-85790476D01*
X112212380Y-85600000D01*
X112498095Y-85504761D01*
X112688571Y-85504761D01*
X112974285Y-85600000D01*
X113069523Y-85695238D01*
X113926666Y-85504761D02*
X113926666Y-87123809D01*
X114021904Y-87314285D01*
X114117142Y-87409523D01*
X114307619Y-87504761D01*
X114688571Y-87504761D01*
X114879047Y-87409523D01*
X114974285Y-87314285D01*
X115069523Y-87123809D01*
X115069523Y-85504761D01*
X115736190Y-85504761D02*
X116879047Y-85504761D01*
X116307619Y-87504761D02*
X116307619Y-85504761D01*
X107450476Y-53204761D02*
X108117142Y-55204761D01*
X108783809Y-53204761D01*
X109450476Y-54442857D02*
X110974285Y-54442857D01*
X113069523Y-55014285D02*
X112974285Y-55109523D01*
X112688571Y-55204761D01*
X112498095Y-55204761D01*
X112212380Y-55109523D01*
X112021904Y-54919047D01*
X111926666Y-54728571D01*
X111831428Y-54347619D01*
X111831428Y-54061904D01*
X111926666Y-53680952D01*
X112021904Y-53490476D01*
X112212380Y-53300000D01*
X112498095Y-53204761D01*
X112688571Y-53204761D01*
X112974285Y-53300000D01*
X113069523Y-53395238D01*
X113926666Y-53204761D02*
X113926666Y-54823809D01*
X114021904Y-55014285D01*
X114117142Y-55109523D01*
X114307619Y-55204761D01*
X114688571Y-55204761D01*
X114879047Y-55109523D01*
X114974285Y-55014285D01*
X115069523Y-54823809D01*
X115069523Y-53204761D01*
X115736190Y-53204761D02*
X116879047Y-53204761D01*
X116307619Y-55204761D02*
X116307619Y-53204761D01*
X107450476Y-25904761D02*
X108117142Y-27904761D01*
X108783809Y-25904761D01*
X109450476Y-27142857D02*
X110974285Y-27142857D01*
X113069523Y-27714285D02*
X112974285Y-27809523D01*
X112688571Y-27904761D01*
X112498095Y-27904761D01*
X112212380Y-27809523D01*
X112021904Y-27619047D01*
X111926666Y-27428571D01*
X111831428Y-27047619D01*
X111831428Y-26761904D01*
X111926666Y-26380952D01*
X112021904Y-26190476D01*
X112212380Y-26000000D01*
X112498095Y-25904761D01*
X112688571Y-25904761D01*
X112974285Y-26000000D01*
X113069523Y-26095238D01*
X113926666Y-25904761D02*
X113926666Y-27523809D01*
X114021904Y-27714285D01*
X114117142Y-27809523D01*
X114307619Y-27904761D01*
X114688571Y-27904761D01*
X114879047Y-27809523D01*
X114974285Y-27714285D01*
X115069523Y-27523809D01*
X115069523Y-25904761D01*
X115736190Y-25904761D02*
X116879047Y-25904761D01*
X116307619Y-27904761D02*
X116307619Y-25904761D01*
M02*
