G04 #@! TF.GenerationSoftware,KiCad,Pcbnew,6.0.7-f9a2dced07~116~ubuntu22.04.1*
G04 #@! TF.CreationDate,2022-09-03T23:27:29+10:00*
G04 #@! TF.ProjectId,panel,70616e65-6c2e-46b6-9963-61645f706362,rev?*
G04 #@! TF.SameCoordinates,Original*
G04 #@! TF.FileFunction,Legend,Bot*
G04 #@! TF.FilePolarity,Positive*
%FSLAX46Y46*%
G04 Gerber Fmt 4.6, Leading zero omitted, Abs format (unit mm)*
G04 Created by KiCad (PCBNEW 6.0.7-f9a2dced07~116~ubuntu22.04.1) date 2022-09-03 23:27:29*
%MOMM*%
%LPD*%
G01*
G04 APERTURE LIST*
G04 Aperture macros list*
%AMRoundRect*
0 Rectangle with rounded corners*
0 $1 Rounding radius*
0 $2 $3 $4 $5 $6 $7 $8 $9 X,Y pos of 4 corners*
0 Add a 4 corners polygon primitive as box body*
4,1,4,$2,$3,$4,$5,$6,$7,$8,$9,$2,$3,0*
0 Add four circle primitives for the rounded corners*
1,1,$1+$1,$2,$3*
1,1,$1+$1,$4,$5*
1,1,$1+$1,$6,$7*
1,1,$1+$1,$8,$9*
0 Add four rect primitives between the rounded corners*
20,1,$1+$1,$2,$3,$4,$5,0*
20,1,$1+$1,$4,$5,$6,$7,0*
20,1,$1+$1,$6,$7,$8,$9,0*
20,1,$1+$1,$8,$9,$2,$3,0*%
G04 Aperture macros list end*
%ADD10C,0.160000*%
%ADD11C,0.150000*%
%ADD12C,0.120000*%
%ADD13C,3.000000*%
%ADD14R,1.700000X1.700000*%
%ADD15O,1.700000X1.700000*%
%ADD16RoundRect,0.237500X-0.237500X0.300000X-0.237500X-0.300000X0.237500X-0.300000X0.237500X0.300000X0*%
%ADD17C,1.000000*%
%ADD18RoundRect,0.237500X0.237500X-0.250000X0.237500X0.250000X-0.237500X0.250000X-0.237500X-0.250000X0*%
G04 APERTURE END LIST*
D10*
X93107285Y-32961142D02*
X93107285Y-32561142D01*
X92269190Y-32389714D02*
X92269190Y-32961142D01*
X93869190Y-32961142D01*
X93869190Y-32389714D01*
X92269190Y-31875428D02*
X93869190Y-31875428D01*
X92269190Y-31189714D01*
X93869190Y-31189714D01*
X91293190Y-31532571D02*
X91293190Y-31418285D01*
X91217000Y-31304000D01*
X91140809Y-31246857D01*
X90988428Y-31189714D01*
X90683666Y-31132571D01*
X90302714Y-31132571D01*
X89997952Y-31189714D01*
X89845571Y-31246857D01*
X89769380Y-31304000D01*
X89693190Y-31418285D01*
X89693190Y-31532571D01*
X89769380Y-31646857D01*
X89845571Y-31704000D01*
X89997952Y-31761142D01*
X90302714Y-31818285D01*
X90683666Y-31818285D01*
X90988428Y-31761142D01*
X91140809Y-31704000D01*
X91217000Y-31646857D01*
X91293190Y-31532571D01*
X87117190Y-32275428D02*
X87117190Y-32961142D01*
X87117190Y-32618285D02*
X88717190Y-32618285D01*
X88488619Y-32732571D01*
X88336238Y-32846857D01*
X88260047Y-32961142D01*
X88717190Y-31532571D02*
X88717190Y-31418285D01*
X88641000Y-31304000D01*
X88564809Y-31246857D01*
X88412428Y-31189714D01*
X88107666Y-31132571D01*
X87726714Y-31132571D01*
X87421952Y-31189714D01*
X87269571Y-31246857D01*
X87193380Y-31304000D01*
X87117190Y-31418285D01*
X87117190Y-31532571D01*
X87193380Y-31646857D01*
X87269571Y-31704000D01*
X87421952Y-31761142D01*
X87726714Y-31818285D01*
X88107666Y-31818285D01*
X88412428Y-31761142D01*
X88564809Y-31704000D01*
X88641000Y-31646857D01*
X88717190Y-31532571D01*
X84541190Y-32275428D02*
X84541190Y-32961142D01*
X84541190Y-32618285D02*
X86141190Y-32618285D01*
X85912619Y-32732571D01*
X85760238Y-32846857D01*
X85684047Y-32961142D01*
X84541190Y-31132571D02*
X84541190Y-31818285D01*
X84541190Y-31475428D02*
X86141190Y-31475428D01*
X85912619Y-31589714D01*
X85760238Y-31704000D01*
X85684047Y-31818285D01*
X81965190Y-32275428D02*
X81965190Y-32961142D01*
X81965190Y-32618285D02*
X83565190Y-32618285D01*
X83336619Y-32732571D01*
X83184238Y-32846857D01*
X83108047Y-32961142D01*
X83412809Y-31818285D02*
X83489000Y-31761142D01*
X83565190Y-31646857D01*
X83565190Y-31361142D01*
X83489000Y-31246857D01*
X83412809Y-31189714D01*
X83260428Y-31132571D01*
X83108047Y-31132571D01*
X82879476Y-31189714D01*
X81965190Y-31875428D01*
X81965190Y-31132571D01*
X79389190Y-32275428D02*
X79389190Y-32961142D01*
X79389190Y-32618285D02*
X80989190Y-32618285D01*
X80760619Y-32732571D01*
X80608238Y-32846857D01*
X80532047Y-32961142D01*
X80989190Y-31875428D02*
X80989190Y-31132571D01*
X80379666Y-31532571D01*
X80379666Y-31361142D01*
X80303476Y-31246857D01*
X80227285Y-31189714D01*
X80074904Y-31132571D01*
X79693952Y-31132571D01*
X79541571Y-31189714D01*
X79465380Y-31246857D01*
X79389190Y-31361142D01*
X79389190Y-31704000D01*
X79465380Y-31818285D01*
X79541571Y-31875428D01*
X78413190Y-34218285D02*
X76813190Y-33818285D01*
X78413190Y-33418285D01*
X76965571Y-32332571D02*
X76889380Y-32389714D01*
X76813190Y-32561142D01*
X76813190Y-32675428D01*
X76889380Y-32846857D01*
X77041761Y-32961142D01*
X77194142Y-33018285D01*
X77498904Y-33075428D01*
X77727476Y-33075428D01*
X78032238Y-33018285D01*
X78184619Y-32961142D01*
X78337000Y-32846857D01*
X78413190Y-32675428D01*
X78413190Y-32561142D01*
X78337000Y-32389714D01*
X78260809Y-32332571D01*
X76965571Y-31132571D02*
X76889380Y-31189714D01*
X76813190Y-31361142D01*
X76813190Y-31475428D01*
X76889380Y-31646857D01*
X77041761Y-31761142D01*
X77194142Y-31818285D01*
X77498904Y-31875428D01*
X77727476Y-31875428D01*
X78032238Y-31818285D01*
X78184619Y-31761142D01*
X78337000Y-31646857D01*
X78413190Y-31475428D01*
X78413190Y-31361142D01*
X78337000Y-31189714D01*
X78260809Y-31132571D01*
X75761000Y-33646857D02*
X75837190Y-33761142D01*
X75837190Y-33932571D01*
X75761000Y-34104000D01*
X75608619Y-34218285D01*
X75456238Y-34275428D01*
X75151476Y-34332571D01*
X74922904Y-34332571D01*
X74618142Y-34275428D01*
X74465761Y-34218285D01*
X74313380Y-34104000D01*
X74237190Y-33932571D01*
X74237190Y-33818285D01*
X74313380Y-33646857D01*
X74389571Y-33589714D01*
X74922904Y-33589714D01*
X74922904Y-33818285D01*
X74237190Y-33075428D02*
X75837190Y-33075428D01*
X74237190Y-32389714D01*
X75837190Y-32389714D01*
X74237190Y-31818285D02*
X75837190Y-31818285D01*
X75837190Y-31532571D01*
X75761000Y-31361142D01*
X75608619Y-31246857D01*
X75456238Y-31189714D01*
X75151476Y-31132571D01*
X74922904Y-31132571D01*
X74618142Y-31189714D01*
X74465761Y-31246857D01*
X74313380Y-31361142D01*
X74237190Y-31532571D01*
X74237190Y-31818285D01*
X71661190Y-32275428D02*
X71661190Y-32961142D01*
X71661190Y-32618285D02*
X73261190Y-32618285D01*
X73032619Y-32732571D01*
X72880238Y-32846857D01*
X72804047Y-32961142D01*
X72727857Y-31246857D02*
X71661190Y-31246857D01*
X73337380Y-31532571D02*
X72194523Y-31818285D01*
X72194523Y-31075428D01*
X69085190Y-32275428D02*
X69085190Y-32961142D01*
X69085190Y-32618285D02*
X70685190Y-32618285D01*
X70456619Y-32732571D01*
X70304238Y-32846857D01*
X70228047Y-32961142D01*
X70685190Y-31189714D02*
X70685190Y-31761142D01*
X69923285Y-31818285D01*
X69999476Y-31761142D01*
X70075666Y-31646857D01*
X70075666Y-31361142D01*
X69999476Y-31246857D01*
X69923285Y-31189714D01*
X69770904Y-31132571D01*
X69389952Y-31132571D01*
X69237571Y-31189714D01*
X69161380Y-31246857D01*
X69085190Y-31361142D01*
X69085190Y-31646857D01*
X69161380Y-31761142D01*
X69237571Y-31818285D01*
X66509190Y-32275428D02*
X66509190Y-32961142D01*
X66509190Y-32618285D02*
X68109190Y-32618285D01*
X67880619Y-32732571D01*
X67728238Y-32846857D01*
X67652047Y-32961142D01*
X66509190Y-31704000D02*
X66509190Y-31475428D01*
X66585380Y-31361142D01*
X66661571Y-31304000D01*
X66890142Y-31189714D01*
X67194904Y-31132571D01*
X67804428Y-31132571D01*
X67956809Y-31189714D01*
X68033000Y-31246857D01*
X68109190Y-31361142D01*
X68109190Y-31589714D01*
X68033000Y-31704000D01*
X67956809Y-31761142D01*
X67804428Y-31818285D01*
X67423476Y-31818285D01*
X67271095Y-31761142D01*
X67194904Y-31704000D01*
X67118714Y-31589714D01*
X67118714Y-31361142D01*
X67194904Y-31246857D01*
X67271095Y-31189714D01*
X67423476Y-31132571D01*
X65380809Y-32961142D02*
X65457000Y-32904000D01*
X65533190Y-32789714D01*
X65533190Y-32504000D01*
X65457000Y-32389714D01*
X65380809Y-32332571D01*
X65228428Y-32275428D01*
X65076047Y-32275428D01*
X64847476Y-32332571D01*
X63933190Y-33018285D01*
X63933190Y-32275428D01*
X65533190Y-31532571D02*
X65533190Y-31418285D01*
X65457000Y-31304000D01*
X65380809Y-31246857D01*
X65228428Y-31189714D01*
X64923666Y-31132571D01*
X64542714Y-31132571D01*
X64237952Y-31189714D01*
X64085571Y-31246857D01*
X64009380Y-31304000D01*
X63933190Y-31418285D01*
X63933190Y-31532571D01*
X64009380Y-31646857D01*
X64085571Y-31704000D01*
X64237952Y-31761142D01*
X64542714Y-31818285D01*
X64923666Y-31818285D01*
X65228428Y-31761142D01*
X65380809Y-31704000D01*
X65457000Y-31646857D01*
X65533190Y-31532571D01*
X96452380Y-33225000D02*
X95452380Y-33225000D01*
X95452380Y-33463095D01*
X95500000Y-33605952D01*
X95595238Y-33701190D01*
X95690476Y-33748809D01*
X95880952Y-33796428D01*
X96023809Y-33796428D01*
X96214285Y-33748809D01*
X96309523Y-33701190D01*
X96404761Y-33605952D01*
X96452380Y-33463095D01*
X96452380Y-33225000D01*
X96404761Y-34605952D02*
X96452380Y-34510714D01*
X96452380Y-34320238D01*
X96404761Y-34225000D01*
X96309523Y-34177380D01*
X95928571Y-34177380D01*
X95833333Y-34225000D01*
X95785714Y-34320238D01*
X95785714Y-34510714D01*
X95833333Y-34605952D01*
X95928571Y-34653571D01*
X96023809Y-34653571D01*
X96119047Y-34177380D01*
X96404761Y-35034523D02*
X96452380Y-35129761D01*
X96452380Y-35320238D01*
X96404761Y-35415476D01*
X96309523Y-35463095D01*
X96261904Y-35463095D01*
X96166666Y-35415476D01*
X96119047Y-35320238D01*
X96119047Y-35177380D01*
X96071428Y-35082142D01*
X95976190Y-35034523D01*
X95928571Y-35034523D01*
X95833333Y-35082142D01*
X95785714Y-35177380D01*
X95785714Y-35320238D01*
X95833333Y-35415476D01*
X96452380Y-35891666D02*
X95785714Y-35891666D01*
X95452380Y-35891666D02*
X95500000Y-35844047D01*
X95547619Y-35891666D01*
X95500000Y-35939285D01*
X95452380Y-35891666D01*
X95547619Y-35891666D01*
X95785714Y-36796428D02*
X96595238Y-36796428D01*
X96690476Y-36748809D01*
X96738095Y-36701190D01*
X96785714Y-36605952D01*
X96785714Y-36463095D01*
X96738095Y-36367857D01*
X96404761Y-36796428D02*
X96452380Y-36701190D01*
X96452380Y-36510714D01*
X96404761Y-36415476D01*
X96357142Y-36367857D01*
X96261904Y-36320238D01*
X95976190Y-36320238D01*
X95880952Y-36367857D01*
X95833333Y-36415476D01*
X95785714Y-36510714D01*
X95785714Y-36701190D01*
X95833333Y-36796428D01*
X95785714Y-37272619D02*
X96452380Y-37272619D01*
X95880952Y-37272619D02*
X95833333Y-37320238D01*
X95785714Y-37415476D01*
X95785714Y-37558333D01*
X95833333Y-37653571D01*
X95928571Y-37701190D01*
X96452380Y-37701190D01*
X96404761Y-38558333D02*
X96452380Y-38463095D01*
X96452380Y-38272619D01*
X96404761Y-38177380D01*
X96309523Y-38129761D01*
X95928571Y-38129761D01*
X95833333Y-38177380D01*
X95785714Y-38272619D01*
X95785714Y-38463095D01*
X95833333Y-38558333D01*
X95928571Y-38605952D01*
X96023809Y-38605952D01*
X96119047Y-38129761D01*
X96452380Y-39463095D02*
X95452380Y-39463095D01*
X96404761Y-39463095D02*
X96452380Y-39367857D01*
X96452380Y-39177380D01*
X96404761Y-39082142D01*
X96357142Y-39034523D01*
X96261904Y-38986904D01*
X95976190Y-38986904D01*
X95880952Y-39034523D01*
X95833333Y-39082142D01*
X95785714Y-39177380D01*
X95785714Y-39367857D01*
X95833333Y-39463095D01*
X96452380Y-40701190D02*
X95452380Y-40701190D01*
X95833333Y-40701190D02*
X95785714Y-40796428D01*
X95785714Y-40986904D01*
X95833333Y-41082142D01*
X95880952Y-41129761D01*
X95976190Y-41177380D01*
X96261904Y-41177380D01*
X96357142Y-41129761D01*
X96404761Y-41082142D01*
X96452380Y-40986904D01*
X96452380Y-40796428D01*
X96404761Y-40701190D01*
X95785714Y-41510714D02*
X96452380Y-41748809D01*
X95785714Y-41986904D02*
X96452380Y-41748809D01*
X96690476Y-41653571D01*
X96738095Y-41605952D01*
X96785714Y-41510714D01*
X95452380Y-43415476D02*
X96166666Y-43415476D01*
X96309523Y-43367857D01*
X96404761Y-43272619D01*
X96452380Y-43129761D01*
X96452380Y-43034523D01*
X96452380Y-44320238D02*
X95928571Y-44320238D01*
X95833333Y-44272619D01*
X95785714Y-44177380D01*
X95785714Y-43986904D01*
X95833333Y-43891666D01*
X96404761Y-44320238D02*
X96452380Y-44225000D01*
X96452380Y-43986904D01*
X96404761Y-43891666D01*
X96309523Y-43844047D01*
X96214285Y-43844047D01*
X96119047Y-43891666D01*
X96071428Y-43986904D01*
X96071428Y-44225000D01*
X96023809Y-44320238D01*
X96404761Y-45225000D02*
X96452380Y-45129761D01*
X96452380Y-44939285D01*
X96404761Y-44844047D01*
X96357142Y-44796428D01*
X96261904Y-44748809D01*
X95976190Y-44748809D01*
X95880952Y-44796428D01*
X95833333Y-44844047D01*
X95785714Y-44939285D01*
X95785714Y-45129761D01*
X95833333Y-45225000D01*
X96452380Y-45653571D02*
X95452380Y-45653571D01*
X96071428Y-45748809D02*
X96452380Y-46034523D01*
X95785714Y-46034523D02*
X96166666Y-45653571D01*
X96404761Y-46415476D02*
X96452380Y-46510714D01*
X96452380Y-46701190D01*
X96404761Y-46796428D01*
X96309523Y-46844047D01*
X96261904Y-46844047D01*
X96166666Y-46796428D01*
X96119047Y-46701190D01*
X96119047Y-46558333D01*
X96071428Y-46463095D01*
X95976190Y-46415476D01*
X95928571Y-46415476D01*
X95833333Y-46463095D01*
X95785714Y-46558333D01*
X95785714Y-46701190D01*
X95833333Y-46796428D01*
X96452380Y-47415476D02*
X96404761Y-47320238D01*
X96357142Y-47272619D01*
X96261904Y-47225000D01*
X95976190Y-47225000D01*
X95880952Y-47272619D01*
X95833333Y-47320238D01*
X95785714Y-47415476D01*
X95785714Y-47558333D01*
X95833333Y-47653571D01*
X95880952Y-47701190D01*
X95976190Y-47748809D01*
X96261904Y-47748809D01*
X96357142Y-47701190D01*
X96404761Y-47653571D01*
X96452380Y-47558333D01*
X96452380Y-47415476D01*
X95785714Y-48177380D02*
X96452380Y-48177380D01*
X95880952Y-48177380D02*
X95833333Y-48225000D01*
X95785714Y-48320238D01*
X95785714Y-48463095D01*
X95833333Y-48558333D01*
X95928571Y-48605952D01*
X96452380Y-48605952D01*
X96452380Y-49844047D02*
X95452380Y-49844047D01*
X96166666Y-50177380D01*
X95452380Y-50510714D01*
X96452380Y-50510714D01*
X96452380Y-51748809D02*
X95452380Y-51748809D01*
X95928571Y-51748809D02*
X95928571Y-52320238D01*
X96452380Y-52320238D02*
X95452380Y-52320238D01*
X95785714Y-53225000D02*
X96452380Y-53225000D01*
X95785714Y-52796428D02*
X96309523Y-52796428D01*
X96404761Y-52844047D01*
X96452380Y-52939285D01*
X96452380Y-53082142D01*
X96404761Y-53177380D01*
X96357142Y-53225000D01*
X47607285Y-32961142D02*
X47607285Y-32561142D01*
X46769190Y-32389714D02*
X46769190Y-32961142D01*
X48369190Y-32961142D01*
X48369190Y-32389714D01*
X46769190Y-31875428D02*
X48369190Y-31875428D01*
X46769190Y-31189714D01*
X48369190Y-31189714D01*
X45793190Y-31532571D02*
X45793190Y-31418285D01*
X45717000Y-31304000D01*
X45640809Y-31246857D01*
X45488428Y-31189714D01*
X45183666Y-31132571D01*
X44802714Y-31132571D01*
X44497952Y-31189714D01*
X44345571Y-31246857D01*
X44269380Y-31304000D01*
X44193190Y-31418285D01*
X44193190Y-31532571D01*
X44269380Y-31646857D01*
X44345571Y-31704000D01*
X44497952Y-31761142D01*
X44802714Y-31818285D01*
X45183666Y-31818285D01*
X45488428Y-31761142D01*
X45640809Y-31704000D01*
X45717000Y-31646857D01*
X45793190Y-31532571D01*
X41617190Y-32275428D02*
X41617190Y-32961142D01*
X41617190Y-32618285D02*
X43217190Y-32618285D01*
X42988619Y-32732571D01*
X42836238Y-32846857D01*
X42760047Y-32961142D01*
X43217190Y-31532571D02*
X43217190Y-31418285D01*
X43141000Y-31304000D01*
X43064809Y-31246857D01*
X42912428Y-31189714D01*
X42607666Y-31132571D01*
X42226714Y-31132571D01*
X41921952Y-31189714D01*
X41769571Y-31246857D01*
X41693380Y-31304000D01*
X41617190Y-31418285D01*
X41617190Y-31532571D01*
X41693380Y-31646857D01*
X41769571Y-31704000D01*
X41921952Y-31761142D01*
X42226714Y-31818285D01*
X42607666Y-31818285D01*
X42912428Y-31761142D01*
X43064809Y-31704000D01*
X43141000Y-31646857D01*
X43217190Y-31532571D01*
X39041190Y-32275428D02*
X39041190Y-32961142D01*
X39041190Y-32618285D02*
X40641190Y-32618285D01*
X40412619Y-32732571D01*
X40260238Y-32846857D01*
X40184047Y-32961142D01*
X39041190Y-31132571D02*
X39041190Y-31818285D01*
X39041190Y-31475428D02*
X40641190Y-31475428D01*
X40412619Y-31589714D01*
X40260238Y-31704000D01*
X40184047Y-31818285D01*
X36465190Y-32275428D02*
X36465190Y-32961142D01*
X36465190Y-32618285D02*
X38065190Y-32618285D01*
X37836619Y-32732571D01*
X37684238Y-32846857D01*
X37608047Y-32961142D01*
X37912809Y-31818285D02*
X37989000Y-31761142D01*
X38065190Y-31646857D01*
X38065190Y-31361142D01*
X37989000Y-31246857D01*
X37912809Y-31189714D01*
X37760428Y-31132571D01*
X37608047Y-31132571D01*
X37379476Y-31189714D01*
X36465190Y-31875428D01*
X36465190Y-31132571D01*
X33889190Y-32275428D02*
X33889190Y-32961142D01*
X33889190Y-32618285D02*
X35489190Y-32618285D01*
X35260619Y-32732571D01*
X35108238Y-32846857D01*
X35032047Y-32961142D01*
X35489190Y-31875428D02*
X35489190Y-31132571D01*
X34879666Y-31532571D01*
X34879666Y-31361142D01*
X34803476Y-31246857D01*
X34727285Y-31189714D01*
X34574904Y-31132571D01*
X34193952Y-31132571D01*
X34041571Y-31189714D01*
X33965380Y-31246857D01*
X33889190Y-31361142D01*
X33889190Y-31704000D01*
X33965380Y-31818285D01*
X34041571Y-31875428D01*
X32913190Y-34218285D02*
X31313190Y-33818285D01*
X32913190Y-33418285D01*
X31465571Y-32332571D02*
X31389380Y-32389714D01*
X31313190Y-32561142D01*
X31313190Y-32675428D01*
X31389380Y-32846857D01*
X31541761Y-32961142D01*
X31694142Y-33018285D01*
X31998904Y-33075428D01*
X32227476Y-33075428D01*
X32532238Y-33018285D01*
X32684619Y-32961142D01*
X32837000Y-32846857D01*
X32913190Y-32675428D01*
X32913190Y-32561142D01*
X32837000Y-32389714D01*
X32760809Y-32332571D01*
X31465571Y-31132571D02*
X31389380Y-31189714D01*
X31313190Y-31361142D01*
X31313190Y-31475428D01*
X31389380Y-31646857D01*
X31541761Y-31761142D01*
X31694142Y-31818285D01*
X31998904Y-31875428D01*
X32227476Y-31875428D01*
X32532238Y-31818285D01*
X32684619Y-31761142D01*
X32837000Y-31646857D01*
X32913190Y-31475428D01*
X32913190Y-31361142D01*
X32837000Y-31189714D01*
X32760809Y-31132571D01*
X30261000Y-33646857D02*
X30337190Y-33761142D01*
X30337190Y-33932571D01*
X30261000Y-34104000D01*
X30108619Y-34218285D01*
X29956238Y-34275428D01*
X29651476Y-34332571D01*
X29422904Y-34332571D01*
X29118142Y-34275428D01*
X28965761Y-34218285D01*
X28813380Y-34104000D01*
X28737190Y-33932571D01*
X28737190Y-33818285D01*
X28813380Y-33646857D01*
X28889571Y-33589714D01*
X29422904Y-33589714D01*
X29422904Y-33818285D01*
X28737190Y-33075428D02*
X30337190Y-33075428D01*
X28737190Y-32389714D01*
X30337190Y-32389714D01*
X28737190Y-31818285D02*
X30337190Y-31818285D01*
X30337190Y-31532571D01*
X30261000Y-31361142D01*
X30108619Y-31246857D01*
X29956238Y-31189714D01*
X29651476Y-31132571D01*
X29422904Y-31132571D01*
X29118142Y-31189714D01*
X28965761Y-31246857D01*
X28813380Y-31361142D01*
X28737190Y-31532571D01*
X28737190Y-31818285D01*
X26161190Y-32275428D02*
X26161190Y-32961142D01*
X26161190Y-32618285D02*
X27761190Y-32618285D01*
X27532619Y-32732571D01*
X27380238Y-32846857D01*
X27304047Y-32961142D01*
X27227857Y-31246857D02*
X26161190Y-31246857D01*
X27837380Y-31532571D02*
X26694523Y-31818285D01*
X26694523Y-31075428D01*
X23585190Y-32275428D02*
X23585190Y-32961142D01*
X23585190Y-32618285D02*
X25185190Y-32618285D01*
X24956619Y-32732571D01*
X24804238Y-32846857D01*
X24728047Y-32961142D01*
X25185190Y-31189714D02*
X25185190Y-31761142D01*
X24423285Y-31818285D01*
X24499476Y-31761142D01*
X24575666Y-31646857D01*
X24575666Y-31361142D01*
X24499476Y-31246857D01*
X24423285Y-31189714D01*
X24270904Y-31132571D01*
X23889952Y-31132571D01*
X23737571Y-31189714D01*
X23661380Y-31246857D01*
X23585190Y-31361142D01*
X23585190Y-31646857D01*
X23661380Y-31761142D01*
X23737571Y-31818285D01*
X21009190Y-32275428D02*
X21009190Y-32961142D01*
X21009190Y-32618285D02*
X22609190Y-32618285D01*
X22380619Y-32732571D01*
X22228238Y-32846857D01*
X22152047Y-32961142D01*
X21009190Y-31704000D02*
X21009190Y-31475428D01*
X21085380Y-31361142D01*
X21161571Y-31304000D01*
X21390142Y-31189714D01*
X21694904Y-31132571D01*
X22304428Y-31132571D01*
X22456809Y-31189714D01*
X22533000Y-31246857D01*
X22609190Y-31361142D01*
X22609190Y-31589714D01*
X22533000Y-31704000D01*
X22456809Y-31761142D01*
X22304428Y-31818285D01*
X21923476Y-31818285D01*
X21771095Y-31761142D01*
X21694904Y-31704000D01*
X21618714Y-31589714D01*
X21618714Y-31361142D01*
X21694904Y-31246857D01*
X21771095Y-31189714D01*
X21923476Y-31132571D01*
X19880809Y-32961142D02*
X19957000Y-32904000D01*
X20033190Y-32789714D01*
X20033190Y-32504000D01*
X19957000Y-32389714D01*
X19880809Y-32332571D01*
X19728428Y-32275428D01*
X19576047Y-32275428D01*
X19347476Y-32332571D01*
X18433190Y-33018285D01*
X18433190Y-32275428D01*
X20033190Y-31532571D02*
X20033190Y-31418285D01*
X19957000Y-31304000D01*
X19880809Y-31246857D01*
X19728428Y-31189714D01*
X19423666Y-31132571D01*
X19042714Y-31132571D01*
X18737952Y-31189714D01*
X18585571Y-31246857D01*
X18509380Y-31304000D01*
X18433190Y-31418285D01*
X18433190Y-31532571D01*
X18509380Y-31646857D01*
X18585571Y-31704000D01*
X18737952Y-31761142D01*
X19042714Y-31818285D01*
X19423666Y-31818285D01*
X19728428Y-31761142D01*
X19880809Y-31704000D01*
X19957000Y-31646857D01*
X20033190Y-31532571D01*
X61797380Y-35252809D02*
X62511666Y-35252809D01*
X62654523Y-35205190D01*
X62749761Y-35109952D01*
X62797380Y-34967095D01*
X62797380Y-34871857D01*
X62130714Y-36157571D02*
X62797380Y-36157571D01*
X62130714Y-35729000D02*
X62654523Y-35729000D01*
X62749761Y-35776619D01*
X62797380Y-35871857D01*
X62797380Y-36014714D01*
X62749761Y-36109952D01*
X62702142Y-36157571D01*
X62797380Y-36633761D02*
X62130714Y-36633761D01*
X62225952Y-36633761D02*
X62178333Y-36681380D01*
X62130714Y-36776619D01*
X62130714Y-36919476D01*
X62178333Y-37014714D01*
X62273571Y-37062333D01*
X62797380Y-37062333D01*
X62273571Y-37062333D02*
X62178333Y-37109952D01*
X62130714Y-37205190D01*
X62130714Y-37348047D01*
X62178333Y-37443285D01*
X62273571Y-37490904D01*
X62797380Y-37490904D01*
X62797380Y-37967095D02*
X61797380Y-37967095D01*
X62178333Y-37967095D02*
X62130714Y-38062333D01*
X62130714Y-38252809D01*
X62178333Y-38348047D01*
X62225952Y-38395666D01*
X62321190Y-38443285D01*
X62606904Y-38443285D01*
X62702142Y-38395666D01*
X62749761Y-38348047D01*
X62797380Y-38252809D01*
X62797380Y-38062333D01*
X62749761Y-37967095D01*
X62797380Y-39014714D02*
X62749761Y-38919476D01*
X62702142Y-38871857D01*
X62606904Y-38824238D01*
X62321190Y-38824238D01*
X62225952Y-38871857D01*
X62178333Y-38919476D01*
X62130714Y-39014714D01*
X62130714Y-39157571D01*
X62178333Y-39252809D01*
X62225952Y-39300428D01*
X62321190Y-39348047D01*
X62606904Y-39348047D01*
X62702142Y-39300428D01*
X62749761Y-39252809D01*
X62797380Y-39157571D01*
X62797380Y-39014714D01*
X62273571Y-40538523D02*
X62273571Y-40871857D01*
X62797380Y-41014714D02*
X62797380Y-40538523D01*
X61797380Y-40538523D01*
X61797380Y-41014714D01*
X62749761Y-41395666D02*
X62797380Y-41538523D01*
X62797380Y-41776619D01*
X62749761Y-41871857D01*
X62702142Y-41919476D01*
X62606904Y-41967095D01*
X62511666Y-41967095D01*
X62416428Y-41919476D01*
X62368809Y-41871857D01*
X62321190Y-41776619D01*
X62273571Y-41586142D01*
X62225952Y-41490904D01*
X62178333Y-41443285D01*
X62083095Y-41395666D01*
X61987857Y-41395666D01*
X61892619Y-41443285D01*
X61845000Y-41490904D01*
X61797380Y-41586142D01*
X61797380Y-41824238D01*
X61845000Y-41967095D01*
X62797380Y-42395666D02*
X61797380Y-42395666D01*
X61797380Y-42776619D01*
X61845000Y-42871857D01*
X61892619Y-42919476D01*
X61987857Y-42967095D01*
X62130714Y-42967095D01*
X62225952Y-42919476D01*
X62273571Y-42871857D01*
X62321190Y-42776619D01*
X62321190Y-42395666D01*
X61797380Y-43300428D02*
X61797380Y-43919476D01*
X62178333Y-43586142D01*
X62178333Y-43729000D01*
X62225952Y-43824238D01*
X62273571Y-43871857D01*
X62368809Y-43919476D01*
X62606904Y-43919476D01*
X62702142Y-43871857D01*
X62749761Y-43824238D01*
X62797380Y-43729000D01*
X62797380Y-43443285D01*
X62749761Y-43348047D01*
X62702142Y-43300428D01*
X61892619Y-44300428D02*
X61845000Y-44348047D01*
X61797380Y-44443285D01*
X61797380Y-44681380D01*
X61845000Y-44776619D01*
X61892619Y-44824238D01*
X61987857Y-44871857D01*
X62083095Y-44871857D01*
X62225952Y-44824238D01*
X62797380Y-44252809D01*
X62797380Y-44871857D01*
X63883571Y-34967095D02*
X63883571Y-35300428D01*
X64407380Y-35443285D02*
X64407380Y-34967095D01*
X63407380Y-34967095D01*
X63407380Y-35443285D01*
X64359761Y-35824238D02*
X64407380Y-35967095D01*
X64407380Y-36205190D01*
X64359761Y-36300428D01*
X64312142Y-36348047D01*
X64216904Y-36395666D01*
X64121666Y-36395666D01*
X64026428Y-36348047D01*
X63978809Y-36300428D01*
X63931190Y-36205190D01*
X63883571Y-36014714D01*
X63835952Y-35919476D01*
X63788333Y-35871857D01*
X63693095Y-35824238D01*
X63597857Y-35824238D01*
X63502619Y-35871857D01*
X63455000Y-35919476D01*
X63407380Y-36014714D01*
X63407380Y-36252809D01*
X63455000Y-36395666D01*
X64407380Y-36824238D02*
X63407380Y-36824238D01*
X63407380Y-37205190D01*
X63455000Y-37300428D01*
X63502619Y-37348047D01*
X63597857Y-37395666D01*
X63740714Y-37395666D01*
X63835952Y-37348047D01*
X63883571Y-37300428D01*
X63931190Y-37205190D01*
X63931190Y-36824238D01*
X63407380Y-37729000D02*
X63407380Y-38348047D01*
X63788333Y-38014714D01*
X63788333Y-38157571D01*
X63835952Y-38252809D01*
X63883571Y-38300428D01*
X63978809Y-38348047D01*
X64216904Y-38348047D01*
X64312142Y-38300428D01*
X64359761Y-38252809D01*
X64407380Y-38157571D01*
X64407380Y-37871857D01*
X64359761Y-37776619D01*
X64312142Y-37729000D01*
X63502619Y-38728999D02*
X63455000Y-38776619D01*
X63407380Y-38871857D01*
X63407380Y-39109952D01*
X63455000Y-39205190D01*
X63502619Y-39252809D01*
X63597857Y-39300428D01*
X63693095Y-39300428D01*
X63835952Y-39252809D01*
X64407380Y-38681380D01*
X64407380Y-39300428D01*
X64359761Y-39681380D02*
X64407380Y-39824238D01*
X64407380Y-40062333D01*
X64359761Y-40157571D01*
X64312142Y-40205190D01*
X64216904Y-40252809D01*
X64121666Y-40252809D01*
X64026428Y-40205190D01*
X63978809Y-40157571D01*
X63931190Y-40062333D01*
X63883571Y-39871857D01*
X63835952Y-39776619D01*
X63788333Y-39728999D01*
X63693095Y-39681380D01*
X63597857Y-39681380D01*
X63502619Y-39728999D01*
X63455000Y-39776619D01*
X63407380Y-39871857D01*
X63407380Y-40109952D01*
X63455000Y-40252809D01*
X63407380Y-40586142D02*
X63407380Y-41205190D01*
X63788333Y-40871857D01*
X63788333Y-41014714D01*
X63835952Y-41109952D01*
X63883571Y-41157571D01*
X63978809Y-41205190D01*
X64216904Y-41205190D01*
X64312142Y-41157571D01*
X64359761Y-41109952D01*
X64407380Y-41014714D01*
X64407380Y-40728999D01*
X64359761Y-40633761D01*
X64312142Y-40586142D01*
X64407380Y-43205190D02*
X64407380Y-43157571D01*
X64359761Y-43062333D01*
X64216904Y-42919476D01*
X63931190Y-42681380D01*
X63788333Y-42586142D01*
X63645476Y-42538523D01*
X63550238Y-42538523D01*
X63455000Y-42586142D01*
X63407380Y-42681380D01*
X63407380Y-42728999D01*
X63455000Y-42824238D01*
X63550238Y-42871857D01*
X63597857Y-42871857D01*
X63693095Y-42824238D01*
X63740714Y-42776619D01*
X63931190Y-42490904D01*
X63978809Y-42443285D01*
X64074047Y-42395666D01*
X64216904Y-42395666D01*
X64312142Y-42443285D01*
X64359761Y-42490904D01*
X64407380Y-42586142D01*
X64407380Y-42728999D01*
X64359761Y-42824238D01*
X64312142Y-42871857D01*
X64121666Y-43014714D01*
X63978809Y-43062333D01*
X63883571Y-43062333D01*
X64121666Y-44348047D02*
X64121666Y-44824238D01*
X64407380Y-44252809D02*
X63407380Y-44586142D01*
X64407380Y-44919476D01*
X64407380Y-45252809D02*
X63407380Y-45252809D01*
X63407380Y-45633761D01*
X63455000Y-45728999D01*
X63502619Y-45776619D01*
X63597857Y-45824238D01*
X63740714Y-45824238D01*
X63835952Y-45776619D01*
X63883571Y-45728999D01*
X63931190Y-45633761D01*
X63931190Y-45252809D01*
X64359761Y-46205190D02*
X64407380Y-46348047D01*
X64407380Y-46586142D01*
X64359761Y-46681380D01*
X64312142Y-46728999D01*
X64216904Y-46776619D01*
X64121666Y-46776619D01*
X64026428Y-46728999D01*
X63978809Y-46681380D01*
X63931190Y-46586142D01*
X63883571Y-46395666D01*
X63835952Y-46300428D01*
X63788333Y-46252809D01*
X63693095Y-46205190D01*
X63597857Y-46205190D01*
X63502619Y-46252809D01*
X63455000Y-46300428D01*
X63407380Y-46395666D01*
X63407380Y-46633761D01*
X63455000Y-46776619D01*
X64407380Y-47728999D02*
X64407380Y-47157571D01*
X64407380Y-47443285D02*
X63407380Y-47443285D01*
X63550238Y-47348047D01*
X63645476Y-47252809D01*
X63693095Y-47157571D01*
X63502619Y-48109952D02*
X63455000Y-48157571D01*
X63407380Y-48252809D01*
X63407380Y-48490904D01*
X63455000Y-48586142D01*
X63502619Y-48633761D01*
X63597857Y-48681380D01*
X63693095Y-48681380D01*
X63835952Y-48633761D01*
X64407380Y-48062333D01*
X64407380Y-48681380D01*
X63835952Y-49252809D02*
X63788333Y-49157571D01*
X63740714Y-49109952D01*
X63645476Y-49062333D01*
X63597857Y-49062333D01*
X63502619Y-49109952D01*
X63455000Y-49157571D01*
X63407380Y-49252809D01*
X63407380Y-49443285D01*
X63455000Y-49538523D01*
X63502619Y-49586142D01*
X63597857Y-49633761D01*
X63645476Y-49633761D01*
X63740714Y-49586142D01*
X63788333Y-49538523D01*
X63835952Y-49443285D01*
X63835952Y-49252809D01*
X63883571Y-49157571D01*
X63931190Y-49109952D01*
X64026428Y-49062333D01*
X64216904Y-49062333D01*
X64312142Y-49109952D01*
X64359761Y-49157571D01*
X64407380Y-49252809D01*
X64407380Y-49443285D01*
X64359761Y-49538523D01*
X64312142Y-49586142D01*
X64216904Y-49633761D01*
X64026428Y-49633761D01*
X63931190Y-49586142D01*
X63883571Y-49538523D01*
X63835952Y-49443285D01*
X63407380Y-50252809D02*
X63407380Y-50348047D01*
X63455000Y-50443285D01*
X63502619Y-50490904D01*
X63597857Y-50538523D01*
X63788333Y-50586142D01*
X64026428Y-50586142D01*
X64216904Y-50538523D01*
X64312142Y-50490904D01*
X64359761Y-50443285D01*
X64407380Y-50348047D01*
X64407380Y-50252809D01*
X64359761Y-50157571D01*
X64312142Y-50109952D01*
X64216904Y-50062333D01*
X64026428Y-50014714D01*
X63788333Y-50014714D01*
X63597857Y-50062333D01*
X63502619Y-50109952D01*
X63455000Y-50157571D01*
X63407380Y-50252809D01*
X63835952Y-51157571D02*
X63788333Y-51062333D01*
X63740714Y-51014714D01*
X63645476Y-50967095D01*
X63597857Y-50967095D01*
X63502619Y-51014714D01*
X63455000Y-51062333D01*
X63407380Y-51157571D01*
X63407380Y-51348047D01*
X63455000Y-51443285D01*
X63502619Y-51490904D01*
X63597857Y-51538523D01*
X63645476Y-51538523D01*
X63740714Y-51490904D01*
X63788333Y-51443285D01*
X63835952Y-51348047D01*
X63835952Y-51157571D01*
X63883571Y-51062333D01*
X63931190Y-51014714D01*
X64026428Y-50967095D01*
X64216904Y-50967095D01*
X64312142Y-51014714D01*
X64359761Y-51062333D01*
X64407380Y-51157571D01*
X64407380Y-51348047D01*
X64359761Y-51443285D01*
X64312142Y-51490904D01*
X64216904Y-51538523D01*
X64026428Y-51538523D01*
X63931190Y-51490904D01*
X63883571Y-51443285D01*
X63835952Y-51348047D01*
X50952380Y-33225000D02*
X49952380Y-33225000D01*
X49952380Y-33463095D01*
X50000000Y-33605952D01*
X50095238Y-33701190D01*
X50190476Y-33748809D01*
X50380952Y-33796428D01*
X50523809Y-33796428D01*
X50714285Y-33748809D01*
X50809523Y-33701190D01*
X50904761Y-33605952D01*
X50952380Y-33463095D01*
X50952380Y-33225000D01*
X50904761Y-34605952D02*
X50952380Y-34510714D01*
X50952380Y-34320238D01*
X50904761Y-34225000D01*
X50809523Y-34177380D01*
X50428571Y-34177380D01*
X50333333Y-34225000D01*
X50285714Y-34320238D01*
X50285714Y-34510714D01*
X50333333Y-34605952D01*
X50428571Y-34653571D01*
X50523809Y-34653571D01*
X50619047Y-34177380D01*
X50904761Y-35034523D02*
X50952380Y-35129761D01*
X50952380Y-35320238D01*
X50904761Y-35415476D01*
X50809523Y-35463095D01*
X50761904Y-35463095D01*
X50666666Y-35415476D01*
X50619047Y-35320238D01*
X50619047Y-35177380D01*
X50571428Y-35082142D01*
X50476190Y-35034523D01*
X50428571Y-35034523D01*
X50333333Y-35082142D01*
X50285714Y-35177380D01*
X50285714Y-35320238D01*
X50333333Y-35415476D01*
X50952380Y-35891666D02*
X50285714Y-35891666D01*
X49952380Y-35891666D02*
X50000000Y-35844047D01*
X50047619Y-35891666D01*
X50000000Y-35939285D01*
X49952380Y-35891666D01*
X50047619Y-35891666D01*
X50285714Y-36796428D02*
X51095238Y-36796428D01*
X51190476Y-36748809D01*
X51238095Y-36701190D01*
X51285714Y-36605952D01*
X51285714Y-36463095D01*
X51238095Y-36367857D01*
X50904761Y-36796428D02*
X50952380Y-36701190D01*
X50952380Y-36510714D01*
X50904761Y-36415476D01*
X50857142Y-36367857D01*
X50761904Y-36320238D01*
X50476190Y-36320238D01*
X50380952Y-36367857D01*
X50333333Y-36415476D01*
X50285714Y-36510714D01*
X50285714Y-36701190D01*
X50333333Y-36796428D01*
X50285714Y-37272619D02*
X50952380Y-37272619D01*
X50380952Y-37272619D02*
X50333333Y-37320238D01*
X50285714Y-37415476D01*
X50285714Y-37558333D01*
X50333333Y-37653571D01*
X50428571Y-37701190D01*
X50952380Y-37701190D01*
X50904761Y-38558333D02*
X50952380Y-38463095D01*
X50952380Y-38272619D01*
X50904761Y-38177380D01*
X50809523Y-38129761D01*
X50428571Y-38129761D01*
X50333333Y-38177380D01*
X50285714Y-38272619D01*
X50285714Y-38463095D01*
X50333333Y-38558333D01*
X50428571Y-38605952D01*
X50523809Y-38605952D01*
X50619047Y-38129761D01*
X50952380Y-39463095D02*
X49952380Y-39463095D01*
X50904761Y-39463095D02*
X50952380Y-39367857D01*
X50952380Y-39177380D01*
X50904761Y-39082142D01*
X50857142Y-39034523D01*
X50761904Y-38986904D01*
X50476190Y-38986904D01*
X50380952Y-39034523D01*
X50333333Y-39082142D01*
X50285714Y-39177380D01*
X50285714Y-39367857D01*
X50333333Y-39463095D01*
X50952380Y-40701190D02*
X49952380Y-40701190D01*
X50333333Y-40701190D02*
X50285714Y-40796428D01*
X50285714Y-40986904D01*
X50333333Y-41082142D01*
X50380952Y-41129761D01*
X50476190Y-41177380D01*
X50761904Y-41177380D01*
X50857142Y-41129761D01*
X50904761Y-41082142D01*
X50952380Y-40986904D01*
X50952380Y-40796428D01*
X50904761Y-40701190D01*
X50285714Y-41510714D02*
X50952380Y-41748809D01*
X50285714Y-41986904D02*
X50952380Y-41748809D01*
X51190476Y-41653571D01*
X51238095Y-41605952D01*
X51285714Y-41510714D01*
X49952380Y-43415476D02*
X50666666Y-43415476D01*
X50809523Y-43367857D01*
X50904761Y-43272619D01*
X50952380Y-43129761D01*
X50952380Y-43034523D01*
X50952380Y-44320238D02*
X50428571Y-44320238D01*
X50333333Y-44272619D01*
X50285714Y-44177380D01*
X50285714Y-43986904D01*
X50333333Y-43891666D01*
X50904761Y-44320238D02*
X50952380Y-44224999D01*
X50952380Y-43986904D01*
X50904761Y-43891666D01*
X50809523Y-43844047D01*
X50714285Y-43844047D01*
X50619047Y-43891666D01*
X50571428Y-43986904D01*
X50571428Y-44224999D01*
X50523809Y-44320238D01*
X50904761Y-45224999D02*
X50952380Y-45129761D01*
X50952380Y-44939285D01*
X50904761Y-44844047D01*
X50857142Y-44796428D01*
X50761904Y-44748809D01*
X50476190Y-44748809D01*
X50380952Y-44796428D01*
X50333333Y-44844047D01*
X50285714Y-44939285D01*
X50285714Y-45129761D01*
X50333333Y-45224999D01*
X50952380Y-45653571D02*
X49952380Y-45653571D01*
X50571428Y-45748809D02*
X50952380Y-46034523D01*
X50285714Y-46034523D02*
X50666666Y-45653571D01*
X50904761Y-46415476D02*
X50952380Y-46510714D01*
X50952380Y-46701190D01*
X50904761Y-46796428D01*
X50809523Y-46844047D01*
X50761904Y-46844047D01*
X50666666Y-46796428D01*
X50619047Y-46701190D01*
X50619047Y-46558333D01*
X50571428Y-46463095D01*
X50476190Y-46415476D01*
X50428571Y-46415476D01*
X50333333Y-46463095D01*
X50285714Y-46558333D01*
X50285714Y-46701190D01*
X50333333Y-46796428D01*
X50952380Y-47415476D02*
X50904761Y-47320238D01*
X50857142Y-47272619D01*
X50761904Y-47224999D01*
X50476190Y-47224999D01*
X50380952Y-47272619D01*
X50333333Y-47320238D01*
X50285714Y-47415476D01*
X50285714Y-47558333D01*
X50333333Y-47653571D01*
X50380952Y-47701190D01*
X50476190Y-47748809D01*
X50761904Y-47748809D01*
X50857142Y-47701190D01*
X50904761Y-47653571D01*
X50952380Y-47558333D01*
X50952380Y-47415476D01*
X50285714Y-48177380D02*
X50952380Y-48177380D01*
X50380952Y-48177380D02*
X50333333Y-48224999D01*
X50285714Y-48320238D01*
X50285714Y-48463095D01*
X50333333Y-48558333D01*
X50428571Y-48605952D01*
X50952380Y-48605952D01*
X50952380Y-49844047D02*
X49952380Y-49844047D01*
X50666666Y-50177380D01*
X49952380Y-50510714D01*
X50952380Y-50510714D01*
X50952380Y-51748809D02*
X49952380Y-51748809D01*
X50428571Y-51748809D02*
X50428571Y-52320238D01*
X50952380Y-52320238D02*
X49952380Y-52320238D01*
X50285714Y-53224999D02*
X50952380Y-53224999D01*
X50285714Y-52796428D02*
X50809523Y-52796428D01*
X50904761Y-52844047D01*
X50952380Y-52939285D01*
X50952380Y-53082142D01*
X50904761Y-53177380D01*
X50857142Y-53224999D01*
X98102380Y-40625000D02*
X97626190Y-40291666D01*
X98102380Y-40053571D02*
X97102380Y-40053571D01*
X97102380Y-40434523D01*
X97150000Y-40529761D01*
X97197619Y-40577380D01*
X97292857Y-40625000D01*
X97435714Y-40625000D01*
X97530952Y-40577380D01*
X97578571Y-40529761D01*
X97626190Y-40434523D01*
X97626190Y-40053571D01*
X98054761Y-41434523D02*
X98102380Y-41339285D01*
X98102380Y-41148809D01*
X98054761Y-41053571D01*
X97959523Y-41005952D01*
X97578571Y-41005952D01*
X97483333Y-41053571D01*
X97435714Y-41148809D01*
X97435714Y-41339285D01*
X97483333Y-41434523D01*
X97578571Y-41482142D01*
X97673809Y-41482142D01*
X97769047Y-41005952D01*
X97435714Y-41815476D02*
X98102380Y-42053571D01*
X97435714Y-42291666D01*
X98007142Y-42672619D02*
X98054761Y-42720238D01*
X98102380Y-42672619D01*
X98054761Y-42625000D01*
X98007142Y-42672619D01*
X98102380Y-42672619D01*
X98102380Y-44434523D02*
X98102380Y-43863095D01*
X98102380Y-44148809D02*
X97102380Y-44148809D01*
X97245238Y-44053571D01*
X97340476Y-43958333D01*
X97388095Y-43863095D01*
X98054761Y-46339285D02*
X98102380Y-46482142D01*
X98102380Y-46720238D01*
X98054761Y-46815476D01*
X98007142Y-46863095D01*
X97911904Y-46910714D01*
X97816666Y-46910714D01*
X97721428Y-46863095D01*
X97673809Y-46815476D01*
X97626190Y-46720238D01*
X97578571Y-46529761D01*
X97530952Y-46434523D01*
X97483333Y-46386904D01*
X97388095Y-46339285D01*
X97292857Y-46339285D01*
X97197619Y-46386904D01*
X97150000Y-46434523D01*
X97102380Y-46529761D01*
X97102380Y-46767857D01*
X97150000Y-46910714D01*
X98054761Y-47720238D02*
X98102380Y-47624999D01*
X98102380Y-47434523D01*
X98054761Y-47339285D01*
X97959523Y-47291666D01*
X97578571Y-47291666D01*
X97483333Y-47339285D01*
X97435714Y-47434523D01*
X97435714Y-47624999D01*
X97483333Y-47720238D01*
X97578571Y-47767857D01*
X97673809Y-47767857D01*
X97769047Y-47291666D01*
X97435714Y-48196428D02*
X98435714Y-48196428D01*
X97483333Y-48196428D02*
X97435714Y-48291666D01*
X97435714Y-48482142D01*
X97483333Y-48577380D01*
X97530952Y-48624999D01*
X97626190Y-48672619D01*
X97911904Y-48672619D01*
X98007142Y-48624999D01*
X98054761Y-48577380D01*
X98102380Y-48482142D01*
X98102380Y-48291666D01*
X98054761Y-48196428D01*
X97197619Y-49815476D02*
X97150000Y-49863095D01*
X97102380Y-49958333D01*
X97102380Y-50196428D01*
X97150000Y-50291666D01*
X97197619Y-50339285D01*
X97292857Y-50386904D01*
X97388095Y-50386904D01*
X97530952Y-50339285D01*
X98102380Y-49767857D01*
X98102380Y-50386904D01*
X97102380Y-51005952D02*
X97102380Y-51101190D01*
X97150000Y-51196428D01*
X97197619Y-51244047D01*
X97292857Y-51291666D01*
X97483333Y-51339285D01*
X97721428Y-51339285D01*
X97911904Y-51291666D01*
X98007142Y-51244047D01*
X98054761Y-51196428D01*
X98102380Y-51101190D01*
X98102380Y-51005952D01*
X98054761Y-50910714D01*
X98007142Y-50863095D01*
X97911904Y-50815476D01*
X97721428Y-50767857D01*
X97483333Y-50767857D01*
X97292857Y-50815476D01*
X97197619Y-50863095D01*
X97150000Y-50910714D01*
X97102380Y-51005952D01*
X97197619Y-51720238D02*
X97150000Y-51767857D01*
X97102380Y-51863095D01*
X97102380Y-52101190D01*
X97150000Y-52196428D01*
X97197619Y-52244047D01*
X97292857Y-52291666D01*
X97388095Y-52291666D01*
X97530952Y-52244047D01*
X98102380Y-51672619D01*
X98102380Y-52291666D01*
X97197619Y-52672619D02*
X97150000Y-52720238D01*
X97102380Y-52815476D01*
X97102380Y-53053571D01*
X97150000Y-53148809D01*
X97197619Y-53196428D01*
X97292857Y-53244047D01*
X97388095Y-53244047D01*
X97530952Y-53196428D01*
X98102380Y-52624999D01*
X98102380Y-53244047D01*
X50952380Y-65525000D02*
X49952380Y-65525000D01*
X49952380Y-65763095D01*
X50000000Y-65905952D01*
X50095238Y-66001190D01*
X50190476Y-66048809D01*
X50380952Y-66096428D01*
X50523809Y-66096428D01*
X50714285Y-66048809D01*
X50809523Y-66001190D01*
X50904761Y-65905952D01*
X50952380Y-65763095D01*
X50952380Y-65525000D01*
X50904761Y-66905952D02*
X50952380Y-66810714D01*
X50952380Y-66620238D01*
X50904761Y-66525000D01*
X50809523Y-66477380D01*
X50428571Y-66477380D01*
X50333333Y-66525000D01*
X50285714Y-66620238D01*
X50285714Y-66810714D01*
X50333333Y-66905952D01*
X50428571Y-66953571D01*
X50523809Y-66953571D01*
X50619047Y-66477380D01*
X50904761Y-67334523D02*
X50952380Y-67429761D01*
X50952380Y-67620238D01*
X50904761Y-67715476D01*
X50809523Y-67763095D01*
X50761904Y-67763095D01*
X50666666Y-67715476D01*
X50619047Y-67620238D01*
X50619047Y-67477380D01*
X50571428Y-67382142D01*
X50476190Y-67334523D01*
X50428571Y-67334523D01*
X50333333Y-67382142D01*
X50285714Y-67477380D01*
X50285714Y-67620238D01*
X50333333Y-67715476D01*
X50952380Y-68191666D02*
X50285714Y-68191666D01*
X49952380Y-68191666D02*
X50000000Y-68144047D01*
X50047619Y-68191666D01*
X50000000Y-68239285D01*
X49952380Y-68191666D01*
X50047619Y-68191666D01*
X50285714Y-69096428D02*
X51095238Y-69096428D01*
X51190476Y-69048809D01*
X51238095Y-69001190D01*
X51285714Y-68905952D01*
X51285714Y-68763095D01*
X51238095Y-68667857D01*
X50904761Y-69096428D02*
X50952380Y-69001190D01*
X50952380Y-68810714D01*
X50904761Y-68715476D01*
X50857142Y-68667857D01*
X50761904Y-68620238D01*
X50476190Y-68620238D01*
X50380952Y-68667857D01*
X50333333Y-68715476D01*
X50285714Y-68810714D01*
X50285714Y-69001190D01*
X50333333Y-69096428D01*
X50285714Y-69572619D02*
X50952380Y-69572619D01*
X50380952Y-69572619D02*
X50333333Y-69620238D01*
X50285714Y-69715476D01*
X50285714Y-69858333D01*
X50333333Y-69953571D01*
X50428571Y-70001190D01*
X50952380Y-70001190D01*
X50904761Y-70858333D02*
X50952380Y-70763095D01*
X50952380Y-70572619D01*
X50904761Y-70477380D01*
X50809523Y-70429761D01*
X50428571Y-70429761D01*
X50333333Y-70477380D01*
X50285714Y-70572619D01*
X50285714Y-70763095D01*
X50333333Y-70858333D01*
X50428571Y-70905952D01*
X50523809Y-70905952D01*
X50619047Y-70429761D01*
X50952380Y-71763095D02*
X49952380Y-71763095D01*
X50904761Y-71763095D02*
X50952380Y-71667857D01*
X50952380Y-71477380D01*
X50904761Y-71382142D01*
X50857142Y-71334523D01*
X50761904Y-71286904D01*
X50476190Y-71286904D01*
X50380952Y-71334523D01*
X50333333Y-71382142D01*
X50285714Y-71477380D01*
X50285714Y-71667857D01*
X50333333Y-71763095D01*
X50952380Y-73001190D02*
X49952380Y-73001190D01*
X50333333Y-73001190D02*
X50285714Y-73096428D01*
X50285714Y-73286904D01*
X50333333Y-73382142D01*
X50380952Y-73429761D01*
X50476190Y-73477380D01*
X50761904Y-73477380D01*
X50857142Y-73429761D01*
X50904761Y-73382142D01*
X50952380Y-73286904D01*
X50952380Y-73096428D01*
X50904761Y-73001190D01*
X50285714Y-73810714D02*
X50952380Y-74048809D01*
X50285714Y-74286904D02*
X50952380Y-74048809D01*
X51190476Y-73953571D01*
X51238095Y-73905952D01*
X51285714Y-73810714D01*
X49952380Y-75715476D02*
X50666666Y-75715476D01*
X50809523Y-75667857D01*
X50904761Y-75572619D01*
X50952380Y-75429761D01*
X50952380Y-75334523D01*
X50952380Y-76620238D02*
X50428571Y-76620238D01*
X50333333Y-76572619D01*
X50285714Y-76477380D01*
X50285714Y-76286904D01*
X50333333Y-76191666D01*
X50904761Y-76620238D02*
X50952380Y-76525000D01*
X50952380Y-76286904D01*
X50904761Y-76191666D01*
X50809523Y-76144047D01*
X50714285Y-76144047D01*
X50619047Y-76191666D01*
X50571428Y-76286904D01*
X50571428Y-76525000D01*
X50523809Y-76620238D01*
X50904761Y-77525000D02*
X50952380Y-77429761D01*
X50952380Y-77239285D01*
X50904761Y-77144047D01*
X50857142Y-77096428D01*
X50761904Y-77048809D01*
X50476190Y-77048809D01*
X50380952Y-77096428D01*
X50333333Y-77144047D01*
X50285714Y-77239285D01*
X50285714Y-77429761D01*
X50333333Y-77525000D01*
X50952380Y-77953571D02*
X49952380Y-77953571D01*
X50571428Y-78048809D02*
X50952380Y-78334523D01*
X50285714Y-78334523D02*
X50666666Y-77953571D01*
X50904761Y-78715476D02*
X50952380Y-78810714D01*
X50952380Y-79001190D01*
X50904761Y-79096428D01*
X50809523Y-79144047D01*
X50761904Y-79144047D01*
X50666666Y-79096428D01*
X50619047Y-79001190D01*
X50619047Y-78858333D01*
X50571428Y-78763095D01*
X50476190Y-78715476D01*
X50428571Y-78715476D01*
X50333333Y-78763095D01*
X50285714Y-78858333D01*
X50285714Y-79001190D01*
X50333333Y-79096428D01*
X50952380Y-79715476D02*
X50904761Y-79620238D01*
X50857142Y-79572619D01*
X50761904Y-79525000D01*
X50476190Y-79525000D01*
X50380952Y-79572619D01*
X50333333Y-79620238D01*
X50285714Y-79715476D01*
X50285714Y-79858333D01*
X50333333Y-79953571D01*
X50380952Y-80001190D01*
X50476190Y-80048809D01*
X50761904Y-80048809D01*
X50857142Y-80001190D01*
X50904761Y-79953571D01*
X50952380Y-79858333D01*
X50952380Y-79715476D01*
X50285714Y-80477380D02*
X50952380Y-80477380D01*
X50380952Y-80477380D02*
X50333333Y-80525000D01*
X50285714Y-80620238D01*
X50285714Y-80763095D01*
X50333333Y-80858333D01*
X50428571Y-80905952D01*
X50952380Y-80905952D01*
X50952380Y-82144047D02*
X49952380Y-82144047D01*
X50666666Y-82477380D01*
X49952380Y-82810714D01*
X50952380Y-82810714D01*
X50952380Y-84048809D02*
X49952380Y-84048809D01*
X50428571Y-84048809D02*
X50428571Y-84620238D01*
X50952380Y-84620238D02*
X49952380Y-84620238D01*
X50285714Y-85525000D02*
X50952380Y-85525000D01*
X50285714Y-85096428D02*
X50809523Y-85096428D01*
X50904761Y-85144047D01*
X50952380Y-85239285D01*
X50952380Y-85382142D01*
X50904761Y-85477380D01*
X50857142Y-85525000D01*
X52602380Y-72925000D02*
X52126190Y-72591666D01*
X52602380Y-72353571D02*
X51602380Y-72353571D01*
X51602380Y-72734523D01*
X51650000Y-72829761D01*
X51697619Y-72877380D01*
X51792857Y-72925000D01*
X51935714Y-72925000D01*
X52030952Y-72877380D01*
X52078571Y-72829761D01*
X52126190Y-72734523D01*
X52126190Y-72353571D01*
X52554761Y-73734523D02*
X52602380Y-73639285D01*
X52602380Y-73448809D01*
X52554761Y-73353571D01*
X52459523Y-73305952D01*
X52078571Y-73305952D01*
X51983333Y-73353571D01*
X51935714Y-73448809D01*
X51935714Y-73639285D01*
X51983333Y-73734523D01*
X52078571Y-73782142D01*
X52173809Y-73782142D01*
X52269047Y-73305952D01*
X51935714Y-74115476D02*
X52602380Y-74353571D01*
X51935714Y-74591666D01*
X52507142Y-74972619D02*
X52554761Y-75020238D01*
X52602380Y-74972619D01*
X52554761Y-74925000D01*
X52507142Y-74972619D01*
X52602380Y-74972619D01*
X52602380Y-76734523D02*
X52602380Y-76163095D01*
X52602380Y-76448809D02*
X51602380Y-76448809D01*
X51745238Y-76353571D01*
X51840476Y-76258333D01*
X51888095Y-76163095D01*
X52554761Y-78639285D02*
X52602380Y-78782142D01*
X52602380Y-79020238D01*
X52554761Y-79115476D01*
X52507142Y-79163095D01*
X52411904Y-79210714D01*
X52316666Y-79210714D01*
X52221428Y-79163095D01*
X52173809Y-79115476D01*
X52126190Y-79020238D01*
X52078571Y-78829761D01*
X52030952Y-78734523D01*
X51983333Y-78686904D01*
X51888095Y-78639285D01*
X51792857Y-78639285D01*
X51697619Y-78686904D01*
X51650000Y-78734523D01*
X51602380Y-78829761D01*
X51602380Y-79067857D01*
X51650000Y-79210714D01*
X52554761Y-80020238D02*
X52602380Y-79925000D01*
X52602380Y-79734523D01*
X52554761Y-79639285D01*
X52459523Y-79591666D01*
X52078571Y-79591666D01*
X51983333Y-79639285D01*
X51935714Y-79734523D01*
X51935714Y-79925000D01*
X51983333Y-80020238D01*
X52078571Y-80067857D01*
X52173809Y-80067857D01*
X52269047Y-79591666D01*
X51935714Y-80496428D02*
X52935714Y-80496428D01*
X51983333Y-80496428D02*
X51935714Y-80591666D01*
X51935714Y-80782142D01*
X51983333Y-80877380D01*
X52030952Y-80925000D01*
X52126190Y-80972619D01*
X52411904Y-80972619D01*
X52507142Y-80925000D01*
X52554761Y-80877380D01*
X52602380Y-80782142D01*
X52602380Y-80591666D01*
X52554761Y-80496428D01*
X51697619Y-82115476D02*
X51650000Y-82163095D01*
X51602380Y-82258333D01*
X51602380Y-82496428D01*
X51650000Y-82591666D01*
X51697619Y-82639285D01*
X51792857Y-82686904D01*
X51888095Y-82686904D01*
X52030952Y-82639285D01*
X52602380Y-82067857D01*
X52602380Y-82686904D01*
X51602380Y-83305952D02*
X51602380Y-83401190D01*
X51650000Y-83496428D01*
X51697619Y-83544047D01*
X51792857Y-83591666D01*
X51983333Y-83639285D01*
X52221428Y-83639285D01*
X52411904Y-83591666D01*
X52507142Y-83544047D01*
X52554761Y-83496428D01*
X52602380Y-83401190D01*
X52602380Y-83305952D01*
X52554761Y-83210714D01*
X52507142Y-83163095D01*
X52411904Y-83115476D01*
X52221428Y-83067857D01*
X51983333Y-83067857D01*
X51792857Y-83115476D01*
X51697619Y-83163095D01*
X51650000Y-83210714D01*
X51602380Y-83305952D01*
X51697619Y-84020238D02*
X51650000Y-84067857D01*
X51602380Y-84163095D01*
X51602380Y-84401190D01*
X51650000Y-84496428D01*
X51697619Y-84544047D01*
X51792857Y-84591666D01*
X51888095Y-84591666D01*
X52030952Y-84544047D01*
X52602380Y-83972619D01*
X52602380Y-84591666D01*
X51697619Y-84972619D02*
X51650000Y-85020238D01*
X51602380Y-85115476D01*
X51602380Y-85353571D01*
X51650000Y-85448809D01*
X51697619Y-85496428D01*
X51792857Y-85544047D01*
X51888095Y-85544047D01*
X52030952Y-85496428D01*
X52602380Y-84925000D01*
X52602380Y-85544047D01*
X16297380Y-35252809D02*
X17011666Y-35252809D01*
X17154523Y-35205190D01*
X17249761Y-35109952D01*
X17297380Y-34967095D01*
X17297380Y-34871857D01*
X16630714Y-36157571D02*
X17297380Y-36157571D01*
X16630714Y-35729000D02*
X17154523Y-35729000D01*
X17249761Y-35776619D01*
X17297380Y-35871857D01*
X17297380Y-36014714D01*
X17249761Y-36109952D01*
X17202142Y-36157571D01*
X17297380Y-36633761D02*
X16630714Y-36633761D01*
X16725952Y-36633761D02*
X16678333Y-36681380D01*
X16630714Y-36776619D01*
X16630714Y-36919476D01*
X16678333Y-37014714D01*
X16773571Y-37062333D01*
X17297380Y-37062333D01*
X16773571Y-37062333D02*
X16678333Y-37109952D01*
X16630714Y-37205190D01*
X16630714Y-37348047D01*
X16678333Y-37443285D01*
X16773571Y-37490904D01*
X17297380Y-37490904D01*
X17297380Y-37967095D02*
X16297380Y-37967095D01*
X16678333Y-37967095D02*
X16630714Y-38062333D01*
X16630714Y-38252809D01*
X16678333Y-38348047D01*
X16725952Y-38395666D01*
X16821190Y-38443285D01*
X17106904Y-38443285D01*
X17202142Y-38395666D01*
X17249761Y-38348047D01*
X17297380Y-38252809D01*
X17297380Y-38062333D01*
X17249761Y-37967095D01*
X17297380Y-39014714D02*
X17249761Y-38919476D01*
X17202142Y-38871857D01*
X17106904Y-38824238D01*
X16821190Y-38824238D01*
X16725952Y-38871857D01*
X16678333Y-38919476D01*
X16630714Y-39014714D01*
X16630714Y-39157571D01*
X16678333Y-39252809D01*
X16725952Y-39300428D01*
X16821190Y-39348047D01*
X17106904Y-39348047D01*
X17202142Y-39300428D01*
X17249761Y-39252809D01*
X17297380Y-39157571D01*
X17297380Y-39014714D01*
X16773571Y-40538523D02*
X16773571Y-40871857D01*
X17297380Y-41014714D02*
X17297380Y-40538523D01*
X16297380Y-40538523D01*
X16297380Y-41014714D01*
X17249761Y-41395666D02*
X17297380Y-41538523D01*
X17297380Y-41776619D01*
X17249761Y-41871857D01*
X17202142Y-41919476D01*
X17106904Y-41967095D01*
X17011666Y-41967095D01*
X16916428Y-41919476D01*
X16868809Y-41871857D01*
X16821190Y-41776619D01*
X16773571Y-41586142D01*
X16725952Y-41490904D01*
X16678333Y-41443285D01*
X16583095Y-41395666D01*
X16487857Y-41395666D01*
X16392619Y-41443285D01*
X16345000Y-41490904D01*
X16297380Y-41586142D01*
X16297380Y-41824238D01*
X16345000Y-41967095D01*
X17297380Y-42395666D02*
X16297380Y-42395666D01*
X16297380Y-42776619D01*
X16345000Y-42871857D01*
X16392619Y-42919476D01*
X16487857Y-42967095D01*
X16630714Y-42967095D01*
X16725952Y-42919476D01*
X16773571Y-42871857D01*
X16821190Y-42776619D01*
X16821190Y-42395666D01*
X16297380Y-43300428D02*
X16297380Y-43919476D01*
X16678333Y-43586142D01*
X16678333Y-43729000D01*
X16725952Y-43824238D01*
X16773571Y-43871857D01*
X16868809Y-43919476D01*
X17106904Y-43919476D01*
X17202142Y-43871857D01*
X17249761Y-43824238D01*
X17297380Y-43729000D01*
X17297380Y-43443285D01*
X17249761Y-43348047D01*
X17202142Y-43300428D01*
X16392619Y-44300428D02*
X16345000Y-44348047D01*
X16297380Y-44443285D01*
X16297380Y-44681380D01*
X16345000Y-44776619D01*
X16392619Y-44824238D01*
X16487857Y-44871857D01*
X16583095Y-44871857D01*
X16725952Y-44824238D01*
X17297380Y-44252809D01*
X17297380Y-44871857D01*
X18383571Y-34967095D02*
X18383571Y-35300428D01*
X18907380Y-35443285D02*
X18907380Y-34967095D01*
X17907380Y-34967095D01*
X17907380Y-35443285D01*
X18859761Y-35824238D02*
X18907380Y-35967095D01*
X18907380Y-36205190D01*
X18859761Y-36300428D01*
X18812142Y-36348047D01*
X18716904Y-36395666D01*
X18621666Y-36395666D01*
X18526428Y-36348047D01*
X18478809Y-36300428D01*
X18431190Y-36205190D01*
X18383571Y-36014714D01*
X18335952Y-35919476D01*
X18288333Y-35871857D01*
X18193095Y-35824238D01*
X18097857Y-35824238D01*
X18002619Y-35871857D01*
X17955000Y-35919476D01*
X17907380Y-36014714D01*
X17907380Y-36252809D01*
X17955000Y-36395666D01*
X18907380Y-36824238D02*
X17907380Y-36824238D01*
X17907380Y-37205190D01*
X17955000Y-37300428D01*
X18002619Y-37348047D01*
X18097857Y-37395666D01*
X18240714Y-37395666D01*
X18335952Y-37348047D01*
X18383571Y-37300428D01*
X18431190Y-37205190D01*
X18431190Y-36824238D01*
X17907380Y-37729000D02*
X17907380Y-38348047D01*
X18288333Y-38014714D01*
X18288333Y-38157571D01*
X18335952Y-38252809D01*
X18383571Y-38300428D01*
X18478809Y-38348047D01*
X18716904Y-38348047D01*
X18812142Y-38300428D01*
X18859761Y-38252809D01*
X18907380Y-38157571D01*
X18907380Y-37871857D01*
X18859761Y-37776619D01*
X18812142Y-37729000D01*
X18002619Y-38729000D02*
X17955000Y-38776619D01*
X17907380Y-38871857D01*
X17907380Y-39109952D01*
X17955000Y-39205190D01*
X18002619Y-39252809D01*
X18097857Y-39300428D01*
X18193095Y-39300428D01*
X18335952Y-39252809D01*
X18907380Y-38681380D01*
X18907380Y-39300428D01*
X18859761Y-39681380D02*
X18907380Y-39824238D01*
X18907380Y-40062333D01*
X18859761Y-40157571D01*
X18812142Y-40205190D01*
X18716904Y-40252809D01*
X18621666Y-40252809D01*
X18526428Y-40205190D01*
X18478809Y-40157571D01*
X18431190Y-40062333D01*
X18383571Y-39871857D01*
X18335952Y-39776619D01*
X18288333Y-39729000D01*
X18193095Y-39681380D01*
X18097857Y-39681380D01*
X18002619Y-39729000D01*
X17955000Y-39776619D01*
X17907380Y-39871857D01*
X17907380Y-40109952D01*
X17955000Y-40252809D01*
X17907380Y-40586142D02*
X17907380Y-41205190D01*
X18288333Y-40871857D01*
X18288333Y-41014714D01*
X18335952Y-41109952D01*
X18383571Y-41157571D01*
X18478809Y-41205190D01*
X18716904Y-41205190D01*
X18812142Y-41157571D01*
X18859761Y-41109952D01*
X18907380Y-41014714D01*
X18907380Y-40729000D01*
X18859761Y-40633761D01*
X18812142Y-40586142D01*
X18907380Y-43205190D02*
X18907380Y-43157571D01*
X18859761Y-43062333D01*
X18716904Y-42919476D01*
X18431190Y-42681380D01*
X18288333Y-42586142D01*
X18145476Y-42538523D01*
X18050238Y-42538523D01*
X17955000Y-42586142D01*
X17907380Y-42681380D01*
X17907380Y-42728999D01*
X17955000Y-42824238D01*
X18050238Y-42871857D01*
X18097857Y-42871857D01*
X18193095Y-42824238D01*
X18240714Y-42776619D01*
X18431190Y-42490904D01*
X18478809Y-42443285D01*
X18574047Y-42395666D01*
X18716904Y-42395666D01*
X18812142Y-42443285D01*
X18859761Y-42490904D01*
X18907380Y-42586142D01*
X18907380Y-42728999D01*
X18859761Y-42824238D01*
X18812142Y-42871857D01*
X18621666Y-43014714D01*
X18478809Y-43062333D01*
X18383571Y-43062333D01*
X18621666Y-44348047D02*
X18621666Y-44824238D01*
X18907380Y-44252809D02*
X17907380Y-44586142D01*
X18907380Y-44919476D01*
X18907380Y-45252809D02*
X17907380Y-45252809D01*
X17907380Y-45633761D01*
X17955000Y-45729000D01*
X18002619Y-45776619D01*
X18097857Y-45824238D01*
X18240714Y-45824238D01*
X18335952Y-45776619D01*
X18383571Y-45729000D01*
X18431190Y-45633761D01*
X18431190Y-45252809D01*
X18859761Y-46205190D02*
X18907380Y-46348047D01*
X18907380Y-46586142D01*
X18859761Y-46681380D01*
X18812142Y-46729000D01*
X18716904Y-46776619D01*
X18621666Y-46776619D01*
X18526428Y-46729000D01*
X18478809Y-46681380D01*
X18431190Y-46586142D01*
X18383571Y-46395666D01*
X18335952Y-46300428D01*
X18288333Y-46252809D01*
X18193095Y-46205190D01*
X18097857Y-46205190D01*
X18002619Y-46252809D01*
X17955000Y-46300428D01*
X17907380Y-46395666D01*
X17907380Y-46633761D01*
X17955000Y-46776619D01*
X18907380Y-47729000D02*
X18907380Y-47157571D01*
X18907380Y-47443285D02*
X17907380Y-47443285D01*
X18050238Y-47348047D01*
X18145476Y-47252809D01*
X18193095Y-47157571D01*
X18002619Y-48109952D02*
X17955000Y-48157571D01*
X17907380Y-48252809D01*
X17907380Y-48490904D01*
X17955000Y-48586142D01*
X18002619Y-48633761D01*
X18097857Y-48681380D01*
X18193095Y-48681380D01*
X18335952Y-48633761D01*
X18907380Y-48062333D01*
X18907380Y-48681380D01*
X18335952Y-49252809D02*
X18288333Y-49157571D01*
X18240714Y-49109952D01*
X18145476Y-49062333D01*
X18097857Y-49062333D01*
X18002619Y-49109952D01*
X17955000Y-49157571D01*
X17907380Y-49252809D01*
X17907380Y-49443285D01*
X17955000Y-49538523D01*
X18002619Y-49586142D01*
X18097857Y-49633761D01*
X18145476Y-49633761D01*
X18240714Y-49586142D01*
X18288333Y-49538523D01*
X18335952Y-49443285D01*
X18335952Y-49252809D01*
X18383571Y-49157571D01*
X18431190Y-49109952D01*
X18526428Y-49062333D01*
X18716904Y-49062333D01*
X18812142Y-49109952D01*
X18859761Y-49157571D01*
X18907380Y-49252809D01*
X18907380Y-49443285D01*
X18859761Y-49538523D01*
X18812142Y-49586142D01*
X18716904Y-49633761D01*
X18526428Y-49633761D01*
X18431190Y-49586142D01*
X18383571Y-49538523D01*
X18335952Y-49443285D01*
X17907380Y-50252809D02*
X17907380Y-50348047D01*
X17955000Y-50443285D01*
X18002619Y-50490904D01*
X18097857Y-50538523D01*
X18288333Y-50586142D01*
X18526428Y-50586142D01*
X18716904Y-50538523D01*
X18812142Y-50490904D01*
X18859761Y-50443285D01*
X18907380Y-50348047D01*
X18907380Y-50252809D01*
X18859761Y-50157571D01*
X18812142Y-50109952D01*
X18716904Y-50062333D01*
X18526428Y-50014714D01*
X18288333Y-50014714D01*
X18097857Y-50062333D01*
X18002619Y-50109952D01*
X17955000Y-50157571D01*
X17907380Y-50252809D01*
X18335952Y-51157571D02*
X18288333Y-51062333D01*
X18240714Y-51014714D01*
X18145476Y-50967095D01*
X18097857Y-50967095D01*
X18002619Y-51014714D01*
X17955000Y-51062333D01*
X17907380Y-51157571D01*
X17907380Y-51348047D01*
X17955000Y-51443285D01*
X18002619Y-51490904D01*
X18097857Y-51538523D01*
X18145476Y-51538523D01*
X18240714Y-51490904D01*
X18288333Y-51443285D01*
X18335952Y-51348047D01*
X18335952Y-51157571D01*
X18383571Y-51062333D01*
X18431190Y-51014714D01*
X18526428Y-50967095D01*
X18716904Y-50967095D01*
X18812142Y-51014714D01*
X18859761Y-51062333D01*
X18907380Y-51157571D01*
X18907380Y-51348047D01*
X18859761Y-51443285D01*
X18812142Y-51490904D01*
X18716904Y-51538523D01*
X18526428Y-51538523D01*
X18431190Y-51490904D01*
X18383571Y-51443285D01*
X18335952Y-51348047D01*
X47607285Y-65261142D02*
X47607285Y-64861142D01*
X46769190Y-64689714D02*
X46769190Y-65261142D01*
X48369190Y-65261142D01*
X48369190Y-64689714D01*
X46769190Y-64175428D02*
X48369190Y-64175428D01*
X46769190Y-63489714D01*
X48369190Y-63489714D01*
X45793190Y-63832571D02*
X45793190Y-63718285D01*
X45717000Y-63604000D01*
X45640809Y-63546857D01*
X45488428Y-63489714D01*
X45183666Y-63432571D01*
X44802714Y-63432571D01*
X44497952Y-63489714D01*
X44345571Y-63546857D01*
X44269380Y-63604000D01*
X44193190Y-63718285D01*
X44193190Y-63832571D01*
X44269380Y-63946857D01*
X44345571Y-64004000D01*
X44497952Y-64061142D01*
X44802714Y-64118285D01*
X45183666Y-64118285D01*
X45488428Y-64061142D01*
X45640809Y-64004000D01*
X45717000Y-63946857D01*
X45793190Y-63832571D01*
X41617190Y-64575428D02*
X41617190Y-65261142D01*
X41617190Y-64918285D02*
X43217190Y-64918285D01*
X42988619Y-65032571D01*
X42836238Y-65146857D01*
X42760047Y-65261142D01*
X43217190Y-63832571D02*
X43217190Y-63718285D01*
X43141000Y-63604000D01*
X43064809Y-63546857D01*
X42912428Y-63489714D01*
X42607666Y-63432571D01*
X42226714Y-63432571D01*
X41921952Y-63489714D01*
X41769571Y-63546857D01*
X41693380Y-63604000D01*
X41617190Y-63718285D01*
X41617190Y-63832571D01*
X41693380Y-63946857D01*
X41769571Y-64004000D01*
X41921952Y-64061142D01*
X42226714Y-64118285D01*
X42607666Y-64118285D01*
X42912428Y-64061142D01*
X43064809Y-64004000D01*
X43141000Y-63946857D01*
X43217190Y-63832571D01*
X39041190Y-64575428D02*
X39041190Y-65261142D01*
X39041190Y-64918285D02*
X40641190Y-64918285D01*
X40412619Y-65032571D01*
X40260238Y-65146857D01*
X40184047Y-65261142D01*
X39041190Y-63432571D02*
X39041190Y-64118285D01*
X39041190Y-63775428D02*
X40641190Y-63775428D01*
X40412619Y-63889714D01*
X40260238Y-64004000D01*
X40184047Y-64118285D01*
X36465190Y-64575428D02*
X36465190Y-65261142D01*
X36465190Y-64918285D02*
X38065190Y-64918285D01*
X37836619Y-65032571D01*
X37684238Y-65146857D01*
X37608047Y-65261142D01*
X37912809Y-64118285D02*
X37989000Y-64061142D01*
X38065190Y-63946857D01*
X38065190Y-63661142D01*
X37989000Y-63546857D01*
X37912809Y-63489714D01*
X37760428Y-63432571D01*
X37608047Y-63432571D01*
X37379476Y-63489714D01*
X36465190Y-64175428D01*
X36465190Y-63432571D01*
X33889190Y-64575428D02*
X33889190Y-65261142D01*
X33889190Y-64918285D02*
X35489190Y-64918285D01*
X35260619Y-65032571D01*
X35108238Y-65146857D01*
X35032047Y-65261142D01*
X35489190Y-64175428D02*
X35489190Y-63432571D01*
X34879666Y-63832571D01*
X34879666Y-63661142D01*
X34803476Y-63546857D01*
X34727285Y-63489714D01*
X34574904Y-63432571D01*
X34193952Y-63432571D01*
X34041571Y-63489714D01*
X33965380Y-63546857D01*
X33889190Y-63661142D01*
X33889190Y-64004000D01*
X33965380Y-64118285D01*
X34041571Y-64175428D01*
X32913190Y-66518285D02*
X31313190Y-66118285D01*
X32913190Y-65718285D01*
X31465571Y-64632571D02*
X31389380Y-64689714D01*
X31313190Y-64861142D01*
X31313190Y-64975428D01*
X31389380Y-65146857D01*
X31541761Y-65261142D01*
X31694142Y-65318285D01*
X31998904Y-65375428D01*
X32227476Y-65375428D01*
X32532238Y-65318285D01*
X32684619Y-65261142D01*
X32837000Y-65146857D01*
X32913190Y-64975428D01*
X32913190Y-64861142D01*
X32837000Y-64689714D01*
X32760809Y-64632571D01*
X31465571Y-63432571D02*
X31389380Y-63489714D01*
X31313190Y-63661142D01*
X31313190Y-63775428D01*
X31389380Y-63946857D01*
X31541761Y-64061142D01*
X31694142Y-64118285D01*
X31998904Y-64175428D01*
X32227476Y-64175428D01*
X32532238Y-64118285D01*
X32684619Y-64061142D01*
X32837000Y-63946857D01*
X32913190Y-63775428D01*
X32913190Y-63661142D01*
X32837000Y-63489714D01*
X32760809Y-63432571D01*
X30261000Y-65946857D02*
X30337190Y-66061142D01*
X30337190Y-66232571D01*
X30261000Y-66404000D01*
X30108619Y-66518285D01*
X29956238Y-66575428D01*
X29651476Y-66632571D01*
X29422904Y-66632571D01*
X29118142Y-66575428D01*
X28965761Y-66518285D01*
X28813380Y-66404000D01*
X28737190Y-66232571D01*
X28737190Y-66118285D01*
X28813380Y-65946857D01*
X28889571Y-65889714D01*
X29422904Y-65889714D01*
X29422904Y-66118285D01*
X28737190Y-65375428D02*
X30337190Y-65375428D01*
X28737190Y-64689714D01*
X30337190Y-64689714D01*
X28737190Y-64118285D02*
X30337190Y-64118285D01*
X30337190Y-63832571D01*
X30261000Y-63661142D01*
X30108619Y-63546857D01*
X29956238Y-63489714D01*
X29651476Y-63432571D01*
X29422904Y-63432571D01*
X29118142Y-63489714D01*
X28965761Y-63546857D01*
X28813380Y-63661142D01*
X28737190Y-63832571D01*
X28737190Y-64118285D01*
X26161190Y-64575428D02*
X26161190Y-65261142D01*
X26161190Y-64918285D02*
X27761190Y-64918285D01*
X27532619Y-65032571D01*
X27380238Y-65146857D01*
X27304047Y-65261142D01*
X27227857Y-63546857D02*
X26161190Y-63546857D01*
X27837380Y-63832571D02*
X26694523Y-64118285D01*
X26694523Y-63375428D01*
X23585190Y-64575428D02*
X23585190Y-65261142D01*
X23585190Y-64918285D02*
X25185190Y-64918285D01*
X24956619Y-65032571D01*
X24804238Y-65146857D01*
X24728047Y-65261142D01*
X25185190Y-63489714D02*
X25185190Y-64061142D01*
X24423285Y-64118285D01*
X24499476Y-64061142D01*
X24575666Y-63946857D01*
X24575666Y-63661142D01*
X24499476Y-63546857D01*
X24423285Y-63489714D01*
X24270904Y-63432571D01*
X23889952Y-63432571D01*
X23737571Y-63489714D01*
X23661380Y-63546857D01*
X23585190Y-63661142D01*
X23585190Y-63946857D01*
X23661380Y-64061142D01*
X23737571Y-64118285D01*
X21009190Y-64575428D02*
X21009190Y-65261142D01*
X21009190Y-64918285D02*
X22609190Y-64918285D01*
X22380619Y-65032571D01*
X22228238Y-65146857D01*
X22152047Y-65261142D01*
X21009190Y-64004000D02*
X21009190Y-63775428D01*
X21085380Y-63661142D01*
X21161571Y-63604000D01*
X21390142Y-63489714D01*
X21694904Y-63432571D01*
X22304428Y-63432571D01*
X22456809Y-63489714D01*
X22533000Y-63546857D01*
X22609190Y-63661142D01*
X22609190Y-63889714D01*
X22533000Y-64004000D01*
X22456809Y-64061142D01*
X22304428Y-64118285D01*
X21923476Y-64118285D01*
X21771095Y-64061142D01*
X21694904Y-64004000D01*
X21618714Y-63889714D01*
X21618714Y-63661142D01*
X21694904Y-63546857D01*
X21771095Y-63489714D01*
X21923476Y-63432571D01*
X19880809Y-65261142D02*
X19957000Y-65204000D01*
X20033190Y-65089714D01*
X20033190Y-64804000D01*
X19957000Y-64689714D01*
X19880809Y-64632571D01*
X19728428Y-64575428D01*
X19576047Y-64575428D01*
X19347476Y-64632571D01*
X18433190Y-65318285D01*
X18433190Y-64575428D01*
X20033190Y-63832571D02*
X20033190Y-63718285D01*
X19957000Y-63604000D01*
X19880809Y-63546857D01*
X19728428Y-63489714D01*
X19423666Y-63432571D01*
X19042714Y-63432571D01*
X18737952Y-63489714D01*
X18585571Y-63546857D01*
X18509380Y-63604000D01*
X18433190Y-63718285D01*
X18433190Y-63832571D01*
X18509380Y-63946857D01*
X18585571Y-64004000D01*
X18737952Y-64061142D01*
X19042714Y-64118285D01*
X19423666Y-64118285D01*
X19728428Y-64061142D01*
X19880809Y-64004000D01*
X19957000Y-63946857D01*
X20033190Y-63832571D01*
X16297380Y-67552809D02*
X17011666Y-67552809D01*
X17154523Y-67505190D01*
X17249761Y-67409952D01*
X17297380Y-67267095D01*
X17297380Y-67171857D01*
X16630714Y-68457571D02*
X17297380Y-68457571D01*
X16630714Y-68029000D02*
X17154523Y-68029000D01*
X17249761Y-68076619D01*
X17297380Y-68171857D01*
X17297380Y-68314714D01*
X17249761Y-68409952D01*
X17202142Y-68457571D01*
X17297380Y-68933761D02*
X16630714Y-68933761D01*
X16725952Y-68933761D02*
X16678333Y-68981380D01*
X16630714Y-69076619D01*
X16630714Y-69219476D01*
X16678333Y-69314714D01*
X16773571Y-69362333D01*
X17297380Y-69362333D01*
X16773571Y-69362333D02*
X16678333Y-69409952D01*
X16630714Y-69505190D01*
X16630714Y-69648047D01*
X16678333Y-69743285D01*
X16773571Y-69790904D01*
X17297380Y-69790904D01*
X17297380Y-70267095D02*
X16297380Y-70267095D01*
X16678333Y-70267095D02*
X16630714Y-70362333D01*
X16630714Y-70552809D01*
X16678333Y-70648047D01*
X16725952Y-70695666D01*
X16821190Y-70743285D01*
X17106904Y-70743285D01*
X17202142Y-70695666D01*
X17249761Y-70648047D01*
X17297380Y-70552809D01*
X17297380Y-70362333D01*
X17249761Y-70267095D01*
X17297380Y-71314714D02*
X17249761Y-71219476D01*
X17202142Y-71171857D01*
X17106904Y-71124238D01*
X16821190Y-71124238D01*
X16725952Y-71171857D01*
X16678333Y-71219476D01*
X16630714Y-71314714D01*
X16630714Y-71457571D01*
X16678333Y-71552809D01*
X16725952Y-71600428D01*
X16821190Y-71648047D01*
X17106904Y-71648047D01*
X17202142Y-71600428D01*
X17249761Y-71552809D01*
X17297380Y-71457571D01*
X17297380Y-71314714D01*
X16773571Y-72838523D02*
X16773571Y-73171857D01*
X17297380Y-73314714D02*
X17297380Y-72838523D01*
X16297380Y-72838523D01*
X16297380Y-73314714D01*
X17249761Y-73695666D02*
X17297380Y-73838523D01*
X17297380Y-74076619D01*
X17249761Y-74171857D01*
X17202142Y-74219476D01*
X17106904Y-74267095D01*
X17011666Y-74267095D01*
X16916428Y-74219476D01*
X16868809Y-74171857D01*
X16821190Y-74076619D01*
X16773571Y-73886142D01*
X16725952Y-73790904D01*
X16678333Y-73743285D01*
X16583095Y-73695666D01*
X16487857Y-73695666D01*
X16392619Y-73743285D01*
X16345000Y-73790904D01*
X16297380Y-73886142D01*
X16297380Y-74124238D01*
X16345000Y-74267095D01*
X17297380Y-74695666D02*
X16297380Y-74695666D01*
X16297380Y-75076619D01*
X16345000Y-75171857D01*
X16392619Y-75219476D01*
X16487857Y-75267095D01*
X16630714Y-75267095D01*
X16725952Y-75219476D01*
X16773571Y-75171857D01*
X16821190Y-75076619D01*
X16821190Y-74695666D01*
X16297380Y-75600428D02*
X16297380Y-76219476D01*
X16678333Y-75886142D01*
X16678333Y-76029000D01*
X16725952Y-76124238D01*
X16773571Y-76171857D01*
X16868809Y-76219476D01*
X17106904Y-76219476D01*
X17202142Y-76171857D01*
X17249761Y-76124238D01*
X17297380Y-76029000D01*
X17297380Y-75743285D01*
X17249761Y-75648047D01*
X17202142Y-75600428D01*
X16392619Y-76600428D02*
X16345000Y-76648047D01*
X16297380Y-76743285D01*
X16297380Y-76981380D01*
X16345000Y-77076619D01*
X16392619Y-77124238D01*
X16487857Y-77171857D01*
X16583095Y-77171857D01*
X16725952Y-77124238D01*
X17297380Y-76552809D01*
X17297380Y-77171857D01*
X18383571Y-67267095D02*
X18383571Y-67600428D01*
X18907380Y-67743285D02*
X18907380Y-67267095D01*
X17907380Y-67267095D01*
X17907380Y-67743285D01*
X18859761Y-68124238D02*
X18907380Y-68267095D01*
X18907380Y-68505190D01*
X18859761Y-68600428D01*
X18812142Y-68648047D01*
X18716904Y-68695666D01*
X18621666Y-68695666D01*
X18526428Y-68648047D01*
X18478809Y-68600428D01*
X18431190Y-68505190D01*
X18383571Y-68314714D01*
X18335952Y-68219476D01*
X18288333Y-68171857D01*
X18193095Y-68124238D01*
X18097857Y-68124238D01*
X18002619Y-68171857D01*
X17955000Y-68219476D01*
X17907380Y-68314714D01*
X17907380Y-68552809D01*
X17955000Y-68695666D01*
X18907380Y-69124238D02*
X17907380Y-69124238D01*
X17907380Y-69505190D01*
X17955000Y-69600428D01*
X18002619Y-69648047D01*
X18097857Y-69695666D01*
X18240714Y-69695666D01*
X18335952Y-69648047D01*
X18383571Y-69600428D01*
X18431190Y-69505190D01*
X18431190Y-69124238D01*
X17907380Y-70029000D02*
X17907380Y-70648047D01*
X18288333Y-70314714D01*
X18288333Y-70457571D01*
X18335952Y-70552809D01*
X18383571Y-70600428D01*
X18478809Y-70648047D01*
X18716904Y-70648047D01*
X18812142Y-70600428D01*
X18859761Y-70552809D01*
X18907380Y-70457571D01*
X18907380Y-70171857D01*
X18859761Y-70076619D01*
X18812142Y-70029000D01*
X18002619Y-71029000D02*
X17955000Y-71076619D01*
X17907380Y-71171857D01*
X17907380Y-71409952D01*
X17955000Y-71505190D01*
X18002619Y-71552809D01*
X18097857Y-71600428D01*
X18193095Y-71600428D01*
X18335952Y-71552809D01*
X18907380Y-70981380D01*
X18907380Y-71600428D01*
X18859761Y-71981380D02*
X18907380Y-72124238D01*
X18907380Y-72362333D01*
X18859761Y-72457571D01*
X18812142Y-72505190D01*
X18716904Y-72552809D01*
X18621666Y-72552809D01*
X18526428Y-72505190D01*
X18478809Y-72457571D01*
X18431190Y-72362333D01*
X18383571Y-72171857D01*
X18335952Y-72076619D01*
X18288333Y-72029000D01*
X18193095Y-71981380D01*
X18097857Y-71981380D01*
X18002619Y-72029000D01*
X17955000Y-72076619D01*
X17907380Y-72171857D01*
X17907380Y-72409952D01*
X17955000Y-72552809D01*
X17907380Y-72886142D02*
X17907380Y-73505190D01*
X18288333Y-73171857D01*
X18288333Y-73314714D01*
X18335952Y-73409952D01*
X18383571Y-73457571D01*
X18478809Y-73505190D01*
X18716904Y-73505190D01*
X18812142Y-73457571D01*
X18859761Y-73409952D01*
X18907380Y-73314714D01*
X18907380Y-73029000D01*
X18859761Y-72933761D01*
X18812142Y-72886142D01*
X18907380Y-75505190D02*
X18907380Y-75457571D01*
X18859761Y-75362333D01*
X18716904Y-75219476D01*
X18431190Y-74981380D01*
X18288333Y-74886142D01*
X18145476Y-74838523D01*
X18050238Y-74838523D01*
X17955000Y-74886142D01*
X17907380Y-74981380D01*
X17907380Y-75029000D01*
X17955000Y-75124238D01*
X18050238Y-75171857D01*
X18097857Y-75171857D01*
X18193095Y-75124238D01*
X18240714Y-75076619D01*
X18431190Y-74790904D01*
X18478809Y-74743285D01*
X18574047Y-74695666D01*
X18716904Y-74695666D01*
X18812142Y-74743285D01*
X18859761Y-74790904D01*
X18907380Y-74886142D01*
X18907380Y-75029000D01*
X18859761Y-75124238D01*
X18812142Y-75171857D01*
X18621666Y-75314714D01*
X18478809Y-75362333D01*
X18383571Y-75362333D01*
X18621666Y-76648047D02*
X18621666Y-77124238D01*
X18907380Y-76552809D02*
X17907380Y-76886142D01*
X18907380Y-77219476D01*
X18907380Y-77552809D02*
X17907380Y-77552809D01*
X17907380Y-77933761D01*
X17955000Y-78029000D01*
X18002619Y-78076619D01*
X18097857Y-78124238D01*
X18240714Y-78124238D01*
X18335952Y-78076619D01*
X18383571Y-78029000D01*
X18431190Y-77933761D01*
X18431190Y-77552809D01*
X18859761Y-78505190D02*
X18907380Y-78648047D01*
X18907380Y-78886142D01*
X18859761Y-78981380D01*
X18812142Y-79029000D01*
X18716904Y-79076619D01*
X18621666Y-79076619D01*
X18526428Y-79029000D01*
X18478809Y-78981380D01*
X18431190Y-78886142D01*
X18383571Y-78695666D01*
X18335952Y-78600428D01*
X18288333Y-78552809D01*
X18193095Y-78505190D01*
X18097857Y-78505190D01*
X18002619Y-78552809D01*
X17955000Y-78600428D01*
X17907380Y-78695666D01*
X17907380Y-78933761D01*
X17955000Y-79076619D01*
X18907380Y-80029000D02*
X18907380Y-79457571D01*
X18907380Y-79743285D02*
X17907380Y-79743285D01*
X18050238Y-79648047D01*
X18145476Y-79552809D01*
X18193095Y-79457571D01*
X18002619Y-80409952D02*
X17955000Y-80457571D01*
X17907380Y-80552809D01*
X17907380Y-80790904D01*
X17955000Y-80886142D01*
X18002619Y-80933761D01*
X18097857Y-80981380D01*
X18193095Y-80981380D01*
X18335952Y-80933761D01*
X18907380Y-80362333D01*
X18907380Y-80981380D01*
X18335952Y-81552809D02*
X18288333Y-81457571D01*
X18240714Y-81409952D01*
X18145476Y-81362333D01*
X18097857Y-81362333D01*
X18002619Y-81409952D01*
X17955000Y-81457571D01*
X17907380Y-81552809D01*
X17907380Y-81743285D01*
X17955000Y-81838523D01*
X18002619Y-81886142D01*
X18097857Y-81933761D01*
X18145476Y-81933761D01*
X18240714Y-81886142D01*
X18288333Y-81838523D01*
X18335952Y-81743285D01*
X18335952Y-81552809D01*
X18383571Y-81457571D01*
X18431190Y-81409952D01*
X18526428Y-81362333D01*
X18716904Y-81362333D01*
X18812142Y-81409952D01*
X18859761Y-81457571D01*
X18907380Y-81552809D01*
X18907380Y-81743285D01*
X18859761Y-81838523D01*
X18812142Y-81886142D01*
X18716904Y-81933761D01*
X18526428Y-81933761D01*
X18431190Y-81886142D01*
X18383571Y-81838523D01*
X18335952Y-81743285D01*
X17907380Y-82552809D02*
X17907380Y-82648047D01*
X17955000Y-82743285D01*
X18002619Y-82790904D01*
X18097857Y-82838523D01*
X18288333Y-82886142D01*
X18526428Y-82886142D01*
X18716904Y-82838523D01*
X18812142Y-82790904D01*
X18859761Y-82743285D01*
X18907380Y-82648047D01*
X18907380Y-82552809D01*
X18859761Y-82457571D01*
X18812142Y-82409952D01*
X18716904Y-82362333D01*
X18526428Y-82314714D01*
X18288333Y-82314714D01*
X18097857Y-82362333D01*
X18002619Y-82409952D01*
X17955000Y-82457571D01*
X17907380Y-82552809D01*
X18335952Y-83457571D02*
X18288333Y-83362333D01*
X18240714Y-83314714D01*
X18145476Y-83267095D01*
X18097857Y-83267095D01*
X18002619Y-83314714D01*
X17955000Y-83362333D01*
X17907380Y-83457571D01*
X17907380Y-83648047D01*
X17955000Y-83743285D01*
X18002619Y-83790904D01*
X18097857Y-83838523D01*
X18145476Y-83838523D01*
X18240714Y-83790904D01*
X18288333Y-83743285D01*
X18335952Y-83648047D01*
X18335952Y-83457571D01*
X18383571Y-83362333D01*
X18431190Y-83314714D01*
X18526428Y-83267095D01*
X18716904Y-83267095D01*
X18812142Y-83314714D01*
X18859761Y-83362333D01*
X18907380Y-83457571D01*
X18907380Y-83648047D01*
X18859761Y-83743285D01*
X18812142Y-83790904D01*
X18716904Y-83838523D01*
X18526428Y-83838523D01*
X18431190Y-83790904D01*
X18383571Y-83743285D01*
X18335952Y-83648047D01*
X22836000Y-79293285D02*
X22759809Y-79179000D01*
X22759809Y-79007571D01*
X22836000Y-78836142D01*
X22988380Y-78721857D01*
X23140761Y-78664714D01*
X23445523Y-78607571D01*
X23674095Y-78607571D01*
X23978857Y-78664714D01*
X24131238Y-78721857D01*
X24283619Y-78836142D01*
X24359809Y-79007571D01*
X24359809Y-79121857D01*
X24283619Y-79293285D01*
X24207428Y-79350428D01*
X23674095Y-79350428D01*
X23674095Y-79121857D01*
X24359809Y-79864714D02*
X22759809Y-79864714D01*
X24359809Y-80550428D01*
X22759809Y-80550428D01*
X24359809Y-81121857D02*
X22759809Y-81121857D01*
X22759809Y-81407571D01*
X22836000Y-81579000D01*
X22988380Y-81693285D01*
X23140761Y-81750428D01*
X23445523Y-81807571D01*
X23674095Y-81807571D01*
X23978857Y-81750428D01*
X24131238Y-81693285D01*
X24283619Y-81579000D01*
X24359809Y-81407571D01*
X24359809Y-81121857D01*
X26935809Y-79350428D02*
X26173904Y-78950428D01*
X26935809Y-78664714D02*
X25335809Y-78664714D01*
X25335809Y-79121857D01*
X25412000Y-79236142D01*
X25488190Y-79293285D01*
X25640571Y-79350428D01*
X25869142Y-79350428D01*
X26021523Y-79293285D01*
X26097714Y-79236142D01*
X26173904Y-79121857D01*
X26173904Y-78664714D01*
X26935809Y-79750428D02*
X25869142Y-80379000D01*
X25869142Y-79750428D02*
X26935809Y-80379000D01*
X26935809Y-80836142D02*
X25335809Y-80836142D01*
X25335809Y-81121857D01*
X25412000Y-81293285D01*
X25564380Y-81407571D01*
X25716761Y-81464714D01*
X26021523Y-81521857D01*
X26250095Y-81521857D01*
X26554857Y-81464714D01*
X26707238Y-81407571D01*
X26859619Y-81293285D01*
X26935809Y-81121857D01*
X26935809Y-80836142D01*
X27911809Y-78493285D02*
X27911809Y-79179000D01*
X29511809Y-78836142D02*
X27911809Y-78836142D01*
X29511809Y-79464714D02*
X28445142Y-80093285D01*
X28445142Y-79464714D02*
X29511809Y-80093285D01*
X29511809Y-80550428D02*
X27911809Y-80550428D01*
X27911809Y-80836142D01*
X27988000Y-81007571D01*
X28140380Y-81121857D01*
X28292761Y-81179000D01*
X28597523Y-81236142D01*
X28826095Y-81236142D01*
X29130857Y-81179000D01*
X29283238Y-81121857D01*
X29435619Y-81007571D01*
X29511809Y-80836142D01*
X29511809Y-80550428D01*
X30487809Y-78550428D02*
X30487809Y-79293285D01*
X31097333Y-78893285D01*
X31097333Y-79064714D01*
X31173523Y-79179000D01*
X31249714Y-79236142D01*
X31402095Y-79293285D01*
X31783047Y-79293285D01*
X31935428Y-79236142D01*
X32011619Y-79179000D01*
X32087809Y-79064714D01*
X32087809Y-78721857D01*
X32011619Y-78607571D01*
X31935428Y-78550428D01*
X30487809Y-79636142D02*
X32087809Y-80036142D01*
X30487809Y-80436142D01*
X30487809Y-80721857D02*
X30487809Y-81464714D01*
X31097333Y-81064714D01*
X31097333Y-81236142D01*
X31173523Y-81350428D01*
X31249714Y-81407571D01*
X31402095Y-81464714D01*
X31783047Y-81464714D01*
X31935428Y-81407571D01*
X32011619Y-81350428D01*
X32087809Y-81236142D01*
X32087809Y-80893285D01*
X32011619Y-80779000D01*
X31935428Y-80721857D01*
X68336000Y-79293285D02*
X68259809Y-79179000D01*
X68259809Y-79007571D01*
X68336000Y-78836142D01*
X68488380Y-78721857D01*
X68640761Y-78664714D01*
X68945523Y-78607571D01*
X69174095Y-78607571D01*
X69478857Y-78664714D01*
X69631238Y-78721857D01*
X69783619Y-78836142D01*
X69859809Y-79007571D01*
X69859809Y-79121857D01*
X69783619Y-79293285D01*
X69707428Y-79350428D01*
X69174095Y-79350428D01*
X69174095Y-79121857D01*
X69859809Y-79864714D02*
X68259809Y-79864714D01*
X69859809Y-80550428D01*
X68259809Y-80550428D01*
X69859809Y-81121857D02*
X68259809Y-81121857D01*
X68259809Y-81407571D01*
X68336000Y-81579000D01*
X68488380Y-81693285D01*
X68640761Y-81750428D01*
X68945523Y-81807571D01*
X69174095Y-81807571D01*
X69478857Y-81750428D01*
X69631238Y-81693285D01*
X69783619Y-81579000D01*
X69859809Y-81407571D01*
X69859809Y-81121857D01*
X72435809Y-79350428D02*
X71673904Y-78950428D01*
X72435809Y-78664714D02*
X70835809Y-78664714D01*
X70835809Y-79121857D01*
X70912000Y-79236142D01*
X70988190Y-79293285D01*
X71140571Y-79350428D01*
X71369142Y-79350428D01*
X71521523Y-79293285D01*
X71597714Y-79236142D01*
X71673904Y-79121857D01*
X71673904Y-78664714D01*
X72435809Y-79750428D02*
X71369142Y-80379000D01*
X71369142Y-79750428D02*
X72435809Y-80379000D01*
X72435809Y-80836142D02*
X70835809Y-80836142D01*
X70835809Y-81121857D01*
X70912000Y-81293285D01*
X71064380Y-81407571D01*
X71216761Y-81464714D01*
X71521523Y-81521857D01*
X71750095Y-81521857D01*
X72054857Y-81464714D01*
X72207238Y-81407571D01*
X72359619Y-81293285D01*
X72435809Y-81121857D01*
X72435809Y-80836142D01*
X73411809Y-78493285D02*
X73411809Y-79179000D01*
X75011809Y-78836142D02*
X73411809Y-78836142D01*
X75011809Y-79464714D02*
X73945142Y-80093285D01*
X73945142Y-79464714D02*
X75011809Y-80093285D01*
X75011809Y-80550428D02*
X73411809Y-80550428D01*
X73411809Y-80836142D01*
X73488000Y-81007571D01*
X73640380Y-81121857D01*
X73792761Y-81179000D01*
X74097523Y-81236142D01*
X74326095Y-81236142D01*
X74630857Y-81179000D01*
X74783238Y-81121857D01*
X74935619Y-81007571D01*
X75011809Y-80836142D01*
X75011809Y-80550428D01*
X75987809Y-78550428D02*
X75987809Y-79293285D01*
X76597333Y-78893285D01*
X76597333Y-79064714D01*
X76673523Y-79179000D01*
X76749714Y-79236142D01*
X76902095Y-79293285D01*
X77283047Y-79293285D01*
X77435428Y-79236142D01*
X77511619Y-79179000D01*
X77587809Y-79064714D01*
X77587809Y-78721857D01*
X77511619Y-78607571D01*
X77435428Y-78550428D01*
X75987809Y-79636142D02*
X77587809Y-80036142D01*
X75987809Y-80436142D01*
X75987809Y-80721857D02*
X75987809Y-81464714D01*
X76597333Y-81064714D01*
X76597333Y-81236142D01*
X76673523Y-81350428D01*
X76749714Y-81407571D01*
X76902095Y-81464714D01*
X77283047Y-81464714D01*
X77435428Y-81407571D01*
X77511619Y-81350428D01*
X77587809Y-81236142D01*
X77587809Y-80893285D01*
X77511619Y-80779000D01*
X77435428Y-80721857D01*
X96452380Y-65525000D02*
X95452380Y-65525000D01*
X95452380Y-65763095D01*
X95500000Y-65905952D01*
X95595238Y-66001190D01*
X95690476Y-66048809D01*
X95880952Y-66096428D01*
X96023809Y-66096428D01*
X96214285Y-66048809D01*
X96309523Y-66001190D01*
X96404761Y-65905952D01*
X96452380Y-65763095D01*
X96452380Y-65525000D01*
X96404761Y-66905952D02*
X96452380Y-66810714D01*
X96452380Y-66620238D01*
X96404761Y-66525000D01*
X96309523Y-66477380D01*
X95928571Y-66477380D01*
X95833333Y-66525000D01*
X95785714Y-66620238D01*
X95785714Y-66810714D01*
X95833333Y-66905952D01*
X95928571Y-66953571D01*
X96023809Y-66953571D01*
X96119047Y-66477380D01*
X96404761Y-67334523D02*
X96452380Y-67429761D01*
X96452380Y-67620238D01*
X96404761Y-67715476D01*
X96309523Y-67763095D01*
X96261904Y-67763095D01*
X96166666Y-67715476D01*
X96119047Y-67620238D01*
X96119047Y-67477380D01*
X96071428Y-67382142D01*
X95976190Y-67334523D01*
X95928571Y-67334523D01*
X95833333Y-67382142D01*
X95785714Y-67477380D01*
X95785714Y-67620238D01*
X95833333Y-67715476D01*
X96452380Y-68191666D02*
X95785714Y-68191666D01*
X95452380Y-68191666D02*
X95500000Y-68144047D01*
X95547619Y-68191666D01*
X95500000Y-68239285D01*
X95452380Y-68191666D01*
X95547619Y-68191666D01*
X95785714Y-69096428D02*
X96595238Y-69096428D01*
X96690476Y-69048809D01*
X96738095Y-69001190D01*
X96785714Y-68905952D01*
X96785714Y-68763095D01*
X96738095Y-68667857D01*
X96404761Y-69096428D02*
X96452380Y-69001190D01*
X96452380Y-68810714D01*
X96404761Y-68715476D01*
X96357142Y-68667857D01*
X96261904Y-68620238D01*
X95976190Y-68620238D01*
X95880952Y-68667857D01*
X95833333Y-68715476D01*
X95785714Y-68810714D01*
X95785714Y-69001190D01*
X95833333Y-69096428D01*
X95785714Y-69572619D02*
X96452380Y-69572619D01*
X95880952Y-69572619D02*
X95833333Y-69620238D01*
X95785714Y-69715476D01*
X95785714Y-69858333D01*
X95833333Y-69953571D01*
X95928571Y-70001190D01*
X96452380Y-70001190D01*
X96404761Y-70858333D02*
X96452380Y-70763095D01*
X96452380Y-70572619D01*
X96404761Y-70477380D01*
X96309523Y-70429761D01*
X95928571Y-70429761D01*
X95833333Y-70477380D01*
X95785714Y-70572619D01*
X95785714Y-70763095D01*
X95833333Y-70858333D01*
X95928571Y-70905952D01*
X96023809Y-70905952D01*
X96119047Y-70429761D01*
X96452380Y-71763095D02*
X95452380Y-71763095D01*
X96404761Y-71763095D02*
X96452380Y-71667857D01*
X96452380Y-71477380D01*
X96404761Y-71382142D01*
X96357142Y-71334523D01*
X96261904Y-71286904D01*
X95976190Y-71286904D01*
X95880952Y-71334523D01*
X95833333Y-71382142D01*
X95785714Y-71477380D01*
X95785714Y-71667857D01*
X95833333Y-71763095D01*
X96452380Y-73001190D02*
X95452380Y-73001190D01*
X95833333Y-73001190D02*
X95785714Y-73096428D01*
X95785714Y-73286904D01*
X95833333Y-73382142D01*
X95880952Y-73429761D01*
X95976190Y-73477380D01*
X96261904Y-73477380D01*
X96357142Y-73429761D01*
X96404761Y-73382142D01*
X96452380Y-73286904D01*
X96452380Y-73096428D01*
X96404761Y-73001190D01*
X95785714Y-73810714D02*
X96452380Y-74048809D01*
X95785714Y-74286904D02*
X96452380Y-74048809D01*
X96690476Y-73953571D01*
X96738095Y-73905952D01*
X96785714Y-73810714D01*
X95452380Y-75715476D02*
X96166666Y-75715476D01*
X96309523Y-75667857D01*
X96404761Y-75572619D01*
X96452380Y-75429761D01*
X96452380Y-75334523D01*
X96452380Y-76620238D02*
X95928571Y-76620238D01*
X95833333Y-76572619D01*
X95785714Y-76477380D01*
X95785714Y-76286904D01*
X95833333Y-76191666D01*
X96404761Y-76620238D02*
X96452380Y-76525000D01*
X96452380Y-76286904D01*
X96404761Y-76191666D01*
X96309523Y-76144047D01*
X96214285Y-76144047D01*
X96119047Y-76191666D01*
X96071428Y-76286904D01*
X96071428Y-76525000D01*
X96023809Y-76620238D01*
X96404761Y-77525000D02*
X96452380Y-77429761D01*
X96452380Y-77239285D01*
X96404761Y-77144047D01*
X96357142Y-77096428D01*
X96261904Y-77048809D01*
X95976190Y-77048809D01*
X95880952Y-77096428D01*
X95833333Y-77144047D01*
X95785714Y-77239285D01*
X95785714Y-77429761D01*
X95833333Y-77525000D01*
X96452380Y-77953571D02*
X95452380Y-77953571D01*
X96071428Y-78048809D02*
X96452380Y-78334523D01*
X95785714Y-78334523D02*
X96166666Y-77953571D01*
X96404761Y-78715476D02*
X96452380Y-78810714D01*
X96452380Y-79001190D01*
X96404761Y-79096428D01*
X96309523Y-79144047D01*
X96261904Y-79144047D01*
X96166666Y-79096428D01*
X96119047Y-79001190D01*
X96119047Y-78858333D01*
X96071428Y-78763095D01*
X95976190Y-78715476D01*
X95928571Y-78715476D01*
X95833333Y-78763095D01*
X95785714Y-78858333D01*
X95785714Y-79001190D01*
X95833333Y-79096428D01*
X96452380Y-79715476D02*
X96404761Y-79620238D01*
X96357142Y-79572619D01*
X96261904Y-79525000D01*
X95976190Y-79525000D01*
X95880952Y-79572619D01*
X95833333Y-79620238D01*
X95785714Y-79715476D01*
X95785714Y-79858333D01*
X95833333Y-79953571D01*
X95880952Y-80001190D01*
X95976190Y-80048809D01*
X96261904Y-80048809D01*
X96357142Y-80001190D01*
X96404761Y-79953571D01*
X96452380Y-79858333D01*
X96452380Y-79715476D01*
X95785714Y-80477380D02*
X96452380Y-80477380D01*
X95880952Y-80477380D02*
X95833333Y-80525000D01*
X95785714Y-80620238D01*
X95785714Y-80763095D01*
X95833333Y-80858333D01*
X95928571Y-80905952D01*
X96452380Y-80905952D01*
X96452380Y-82144047D02*
X95452380Y-82144047D01*
X96166666Y-82477380D01*
X95452380Y-82810714D01*
X96452380Y-82810714D01*
X96452380Y-84048809D02*
X95452380Y-84048809D01*
X95928571Y-84048809D02*
X95928571Y-84620238D01*
X96452380Y-84620238D02*
X95452380Y-84620238D01*
X95785714Y-85525000D02*
X96452380Y-85525000D01*
X95785714Y-85096428D02*
X96309523Y-85096428D01*
X96404761Y-85144047D01*
X96452380Y-85239285D01*
X96452380Y-85382142D01*
X96404761Y-85477380D01*
X96357142Y-85525000D01*
X61797380Y-67552809D02*
X62511666Y-67552809D01*
X62654523Y-67505190D01*
X62749761Y-67409952D01*
X62797380Y-67267095D01*
X62797380Y-67171857D01*
X62130714Y-68457571D02*
X62797380Y-68457571D01*
X62130714Y-68029000D02*
X62654523Y-68029000D01*
X62749761Y-68076619D01*
X62797380Y-68171857D01*
X62797380Y-68314714D01*
X62749761Y-68409952D01*
X62702142Y-68457571D01*
X62797380Y-68933761D02*
X62130714Y-68933761D01*
X62225952Y-68933761D02*
X62178333Y-68981380D01*
X62130714Y-69076619D01*
X62130714Y-69219476D01*
X62178333Y-69314714D01*
X62273571Y-69362333D01*
X62797380Y-69362333D01*
X62273571Y-69362333D02*
X62178333Y-69409952D01*
X62130714Y-69505190D01*
X62130714Y-69648047D01*
X62178333Y-69743285D01*
X62273571Y-69790904D01*
X62797380Y-69790904D01*
X62797380Y-70267095D02*
X61797380Y-70267095D01*
X62178333Y-70267095D02*
X62130714Y-70362333D01*
X62130714Y-70552809D01*
X62178333Y-70648047D01*
X62225952Y-70695666D01*
X62321190Y-70743285D01*
X62606904Y-70743285D01*
X62702142Y-70695666D01*
X62749761Y-70648047D01*
X62797380Y-70552809D01*
X62797380Y-70362333D01*
X62749761Y-70267095D01*
X62797380Y-71314714D02*
X62749761Y-71219476D01*
X62702142Y-71171857D01*
X62606904Y-71124238D01*
X62321190Y-71124238D01*
X62225952Y-71171857D01*
X62178333Y-71219476D01*
X62130714Y-71314714D01*
X62130714Y-71457571D01*
X62178333Y-71552809D01*
X62225952Y-71600428D01*
X62321190Y-71648047D01*
X62606904Y-71648047D01*
X62702142Y-71600428D01*
X62749761Y-71552809D01*
X62797380Y-71457571D01*
X62797380Y-71314714D01*
X62273571Y-72838523D02*
X62273571Y-73171857D01*
X62797380Y-73314714D02*
X62797380Y-72838523D01*
X61797380Y-72838523D01*
X61797380Y-73314714D01*
X62749761Y-73695666D02*
X62797380Y-73838523D01*
X62797380Y-74076619D01*
X62749761Y-74171857D01*
X62702142Y-74219476D01*
X62606904Y-74267095D01*
X62511666Y-74267095D01*
X62416428Y-74219476D01*
X62368809Y-74171857D01*
X62321190Y-74076619D01*
X62273571Y-73886142D01*
X62225952Y-73790904D01*
X62178333Y-73743285D01*
X62083095Y-73695666D01*
X61987857Y-73695666D01*
X61892619Y-73743285D01*
X61845000Y-73790904D01*
X61797380Y-73886142D01*
X61797380Y-74124238D01*
X61845000Y-74267095D01*
X62797380Y-74695666D02*
X61797380Y-74695666D01*
X61797380Y-75076619D01*
X61845000Y-75171857D01*
X61892619Y-75219476D01*
X61987857Y-75267095D01*
X62130714Y-75267095D01*
X62225952Y-75219476D01*
X62273571Y-75171857D01*
X62321190Y-75076619D01*
X62321190Y-74695666D01*
X61797380Y-75600428D02*
X61797380Y-76219476D01*
X62178333Y-75886142D01*
X62178333Y-76029000D01*
X62225952Y-76124238D01*
X62273571Y-76171857D01*
X62368809Y-76219476D01*
X62606904Y-76219476D01*
X62702142Y-76171857D01*
X62749761Y-76124238D01*
X62797380Y-76029000D01*
X62797380Y-75743285D01*
X62749761Y-75648047D01*
X62702142Y-75600428D01*
X61892619Y-76600428D02*
X61845000Y-76648047D01*
X61797380Y-76743285D01*
X61797380Y-76981380D01*
X61845000Y-77076619D01*
X61892619Y-77124238D01*
X61987857Y-77171857D01*
X62083095Y-77171857D01*
X62225952Y-77124238D01*
X62797380Y-76552809D01*
X62797380Y-77171857D01*
X63883571Y-67267095D02*
X63883571Y-67600428D01*
X64407380Y-67743285D02*
X64407380Y-67267095D01*
X63407380Y-67267095D01*
X63407380Y-67743285D01*
X64359761Y-68124238D02*
X64407380Y-68267095D01*
X64407380Y-68505190D01*
X64359761Y-68600428D01*
X64312142Y-68648047D01*
X64216904Y-68695666D01*
X64121666Y-68695666D01*
X64026428Y-68648047D01*
X63978809Y-68600428D01*
X63931190Y-68505190D01*
X63883571Y-68314714D01*
X63835952Y-68219476D01*
X63788333Y-68171857D01*
X63693095Y-68124238D01*
X63597857Y-68124238D01*
X63502619Y-68171857D01*
X63455000Y-68219476D01*
X63407380Y-68314714D01*
X63407380Y-68552809D01*
X63455000Y-68695666D01*
X64407380Y-69124238D02*
X63407380Y-69124238D01*
X63407380Y-69505190D01*
X63455000Y-69600428D01*
X63502619Y-69648047D01*
X63597857Y-69695666D01*
X63740714Y-69695666D01*
X63835952Y-69648047D01*
X63883571Y-69600428D01*
X63931190Y-69505190D01*
X63931190Y-69124238D01*
X63407380Y-70029000D02*
X63407380Y-70648047D01*
X63788333Y-70314714D01*
X63788333Y-70457571D01*
X63835952Y-70552809D01*
X63883571Y-70600428D01*
X63978809Y-70648047D01*
X64216904Y-70648047D01*
X64312142Y-70600428D01*
X64359761Y-70552809D01*
X64407380Y-70457571D01*
X64407380Y-70171857D01*
X64359761Y-70076619D01*
X64312142Y-70029000D01*
X63502619Y-71029000D02*
X63455000Y-71076619D01*
X63407380Y-71171857D01*
X63407380Y-71409952D01*
X63455000Y-71505190D01*
X63502619Y-71552809D01*
X63597857Y-71600428D01*
X63693095Y-71600428D01*
X63835952Y-71552809D01*
X64407380Y-70981380D01*
X64407380Y-71600428D01*
X64359761Y-71981380D02*
X64407380Y-72124238D01*
X64407380Y-72362333D01*
X64359761Y-72457571D01*
X64312142Y-72505190D01*
X64216904Y-72552809D01*
X64121666Y-72552809D01*
X64026428Y-72505190D01*
X63978809Y-72457571D01*
X63931190Y-72362333D01*
X63883571Y-72171857D01*
X63835952Y-72076619D01*
X63788333Y-72029000D01*
X63693095Y-71981380D01*
X63597857Y-71981380D01*
X63502619Y-72029000D01*
X63455000Y-72076619D01*
X63407380Y-72171857D01*
X63407380Y-72409952D01*
X63455000Y-72552809D01*
X63407380Y-72886142D02*
X63407380Y-73505190D01*
X63788333Y-73171857D01*
X63788333Y-73314714D01*
X63835952Y-73409952D01*
X63883571Y-73457571D01*
X63978809Y-73505190D01*
X64216904Y-73505190D01*
X64312142Y-73457571D01*
X64359761Y-73409952D01*
X64407380Y-73314714D01*
X64407380Y-73029000D01*
X64359761Y-72933761D01*
X64312142Y-72886142D01*
X64407380Y-75505190D02*
X64407380Y-75457571D01*
X64359761Y-75362333D01*
X64216904Y-75219476D01*
X63931190Y-74981380D01*
X63788333Y-74886142D01*
X63645476Y-74838523D01*
X63550238Y-74838523D01*
X63455000Y-74886142D01*
X63407380Y-74981380D01*
X63407380Y-75029000D01*
X63455000Y-75124238D01*
X63550238Y-75171857D01*
X63597857Y-75171857D01*
X63693095Y-75124238D01*
X63740714Y-75076619D01*
X63931190Y-74790904D01*
X63978809Y-74743285D01*
X64074047Y-74695666D01*
X64216904Y-74695666D01*
X64312142Y-74743285D01*
X64359761Y-74790904D01*
X64407380Y-74886142D01*
X64407380Y-75029000D01*
X64359761Y-75124238D01*
X64312142Y-75171857D01*
X64121666Y-75314714D01*
X63978809Y-75362333D01*
X63883571Y-75362333D01*
X64121666Y-76648047D02*
X64121666Y-77124238D01*
X64407380Y-76552809D02*
X63407380Y-76886142D01*
X64407380Y-77219476D01*
X64407380Y-77552809D02*
X63407380Y-77552809D01*
X63407380Y-77933761D01*
X63455000Y-78029000D01*
X63502619Y-78076619D01*
X63597857Y-78124238D01*
X63740714Y-78124238D01*
X63835952Y-78076619D01*
X63883571Y-78029000D01*
X63931190Y-77933761D01*
X63931190Y-77552809D01*
X64359761Y-78505190D02*
X64407380Y-78648047D01*
X64407380Y-78886142D01*
X64359761Y-78981380D01*
X64312142Y-79029000D01*
X64216904Y-79076619D01*
X64121666Y-79076619D01*
X64026428Y-79029000D01*
X63978809Y-78981380D01*
X63931190Y-78886142D01*
X63883571Y-78695666D01*
X63835952Y-78600428D01*
X63788333Y-78552809D01*
X63693095Y-78505190D01*
X63597857Y-78505190D01*
X63502619Y-78552809D01*
X63455000Y-78600428D01*
X63407380Y-78695666D01*
X63407380Y-78933761D01*
X63455000Y-79076619D01*
X64407380Y-80029000D02*
X64407380Y-79457571D01*
X64407380Y-79743285D02*
X63407380Y-79743285D01*
X63550238Y-79648047D01*
X63645476Y-79552809D01*
X63693095Y-79457571D01*
X63502619Y-80409952D02*
X63455000Y-80457571D01*
X63407380Y-80552809D01*
X63407380Y-80790904D01*
X63455000Y-80886142D01*
X63502619Y-80933761D01*
X63597857Y-80981380D01*
X63693095Y-80981380D01*
X63835952Y-80933761D01*
X64407380Y-80362333D01*
X64407380Y-80981380D01*
X63835952Y-81552809D02*
X63788333Y-81457571D01*
X63740714Y-81409952D01*
X63645476Y-81362333D01*
X63597857Y-81362333D01*
X63502619Y-81409952D01*
X63455000Y-81457571D01*
X63407380Y-81552809D01*
X63407380Y-81743285D01*
X63455000Y-81838523D01*
X63502619Y-81886142D01*
X63597857Y-81933761D01*
X63645476Y-81933761D01*
X63740714Y-81886142D01*
X63788333Y-81838523D01*
X63835952Y-81743285D01*
X63835952Y-81552809D01*
X63883571Y-81457571D01*
X63931190Y-81409952D01*
X64026428Y-81362333D01*
X64216904Y-81362333D01*
X64312142Y-81409952D01*
X64359761Y-81457571D01*
X64407380Y-81552809D01*
X64407380Y-81743285D01*
X64359761Y-81838523D01*
X64312142Y-81886142D01*
X64216904Y-81933761D01*
X64026428Y-81933761D01*
X63931190Y-81886142D01*
X63883571Y-81838523D01*
X63835952Y-81743285D01*
X63407380Y-82552809D02*
X63407380Y-82648047D01*
X63455000Y-82743285D01*
X63502619Y-82790904D01*
X63597857Y-82838523D01*
X63788333Y-82886142D01*
X64026428Y-82886142D01*
X64216904Y-82838523D01*
X64312142Y-82790904D01*
X64359761Y-82743285D01*
X64407380Y-82648047D01*
X64407380Y-82552809D01*
X64359761Y-82457571D01*
X64312142Y-82409952D01*
X64216904Y-82362333D01*
X64026428Y-82314714D01*
X63788333Y-82314714D01*
X63597857Y-82362333D01*
X63502619Y-82409952D01*
X63455000Y-82457571D01*
X63407380Y-82552809D01*
X63835952Y-83457571D02*
X63788333Y-83362333D01*
X63740714Y-83314714D01*
X63645476Y-83267095D01*
X63597857Y-83267095D01*
X63502619Y-83314714D01*
X63455000Y-83362333D01*
X63407380Y-83457571D01*
X63407380Y-83648047D01*
X63455000Y-83743285D01*
X63502619Y-83790904D01*
X63597857Y-83838523D01*
X63645476Y-83838523D01*
X63740714Y-83790904D01*
X63788333Y-83743285D01*
X63835952Y-83648047D01*
X63835952Y-83457571D01*
X63883571Y-83362333D01*
X63931190Y-83314714D01*
X64026428Y-83267095D01*
X64216904Y-83267095D01*
X64312142Y-83314714D01*
X64359761Y-83362333D01*
X64407380Y-83457571D01*
X64407380Y-83648047D01*
X64359761Y-83743285D01*
X64312142Y-83790904D01*
X64216904Y-83838523D01*
X64026428Y-83838523D01*
X63931190Y-83790904D01*
X63883571Y-83743285D01*
X63835952Y-83648047D01*
X68336000Y-46993285D02*
X68259809Y-46879000D01*
X68259809Y-46707571D01*
X68336000Y-46536142D01*
X68488380Y-46421857D01*
X68640761Y-46364714D01*
X68945523Y-46307571D01*
X69174095Y-46307571D01*
X69478857Y-46364714D01*
X69631238Y-46421857D01*
X69783619Y-46536142D01*
X69859809Y-46707571D01*
X69859809Y-46821857D01*
X69783619Y-46993285D01*
X69707428Y-47050428D01*
X69174095Y-47050428D01*
X69174095Y-46821857D01*
X69859809Y-47564714D02*
X68259809Y-47564714D01*
X69859809Y-48250428D01*
X68259809Y-48250428D01*
X69859809Y-48821857D02*
X68259809Y-48821857D01*
X68259809Y-49107571D01*
X68336000Y-49279000D01*
X68488380Y-49393285D01*
X68640761Y-49450428D01*
X68945523Y-49507571D01*
X69174095Y-49507571D01*
X69478857Y-49450428D01*
X69631238Y-49393285D01*
X69783619Y-49279000D01*
X69859809Y-49107571D01*
X69859809Y-48821857D01*
X72435809Y-47050428D02*
X71673904Y-46650428D01*
X72435809Y-46364714D02*
X70835809Y-46364714D01*
X70835809Y-46821857D01*
X70912000Y-46936142D01*
X70988190Y-46993285D01*
X71140571Y-47050428D01*
X71369142Y-47050428D01*
X71521523Y-46993285D01*
X71597714Y-46936142D01*
X71673904Y-46821857D01*
X71673904Y-46364714D01*
X72435809Y-47450428D02*
X71369142Y-48079000D01*
X71369142Y-47450428D02*
X72435809Y-48079000D01*
X72435809Y-48536142D02*
X70835809Y-48536142D01*
X70835809Y-48821857D01*
X70912000Y-48993285D01*
X71064380Y-49107571D01*
X71216761Y-49164714D01*
X71521523Y-49221857D01*
X71750095Y-49221857D01*
X72054857Y-49164714D01*
X72207238Y-49107571D01*
X72359619Y-48993285D01*
X72435809Y-48821857D01*
X72435809Y-48536142D01*
X73411809Y-46193285D02*
X73411809Y-46879000D01*
X75011809Y-46536142D02*
X73411809Y-46536142D01*
X75011809Y-47164714D02*
X73945142Y-47793285D01*
X73945142Y-47164714D02*
X75011809Y-47793285D01*
X75011809Y-48250428D02*
X73411809Y-48250428D01*
X73411809Y-48536142D01*
X73488000Y-48707571D01*
X73640380Y-48821857D01*
X73792761Y-48879000D01*
X74097523Y-48936142D01*
X74326095Y-48936142D01*
X74630857Y-48879000D01*
X74783238Y-48821857D01*
X74935619Y-48707571D01*
X75011809Y-48536142D01*
X75011809Y-48250428D01*
X75987809Y-46250428D02*
X75987809Y-46993285D01*
X76597333Y-46593285D01*
X76597333Y-46764714D01*
X76673523Y-46879000D01*
X76749714Y-46936142D01*
X76902095Y-46993285D01*
X77283047Y-46993285D01*
X77435428Y-46936142D01*
X77511619Y-46879000D01*
X77587809Y-46764714D01*
X77587809Y-46421857D01*
X77511619Y-46307571D01*
X77435428Y-46250428D01*
X75987809Y-47336142D02*
X77587809Y-47736142D01*
X75987809Y-48136142D01*
X75987809Y-48421857D02*
X75987809Y-49164714D01*
X76597333Y-48764714D01*
X76597333Y-48936142D01*
X76673523Y-49050428D01*
X76749714Y-49107571D01*
X76902095Y-49164714D01*
X77283047Y-49164714D01*
X77435428Y-49107571D01*
X77511619Y-49050428D01*
X77587809Y-48936142D01*
X77587809Y-48593285D01*
X77511619Y-48479000D01*
X77435428Y-48421857D01*
X93107285Y-65261142D02*
X93107285Y-64861142D01*
X92269190Y-64689714D02*
X92269190Y-65261142D01*
X93869190Y-65261142D01*
X93869190Y-64689714D01*
X92269190Y-64175428D02*
X93869190Y-64175428D01*
X92269190Y-63489714D01*
X93869190Y-63489714D01*
X91293190Y-63832571D02*
X91293190Y-63718285D01*
X91217000Y-63604000D01*
X91140809Y-63546857D01*
X90988428Y-63489714D01*
X90683666Y-63432571D01*
X90302714Y-63432571D01*
X89997952Y-63489714D01*
X89845571Y-63546857D01*
X89769380Y-63604000D01*
X89693190Y-63718285D01*
X89693190Y-63832571D01*
X89769380Y-63946857D01*
X89845571Y-64004000D01*
X89997952Y-64061142D01*
X90302714Y-64118285D01*
X90683666Y-64118285D01*
X90988428Y-64061142D01*
X91140809Y-64004000D01*
X91217000Y-63946857D01*
X91293190Y-63832571D01*
X87117190Y-64575428D02*
X87117190Y-65261142D01*
X87117190Y-64918285D02*
X88717190Y-64918285D01*
X88488619Y-65032571D01*
X88336238Y-65146857D01*
X88260047Y-65261142D01*
X88717190Y-63832571D02*
X88717190Y-63718285D01*
X88641000Y-63604000D01*
X88564809Y-63546857D01*
X88412428Y-63489714D01*
X88107666Y-63432571D01*
X87726714Y-63432571D01*
X87421952Y-63489714D01*
X87269571Y-63546857D01*
X87193380Y-63604000D01*
X87117190Y-63718285D01*
X87117190Y-63832571D01*
X87193380Y-63946857D01*
X87269571Y-64004000D01*
X87421952Y-64061142D01*
X87726714Y-64118285D01*
X88107666Y-64118285D01*
X88412428Y-64061142D01*
X88564809Y-64004000D01*
X88641000Y-63946857D01*
X88717190Y-63832571D01*
X84541190Y-64575428D02*
X84541190Y-65261142D01*
X84541190Y-64918285D02*
X86141190Y-64918285D01*
X85912619Y-65032571D01*
X85760238Y-65146857D01*
X85684047Y-65261142D01*
X84541190Y-63432571D02*
X84541190Y-64118285D01*
X84541190Y-63775428D02*
X86141190Y-63775428D01*
X85912619Y-63889714D01*
X85760238Y-64004000D01*
X85684047Y-64118285D01*
X81965190Y-64575428D02*
X81965190Y-65261142D01*
X81965190Y-64918285D02*
X83565190Y-64918285D01*
X83336619Y-65032571D01*
X83184238Y-65146857D01*
X83108047Y-65261142D01*
X83412809Y-64118285D02*
X83489000Y-64061142D01*
X83565190Y-63946857D01*
X83565190Y-63661142D01*
X83489000Y-63546857D01*
X83412809Y-63489714D01*
X83260428Y-63432571D01*
X83108047Y-63432571D01*
X82879476Y-63489714D01*
X81965190Y-64175428D01*
X81965190Y-63432571D01*
X79389190Y-64575428D02*
X79389190Y-65261142D01*
X79389190Y-64918285D02*
X80989190Y-64918285D01*
X80760619Y-65032571D01*
X80608238Y-65146857D01*
X80532047Y-65261142D01*
X80989190Y-64175428D02*
X80989190Y-63432571D01*
X80379666Y-63832571D01*
X80379666Y-63661142D01*
X80303476Y-63546857D01*
X80227285Y-63489714D01*
X80074904Y-63432571D01*
X79693952Y-63432571D01*
X79541571Y-63489714D01*
X79465380Y-63546857D01*
X79389190Y-63661142D01*
X79389190Y-64004000D01*
X79465380Y-64118285D01*
X79541571Y-64175428D01*
X78413190Y-66518285D02*
X76813190Y-66118285D01*
X78413190Y-65718285D01*
X76965571Y-64632571D02*
X76889380Y-64689714D01*
X76813190Y-64861142D01*
X76813190Y-64975428D01*
X76889380Y-65146857D01*
X77041761Y-65261142D01*
X77194142Y-65318285D01*
X77498904Y-65375428D01*
X77727476Y-65375428D01*
X78032238Y-65318285D01*
X78184619Y-65261142D01*
X78337000Y-65146857D01*
X78413190Y-64975428D01*
X78413190Y-64861142D01*
X78337000Y-64689714D01*
X78260809Y-64632571D01*
X76965571Y-63432571D02*
X76889380Y-63489714D01*
X76813190Y-63661142D01*
X76813190Y-63775428D01*
X76889380Y-63946857D01*
X77041761Y-64061142D01*
X77194142Y-64118285D01*
X77498904Y-64175428D01*
X77727476Y-64175428D01*
X78032238Y-64118285D01*
X78184619Y-64061142D01*
X78337000Y-63946857D01*
X78413190Y-63775428D01*
X78413190Y-63661142D01*
X78337000Y-63489714D01*
X78260809Y-63432571D01*
X75761000Y-65946857D02*
X75837190Y-66061142D01*
X75837190Y-66232571D01*
X75761000Y-66404000D01*
X75608619Y-66518285D01*
X75456238Y-66575428D01*
X75151476Y-66632571D01*
X74922904Y-66632571D01*
X74618142Y-66575428D01*
X74465761Y-66518285D01*
X74313380Y-66404000D01*
X74237190Y-66232571D01*
X74237190Y-66118285D01*
X74313380Y-65946857D01*
X74389571Y-65889714D01*
X74922904Y-65889714D01*
X74922904Y-66118285D01*
X74237190Y-65375428D02*
X75837190Y-65375428D01*
X74237190Y-64689714D01*
X75837190Y-64689714D01*
X74237190Y-64118285D02*
X75837190Y-64118285D01*
X75837190Y-63832571D01*
X75761000Y-63661142D01*
X75608619Y-63546857D01*
X75456238Y-63489714D01*
X75151476Y-63432571D01*
X74922904Y-63432571D01*
X74618142Y-63489714D01*
X74465761Y-63546857D01*
X74313380Y-63661142D01*
X74237190Y-63832571D01*
X74237190Y-64118285D01*
X71661190Y-64575428D02*
X71661190Y-65261142D01*
X71661190Y-64918285D02*
X73261190Y-64918285D01*
X73032619Y-65032571D01*
X72880238Y-65146857D01*
X72804047Y-65261142D01*
X72727857Y-63546857D02*
X71661190Y-63546857D01*
X73337380Y-63832571D02*
X72194523Y-64118285D01*
X72194523Y-63375428D01*
X69085190Y-64575428D02*
X69085190Y-65261142D01*
X69085190Y-64918285D02*
X70685190Y-64918285D01*
X70456619Y-65032571D01*
X70304238Y-65146857D01*
X70228047Y-65261142D01*
X70685190Y-63489714D02*
X70685190Y-64061142D01*
X69923285Y-64118285D01*
X69999476Y-64061142D01*
X70075666Y-63946857D01*
X70075666Y-63661142D01*
X69999476Y-63546857D01*
X69923285Y-63489714D01*
X69770904Y-63432571D01*
X69389952Y-63432571D01*
X69237571Y-63489714D01*
X69161380Y-63546857D01*
X69085190Y-63661142D01*
X69085190Y-63946857D01*
X69161380Y-64061142D01*
X69237571Y-64118285D01*
X66509190Y-64575428D02*
X66509190Y-65261142D01*
X66509190Y-64918285D02*
X68109190Y-64918285D01*
X67880619Y-65032571D01*
X67728238Y-65146857D01*
X67652047Y-65261142D01*
X66509190Y-64004000D02*
X66509190Y-63775428D01*
X66585380Y-63661142D01*
X66661571Y-63604000D01*
X66890142Y-63489714D01*
X67194904Y-63432571D01*
X67804428Y-63432571D01*
X67956809Y-63489714D01*
X68033000Y-63546857D01*
X68109190Y-63661142D01*
X68109190Y-63889714D01*
X68033000Y-64004000D01*
X67956809Y-64061142D01*
X67804428Y-64118285D01*
X67423476Y-64118285D01*
X67271095Y-64061142D01*
X67194904Y-64004000D01*
X67118714Y-63889714D01*
X67118714Y-63661142D01*
X67194904Y-63546857D01*
X67271095Y-63489714D01*
X67423476Y-63432571D01*
X65380809Y-65261142D02*
X65457000Y-65204000D01*
X65533190Y-65089714D01*
X65533190Y-64804000D01*
X65457000Y-64689714D01*
X65380809Y-64632571D01*
X65228428Y-64575428D01*
X65076047Y-64575428D01*
X64847476Y-64632571D01*
X63933190Y-65318285D01*
X63933190Y-64575428D01*
X65533190Y-63832571D02*
X65533190Y-63718285D01*
X65457000Y-63604000D01*
X65380809Y-63546857D01*
X65228428Y-63489714D01*
X64923666Y-63432571D01*
X64542714Y-63432571D01*
X64237952Y-63489714D01*
X64085571Y-63546857D01*
X64009380Y-63604000D01*
X63933190Y-63718285D01*
X63933190Y-63832571D01*
X64009380Y-63946857D01*
X64085571Y-64004000D01*
X64237952Y-64061142D01*
X64542714Y-64118285D01*
X64923666Y-64118285D01*
X65228428Y-64061142D01*
X65380809Y-64004000D01*
X65457000Y-63946857D01*
X65533190Y-63832571D01*
X22836000Y-46993285D02*
X22759809Y-46879000D01*
X22759809Y-46707571D01*
X22836000Y-46536142D01*
X22988380Y-46421857D01*
X23140761Y-46364714D01*
X23445523Y-46307571D01*
X23674095Y-46307571D01*
X23978857Y-46364714D01*
X24131238Y-46421857D01*
X24283619Y-46536142D01*
X24359809Y-46707571D01*
X24359809Y-46821857D01*
X24283619Y-46993285D01*
X24207428Y-47050428D01*
X23674095Y-47050428D01*
X23674095Y-46821857D01*
X24359809Y-47564714D02*
X22759809Y-47564714D01*
X24359809Y-48250428D01*
X22759809Y-48250428D01*
X24359809Y-48821857D02*
X22759809Y-48821857D01*
X22759809Y-49107571D01*
X22836000Y-49279000D01*
X22988380Y-49393285D01*
X23140761Y-49450428D01*
X23445523Y-49507571D01*
X23674095Y-49507571D01*
X23978857Y-49450428D01*
X24131238Y-49393285D01*
X24283619Y-49279000D01*
X24359809Y-49107571D01*
X24359809Y-48821857D01*
X26935809Y-47050428D02*
X26173904Y-46650428D01*
X26935809Y-46364714D02*
X25335809Y-46364714D01*
X25335809Y-46821857D01*
X25412000Y-46936142D01*
X25488190Y-46993285D01*
X25640571Y-47050428D01*
X25869142Y-47050428D01*
X26021523Y-46993285D01*
X26097714Y-46936142D01*
X26173904Y-46821857D01*
X26173904Y-46364714D01*
X26935809Y-47450428D02*
X25869142Y-48079000D01*
X25869142Y-47450428D02*
X26935809Y-48079000D01*
X26935809Y-48536142D02*
X25335809Y-48536142D01*
X25335809Y-48821857D01*
X25412000Y-48993285D01*
X25564380Y-49107571D01*
X25716761Y-49164714D01*
X26021523Y-49221857D01*
X26250095Y-49221857D01*
X26554857Y-49164714D01*
X26707238Y-49107571D01*
X26859619Y-48993285D01*
X26935809Y-48821857D01*
X26935809Y-48536142D01*
X27911809Y-46193285D02*
X27911809Y-46879000D01*
X29511809Y-46536142D02*
X27911809Y-46536142D01*
X29511809Y-47164714D02*
X28445142Y-47793285D01*
X28445142Y-47164714D02*
X29511809Y-47793285D01*
X29511809Y-48250428D02*
X27911809Y-48250428D01*
X27911809Y-48536142D01*
X27988000Y-48707571D01*
X28140380Y-48821857D01*
X28292761Y-48879000D01*
X28597523Y-48936142D01*
X28826095Y-48936142D01*
X29130857Y-48879000D01*
X29283238Y-48821857D01*
X29435619Y-48707571D01*
X29511809Y-48536142D01*
X29511809Y-48250428D01*
X30487809Y-46250428D02*
X30487809Y-46993285D01*
X31097333Y-46593285D01*
X31097333Y-46764714D01*
X31173523Y-46879000D01*
X31249714Y-46936142D01*
X31402095Y-46993285D01*
X31783047Y-46993285D01*
X31935428Y-46936142D01*
X32011619Y-46879000D01*
X32087809Y-46764714D01*
X32087809Y-46421857D01*
X32011619Y-46307571D01*
X31935428Y-46250428D01*
X30487809Y-47336142D02*
X32087809Y-47736142D01*
X30487809Y-48136142D01*
X30487809Y-48421857D02*
X30487809Y-49164714D01*
X31097333Y-48764714D01*
X31097333Y-48936142D01*
X31173523Y-49050428D01*
X31249714Y-49107571D01*
X31402095Y-49164714D01*
X31783047Y-49164714D01*
X31935428Y-49107571D01*
X32011619Y-49050428D01*
X32087809Y-48936142D01*
X32087809Y-48593285D01*
X32011619Y-48479000D01*
X31935428Y-48421857D01*
X98102380Y-72925000D02*
X97626190Y-72591666D01*
X98102380Y-72353571D02*
X97102380Y-72353571D01*
X97102380Y-72734523D01*
X97150000Y-72829761D01*
X97197619Y-72877380D01*
X97292857Y-72925000D01*
X97435714Y-72925000D01*
X97530952Y-72877380D01*
X97578571Y-72829761D01*
X97626190Y-72734523D01*
X97626190Y-72353571D01*
X98054761Y-73734523D02*
X98102380Y-73639285D01*
X98102380Y-73448809D01*
X98054761Y-73353571D01*
X97959523Y-73305952D01*
X97578571Y-73305952D01*
X97483333Y-73353571D01*
X97435714Y-73448809D01*
X97435714Y-73639285D01*
X97483333Y-73734523D01*
X97578571Y-73782142D01*
X97673809Y-73782142D01*
X97769047Y-73305952D01*
X97435714Y-74115476D02*
X98102380Y-74353571D01*
X97435714Y-74591666D01*
X98007142Y-74972619D02*
X98054761Y-75020238D01*
X98102380Y-74972619D01*
X98054761Y-74925000D01*
X98007142Y-74972619D01*
X98102380Y-74972619D01*
X98102380Y-76734523D02*
X98102380Y-76163095D01*
X98102380Y-76448809D02*
X97102380Y-76448809D01*
X97245238Y-76353571D01*
X97340476Y-76258333D01*
X97388095Y-76163095D01*
X98054761Y-78639285D02*
X98102380Y-78782142D01*
X98102380Y-79020238D01*
X98054761Y-79115476D01*
X98007142Y-79163095D01*
X97911904Y-79210714D01*
X97816666Y-79210714D01*
X97721428Y-79163095D01*
X97673809Y-79115476D01*
X97626190Y-79020238D01*
X97578571Y-78829761D01*
X97530952Y-78734523D01*
X97483333Y-78686904D01*
X97388095Y-78639285D01*
X97292857Y-78639285D01*
X97197619Y-78686904D01*
X97150000Y-78734523D01*
X97102380Y-78829761D01*
X97102380Y-79067857D01*
X97150000Y-79210714D01*
X98054761Y-80020238D02*
X98102380Y-79924999D01*
X98102380Y-79734523D01*
X98054761Y-79639285D01*
X97959523Y-79591666D01*
X97578571Y-79591666D01*
X97483333Y-79639285D01*
X97435714Y-79734523D01*
X97435714Y-79924999D01*
X97483333Y-80020238D01*
X97578571Y-80067857D01*
X97673809Y-80067857D01*
X97769047Y-79591666D01*
X97435714Y-80496428D02*
X98435714Y-80496428D01*
X97483333Y-80496428D02*
X97435714Y-80591666D01*
X97435714Y-80782142D01*
X97483333Y-80877380D01*
X97530952Y-80924999D01*
X97626190Y-80972619D01*
X97911904Y-80972619D01*
X98007142Y-80924999D01*
X98054761Y-80877380D01*
X98102380Y-80782142D01*
X98102380Y-80591666D01*
X98054761Y-80496428D01*
X97197619Y-82115476D02*
X97150000Y-82163095D01*
X97102380Y-82258333D01*
X97102380Y-82496428D01*
X97150000Y-82591666D01*
X97197619Y-82639285D01*
X97292857Y-82686904D01*
X97388095Y-82686904D01*
X97530952Y-82639285D01*
X98102380Y-82067857D01*
X98102380Y-82686904D01*
X97102380Y-83305952D02*
X97102380Y-83401190D01*
X97150000Y-83496428D01*
X97197619Y-83544047D01*
X97292857Y-83591666D01*
X97483333Y-83639285D01*
X97721428Y-83639285D01*
X97911904Y-83591666D01*
X98007142Y-83544047D01*
X98054761Y-83496428D01*
X98102380Y-83401190D01*
X98102380Y-83305952D01*
X98054761Y-83210714D01*
X98007142Y-83163095D01*
X97911904Y-83115476D01*
X97721428Y-83067857D01*
X97483333Y-83067857D01*
X97292857Y-83115476D01*
X97197619Y-83163095D01*
X97150000Y-83210714D01*
X97102380Y-83305952D01*
X97197619Y-84020238D02*
X97150000Y-84067857D01*
X97102380Y-84163095D01*
X97102380Y-84401190D01*
X97150000Y-84496428D01*
X97197619Y-84544047D01*
X97292857Y-84591666D01*
X97388095Y-84591666D01*
X97530952Y-84544047D01*
X98102380Y-83972619D01*
X98102380Y-84591666D01*
X97197619Y-84972619D02*
X97150000Y-85020238D01*
X97102380Y-85115476D01*
X97102380Y-85353571D01*
X97150000Y-85448809D01*
X97197619Y-85496428D01*
X97292857Y-85544047D01*
X97388095Y-85544047D01*
X97530952Y-85496428D01*
X98102380Y-84924999D01*
X98102380Y-85544047D01*
X52602380Y-40625000D02*
X52126190Y-40291666D01*
X52602380Y-40053571D02*
X51602380Y-40053571D01*
X51602380Y-40434523D01*
X51650000Y-40529761D01*
X51697619Y-40577380D01*
X51792857Y-40625000D01*
X51935714Y-40625000D01*
X52030952Y-40577380D01*
X52078571Y-40529761D01*
X52126190Y-40434523D01*
X52126190Y-40053571D01*
X52554761Y-41434523D02*
X52602380Y-41339285D01*
X52602380Y-41148809D01*
X52554761Y-41053571D01*
X52459523Y-41005952D01*
X52078571Y-41005952D01*
X51983333Y-41053571D01*
X51935714Y-41148809D01*
X51935714Y-41339285D01*
X51983333Y-41434523D01*
X52078571Y-41482142D01*
X52173809Y-41482142D01*
X52269047Y-41005952D01*
X51935714Y-41815476D02*
X52602380Y-42053571D01*
X51935714Y-42291666D01*
X52507142Y-42672619D02*
X52554761Y-42720238D01*
X52602380Y-42672619D01*
X52554761Y-42625000D01*
X52507142Y-42672619D01*
X52602380Y-42672619D01*
X52602380Y-44434523D02*
X52602380Y-43863095D01*
X52602380Y-44148809D02*
X51602380Y-44148809D01*
X51745238Y-44053571D01*
X51840476Y-43958333D01*
X51888095Y-43863095D01*
X52554761Y-46339285D02*
X52602380Y-46482142D01*
X52602380Y-46720238D01*
X52554761Y-46815476D01*
X52507142Y-46863095D01*
X52411904Y-46910714D01*
X52316666Y-46910714D01*
X52221428Y-46863095D01*
X52173809Y-46815476D01*
X52126190Y-46720238D01*
X52078571Y-46529761D01*
X52030952Y-46434523D01*
X51983333Y-46386904D01*
X51888095Y-46339285D01*
X51792857Y-46339285D01*
X51697619Y-46386904D01*
X51650000Y-46434523D01*
X51602380Y-46529761D01*
X51602380Y-46767857D01*
X51650000Y-46910714D01*
X52554761Y-47720238D02*
X52602380Y-47625000D01*
X52602380Y-47434523D01*
X52554761Y-47339285D01*
X52459523Y-47291666D01*
X52078571Y-47291666D01*
X51983333Y-47339285D01*
X51935714Y-47434523D01*
X51935714Y-47625000D01*
X51983333Y-47720238D01*
X52078571Y-47767857D01*
X52173809Y-47767857D01*
X52269047Y-47291666D01*
X51935714Y-48196428D02*
X52935714Y-48196428D01*
X51983333Y-48196428D02*
X51935714Y-48291666D01*
X51935714Y-48482142D01*
X51983333Y-48577380D01*
X52030952Y-48625000D01*
X52126190Y-48672619D01*
X52411904Y-48672619D01*
X52507142Y-48625000D01*
X52554761Y-48577380D01*
X52602380Y-48482142D01*
X52602380Y-48291666D01*
X52554761Y-48196428D01*
X51697619Y-49815476D02*
X51650000Y-49863095D01*
X51602380Y-49958333D01*
X51602380Y-50196428D01*
X51650000Y-50291666D01*
X51697619Y-50339285D01*
X51792857Y-50386904D01*
X51888095Y-50386904D01*
X52030952Y-50339285D01*
X52602380Y-49767857D01*
X52602380Y-50386904D01*
X51602380Y-51005952D02*
X51602380Y-51101190D01*
X51650000Y-51196428D01*
X51697619Y-51244047D01*
X51792857Y-51291666D01*
X51983333Y-51339285D01*
X52221428Y-51339285D01*
X52411904Y-51291666D01*
X52507142Y-51244047D01*
X52554761Y-51196428D01*
X52602380Y-51101190D01*
X52602380Y-51005952D01*
X52554761Y-50910714D01*
X52507142Y-50863095D01*
X52411904Y-50815476D01*
X52221428Y-50767857D01*
X51983333Y-50767857D01*
X51792857Y-50815476D01*
X51697619Y-50863095D01*
X51650000Y-50910714D01*
X51602380Y-51005952D01*
X51697619Y-51720238D02*
X51650000Y-51767857D01*
X51602380Y-51863095D01*
X51602380Y-52101190D01*
X51650000Y-52196428D01*
X51697619Y-52244047D01*
X51792857Y-52291666D01*
X51888095Y-52291666D01*
X52030952Y-52244047D01*
X52602380Y-51672619D01*
X52602380Y-52291666D01*
X51697619Y-52672619D02*
X51650000Y-52720238D01*
X51602380Y-52815476D01*
X51602380Y-53053571D01*
X51650000Y-53148809D01*
X51697619Y-53196428D01*
X51792857Y-53244047D01*
X51888095Y-53244047D01*
X52030952Y-53196428D01*
X52602380Y-52625000D01*
X52602380Y-53244047D01*
D11*
G04 #@! TO.C,C9*
X41117142Y-77653333D02*
X41164761Y-77605714D01*
X41212380Y-77462857D01*
X41212380Y-77367619D01*
X41164761Y-77224761D01*
X41069523Y-77129523D01*
X40974285Y-77081904D01*
X40783809Y-77034285D01*
X40640952Y-77034285D01*
X40450476Y-77081904D01*
X40355238Y-77129523D01*
X40260000Y-77224761D01*
X40212380Y-77367619D01*
X40212380Y-77462857D01*
X40260000Y-77605714D01*
X40307619Y-77653333D01*
X41212380Y-78129523D02*
X41212380Y-78320000D01*
X41164761Y-78415238D01*
X41117142Y-78462857D01*
X40974285Y-78558095D01*
X40783809Y-78605714D01*
X40402857Y-78605714D01*
X40307619Y-78558095D01*
X40260000Y-78510476D01*
X40212380Y-78415238D01*
X40212380Y-78224761D01*
X40260000Y-78129523D01*
X40307619Y-78081904D01*
X40402857Y-78034285D01*
X40640952Y-78034285D01*
X40736190Y-78081904D01*
X40783809Y-78129523D01*
X40831428Y-78224761D01*
X40831428Y-78415238D01*
X40783809Y-78510476D01*
X40736190Y-78558095D01*
X40640952Y-78605714D01*
X86617142Y-45353333D02*
X86664761Y-45305714D01*
X86712380Y-45162857D01*
X86712380Y-45067619D01*
X86664761Y-44924761D01*
X86569523Y-44829523D01*
X86474285Y-44781904D01*
X86283809Y-44734285D01*
X86140952Y-44734285D01*
X85950476Y-44781904D01*
X85855238Y-44829523D01*
X85760000Y-44924761D01*
X85712380Y-45067619D01*
X85712380Y-45162857D01*
X85760000Y-45305714D01*
X85807619Y-45353333D01*
X86712380Y-45829523D02*
X86712380Y-46020000D01*
X86664761Y-46115238D01*
X86617142Y-46162857D01*
X86474285Y-46258095D01*
X86283809Y-46305714D01*
X85902857Y-46305714D01*
X85807619Y-46258095D01*
X85760000Y-46210476D01*
X85712380Y-46115238D01*
X85712380Y-45924761D01*
X85760000Y-45829523D01*
X85807619Y-45781904D01*
X85902857Y-45734285D01*
X86140952Y-45734285D01*
X86236190Y-45781904D01*
X86283809Y-45829523D01*
X86331428Y-45924761D01*
X86331428Y-46115238D01*
X86283809Y-46210476D01*
X86236190Y-46258095D01*
X86140952Y-46305714D01*
X86617142Y-77653333D02*
X86664761Y-77605714D01*
X86712380Y-77462857D01*
X86712380Y-77367619D01*
X86664761Y-77224761D01*
X86569523Y-77129523D01*
X86474285Y-77081904D01*
X86283809Y-77034285D01*
X86140952Y-77034285D01*
X85950476Y-77081904D01*
X85855238Y-77129523D01*
X85760000Y-77224761D01*
X85712380Y-77367619D01*
X85712380Y-77462857D01*
X85760000Y-77605714D01*
X85807619Y-77653333D01*
X86712380Y-78129523D02*
X86712380Y-78320000D01*
X86664761Y-78415238D01*
X86617142Y-78462857D01*
X86474285Y-78558095D01*
X86283809Y-78605714D01*
X85902857Y-78605714D01*
X85807619Y-78558095D01*
X85760000Y-78510476D01*
X85712380Y-78415238D01*
X85712380Y-78224761D01*
X85760000Y-78129523D01*
X85807619Y-78081904D01*
X85902857Y-78034285D01*
X86140952Y-78034285D01*
X86236190Y-78081904D01*
X86283809Y-78129523D01*
X86331428Y-78224761D01*
X86331428Y-78415238D01*
X86283809Y-78510476D01*
X86236190Y-78558095D01*
X86140952Y-78605714D01*
G04 #@! TO.C,R1*
X45702380Y-77653333D02*
X45226190Y-77320000D01*
X45702380Y-77081904D02*
X44702380Y-77081904D01*
X44702380Y-77462857D01*
X44750000Y-77558095D01*
X44797619Y-77605714D01*
X44892857Y-77653333D01*
X45035714Y-77653333D01*
X45130952Y-77605714D01*
X45178571Y-77558095D01*
X45226190Y-77462857D01*
X45226190Y-77081904D01*
X45702380Y-78605714D02*
X45702380Y-78034285D01*
X45702380Y-78320000D02*
X44702380Y-78320000D01*
X44845238Y-78224761D01*
X44940476Y-78129523D01*
X44988095Y-78034285D01*
G04 #@! TO.C,C9*
X41117142Y-45353333D02*
X41164761Y-45305714D01*
X41212380Y-45162857D01*
X41212380Y-45067619D01*
X41164761Y-44924761D01*
X41069523Y-44829523D01*
X40974285Y-44781904D01*
X40783809Y-44734285D01*
X40640952Y-44734285D01*
X40450476Y-44781904D01*
X40355238Y-44829523D01*
X40260000Y-44924761D01*
X40212380Y-45067619D01*
X40212380Y-45162857D01*
X40260000Y-45305714D01*
X40307619Y-45353333D01*
X41212380Y-45829523D02*
X41212380Y-46020000D01*
X41164761Y-46115238D01*
X41117142Y-46162857D01*
X40974285Y-46258095D01*
X40783809Y-46305714D01*
X40402857Y-46305714D01*
X40307619Y-46258095D01*
X40260000Y-46210476D01*
X40212380Y-46115238D01*
X40212380Y-45924761D01*
X40260000Y-45829523D01*
X40307619Y-45781904D01*
X40402857Y-45734285D01*
X40640952Y-45734285D01*
X40736190Y-45781904D01*
X40783809Y-45829523D01*
X40831428Y-45924761D01*
X40831428Y-46115238D01*
X40783809Y-46210476D01*
X40736190Y-46258095D01*
X40640952Y-46305714D01*
G04 #@! TO.C,J1*
X33627380Y-82516666D02*
X34341666Y-82516666D01*
X34484523Y-82469047D01*
X34579761Y-82373809D01*
X34627380Y-82230952D01*
X34627380Y-82135714D01*
X34627380Y-83516666D02*
X34627380Y-82945238D01*
X34627380Y-83230952D02*
X33627380Y-83230952D01*
X33770238Y-83135714D01*
X33865476Y-83040476D01*
X33913095Y-82945238D01*
G04 #@! TO.C,R1*
X91202380Y-77653333D02*
X90726190Y-77320000D01*
X91202380Y-77081904D02*
X90202380Y-77081904D01*
X90202380Y-77462857D01*
X90250000Y-77558095D01*
X90297619Y-77605714D01*
X90392857Y-77653333D01*
X90535714Y-77653333D01*
X90630952Y-77605714D01*
X90678571Y-77558095D01*
X90726190Y-77462857D01*
X90726190Y-77081904D01*
X91202380Y-78605714D02*
X91202380Y-78034285D01*
X91202380Y-78320000D02*
X90202380Y-78320000D01*
X90345238Y-78224761D01*
X90440476Y-78129523D01*
X90488095Y-78034285D01*
G04 #@! TO.C,J1*
X79127380Y-50216666D02*
X79841666Y-50216666D01*
X79984523Y-50169047D01*
X80079761Y-50073809D01*
X80127380Y-49930952D01*
X80127380Y-49835714D01*
X80127380Y-51216666D02*
X80127380Y-50645238D01*
X80127380Y-50930952D02*
X79127380Y-50930952D01*
X79270238Y-50835714D01*
X79365476Y-50740476D01*
X79413095Y-50645238D01*
G04 #@! TO.C,R1*
X91202380Y-45353333D02*
X90726190Y-45020000D01*
X91202380Y-44781904D02*
X90202380Y-44781904D01*
X90202380Y-45162857D01*
X90250000Y-45258095D01*
X90297619Y-45305714D01*
X90392857Y-45353333D01*
X90535714Y-45353333D01*
X90630952Y-45305714D01*
X90678571Y-45258095D01*
X90726190Y-45162857D01*
X90726190Y-44781904D01*
X91202380Y-46305714D02*
X91202380Y-45734285D01*
X91202380Y-46020000D02*
X90202380Y-46020000D01*
X90345238Y-45924761D01*
X90440476Y-45829523D01*
X90488095Y-45734285D01*
X45702380Y-45353333D02*
X45226190Y-45020000D01*
X45702380Y-44781904D02*
X44702380Y-44781904D01*
X44702380Y-45162857D01*
X44750000Y-45258095D01*
X44797619Y-45305714D01*
X44892857Y-45353333D01*
X45035714Y-45353333D01*
X45130952Y-45305714D01*
X45178571Y-45258095D01*
X45226190Y-45162857D01*
X45226190Y-44781904D01*
X45702380Y-46305714D02*
X45702380Y-45734285D01*
X45702380Y-46020000D02*
X44702380Y-46020000D01*
X44845238Y-45924761D01*
X44940476Y-45829523D01*
X44988095Y-45734285D01*
G04 #@! TO.C,J1*
X79127380Y-82516666D02*
X79841666Y-82516666D01*
X79984523Y-82469047D01*
X80079761Y-82373809D01*
X80127380Y-82230952D01*
X80127380Y-82135714D01*
X80127380Y-83516666D02*
X80127380Y-82945238D01*
X80127380Y-83230952D02*
X79127380Y-83230952D01*
X79270238Y-83135714D01*
X79365476Y-83040476D01*
X79413095Y-82945238D01*
X33627380Y-50216666D02*
X34341666Y-50216666D01*
X34484523Y-50169047D01*
X34579761Y-50073809D01*
X34627380Y-49930952D01*
X34627380Y-49835714D01*
X34627380Y-51216666D02*
X34627380Y-50645238D01*
X34627380Y-50930952D02*
X33627380Y-50930952D01*
X33770238Y-50835714D01*
X33865476Y-50740476D01*
X33913095Y-50645238D01*
D12*
G04 #@! TO.C,C9*
X41680000Y-77673733D02*
X41680000Y-77966267D01*
X42700000Y-77673733D02*
X42700000Y-77966267D01*
X87180000Y-45373733D02*
X87180000Y-45666267D01*
X88200000Y-45373733D02*
X88200000Y-45666267D01*
X87180000Y-77673733D02*
X87180000Y-77966267D01*
X88200000Y-77673733D02*
X88200000Y-77966267D01*
G04 #@! TO.C,R1*
X43297500Y-78074724D02*
X43297500Y-77565276D01*
X44342500Y-78074724D02*
X44342500Y-77565276D01*
G04 #@! TO.C,C9*
X42700000Y-45373733D02*
X42700000Y-45666267D01*
X41680000Y-45373733D02*
X41680000Y-45666267D01*
G04 #@! TO.C,J1*
X31270000Y-84980000D02*
X32600000Y-84980000D01*
X30000000Y-84980000D02*
X30000000Y-82320000D01*
X30000000Y-82320000D02*
X22320000Y-82320000D01*
X22320000Y-84980000D02*
X22320000Y-82320000D01*
X30000000Y-84980000D02*
X22320000Y-84980000D01*
X32600000Y-84980000D02*
X32600000Y-83650000D01*
G04 #@! TO.C,R1*
X89842500Y-78074724D02*
X89842500Y-77565276D01*
X88797500Y-78074724D02*
X88797500Y-77565276D01*
G04 #@! TO.C,J1*
X76770000Y-52680000D02*
X78100000Y-52680000D01*
X75500000Y-50020000D02*
X67820000Y-50020000D01*
X75500000Y-52680000D02*
X75500000Y-50020000D01*
X75500000Y-52680000D02*
X67820000Y-52680000D01*
X67820000Y-52680000D02*
X67820000Y-50020000D01*
X78100000Y-52680000D02*
X78100000Y-51350000D01*
G04 #@! TO.C,R1*
X88797500Y-45774724D02*
X88797500Y-45265276D01*
X89842500Y-45774724D02*
X89842500Y-45265276D01*
X43297500Y-45774724D02*
X43297500Y-45265276D01*
X44342500Y-45774724D02*
X44342500Y-45265276D01*
G04 #@! TO.C,J1*
X75500000Y-84980000D02*
X67820000Y-84980000D01*
X67820000Y-84980000D02*
X67820000Y-82320000D01*
X76770000Y-84980000D02*
X78100000Y-84980000D01*
X75500000Y-84980000D02*
X75500000Y-82320000D01*
X75500000Y-82320000D02*
X67820000Y-82320000D01*
X78100000Y-84980000D02*
X78100000Y-83650000D01*
X30000000Y-52680000D02*
X22320000Y-52680000D01*
X30000000Y-52680000D02*
X30000000Y-50020000D01*
X31270000Y-52680000D02*
X32600000Y-52680000D01*
X30000000Y-50020000D02*
X22320000Y-50020000D01*
X32600000Y-52680000D02*
X32600000Y-51350000D01*
X22320000Y-52680000D02*
X22320000Y-50020000D01*
G04 #@! TD*
%LPC*%
D13*
G04 #@! TO.C,REF\u002A\u002A*
X96000000Y-93600000D03*
G04 #@! TD*
D14*
G04 #@! TO.C,J2*
X64960000Y-61750000D03*
D15*
X67500000Y-61750000D03*
X70040000Y-61750000D03*
X72580000Y-61750000D03*
X75120000Y-61750000D03*
X77660000Y-61750000D03*
X80200000Y-61750000D03*
X82740000Y-61750000D03*
X85280000Y-61750000D03*
X87820000Y-61750000D03*
X90360000Y-61750000D03*
X92900000Y-61750000D03*
G04 #@! TD*
D13*
G04 #@! TO.C,REF\u002A\u002A*
X20000000Y-93600000D03*
G04 #@! TD*
G04 #@! TO.C,REF\u002A\u002A*
X20000000Y-20000000D03*
G04 #@! TD*
D14*
G04 #@! TO.C,J2*
X19460000Y-61750000D03*
D15*
X22000000Y-61750000D03*
X24540000Y-61750000D03*
X27080000Y-61750000D03*
X29620000Y-61750000D03*
X32160000Y-61750000D03*
X34700000Y-61750000D03*
X37240000Y-61750000D03*
X39780000Y-61750000D03*
X42320000Y-61750000D03*
X44860000Y-61750000D03*
X47400000Y-61750000D03*
G04 #@! TD*
D14*
G04 #@! TO.C,J2*
X19460000Y-29450000D03*
D15*
X22000000Y-29450000D03*
X24540000Y-29450000D03*
X27080000Y-29450000D03*
X29620000Y-29450000D03*
X32160000Y-29450000D03*
X34700000Y-29450000D03*
X37240000Y-29450000D03*
X39780000Y-29450000D03*
X42320000Y-29450000D03*
X44860000Y-29450000D03*
X47400000Y-29450000D03*
G04 #@! TD*
D13*
G04 #@! TO.C,REF\u002A\u002A*
X96000000Y-20000000D03*
G04 #@! TD*
D14*
G04 #@! TO.C,J2*
X64960000Y-29450000D03*
D15*
X67500000Y-29450000D03*
X70040000Y-29450000D03*
X72580000Y-29450000D03*
X75120000Y-29450000D03*
X77660000Y-29450000D03*
X80200000Y-29450000D03*
X82740000Y-29450000D03*
X85280000Y-29450000D03*
X87820000Y-29450000D03*
X90360000Y-29450000D03*
X92900000Y-29450000D03*
G04 #@! TD*
D16*
G04 #@! TO.C,C9*
X42190000Y-76957500D03*
X42190000Y-78682500D03*
G04 #@! TD*
G04 #@! TO.C,C9*
X87690000Y-44657500D03*
X87690000Y-46382500D03*
G04 #@! TD*
D17*
G04 #@! TO.C,REF\u002A\u002A*
X92000000Y-93600000D03*
G04 #@! TD*
D16*
G04 #@! TO.C,C9*
X87690000Y-76957500D03*
X87690000Y-78682500D03*
G04 #@! TD*
D18*
G04 #@! TO.C,R1*
X43820000Y-78732500D03*
X43820000Y-76907500D03*
G04 #@! TD*
D17*
G04 #@! TO.C,REF\u002A\u002A*
X24000000Y-93600000D03*
G04 #@! TD*
D16*
G04 #@! TO.C,C9*
X42190000Y-44657500D03*
X42190000Y-46382500D03*
G04 #@! TD*
D17*
G04 #@! TO.C,REF\u002A\u002A*
X24000000Y-20000000D03*
G04 #@! TD*
D14*
G04 #@! TO.C,J1*
X31270000Y-83650000D03*
D15*
X28730000Y-83650000D03*
X26190000Y-83650000D03*
X23650000Y-83650000D03*
G04 #@! TD*
D18*
G04 #@! TO.C,R1*
X89320000Y-78732500D03*
X89320000Y-76907500D03*
G04 #@! TD*
D14*
G04 #@! TO.C,J1*
X76770000Y-51350000D03*
D15*
X74230000Y-51350000D03*
X71690000Y-51350000D03*
X69150000Y-51350000D03*
G04 #@! TD*
D18*
G04 #@! TO.C,R1*
X89320000Y-46432500D03*
X89320000Y-44607500D03*
G04 #@! TD*
D17*
G04 #@! TO.C,REF\u002A\u002A*
X92000000Y-20000000D03*
G04 #@! TD*
D18*
G04 #@! TO.C,R1*
X43820000Y-46432500D03*
X43820000Y-44607500D03*
G04 #@! TD*
D14*
G04 #@! TO.C,J1*
X76770000Y-83650000D03*
D15*
X74230000Y-83650000D03*
X71690000Y-83650000D03*
X69150000Y-83650000D03*
G04 #@! TD*
D14*
G04 #@! TO.C,J1*
X31270000Y-51350000D03*
D15*
X28730000Y-51350000D03*
X26190000Y-51350000D03*
X23650000Y-51350000D03*
G04 #@! TD*
M02*
